/* XPM */
static char *alignUMax[] = {
/* width height num_colors chars_per_pixel */
"    24    24        8            1",
/* colors */
"` c #0e0607",
". c #c87b7a",
"# c #a40604",
"a c #c4c2c4",
"b c #143495",
"c c #645250",
"d c #f9090a",
"e c #4f1719",
/* pixels */
"aaaaaaaaaaaaaaaaaaaaaaaa",
"aaaaaaaaaaaaaaaaaaaaaaaa",
"aaaaaaaaaaaaaaaaabbaaaaa",
"aaaaaaaaaaaaaaaaabbaaaaa",
"aaaaaaaaaaaaaaaaabbaaaaa",
"aaaaaaaaaaaaaaaaabbaaaaa",
"aaaaaaaaaaaaaaaaabbaaaaa",
"aaaaaaaaaaaaaaaaabbaaaaa",
"aaaaaaaaaaaaaaaaabbaaaaa",
"aaaaaaaaaaad..aaabbaaaaa",
"aaaaaaaaaaaddddaabbaaaaa",
"aaaaaadddddddddddbbaaaaa",
"aaaaaa`````ddddd.bbaaaaa",
"aaaaaaaaaacd#ee.abbaaaaa",
"aaaaaaaaaa.ecaaaabbaaaaa",
"aaaaaaaaaaaaaaaaabbaaaaa",
"aaaaaaaaaaaaaaaaabbaaaaa",
"aaaaaaaaaaaaaaaaabbaaaaa",
"aaaaaaaaaaaaaaaaabbaaaaa",
"aaaaaaaaaaaaaaaaabbaaaaa",
"aaaaaaaaaaaaaaaaabbaaaaa",
"aaaaaaaaaaaaaaaaabbaaaaa",
"aaaaaaaaaaaaaaaaaaaaaaaa",
"aaaaaaaaaaaaaaaaaaaaaaaa"
};
