/* XPM */
static char *at_filter_off[] = {
/* columns rows colors chars-per-pixel */
"18 18 99 2",
"   c #555658",
".  c #5D5D5F",
"X  c #5F6061",
"o  c #616163",
"O  c #626263",
"+  c #646466",
"@  c #656566",
"#  c #656666",
"$  c #666667",
"%  c #676768",
"&  c #676869",
"*  c #686869",
"=  c #69696A",
"-  c #696A6A",
";  c #6A6A6B",
":  c #737273",
">  c #767676",
",  c #7B7B7A",
"<  c #7E7E7D",
"1  c #81807F",
"2  c #838381",
"3  c #848381",
"4  c #868583",
"5  c #878684",
"6  c #888785",
"7  c #8B8A88",
"8  c #8D8B89",
"9  c #8D8C8A",
"0  c #8F8D8B",
"q  c #93918E",
"w  c #94928F",
"e  c #94938F",
"r  c #999794",
"t  c #999895",
"y  c #9A9995",
"u  c #9D9C98",
"i  c #9E9C98",
"p  c #A09E9A",
"a  c #A1A09B",
"s  c #A4A29E",
"d  c #A5A39F",
"f  c #A6A39F",
"g  c #A8A7A2",
"h  c #ACAAA5",
"j  c #AEABA7",
"k  c #AFACA7",
"l  c #B1AFA9",
"z  c #B2B0AB",
"x  c #B3B1AB",
"c  c #B4B1AC",
"v  c #B8B5AF",
"b  c #B9B6B0",
"n  c #BAB7B2",
"m  c #BCB8B3",
"M  c #BCBAB3",
"N  c #BDBAB4",
"B  c #C0BEB7",
"V  c #C1BEB7",
"C  c #C2BFB9",
"Z  c #C5C1BA",
"A  c #C7C3BC",
"S  c #C8C4BD",
"D  c #C9C5BF",
"F  c #CECAC3",
"G  c #CECBC3",
"H  c #D2CEC6",
"J  c #D2CFC7",
"K  c #D3CEC7",
"L  c #D3CFC7",
"P  c #D4D0C8",
"I  c #D5D1C9",
"U  c #D6D2CA",
"Y  c #D7D3CB",
"T  c #D8D3CB",
"R  c #D9D3CB",
"E  c #D8D4CC",
"W  c #D9D5CC",
"Q  c #D9D5CD",
"!  c #D9D6CC",
"~  c #DAD6CE",
"^  c #DBD7CE",
"/  c #DBD7CF",
"(  c #DCD8CF",
")  c #DDD8D0",
"_  c #DED9D1",
"`  c #DFDAD2",
"'  c #E0DCD3",
"]  c #E1DCD4",
"[  c #E2DED5",
"{  c #E3DED5",
"}  c #E4DFD6",
"|  c #E4E0D6",
" . c #E5E1D7",
".. c #E6E2D8",
"X. c #E7E2D8",
"o. c #E8E3DA",
"O. c #E9E4DA",
"+. c #EDE7DE",
"@. c #F3EEE4",
/* pixels */
"P P P P J )  .] ] | ] ] ../ K P P P ",
"P P Q P Q h e r y y u r q n / P P P ",
"P P G K O.e f k j h d M y d ..L P P ",
"P ) 5 < Z c G @.+.A : v D x / { J P ",
"P ) 5 O & + > i J V # - * + 0 z Q P ",
"P ) 7 + + * * X Z D - * + * . 1 ] P ",
"P ] , O 0 0 u L ` v   1 0 1 N E U P ",
"P Q g h X.M P Q Q D y G O. .E U P P ",
"L L ( ] E 4 V E J E  .] l a ] L P P ",
"I L ' ] ! 4 V E J E  .] l a ] L P P ",
"L ^ g h X.M L Q Q D r G O. .E E P P ",
"L ] , O 0 8 i L ` v   1 0 1 M E P P ",
"L ] 8 # + * * O Z D - ; + * . 1 ) P ",
"L ( 5 O * + > i L V # - * # 8 c Q P ",
"P / 4 < Z x G @.+.A : v D x / | J P ",
"P P G J O.e s k k h s M r s  .L P P ",
"P P E E Q h q r r y i y q v ^ P P P ",
"P P P P L `  .]  .] ] |  .^ K P P P "
};
