/* XPM */
static char *at_filter_on[] = {
/* columns rows colors chars-per-pixel */
"18 18 89 1",
"  c black",
". c #0F0F0E",
"X c #21211F",
"o c #242422",
"O c #2D2D2B",
"+ c #30302E",
"@ c #31302E",
"# c #33312F",
"$ c #353432",
"% c #3B3A38",
"& c #3F3D3B",
"* c #565451",
"= c #575553",
"- c #585653",
"; c #5C5A57",
": c #5C5B57",
"> c #5D5B57",
", c #5D5B58",
"< c #5E5C59",
"1 c #615F5C",
"2 c #706E69",
"3 c #7D7B76",
"4 c #A30000",
"5 c #A60000",
"6 c #A70000",
"7 c #AD1919",
"8 c #807E79",
"9 c #817F7A",
"0 c #B94D4A",
"q c #BA514E",
"w c #BD6864",
"e c #C06E6A",
"r c #8B8983",
"t c #8D8A84",
"y c #918E88",
"u c #918F89",
"i c #94918C",
"p c #98958F",
"a c #999690",
"s c #9D9A94",
"d c #A09C96",
"f c #A09D97",
"g c #ACA9A2",
"h c #B8B4AE",
"j c #BBB7B0",
"k c #BFBDB5",
"l c #C99C96",
"z c #C99F99",
"x c #CA9F99",
"c c #C4C0B8",
"v c #D1C1BA",
"b c #D2C5BD",
"n c #CDC9C1",
"m c #CFCCC4",
"M c #D3CFC7",
"N c #D4CFC7",
"B c #D3D0C9",
"V c #D4D0C8",
"C c #D4D1C9",
"Z c #D5D1C9",
"A c #D4D3CB",
"S c #D6D2CA",
"D c #D7D5CD",
"F c #D8D4CC",
"G c #DAD5CD",
"H c #DBD7CE",
"J c #D6DAD2",
"K c #D6DBD2",
"L c #D7DBD3",
"P c #D7DFD7",
"I c #DDD9D0",
"U c #DEDAD1",
"Y c #DFDAD2",
"T c #DFDBD3",
"R c #DEE7DE",
"E c #DBE8DF",
"W c #E0DBD3",
"Q c #E0DCD4",
"! c #E0DDD5",
"~ c #E1DDD4",
"^ c #E1DDD5",
"/ c #E2DED5",
"( c #E3DED6",
") c #E5E1D8",
"_ c #E6E2D9",
"` c #EAE5DC",
"' c #ECE8DF",
"] c #EEEAE1",
"[ c #F4F0E6",
/* pixels */
"VVVVM^)))))))YVVVV",
"VVVVH9<>:<<>1sYVVV",
"VVnM'%riyyyp:=)VVV",
"V^Oogsj[^YT`p:)VVV",
"V^#   .2hGVTt=)VVV",
"V^#     s^JDchFVVV",
"V^X $&=VVbzBERSMVV",
"VH38]iVSLz40wwvEVV",
"VM((TOkFLx66447qKV",
"VM(^TOkVLx66667qKV",
"VH38]iVFLl40ewvPVV",
"M(X $&=VVbzVERSVVV",
"V/#     s^JGchGVVV",
"VT#   .2jGVTt=)VVV",
"M^+ogsh[)YT`p:)VVV",
"VMnm]%tyyyyp:=)VVV",
"VVSVH9<:><::1sYMMV",
"VVVVM())))))_UBVVV"
};
