/* XPM */
static char *magick[] = {
/* columns rows colors chars-per-pixel */
"32 32 255 2",
"   c #010100",
".  c #050302",
"X  c #060503",
"o  c #060605",
"O  c #020405",
"+  c #03070a",
"@  c #04090a",
"#  c #090603",
"$  c #090705",
"%  c #0a0806",
"&  c #0d0a06",
"*  c #0d0b09",
"=  c #0e0e0c",
"-  c #0c0c09",
";  c #060d10",
":  c #071115",
">  c #0e1617",
",  c #110e07",
"<  c #120d09",
"1  c #140e09",
"2  c #100d0b",
"3  c #11110e",
"4  c #16110a",
"5  c #16110d",
"6  c #19120d",
"7  c #1d160e",
"8  c #1a130c",
"9  c #1e180e",
"0  c #161612",
"q  c #1b1511",
"w  c #1b1915",
"e  c #1d1c19",
"r  c #0e1e24",
"t  c #1f2019",
"y  c #0f2127",
"u  c #11242b",
"i  c #132831",
"p  c #1c2c31",
"a  c #19313b",
"s  c #21170f",
"d  c #22190f",
"f  c #221912",
"g  c #241c14",
"h  c #231f19",
"j  c #291e14",
"k  c #24221c",
"l  c #2e2215",
"z  c #292116",
"x  c #2e251d",
"c  c #2a231b",
"v  c #322416",
"b  c #33251a",
"n  c #332815",
"m  c #362b1d",
"M  c #3a2c1c",
"N  c #3a2519",
"B  c #39301d",
"V  c #272621",
"C  c #2a2621",
"Z  c #2d2b25",
"A  c #2c2c28",
"S  c #312b22",
"D  c #332d25",
"F  c #302f28",
"G  c #3a2d22",
"H  c #353127",
"J  c #35322a",
"K  c #3d3122",
"L  c #3c352c",
"P  c #3f382f",
"I  c #353630",
"U  c #3d3b31",
"Y  c #3e3f3c",
"T  c #3f4036",
"R  c #1e414f",
"E  c #224755",
"W  c #224959",
"Q  c #344040",
"!  c #275162",
"~  c #2b5c6f",
"^  c #2d5e73",
"/  c #2f657a",
"(  c #33667a",
")  c #423223",
"_  c #463626",
"`  c #433324",
"'  c #473629",
"]  c #40382f",
"[  c #4c3a2a",
"{  c #433e35",
"}  c #533f2e",
"|  c #464033",
" . c #42423c",
".. c #4a4235",
"X. c #4c4539",
"o. c #4c493c",
"O. c #524a3d",
"+. c #474840",
"@. c #4c4c42",
"#. c #514e40",
"$. c #514e48",
"%. c #565142",
"&. c #555344",
"*. c #53534e",
"=. c #5d5644",
"-. c #5c564a",
";. c #5f5f4d",
":. c #595752",
">. c #5b5852",
",. c #5e604f",
"<. c #645c4d",
"1. c #635f50",
"2. c #64614e",
"3. c #656451",
"4. c #6a6453",
"5. c #6a665b",
"6. c #6c6956",
"7. c #6e6c56",
"8. c #6b6b5d",
"9. c #706a52",
"0. c #716d5c",
"q. c #796e5e",
"w. c #74725c",
"e. c #7d775c",
"r. c #6f7066",
"t. c #657270",
"y. c #737464",
"u. c #7c7762",
"i. c #7c7963",
"p. c #78786b",
"a. c #77746b",
"s. c #336c83",
"d. c #38738a",
"f. c #36748c",
"g. c #3c7e99",
"h. c #497e90",
"j. c #3d839f",
"k. c #438eac",
"l. c #4491af",
"z. c #4694b4",
"x. c #4e98b5",
"c. c #4b9cbe",
"v. c #5aa0ba",
"b. c #6d8985",
"n. c #648f96",
"m. c #7c9a9d",
"M. c #639fb2",
"N. c #65a7bb",
"B. c #79abb6",
"V. c #4fa8cd",
"C. c #50aacf",
"Z. c #57aaca",
"A. c #59afcf",
"S. c #53aed3",
"D. c #5fb1ce",
"F. c #53b1d6",
"G. c #54b1d7",
"H. c #54b2d8",
"J. c #7fbdc9",
"K. c #827f67",
"L. c #837b6b",
"P. c #837c72",
"I. c #88836e",
"U. c #8d8a6f",
"Y. c #84826d",
"T. c #868575",
"R. c #8a8779",
"E. c #8c8c74",
"W. c #8d8b7c",
"Q. c #908f74",
"!. c #938e7a",
"~. c #939175",
"^. c #97957b",
"/. c #97987e",
"(. c #989776",
"). c #9a9778",
"_. c #999a7c",
"`. c #a79f7d",
"'. c #8c8d82",
"]. c #949282",
"[. c #999683",
"{. c #9b9a83",
"}. c #9c9b8b",
"|. c #959490",
" X c #9aa28f",
".X c #92aa9d",
"XX c #a19f83",
"oX c #a39e93",
"OX c #a2a183",
"+X c #a3a18e",
"@X c #a8a687",
"#X c #aead89",
"$X c #a1a49f",
"%X c #a9a791",
"&X c #aca996",
"*X c #a3a698",
"=X c #b1ac89",
"-X c #b1ae93",
";X c #b2ae99",
":X c #b3b495",
">X c #b3b49e",
",X c #b7ba9f",
"<X c #bdbc9a",
"1X c #b9b29b",
"2X c #aaaba3",
"3X c #adb3af",
"4X c #b6b5a4",
"5X c #bdbaa3",
"6X c #bebba9",
"7X c #b4b7b0",
"8X c #bcbeb3",
"9X c #bec1a1",
"0X c #c1bfaf",
"qX c #c3bba4",
"wX c #c4c39e",
"eX c #c5c5a3",
"rX c #c7c3a9",
"tX c #c7c9a7",
"yX c #c7c9a9",
"uX c #c9c5a4",
"iX c #ccc5ab",
"pX c #cacaa5",
"aX c #cfcdaa",
"sX c #c8cabf",
"dX c #ced7b6",
"fX c #d5ceb4",
"gX c #d1d2a7",
"hX c #d4d3ab",
"jX c #d9d5ad",
"kX c #d5d5ba",
"lX c #dad1b6",
"zX c #dddcb2",
"xX c #dbdcbb",
"cX c #d4d4b6",
"vX c #e0dfb5",
"bX c #e0deb9",
"nX c #e2e1b6",
"mX c #e2e3bd",
"MX c #c4e4cf",
"NX c #e3dfc2",
"BX c #e5e6ca",
"VX c #ededc1",
"CX c #eaeacf",
"ZX c #e8e7d2",
"AX c #eeefd5",
"SX c #eef0c3",
"DX c #f1efc3",
"FX c #f4f3c5",
"GX c #fcfccc",
"HX c #f5f5cc",
"JX c #f1f1d3",
"KX c #fefed6",
"LX c #fcffd8",
"PX c #fefee1",
"IX c #ffffec",
/* pixels */
"W.fXJXxXwXhXGXSXGXLXMXJ.D.F.F.H.H.H.H.H.H.H.H.H.H.H.H.H.H.H.H.H.",
"rXNXkXJXtXgXVXHXFXFXGXdX.Xn.g.c.S.F.H.H.H.H.H.H.H.H.H.H.H.H.H.H.",
"PXxXxXxXaXhXzXGXFXVXLX<XpXE.> a ( z.C.F.H.H.H.H.H.H.H.H.H.H.H.H.",
"<XxXZXAXCXaX^.nXVXVXKXE.FXhX#.. @ y E d.z.V.F.H.H.H.H.H.H.H.H.H.",
"xX-X%XjXHXIX&.w.vXDXbX:XFXGX=X*   X . = p ( c.S.F.H.H.H.H.H.H.H.",
"BXkX9XpXuXpXmXGXbXzXyXzXhXvX`.8 5 k & 2 2 0 a ( x.S.F.H.H.H.H.H.",
"BXxX:XOXXXOX8.zXGXFXI.hX3.;.O.X $ % q G g & X - Q h.Z.H.H.H.H.H.",
"&XcX:XOXzXhXOX(.#XzXwX).=.0 3   . $ G _ _ f < X < U b.N.S.F.H.H.",
"a.>X,X{.<XeXgX<X@X=XtXjXe.9 $ X   1 ` } [ ) x 5   2 o. XB.A.H.H.",
"}.T.XX{.XXOXeXgXpXpX_.E.3.w 2 c k J ) _ [ _ m 8 2   q X.y.m.v.S.",
"5.p.T.u.!.{ X.:XaXhX/.w.X X % 0 k 3 3.9.K [ ` & 7 1 # 7 h -.t.M.",
">XW.y.#.4.%.K 3.OX<X/.aX~.q   X X $ H 2.3.O.` 7 2 G 2 1 7 c 5.*X",
" . .@. .{ 8.P f 6 %.E.%.@.c . * . X * X H &.{ c 6 5 b 1 8 8 P &X",
"Y A k e V I L F 7 j 6 *     . X * G c g . 5 H 2.I.q 5 v v s f 0.",
"+. . .J w O e  .w l ) z 8 %   X q M m ' m f X . g | % 8 N n s D ",
"T A Z C A e   * 2 7 G e.w.| w X 1 l ` ` m l 6 q 2 X.0.h v M v c ",
"F 0 A J Z k   X % g D i.^.0.7.w 2 8 , f ) x 6 Z Z $ 4 H S M M m ",
"t w t J c 5     $ , Z <.I.i.E.~.6.k , , j D ].+X5XC s j o...n B ",
"@ 3 k c k -     X X k O...=.i.~.U.,.3.4 2 m ].4X+Xr.% 2 d -.<.M ",
"  - 0 w w = %     . V X.O.=.1.I.y.6._.o.f z K L.T.'.[.S 7 v ..S ",
"  X - = 0 3 = X   * U X.O.<.<.%.y.K.^.%.% 2 b b | W.&X8.f 1 l b ",
"        X % - * X w Z U { X.X.X.L L 4.k % 8 2 j G R.}.R.6.n j d ",
"              X X 0 h Z H L P { X.L # 5   X * f q q.{.!.&Xo.) v ",
"                  X = w h k C Z H L L 8 % X X 6 5 F [.^.;X+X<.j ",
";                     X = 2 0 e k D D x & & $ q 6 x 0.[.1XqXiX1.",
"j./ E i : O                 - = q e k 6 . # & & 1 8 O.].;X5XrXlX",
"F.F.C.c.g.! u @                 X = 2 2   # # & 2 , 1 W.*X4X6XiX",
"H.H.H.F.S.V.z.f.W u O               X $ * X # # & 2 4 { }.2X7X0X",
"H.H.H.H.H.H.H.F.C.z.~ r O               % X . & 1 8 $ w '.2X3XsX",
"H.H.H.H.H.H.H.H.H.F.C.l.s.R r O             X . $ 5 L 5 *.|.2X8X",
"H.H.H.H.H.H.H.H.H.H.H.H.F.V.k.^ u O           X X 5 >.$.h a.}.2X",
"H.H.H.H.H.H.H.H.H.H.H.H.H.H.G.S.z./ i O         . k  .*.>.>.P.oX"
};
