/* XPM */
static char *magick[] = {
/* columns rows colors chars-per-pixel */
"32 32 229 2",
"   c #111517",
".  c #141617",
"X  c #121618",
"o  c #151619",
"O  c #131817",
"+  c #161e15",
"@  c #1b171b",
"#  c #19191b",
"$  c #18181c",
"%  c #1d191d",
"&  c #192217",
"*  c #1a2416",
"=  c #1b2318",
"-  c #241c1f",
";  c #221a1e",
":  c #271d21",
">  c #2c1c22",
",  c #301f24",
"<  c #2d2324",
"1  c #322224",
"2  c #312d20",
"3  c #3b2327",
"4  c #392629",
"5  c #3c282a",
"6  c #3e322d",
"7  c #40272c",
"8  c #41252b",
"9  c #41282c",
"0  c #4f272f",
"q  c #49242c",
"w  c #4d3430",
"e  c #522a2f",
"r  c #522e33",
"t  c #5a2c36",
"y  c #543132",
"u  c #5d3737",
"i  c #5c3439",
"p  c #583838",
"a  c #672e39",
"s  c #603037",
"d  c #61343a",
"f  c #633a3b",
"g  c #6f383c",
"h  c #723240",
"j  c #743e42",
"k  c #783843",
"l  c #793b45",
"z  c #5e4437",
"x  c #6b4539",
"c  c #70453c",
"v  c #6e4043",
"b  c #734340",
"n  c #754240",
"m  c #714e41",
"M  c #7e4645",
"N  c #7d4e43",
"B  c #7e4b4b",
"V  c #8b3247",
"C  c #8f3d46",
"Z  c #983a4e",
"A  c #a03d4f",
"S  c #84444c",
"D  c #81444b",
"F  c #824b4c",
"G  c #8f464e",
"H  c #8f4a4d",
"J  c #875d40",
"K  c #885548",
"L  c #8a5a48",
"P  c #8c5952",
"I  c #964e4f",
"U  c #924d50",
"Y  c #9c4b54",
"T  c #97524d",
"R  c #9a554e",
"E  c #955e52",
"W  c #9b5252",
"Q  c #995258",
"!  c #94674f",
"~  c #926a4a",
"^  c #966750",
"/  c #9c6251",
"(  c #9a6951",
")  c #a74451",
"_  c #ab4250",
"`  c #aa4c52",
"'  c #a45552",
"]  c #a15258",
"[  c #a6555a",
"{  c #a05f58",
"}  c #ae515b",
"|  c #ae5b5d",
" . c #a35d54",
".. c #b14853",
"X. c #ba4759",
"o. c #b75257",
"O. c #b3525a",
"+. c #b15c5b",
"@. c #b9545c",
"#. c #bb5b5d",
"$. c #bb4c61",
"%. c #b35260",
"&. c #be5364",
"*. c #bd5b64",
"=. c #a4675d",
"-. c #a96258",
";. c #af6e5e",
":. c #ad685c",
">. c #a46954",
",. c #a27157",
"<. c #ae725d",
"1. c #af7a5c",
"2. c #b3625c",
"3. c #bd6b5f",
"4. c #b2745f",
"5. c #b07b58",
"6. c #af7e60",
"7. c #b66163",
"8. c #bb6460",
"9. c #bf6663",
"0. c #ba6169",
"q. c #b86c60",
"w. c #bf7168",
"e. c #bb7b64",
"r. c #c45163",
"t. c #c45b64",
"y. c #cd5d6a",
"u. c #c36365",
"i. c #c36c62",
"p. c #c96665",
"a. c #c96061",
"s. c #cb666a",
"d. c #cd6469",
"f. c #ca6a67",
"g. c #cb6d6a",
"h. c #c37363",
"j. c #c77168",
"k. c #c17966",
"l. c #c4786a",
"z. c #c8746c",
"x. c #cb7369",
"c. c #ca7d6e",
"v. c #d4616d",
"b. c #d16c6c",
"n. c #dc6f6c",
"m. c #d76771",
"M. c #d76f70",
"N. c #d86471",
"B. c #da6e73",
"V. c #d5736d",
"C. c #d37f6e",
"Z. c #da746d",
"A. c #d87f6f",
"S. c #d57374",
"D. c #d47b72",
"F. c #dc7571",
"G. c #d97c71",
"H. c #e1676f",
"J. c #e16d74",
"K. c #e47373",
"L. c #e97f79",
"P. c #e77873",
"I. c #f0767a",
"U. c #f47977",
"Y. c #f67b7c",
"T. c #f77f83",
"R. c #f47c85",
"E. c #ff7c83",
"W. c #fd7b84",
"Q. c #ba865e",
"!. c #b48360",
"~. c #b58764",
"^. c #bd8661",
"/. c #bd8b67",
"(. c #c58a5f",
"). c #c18466",
"_. c #c38d62",
"`. c #ce876f",
"'. c #c39267",
"]. c #c6936b",
"[. c #c89068",
"{. c #cf976c",
"}. c #ce936c",
"|. c #d3846f",
" X c #d18c6e",
".X c #d88e6d",
"XX c #d18571",
"oX c #dc8374",
"OX c #dd936c",
"+X c #d79773",
"@X c #d49774",
"#X c #d79b71",
"$X c #de957b",
"%X c #d89975",
"&X c #daa06f",
"*X c #dfa472",
"=X c #e2866e",
"-X c #e08c75",
";X c #e38b7c",
":X c #e58e79",
">X c #eb8077",
",X c #eb837a",
"<X c #e3967d",
"1X c #e09b7e",
"2X c #ef9e7c",
"3X c #f48c7c",
"4X c #f8867b",
"5X c #f29a7b",
"6X c #fc927f",
"7X c #e5a176",
"8X c #e4a578",
"9X c #e6a974",
"0X c #f3a17c",
"qX c #ef9083",
"wX c #fe8085",
"eX c #ff858c",
"rX c #f88c80",
"tX c #fc8b86",
"yX c #fe8a8d",
"uX c #f38583",
"iX c #f39586",
"pX c #fb9285",
"aX c #ff918f",
"sX c #fd9c8e",
"dX c #ff9a91",
"fX c #f0a082",
"gX c #fea187",
"hX c #ffa388",
"jX c #fda28e",
/* pixels */
"X X X X X X X X X X X X X X X X X X X X X X X X X X X X X X X X ",
"X X X X X X X X X X X X X X X X X X X X X X X X X X X X X X X X ",
"X X X X X X X X X X X X X X X X X X $ X X X X X X X X X X X X X ",
"X X X X X X X X X X : u b N h.E B sXT < { H h ; $ o X X X X X X ",
"X X X X X X X X   &.d.oX|. XOX(.6.1Xe.e.e.XXoXG.V.#.X X X X X X ",
"X X X X X X $ ] B.S.D.XX`.).[._.*X@X1./.+X0X5X=Xq.' % X X X X X ",
"X X X X   . Y s.i.q.;.>.5.Q.Q._.9X~.!.{.7X2X-XoXV.f.#.O.7 X X X ",
"  X X X o Z } 9.3.-.>.L ! ~ _.'.*X_.#X}. X5XhX6XL.J.} i X X X X ",
"      , $.d.V.` W h.:XfX%X@X].'.J }.^.^.e.C.A.gX6X4X#.g - X X X ",
"    4 [ P.n.p.F.pXsXjXXX4.<.,.1.^ '..X! / / 2.g.Z.>XU.H.A V : X ",
"  i W.I.K.V.P.aXdXiX8.:.w.k.;X<XE 8X5X( ;. .T ' t.#.a.E.d > X X ",
"  D W.K.P.Z.eXtX>XO.2.z.x.:XqX$XR #X3Xm l.| K R ' #.o.` 3 X X X ",
"  < S I +.F.T.M.t.u.G.j.c.uXjXP c 6 pXf F *.Y y e C o..._ 0 X X ",
"      $ E.J.N.t.b.3Xx.w R.tX=.j x . rXf 5 d.G 1 r ; , ) X.a     ",
"        4 7.J.y.,Xp.M B eX,Xo 9.z   L.H o t.@.@ s >   . 8 o     ",
"      o 0.wXY.g.W n $ S.yXp v u.2   g.4   k r.t   q @           ",
"      $ eXE.U o j   : eXF $ B.s.*   [     $ k -   . >           ",
"        i [ o   X   X Q o 1 m.] =   W                           ",
"                          r v.l =   4                           ",
"                          7 %.9 *                               ",
"                                =                               ",
"                                *                               ",
"                                *                               ",
"                                *                               ",
"                                *                               ",
"                                +                               ",
"                                +                               ",
"                              O +                               ",
"                              +                                 ",
"                              +                                 ",
"                              +                                 ",
"                              +                                 "
};
