/* XPM */
static char *magick[] = {
/* columns rows colors chars-per-pixel */
"32 32 256 2",
"   c #00fe00",
".  c #c1c1c1",
"X  c #cbcbcb",
"o  c #f4f4f4",
"O  c Gray100",
"+  c #ead0d0",
"@  c #d5a2a2",
"#  c #d5d5d5",
"$  c #8e0000",
"%  c #d6a2a2",
"&  c #cc8b8b",
"*  c #efe2e2",
"=  c #8f0000",
"-  c #ad4545",
";  c #b85c5c",
":  c #f4e7e7",
">  c #900000",
",  c #ae4545",
"<  c #a42e2e",
"1  c #e0b9b9",
"2  c Gray88",
"3  c #eaeaea",
"4  c #f9f9f9",
"5  c #9a1717",
"6  c #c27373",
"7  c #991717",
"8  c #cb8b8b",
"9  c Gray0",
"0  c Gray0",
"q  c Gray0",
"w  c Gray0",
"e  c Gray0",
"r  c Gray0",
"t  c Gray0",
"y  c Gray0",
"u  c Gray0",
"i  c Gray0",
"p  c Gray0",
"a  c Gray0",
"s  c Gray0",
"d  c Gray0",
"f  c Gray0",
"g  c Gray0",
"h  c Gray0",
"j  c Gray0",
"k  c Gray0",
"l  c Gray0",
"z  c Gray0",
"x  c Gray0",
"c  c Gray0",
"v  c Gray0",
"b  c Gray0",
"n  c Gray0",
"m  c Gray0",
"M  c Gray0",
"N  c Gray0",
"B  c Gray0",
"V  c Gray0",
"C  c Gray0",
"Z  c Gray0",
"A  c Gray0",
"S  c Gray0",
"D  c Gray0",
"F  c Gray0",
"G  c Gray0",
"H  c Gray0",
"J  c Gray0",
"K  c Gray0",
"L  c Gray0",
"P  c Gray0",
"I  c Gray0",
"U  c Gray0",
"Y  c Gray0",
"T  c Gray0",
"R  c Gray0",
"E  c Gray0",
"W  c Gray0",
"Q  c Gray0",
"!  c Gray0",
"~  c Gray0",
"^  c Gray0",
"/  c Gray0",
"(  c Gray0",
")  c Gray0",
"_  c Gray0",
"`  c Gray0",
"'  c Gray0",
"]  c Gray0",
"[  c Gray0",
"{  c Gray0",
"}  c Gray0",
"|  c Gray0",
" . c Gray0",
".. c Gray0",
"X. c Gray0",
"o. c Gray0",
"O. c Gray0",
"+. c Gray0",
"@. c Gray0",
"#. c Gray0",
"$. c Gray0",
"%. c Gray0",
"&. c Gray0",
"*. c Gray0",
"=. c Gray0",
"-. c Gray0",
";. c Gray0",
":. c Gray0",
">. c Gray0",
",. c Gray0",
"<. c Gray0",
"1. c Gray0",
"2. c Gray0",
"3. c Gray0",
"4. c Gray0",
"5. c Gray0",
"6. c Gray0",
"7. c Gray0",
"8. c Gray0",
"9. c Gray0",
"0. c Gray0",
"q. c Gray0",
"w. c Gray0",
"e. c Gray0",
"r. c Gray0",
"t. c Gray0",
"y. c Gray0",
"u. c Gray0",
"i. c Gray0",
"p. c Gray0",
"a. c Gray0",
"s. c Gray0",
"d. c Gray0",
"f. c Gray0",
"g. c Gray0",
"h. c Gray0",
"j. c Gray0",
"k. c Gray0",
"l. c Gray0",
"z. c Gray0",
"x. c Gray0",
"c. c Gray0",
"v. c Gray0",
"b. c Gray0",
"n. c Gray0",
"m. c Gray0",
"M. c Gray0",
"N. c Gray0",
"B. c Gray0",
"V. c Gray0",
"C. c Gray0",
"Z. c Gray0",
"A. c Gray0",
"S. c Gray0",
"D. c Gray0",
"F. c Gray0",
"G. c Gray0",
"H. c Gray0",
"J. c Gray0",
"K. c Gray0",
"L. c Gray0",
"P. c Gray0",
"I. c Gray0",
"U. c Gray0",
"Y. c Gray0",
"T. c Gray0",
"R. c Gray0",
"E. c Gray0",
"W. c Gray0",
"Q. c Gray0",
"!. c Gray0",
"~. c Gray0",
"^. c Gray0",
"/. c Gray0",
"(. c Gray0",
"). c Gray0",
"_. c Gray0",
"`. c Gray0",
"'. c Gray0",
"]. c Gray0",
"[. c Gray0",
"{. c Gray0",
"}. c Gray0",
"|. c Gray0",
" X c Gray0",
".X c Gray0",
"XX c Gray0",
"oX c Gray0",
"OX c Gray0",
"+X c Gray0",
"@X c Gray0",
"#X c Gray0",
"$X c Gray0",
"%X c Gray0",
"&X c Gray0",
"*X c Gray0",
"=X c Gray0",
"-X c Gray0",
";X c Gray0",
":X c Gray0",
">X c Gray0",
",X c Gray0",
"<X c Gray0",
"1X c Gray0",
"2X c Gray0",
"3X c Gray0",
"4X c Gray0",
"5X c Gray0",
"6X c Gray0",
"7X c Gray0",
"8X c Gray0",
"9X c Gray0",
"0X c Gray0",
"qX c Gray0",
"wX c Gray0",
"eX c Gray0",
"rX c Gray0",
"tX c Gray0",
"yX c Gray0",
"uX c Gray0",
"iX c Gray0",
"pX c Gray0",
"aX c Gray0",
"sX c Gray0",
"dX c Gray0",
"fX c Gray0",
"gX c Gray0",
"hX c Gray0",
"jX c Gray0",
"kX c Gray0",
"lX c Gray0",
"zX c Gray0",
"xX c Gray0",
"cX c Gray0",
"vX c Gray0",
"bX c Gray0",
"nX c Gray0",
"mX c Gray0",
"MX c Gray0",
"NX c Gray0",
"BX c Gray0",
"VX c Gray0",
"CX c Gray0",
"ZX c Gray0",
"AX c Gray0",
"SX c Gray0",
"DX c Gray0",
"FX c Gray0",
"GX c Gray0",
"HX c Gray0",
"JX c Gray0",
"KX c Gray0",
"LX c Gray0",
"PX c Gray0",
"IX c Gray0",
"UX c Gray0",
/* pixels */
". . . . . . . . . . . . . . . . . . . . . . . . . . . . . . . . ",
". . . . . . . . . . . . . . . . . . . . . . . . . . . . . . . . ",
". . . . . . . . . . . . . . . . . . . . . . . . . . . . . . . . ",
". . . . . . . . . . . . . . . . . . . . . . . . . . . . . . . . ",
". . . . . . . . . . . . . . . X . . . . . . . . . . . . . . . . ",
". . . . . . . . . . = . . . X o X . . . . . . . . . . . . . . . ",
". . . . . . . . . = + . . . . O o X . . . . . . . . . . . . . . ",
". . . . . . . . = + . . . . . + @ O # . . . . . . . . . . . . . ",
". . . . . . . = + . . . . . X + $ % o # . . . . . . . . . . . . ",
". . . . . . = + . . . . . . # + $ $ & * X . . . . . . . . . . . ",
". . . . . . = + . . . . . . # + $ = = - * X . . . . . . . . . . ",
". . . . . = + . . . . . . . # + = = = = ; * # . . . . . . . . . ",
". . . . . = + . . . . . . . # : = = = > > , : # . . . . . . . . ",
". . . . . . . . . . . . . . # + = = > > > > < + # . . . . . . . ",
". . . . = + . . . . . . . . . + = > > > > > > < 1 # X . . . . . ",
". . . . = + . . . . . . . . # + > > > > > > > > < : 2 X . . . . ",
". . . . . . . . . . . . . . X + > > > > > > > > > < % o X . . . ",
". . . . . . . . . . . . . . # : > > > > > > < % % % + O 3 X . . ",
". . . = + . . . . . . . . . . + > > > > > > > + 2 # # # # X . . ",
". . . = + . . . . . . . . . . + = > ; % > > > ; o . . . . . . . ",
". . . . . . . . . . . . . . # + = 1 4 4 5 > > 5 + # . . . . . . ",
". . . . . . . . . . . . . . X + 1 o X 2 & = = = 6 o . . . . . . ",
". . . = + . . . . . . . . . # O 3 . . . * 7 = = 7 : # . . . . . ",
". . . = + . . . . . . . . . X # . . . . 2 6 = $ $ 1 3 . . . . . ",
". . . . . . . . . . . . . . . . . . . . X : 7 8 + O # . . . . . ",
". . . . . . . . . . . . . . . . . . . . . o O O X . . . . . . . ",
". . . = + . . . . . . . . . . . . . . . . X X . . . . . . . . . ",
". . . = + . . . . . . . . . . . . . . . . . . . . . . . . . . . ",
". . . . . . . . . . . . . . . . . . . . . . . . . . . . . . . . ",
". . . . . . . . . . . . . . . . . . . . . . . . . . . . . . . . ",
". . . . . . . . . . . . . . . . . . . . . . . . . . . . . . . . ",
". . . . . . . . . . . . . . . . . . . . . . . . . . . . . . . . "
};
