/* XPM */
static char* XpmdrawSelectIcon[] = {
"32 32 37 1",
"  c #C0C0C0",
"! c #F0CAA6",
"# c #161616",
"$ c #1C1C1C",
"% c #222222",
"& c #292929",
"' c #555555",
"( c #4D4D4D",
") c #424242",
"* c #393939",
"+ c #818181",
", c #333333",
"- c #666666",
". c #999999",
"/ c #CCCCCC",
"0 c #FF3333",
"1 c #FF9999",
"2 c #FFCCCC",
"3 c #FF6666",
"4 c #C1C1C1",
"5 c #5F5F5F",
"6 c #777777",
"7 c #868686",
"8 c #969696",
"9 c #CBCBCB",
": c #B2B2B2",
"; c #D7D7D7",
"< c #DDDDDD",
"= c #E3E3E3",
"> c #EAEAEA",
"? c #F1F1F1",
"@ c #F8F8F8",
"A c #F0FBFF",
"B c #A4A0A0",
"C c #808080",
"D c #FF0000",
"E c #FFFFFF",
"7)(55',C6744444444444444    4444",
"*':;/ &BB':'''C944444444;==<9 44",
",*B94:&:B)-' 8594444 <?AE@@E@/ 4",
" 'B;/ *6C'66=:-/444 4@E230D3?@9 ",
"/-'--5'/9:5&5)*. 44 <EE1DDDD3E= ",
"4:B...:44 *'''5,:4 9@E2E1DDDD!A4",
"449444444:'/;//':4 =E202E!0001E/",
"497'-5699:' 444(:49@E3D02EEEEEE=",
"4/67 B(..7(4949':4=E2DDDD3112E@9",
"4;C.;4$'--'::::)B/EE3DDDDDDD2E< ",
":+(-8+#B;/(('''(:>E2DDDDDDD3E@44",
"85'6C+(B;9':4   /EE3DDDDDD0?E< 4",
"6-58;<+-+6):9444>E2DDDDDDD1E@444",
"&'',68.+88B944 /EE0DDDDDD0@E; 44",
"5;;-7'6(666+994?E!DDDDDDD1E?4444",
"5;;---;'587*-7;EE0DDDDDD0@E; 444",
"*66).-6*8;4C7)=E1DDDDDDD1E?44444",
"..BB94:'79 558E@0DDDDDD0EE; 4444",
"9866C7''(--(B?E1DDDDDDD!E> 44444",
"457.)%(6C : <E?0DDDDDD0EE/ 44444",
"4-4/56B.:449@E3DDDDDDD2E> 444444",
"4566*56--'+/>@030DDDD3EE/ 444444",
"4:B:-64 46-9/E@EE>3DD2E= 4444444",
"444/66/4/7-9/EEEEE@03E@9 4444444",
"444/66/4/7-99EEEEEE12E= 44444444",
"4449664:4C-/9EEEEEEEE@9 44444444",
"4:('*,'6*&-/4@EEEEE>//4444444444",
"9.' :B68C: 99@EEE@;   4444444444",
"9.-/9 )'644.:@EE=4 4444444444444",
"9.-;/4'-$58'6?@;  44444444444444",
"9B)66-)C56-'-:/ 4444444444444444",
"4 8888.  +7:: 444444444444444444"};