/* XPM */
static char *imageRatio[] = {
/* width height num_colors chars_per_pixel */
"    24    24        8            1",
/* colors */
"` c #24241c",
". c #8a7468",
"# c #c3c1c3",
"a c #705b50",
"b c #a98c75",
"c c #403a2e",
"d c #8d625a",
"e c #8f8c8f",
/* pixels */
"########################",
"########################",
"##########e.ce##########",
"#########.c`cc.#########",
"#########```c``e########",
"########e`cca``c########",
"########aabb.c``########",
"########cb#bba``########",
"#######ecbbbba``########",
"########abab.da`########",
"########a.cb.c.c########",
"########bbbbd..d########",
"#########bbbdb.e########",
"#########bbbd..#########",
"#########bb.d.e#########",
"#########bbddd##########",
"#########bb..d##########",
"#########bbddae#########",
"#########.bbeaa#########",
"#######ecabbba``e#######",
"######`c``ccc`````e#####",
"#####c`````````````#####",
"#####````c``c``````#####",
"########################"
};
