/* XPM */
static char *le3d_banner1a[] = {
/* width height num_colors chars_per_pixel */
"    32    32        8            1",
/* colors */
"` c #a5a5a5",
". c #aaaaaa",
"# c #aeaeae",
"a c #b2b2b2",
"b c #b6b6b6",
"c c #bababa",
"d c #bebebe",
"e c #c2c2c2",
/* pixels */
"eeeeddddddddcccccbbbbaaa###...``",
"eeeeddddddddcccccbbbbaaa###...``",
"eeeeddddddddcccccbbbbaaa###...``",
"eeeeddddddddcccccbbbbaaa###...``",
"eeeeddddddddcccccbbbbaaa###...``",
"eeeeddddddddcccccbbbbaaa###...``",
"eeeeddddddddcccccbbbbaaa###...``",
"eeeeddddddddcccccbbbbaaa###...``",
"eeeeddddddddcccccbbbbaaa###...``",
"eeeeddddddddcccccbbbbaaa###...``",
"eeeeddddddddcccccbbbbaaa###...``",
"eeeeddddddddcccccbbbbaaa###...``",
"eeeeddddddddcccccbbbbaaa###...``",
"eeeeddddddddcccccbbbbaaa###...``",
"eeeeddddddddcccccbbbbaaa###...``",
"eeeeddddddddcccccbbbbaaa###...``",
"eeeeddddddddcccccbbbbaaa###...``",
"eeeeddddddddcccccbbbbaaa###...``",
"eeeeddddddddcccccbbbbaaa###...``",
"eeeeddddddddcccccbbbbaaa###...``",
"eeeeddddddddcccccbbbbaaa###...``",
"eeeeddddddddcccccbbbbaaa###...``",
"eeeeddddddddcccccbbbbaaa###...``",
"eeeeddddddddcccccbbbbaaa###...``",
"eeeeddddddddcccccbbbbaaa###...``",
"eeeeddddddddcccccbbbbaaa###...``",
"eeeeddddddddcccccbbbbaaa###...``",
"eeeeddddddddcccccbbbbaaa###...``",
"eeeeddddddddcccccbbbbaaa###...``",
"eeeeddddddddcccccbbbbaaa###...``",
"eeeeddddddddcccccbbbbaaa###...``",
"eeeeddddddddcccccbbbbaaa###...``"
};
