/* XPM */
static char *le3d_banner1e[] = {
/* width height num_colors chars_per_pixel */
"    32    32       31            1",
/* colors */
"` c #484848",
". c #4c4c4c",
"# c #505050",
"a c #555555",
"b c #595959",
"c c #5d5d5d",
"d c #616161",
"e c #656565",
"f c #696969",
"g c #6d6d6d",
"h c #717171",
"i c #757575",
"j c #797979",
"k c #7d7d7d",
"l c #818181",
"m c #858585",
"n c #898989",
"o c #8d8d8d",
"p c #919191",
"q c #959595",
"r c #999999",
"s c #9d9d9d",
"t c #a1a1a1",
"u c #a5a5a5",
"v c #aaaaaa",
"w c #aeaeae",
"x c #b2b2b2",
"y c #b6b6b6",
"z c #bababa",
"A c #bebebe",
"B c #cecece",
/* pixels */
"aaaaaaaaaaaaaaaaaaaaaaaaaaaaaaaa",
"aaaaaaaaaaaaaaaaaaaaaaaaaaaaaaaa",
"aaaaaaaaaaaaaaaaaaaaaaaaaaaaaaaa",
"aaaaaaaaaaaaaaaaaaaaaaaaaaaaaaaa",
"aaaaaaaaaaaaaaaaaaaaaaaaaaaaaaaa",
"aaaaaaaaaaaaaaaaaaaaaaaaaaaaaaaa",
"aaaaaaaaaaaaaaaaaaaaaaaaaaaaaaaa",
"aaaaaaaaaaaaaaaaaaaaaaaaaaaaaaaa",
"aaaaaaaaaaaaaaaaaaaaaaaaaaaaaaaa",
"aaaaaaaaaaaaaaaaaaaaaaaaaaaaaaaa",
"aaaaaaaaaaaaaaaaaaaaaaaaaaaaaaaa",
"aa#.aaaaaaaaaaaaaaaaaaaaaaaaaaaa",
"aadfaaaaaaaaaaaaaaaaaaaaaaaaaaaa",
"aainb#aaa`.aaaaaaaaaaaaa###aaaaa",
"aa##aaa#ajf``..`.aaaaa....#..#aa",
"aafib#a.bvvlmmmmh#aa#bkonnnnng#a",
"a#pyc.a.asBzpkkyt.#a.dxuiihkyp#a",
"aaowc.a.auAg```st.#a.ewn`.`bwp#a",
"aaowc.a.bvr.###tt.#a#dvwonnowm#a",
"aaowc.a.cvoaa#att##a.ewthhhhgcaa",
"aapxd.a.cvqaa#att##a#ewqcbcccbaa",
"aakpc#a#bplaa#anna#a#dpsnnnnngaa",
"aabcaaaaacbaaaabcaaaaacfffgffcaa",
"aa#.aaaaa##aaaa##aaaaa#.#.#.##aa",
"aaaaaaaaaaaaaaaaaaaaaaaaaaaaaaaa",
"aaaaaaaaaaaaaaaaaaaaaaaaaaaaaaaa",
"aaaaaaaaaaaaaaaaaaaaaaaaaaaaaaaa",
"aaaaaaaaaaaaaaaaaaaaaaaaaaaaaaaa",
"aaaaaaaaaaaaaaaaaaaaaaaaaaaaaaaa",
"aaaaaaaaaaaaaaaaaaaaaaaaaaaaaaaa",
"aaaaaaaaaaaaaaaaaaaaaaaaaaaaaaaa",
"aaaaaaaaaaaaaaaaaaaaaaaaaaaaaaaa"
};
