/* XPM */
static char *le3d_prepSurf[] = {
/* width height num_colors chars_per_pixel */
"    32    32      114            2",
/* colors */
"`` c #34302c",
"`. c #343430",
"`# c #383838",
"`a c #402c0c",
"`b c #442c0c",
"`c c #48300c",
"`d c #503410",
"`e c #553810",
"`f c #593810",
"`g c #5d3c10",
"`h c #614010",
"`i c #654414",
"`j c #694414",
"`k c #6d4814",
"`l c #714c14",
"`m c #754c14",
"`n c #754c18",
"`o c #755018",
"`p c #795018",
"`q c #7d5018",
"`r c #4c4840",
"`s c #4c4c44",
"`t c #4c4c48",
"`u c #504840",
"`v c #595044",
"`w c #595548",
"`x c #5d5548",
"`y c #59594c",
"`z c #505050",
"`A c #505550",
"`B c #555555",
"`C c #595550",
"`D c #595955",
"`E c #595d59",
"`F c #5d6159",
"`G c #61594c",
"`H c #655948",
"`I c #695d4c",
"`J c #615950",
"`K c #655d50",
"`L c #655d55",
"`M c #695d50",
"`N c #61655d",
"`O c #65615d",
"`P c #65655d",
"`Q c #6d6150",
"`R c #69655d",
"`S c #716559",
"`T c #75695d",
"`U c #616161",
"`V c #656565",
"`W c #696969",
"`X c #79756d",
"`Y c #7d756d",
"`Z c #7d796d",
"`0 c #717171",
"`1 c #757571",
"`2 c #7d7571",
"`3 c #7d7971",
"`4 c #815518",
"`5 c #855918",
"`6 c #895918",
"`7 c #895d18",
"`8 c #8d5d1c",
".` c #91611c",
".. c #95611c",
".# c #95651c",
".a c #99651c",
".b c #9d6920",
".c c #a16920",
".d c #a16d20",
".e c #a56d20",
".f c #aa7120",
".g c #ae7120",
".h c #b27520",
".i c #b67924",
".j c #ba7d24",
".k c #be7d24",
".l c #817969",
".m c #81796d",
".n c #857969",
".o c #817d79",
".p c #8d8171",
".q c #8d8175",
".r c #89857d",
".s c #8d857d",
".t c #95856d",
".u c #918575",
".v c #918579",
".w c #958579",
".x c #958975",
".y c #958979",
".z c #998971",
".A c #998975",
".B c #998979",
".C c #9d8d79",
".D c #a19179",
".E c #a5957d",
".F c #c28124",
".G c #c68128",
".H c #c68528",
".I c #ce8928",
".J c #d28d28",
".K c #d68d28",
".L c #da912c",
".M c #de912c",
".N c #e2952c",
".O c #e6992c",
".P c #ea992c",
".Q c #ee9d2c",
".R c #f2a130",
".S c #f6a130",
".T c #faa530",
".U c #ffaa30",
/* pixels */
"`s`A`A`A`A`A`A`z`A`A`A`D`P`P`N`F`E`E`E`E`E`E`E`E`E`E`E`E`E`E`E`w",
"`t`Z`Z`Z`Z`Z`Z`Z`Z`Z`Z.u.E.D.C.B.y.u.w.w.w.w.w.w.w.w.w.w.w.w.w`y",
"`t`Z`Z`Z`Z`Z`Z`Z`Z`Z`Z.p.B.w.w.w.w.w.w.w.w.w.w.w.w.w.w.w.w.w.w`y",
"`r`Z`Z`Z`Z`Z`Z`Z`Z`Z`Z.q.B.w.w.w.w.w.w.w.w.w.w.w.w.w.w.w.w.w.w`x",
"`x`Z`Z`Z`Z`Z`Z`Z`Z`Z`Z.q.B.w.w.w.w.w.w.w.w.w.w.w.w.w.w.w.w.w.w`I",
"`G`Z`Z`Z`Z`Z`Z`Z`Z`Z`Z.p.y.w.w.w.w.w.w.w.w.w.w.w.w.w.w.w.w.w.v`M",
"`G`Z`Z`Z`Z`Z`Z`Z`Z`Z`Z.q.B.w.w.w.w.w.w.w.w.w.w.w.w.w.w.w.w.w.y`Q",
"`G`Z`Z`Z`Z`Z`Z`Z`Z`Z`Z.p.y.v.v.v.v.w.w.w.w.w.w.w.w.w.w.w.w.w.w`I",
"`G`Z`Z`Z`Z`Z`Z`Z`Z`Z`Z.p.y.r.r.v.z.v.v.v.w.w.w.w.w.w.w.w.w.w.w`I",
"`u`Z`Z`Z`Z`Z`Z`Z`Z`Z`Z.t`X.c.M.b`6`i.r.v.z.v.v.v.w.w.w.w.w.w.w`I",
"`v`Z`Z`Z`Z`Z`Z`Z`Z`Z.l`3`8.T.T.T.T.k.a.e`o.``n.v.A.v.v.v.w.w.w`I",
"`x`Z`Z`Z`Z`Z`Z`Z`Y.n.e`4`5...P.U.F`p.S.T.T.I.f`d`5`7`n.r.A.v.v`I",
"`x`Z`Z`Z`Z`Z`Z`Y`X`m.T.T.J.f`q`l...h.O.S.T.T.I`p.T.P.K.``h.e.x`K",
"`x`Z`Z`Z`Z`Z`Y`Y`m.G.T.T.T.T.R.#.e`8`6`l.d.K`o.U.T.T.T.T.L`p.A`K",
"`x`Z`Z`Z`Z`Y`0`p`i`i.d.U.S.P`4`8.T.T.T.R.i`p`l`p.J.U.T.T`m.r.v`I",
"`x`Z`Z`Z`Y`U`q.S.T.K..`q`i`7`j.U.T.T.T.T`4.c.T.i.#`k`f`k.i.A.w`I",
"`x`Z`Z.n`V`q.T.T.T.T.T.T`k`6`8`h`4.j.N.i`q.T.T.T.T.T.M`c.r.v.w`I",
"`x`Z.n`#`l.j.L.T.T.T.T`p`m.T.T.H.e`o`l`4.#.I.S.T.T.T`4.i.z.w.w`I",
"`x`Z.n`U`k`h`h.#.a.M`7`7.Q.T.T.T.T.T`6.b`p`o`k.d.K.e`o.r.v.w.w`I",
"`x`Z.n`W`W`B`7`c`k`j`k.j.U.T.T.T.T`m`4.R.T.Q.g.e`k`e`l.v.v.w.w`I",
"`x`Z`Z`Y`1`1`W`W`W`k`a`c`j...k.U.g`6.U.T.T.T.T.T.a`6.r.v.w.w.w`I",
"`x`Z`Z`Z`Z`Z.m`1`0`W`W`O`k`g`b`k`4.h.U.T.T.T.T.T`b.d.v.v.w.w.w`I",
"`x`Z`Z`Z`Z`Z`Z`Y`Y.n`0.o`3`2`R`.`c`e`k`4.K.T.T.#`7.r.v.w.w.w.w`I",
"`x`Z`Z`Z`Z`Z`Z`Z`Z`Y`Y.q.A.r`2`2`2`R`f`i`e`k`7`m.d.v.v.w.w.w.w`I",
"`x`Z`Z`Z`Z`Z`Z`Z`Z`Z`Z.q.y.v.A.s.r`2`2`2`C`e`e``.A.v.w.w.w.w.w`I",
"`x`Z`Z`Z`Z`Z`Z`Z`Z`Z`Z.p.y.w.v.v.v.z.s.r`2`2.r.v.v.v.w.w.w.w.w`I",
"`x`Z`Z`Z`Z`Z`Z`Z`Z`Z`Z.p.y.w.w.w.w.w.w.A.v.r.z.v.v.v.w.w.w.w.w`I",
"`x`Z`Z`Z`Z`Z`Z`Z`Z`Z`Z.p.y.w.w.w.w.w.w.w.w.w.w.w.w.w.w.w.w.w.w`I",
"`x`Z`Z`Z`Z`Z`Z`Z`Z`Z`Z.p.y.w.w.w.w.w.w.w.w.w.w.w.w.w.w.w.w.w.w`I",
"`x`Z`Z`Z`Z`Z`Z`Z`Z`Z`Z.q.y.w.w.w.w.w.w.w.w.w.w.w.w.w.w.w.w.w.w`I",
"`v`Z`Z`Z`Z`Z`Z`Z`Z`Z`Z.u.E.D.C.B.y.u.y.w.w.w.w.w.w.w.w.w.w.w.w`H",
"`v`L`J`J`J`J`J`J`J`J`J`J`J`J`J`J`J`J`J`J`J`J`S`S`S`S`S`S`S`S`T`H"
};
