/* XPM */
static char *le3d_banner1b[] = {
/* width height num_colors chars_per_pixel */
"    32    32       18            1",
/* colors */
"` c #818181",
". c #858585",
"# c #898989",
"a c #8d8d8d",
"b c #919191",
"c c #959595",
"d c #999999",
"e c #9d9d9d",
"f c #a1a1a1",
"g c #a5a5a5",
"h c #aaaaaa",
"i c #aeaeae",
"j c #b2b2b2",
"k c #b6b6b6",
"l c #bababa",
"m c #bebebe",
"n c #c2c2c2",
"o c #c6c6c6",
/* pixels */
"fffeedddccccbbbbaaaaa######.....",
"fffeedddccccbbbbaaaaa######.....",
"fffeedddccccbbbbaaaaa######.....",
"fffeedddccccbbbbaaaaa######.....",
"fffeedddccccbbbbaaaaa######.....",
"fffeedddccccbbbbaaaaa######.....",
"fffeedddccccbbbbaaaaa######.....",
"fffeedddccccbbbbaaaaa######.....",
"fffeedddcccbbbbbaaaaa######.....",
"fffeedddccccbbbbaaaaa######.....",
"fffeedddcbekeabbaaaaa######.....",
"fffeedddcbemfabbaaa#aa#####.....",
"fffeedddcbelfabbaacba######.....",
"fffeedddcbelfabbaaeea#####.....`",
"fffeedddcbelfabbbaaaa#####.....`",
"fffeedddcbelfabbabdda####cffeeee",
"fffeedddcbelfabbabjia#a.#iolgdej",
"fffeedddcbelfabbabjia####jne.`.g",
"fffeedddcbelfabbabjia###.jj#...h",
"fffeedddcbelfabbabjia####ji..`#j",
"fffeedddcbemgbbbabjia####jjbachn",
"fffeedddcbejgbbbabgga####gigfino",
"fffeedddccccdbbbbabaa####aabbdin",
"fffeedddcccbbbbbba##a####...``bj",
"fffeedddccccbbbbaaaaa#######..#h",
"fffeedddccccbbbbaaaaa######.##ag",
"fffeedddccccbbbbaaaaa#######bcee",
"fffeedddccccbbbbaaaaa#######bdca",
"fffeedddccccbbbbaaaaa######.##..",
"fffeedddccccbbbbaaaaa######.....",
"fffeedddccccbbbbaaaaa######.....",
"fffeedddccccbbbbaaaaa######....."
};
