/* XPM */
static char *le3d_separator[] = {
/* width height num_colors chars_per_pixel */
"    32    32       36            1",
/* colors */
"` c #383c40",
". c #3c4044",
"# c #3c4448",
"a c #3c4850",
"b c #3c4c50",
"c c #3c4c55",
"d c #404040",
"e c #444444",
"f c #484848",
"g c #484c4c",
"h c #4c4848",
"i c #4c4c48",
"j c #4c4c4c",
"k c #485050",
"l c #485559",
"m c #48555d",
"n c #4c555d",
"o c #4c595d",
"p c #504c4c",
"q c #55504c",
"r c #505050",
"s c #555555",
"t c #595550",
"u c #595955",
"v c #5d5955",
"w c #505d61",
"x c #556161",
"y c #65615d",
"z c #696561",
"A c #9d8d71",
"B c #a59571",
"C c #ceae69",
"D c #deb665",
"E c #eabe61",
"F c #ffca59",
"G c #c2c2c2",
/* pixels */
".cbbbbbabbblxxwoommnoooooollllog",
"#GGGGGGGGGGGGGGGGGGGGGGGGGGGGGGk",
"#GGGGGGGGGGAECGGGGGGGGGGGGGGGGGk",
"`GGGGGGGGGGBFDGGGGGGGGGGGGGGGGGp",
"hGGGGGGGGGGBFDGGGGGGGGGGGGGGGGGt",
"rGGGGGGGGGGBFDGGGGGGGGGGGGGGGGGt",
"jGGGGGGGGGGBFDGGGGGGGGGGGGGGGGGv",
"jGGGGGGGGGGBFDGGGGGGGGGGGGGGGGGt",
"rGGGGGGGGGGBFDGGGGGGGGGGGGGGGGGt",
"dGGGGGGGGGGBFDGGGGGGGGGGGGGGGGGt",
"fGGGGGGGGGGBFDGGGGGGGGGGGGGGGGGt",
"iGGGGGGGGGGBFDGGGGGGGGGGGGGGGGGt",
"fGGGGGGGGGGBFDGGGGGGGGGGGGGGGGGt",
"fGGGGGGGGGGBFDGGGGGGGGGGGGGGGGGt",
"fGGGGGGGGGGBFDGGGGGGGGGGGGGGGGGt",
"fGGGGGGGGGGBFDGGGGGGGGGGGGGGGGGt",
"fGGGGGGGGGGBFDGGGGGGGGGGGGGGGGGt",
"fGGGGGGGGGGBFDGGGGGGGGGGGGGGGGGt",
"fGGGGGGGGGGBFDGGGGGGGGGGGGGGGGGt",
"fGGGGGGGGGGBFDGGGGGGGGGGGGGGGGGt",
"fGGGGGGGGGGBFDGGGGGGGGGGGGGGGGGt",
"fGGGGGGGGGGBFDGGGGGGGGGGGGGGGGGt",
"fGGGGGGGGGGBFDGGGGGGGGGGGGGGGGGt",
"fGGGGGGGGGGBFDGGGGGGGGGGGGGGGGGt",
"fGGGGGGGGGGBFDGGGGGGGGGGGGGGGGGt",
"fGGGGGGGGGGBFDGGGGGGGGGGGGGGGGGt",
"fGGGGGGGGGGBFDGGGGGGGGGGGGGGGGGt",
"fGGGGGGGGGGBFDGGGGGGGGGGGGGGGGGt",
"fGGGGGGGGGGBFDGGGGGGGGGGGGGGGGGt",
"fGGGGGGGGGGAECGGGGGGGGGGGGGGGGGt",
"eGGGGGGGGGGGGGGGGGGGGGGGGGGGGGGq",
"eussssssssssssssssssssyyyyyyyyzq"
};
