/* XPM */
static char *le3d_banner1d[] = {
/* width height num_colors chars_per_pixel */
"    32    32       34            1",
/* colors */
"` c #404040",
". c #4c4c4c",
"# c #505050",
"a c #555555",
"b c #595959",
"c c #5d5d5d",
"d c #616161",
"e c #656565",
"f c #696969",
"g c #6d6d6d",
"h c #717171",
"i c #757575",
"j c #797979",
"k c #7d7d7d",
"l c #818181",
"m c #858585",
"n c #898989",
"o c #8d8d8d",
"p c #919191",
"q c #959595",
"r c #999999",
"s c #9d9d9d",
"t c #a1a1a1",
"u c #a5a5a5",
"v c #aaaaaa",
"w c #b2b2b2",
"x c #b6b6b6",
"y c #bababa",
"z c #bebebe",
"A c #c2c2c2",
"B c #c6c6c6",
"C c #cacaca",
"D c #cecece",
"E c #d2d2d2",
/* pixels */
"ffffeeeeeddddddccccccbbbbbbbbbaa",
"ffffeeeeeddddddccccccbbbbbbbbbaa",
"ffffeeeeeddddddccccccbbbbbbbbbaa",
"ffffeeeeeddddddccccccbbbbbbbbbaa",
"ffffeeeeeddddddccccccbbbbbbbbbaa",
"ffffeeeeeddddddccccccbbbbbbbbbaa",
"ffffeeeeeddddddccccccbbbbbbbbbaa",
"fffffeeeeddddddccccccbbbbbbbbbaa",
"edddeeeeeddddddccccccbbbbbbbbbaa",
"jjjifeeeeddddddccccccbbbbbbbbbaa",
"qqqngdeeeddddddccccccbbbbbbbbbab",
"ihhgfeeeeddddddccccccbbbbbbbbbab",
"ffeeeeeeeddddddccccccbbbbbbbbbab",
"gfffeeeecbddddddccccccccbbbbbbaa",
"ddefeeedklbabaabcccccb#####..baa",
"pohdeedbryonoookdcccbgmmnnnnkbaa",
"pohdeeecpCBtnmvyeacbanECtmjvzc#b",
"ddefeedcpBoba#nyeacbaoCo#.`myc#b",
"ffffeedcrwfcdboweacbapwe#c.nxc#b",
"efffeedcrufddboxeacbapveaa#tyc#b",
"iifeeeddrvgddcpxfacbapxideoBxd#b",
"qoieeeddnqfddclrfbcbbkuqnsADwd#b",
"jigeeeeeffdddddedcccccegfhpzwe#a",
"eeffeeeedcddddcbcccccba##.ctwf#a",
"ffffeeeeeddddddcdccccccbbaaovgaa",
"ffffeeeeeddddddccccccbbbbbdnreaa",
"ffffeeeeeddddddcccccccbbfikmjcaa",
"ffffeeeeeddddddcccccccbbfjjgcaaa",
"ffffeeeeeddddddccccccbbbcdcbabaa",
"ffffeeeeeddddddccccccbbbbbbbbbaa",
"ffffeeeeeddddddccccccbbbbbbbbbaa",
"ffffeeeeeddddddccccccbbbbbbbbbaa"
};
