/* XPM */
static char *le3d_banner1c[] = {
/* width height num_colors chars_per_pixel */
"    32    32       27            1",
/* colors */
"` c #5d5d5d",
". c #616161",
"# c #656565",
"a c #696969",
"b c #6d6d6d",
"c c #717171",
"d c #757575",
"e c #797979",
"f c #7d7d7d",
"g c #818181",
"h c #858585",
"i c #898989",
"j c #8d8d8d",
"k c #919191",
"l c #959595",
"m c #999999",
"n c #9d9d9d",
"o c #a1a1a1",
"p c #a5a5a5",
"q c #aaaaaa",
"r c #aeaeae",
"s c #b2b2b2",
"t c #b6b6b6",
"u c #bababa",
"v c #bebebe",
"w c #c6c6c6",
"x c #cacaca",
/* pixels */
"hgggggffffeeeeeddddddccccbbbbbba",
"hgggggffffeeeeeddddddccccbbbbbba",
"hgggggffffeeeeeddddddccccbbbbbba",
"hgggggffffeeeeeddddddccccbbbbbba",
"hgggggffffeeeeeddddddccccbbbbbba",
"hgggggffffeeeeeddddddccccbbbbbba",
"hgggggffffeeeeeddddddccccbbbbbba",
"hgggggffffeeeeeddddddccccbbba#ab",
"hggggfefffeeeeeddddddccccbbbef##",
"hgggghgfffeeeeeddddddccccbb#ksge",
"hggfgpnfffeeeeedddddddcccbbalvmk",
"hggfhspfffeeeeedddddcccccbb#ltec",
"hggfhrofffeeeeeddddcbccccbb#lsb#",
"gggfhrqfeeeeeeedddcfjecccbb#luc.",
"gggfhrukfeeeeeeddcaith#bcbb#kwm.",
"kggfhqwuomkfeeeddhkpvplhcbb#kxwq",
"rhffhqwuoklnheeddhkouokgcbb#lvjj",
"shffhrukederodeddcaiti#bcbb#ms#`",
"shffhsqfeeerqeddddcjtjbccbb#ltc#",
"shffhrpffeerqeddddcjsjbccbbalvg#",
"rhffhspffeeqqeddddcfnkeccbbalxsg",
"rhffhomffefnmedddddcfkjebbbbirro",
"rhfgghgffffgfeeddddccefdcbbbcdde",
"rifggfffffeeeeedddddccbccbbbaa##",
"rifgggffffeeeeeddddddccccbbbbbba",
"pifgggffffeeeeeddddddccccbbbbbba",
"khggggffffeeeeeddddddccccbbbbbba",
"hgggggffffeeeeeddddddccccbbbbbba",
"hgggggffffeeeeeddddddccccbbbbbba",
"hgggggffffeeeeeddddddccccbbbbbba",
"hgggggffffeeeeeddddddccccbbbbbba",
"hgggggffffeeeeeddddddccccbbbbbba"
};
