/* XPM */
static char *le3d_banner1f[] = {
/* width height num_colors chars_per_pixel */
"    32    32      130            2",
/* colors */
"`` c #555555",
"`. c #555559",
"`# c #555959",
"`a c #595959",
"`b c #5d5959",
"`c c #5d5d59",
"`d c #5d6165",
"`e c #616161",
"`f c #616165",
"`g c #616565",
"`h c #656161",
"`i c #656561",
"`j c #656565",
"`k c #696561",
"`l c #696565",
"`m c #6d6561",
"`n c #696965",
"`o c #6d6961",
"`p c #6d6965",
"`q c #716961",
"`r c #716965",
"`s c #716d61",
"`t c #716d65",
"`u c #756961",
"`v c #756965",
"`w c #756d61",
"`x c #756d65",
"`y c #716d69",
"`z c #796d61",
"`A c #796d65",
"`B c #757169",
"`C c #797161",
"`D c #797165",
"`E c #7d7161",
"`F c #7d7165",
"`G c #7d7565",
"`H c #797169",
"`I c #7d7169",
"`J c #997d5d",
"`K c #817161",
"`L c #817165",
"`M c #817565",
"`N c #857561",
"`O c #857565",
"`P c #817569",
"`Q c #857969",
"`R c #897561",
"`S c #897965",
"`T c #897d65",
"`U c #8d7961",
"`V c #8d7965",
"`W c #897969",
"`X c #897d69",
"`Y c #8d7d69",
"`Z c #917961",
"`0 c #917d61",
"`1 c #917d65",
"`2 c #957d61",
"`3 c #957d65",
"`4 c #95816d",
"`5 c #998161",
"`6 c #998165",
"`7 c #9d8165",
"`8 c #9d8561",
".` c #99856d",
".. c #ae895d",
".# c #be9159",
".a c #be915d",
".b c #a58965",
".c c #aa8d61",
".d c #ae8961",
".e c #ae8d61",
".f c #b28d61",
".g c #b69161",
".h c #ba9161",
".i c #be9161",
".j c #c29159",
".k c #c29559",
".l c #c69559",
".m c #c6955d",
".n c #c69959",
".o c #ca9559",
".p c #ca9959",
".q c #ca995d",
".r c #ce9959",
".s c #ce995d",
".t c #ce9d59",
".u c #ce9d5d",
".v c #d29d5d",
".w c #d69d59",
".x c #c29561",
".y c #ca9961",
".z c #ca9d61",
".A c #dea150",
".B c #dea155",
".C c #dea555",
".D c #dea159",
".E c #dea15d",
".F c #dea55d",
".G c #d6a165",
".H c #daa161",
".I c #eeaa4c",
".J c #e2a150",
".K c #e2a550",
".L c #e6a550",
".M c #e6a555",
".N c #e2a159",
".O c #e2a55d",
".P c #e6a559",
".Q c #e6aa55",
".R c #eaa550",
".S c #eaa555",
".T c #eea555",
".U c #eaaa50",
".V c #eaaa55",
".W c #eeaa50",
".X c #eeae50",
".Y c #f2aa4c",
".Z c #f6ae4c",
".0 c #faae4c",
".1 c #ffae48",
".2 c #ffae4c",
".3 c #f2aa50",
".4 c #f6ae50",
".5 c #ffb244",
".6 c #ffb644",
".7 c #fab24c",
".8 c #ffb248",
"#` c #ffb24c",
"#. c #ffba44",
/* pixels */
"`````w`O`D`w`q`q`q`q`q`q`q`q`q`q`q`q`q`q`q`q`q`q`q`q`q`q`q`q`q`q",
"```b`O.``Y`M`D`q`o`q`q`q`q`q`q`q`q`q`q`q`q`q`q`q`q`q`q`q`q`q`q`q",
"`#`b`F`M`D`A`x`q`q`q`q`q`q`q`q`q`q`q`q`q`q`q`q`q`q`q`q`q`q`q`q`q",
"`#`b`q`s`o`o`q`q`q`q`q`q`q`q`q`q`q`q`q`q`q`q`q`q`q`q`q`q`q`q`q`q",
"```b`q`x`q`q`q`q`q`q`q`q`q`q`q`q`q`q`q`q`q`q`q`q`q`q`q`q`q`q`q`q",
"`.`b`q`w`q`q`q`q`q`q`q`q`q`q`q`q`q`q`q`q`q`q`q`q`q`q`q`q`q`q`q`q",
"```b`s`x`o`q`q`q`q`q`q`q`q`q`q`q`q`q`q`q`q`q`q`q`q`q`q`q`q`q`q`q",
"```b`q`w`o`q`q`q`q`q`q`q`q`q`q`q`q`q`q`q`q`q`q`q`q`q`q`q`q`q`q`q",
"```b`q`x`o`h`e`f`f`j`j`e`k`q`q`q`q`q`q`q`q`q`q`q`k`i`o`q`q`q`q`q",
"```b`w`w`z`0`J`J`2`2`U`V`D`q`q`q`q`q`q`q`q`q`q`q`L`M`s`q`q`q`q`q",
"```b`q`r`M.q.N.w.D.W.I.3.d`p`q`q`q`q`q`q`q`q`k`x.n.t`E`m`q`q`q`q",
"`.`b`q`x`q`N`U`R`R.d.Y#..#`p`o`q`q`q`q`q`q`q`k`D.C.R`K`k`q`q`q`q",
"`#`b`q`x`o`m`k`o`k`j...8.j`p`o`q`q`q`q`q`q`q`k`D.B.L`K`k`q`q`q`q",
"`.`a`s`w`o`q`q`o`o`e`U.Z.l`p`o`q`q`q`q`q`q`m`f`P.Q.L`K`k`q`q`q`q",
"```a`s`x`q`q`q`k`k`d`V.Z.l`p`o`q`q`q`o`k`l`l`B.h.8.J`K`k`q`q`q`q",
"```a`s`x`q`o`x.c.s.m.w.8.k`p`o`q`q`o`o`1.i.q.P.2.5.A`L`k`q`q`q`q",
"`.`b`s`x`o`m`x.b.y.S.1.5.k`p`o`q`q`o`3.W.8.D.x.q.0.J`K`k`q`q`q`q",
"`.`b`s`x`q`q`q`k`g`H.w.5.j`p`o`q`o`x.w.8.a`y`d`B.B.L`K`k`q`q`q`q",
"```b`s`x`q`q`q`q`m`d`6.7.o`p`o`q`o`F.R.W`P`e`h`D.B.L`K`k`q`q`q`q",
"```b`u`w`o`o`m`o`o`e`V.Z.p`t`o`q`m`L.R.M`H`e`n`6.4.L`K`k`q`q`q`q",
"```b`q`w`w`S`0`Z`0`S.f#`.p`t`o`q`m`M.U.Z.b`T.e.M.6.J`K`k`q`q`q`q",
"```b`q`r`O.z.O.E.E.H.T.5.p`t`o`q`o`D.u.X.F.G.V.Z.5.K`L`k`q`q`q`q",
"```b`s`w`z`3`8`5`5`3.m.8.r`t`o`q`q`q`M`3`6`7`2`6.v.q`D`o`q`q`q`q",
"```b`q`x`m`i`j`i`i`d`S.F.g`t`o`q`q`q`k`j`j`i`i`j`I`G`q`q`q`q`q`q",
"```b`s`x`o`q`q`q`q`o`w`W`G`q`q`q`q`q`q`q`o`o`o`o`k`k`q`q`q`q`q`q",
"`.`b`s`x`q`q`q`q`q`q`o`o`o`q`q`q`q`q`q`q`q`q`q`q`q`q`q`q`q`q`q`q",
"`.`b`s`x`q`q`q`q`q`q`q`q`q`q`q`q`q`q`q`q`q`q`q`q`q`q`q`q`q`q`q`q",
"`.`c`q`w`o`q`q`q`q`q`q`q`q`q`q`q`q`q`q`q`q`q`q`q`q`q`q`q`q`q`q`q",
"```a`q`s`o`o`o`q`q`q`q`q`q`q`q`q`q`q`q`q`q`q`q`q`q`q`q`q`q`q`q`q",
"```b`z`M`F`D`C`x`v`q`q`q`q`q`q`q`q`q`q`q`q`q`q`q`q`q`q`q`q`q`q`q",
"```a`M`4`Y`X`Q`D`w`q`q`q`q`q`q`q`q`q`q`q`q`q`q`q`q`q`q`q`q`q`q`q",
"`````w`P`F`D`x`x`q`q`q`q`q`q`q`q`q`q`q`q`q`q`q`q`q`q`q`q`q`q`q`q"
};
