/* XPM */
static char *le3d_plugins[] = {
/* width height num_colors chars_per_pixel */
"    32    32      139            2",
/* colors */
"`` c #202428",
"`. c #242c30",
"`# c #383838",
"`a c #3c3c38",
"`b c #3c3c3c",
"`c c #383c40",
"`d c #344048",
"`e c #3c4044",
"`f c #3c4448",
"`g c #3c484c",
"`h c #3c4850",
"`i c #3c4c50",
"`j c #3c4c55",
"`k c #553c18",
"`l c #443824",
"`m c #40403c",
"`n c #44403c",
"`o c #594424",
"`p c #5d4c38",
"`q c #65441c",
"`r c #6d4c1c",
"`s c #654c2c",
"`t c #695028",
"`u c #615034",
"`v c #655030",
"`w c #695030",
"`x c #715d3c",
"`y c #755938",
"`z c #404040",
"`A c #444440",
"`B c #444444",
"`C c #484848",
"`D c #484c4c",
"`E c #4c4848",
"`F c #4c4c48",
"`G c #4c4c4c",
"`H c #485050",
"`I c #485559",
"`J c #48555d",
"`K c #4c555d",
"`L c #4c595d",
"`M c #504c4c",
"`N c #555048",
"`O c #55504c",
"`P c #505050",
"`Q c #555550",
"`R c #555555",
"`S c #595550",
"`T c #595955",
"`U c #5d5955",
"`V c #5d5d59",
"`W c #5d5d5d",
"`X c #505d61",
"`Y c #556161",
"`Z c #655540",
"`0 c #695944",
"`1 c #695d48",
"`2 c #615d59",
"`3 c #695d50",
"`4 c #6d614c",
"`5 c #61615d",
"`6 c #656159",
"`7 c #65615d",
"`8 c #716148",
".` c #7d6540",
".. c #756959",
".# c #7d6950",
".a c #616161",
".b c #656565",
".c c #696561",
".d c #696965",
".e c #6d6961",
".f c #696969",
".g c #6d6d69",
".h c #6d6d6d",
".i c #716d65",
".j c #756d65",
".k c #716d69",
".l c #71716d",
".m c #757169",
".n c #75716d",
".o c #7d7161",
".p c #79716d",
".q c #79756d",
".r c #7d756d",
".s c #7d796d",
".t c #717171",
".u c #797571",
".v c #7d7571",
".w c #7d7971",
".x c #7d7975",
".y c #7d7d75",
".z c #8d5d1c",
".A c #895d20",
".B c #996d2c",
".C c #9d7138",
".D c #ae7930",
".E c #ba7d28",
".F c #816540",
".G c #816944",
".H c #896940",
".I c #9d7540",
".J c #817d75",
".K c #817d79",
".L c #817d7d",
".M c #857d79",
".N c #857d7d",
".O c #be812c",
".P c #be8130",
".Q c #858179",
".R c #85817d",
".S c #898179",
".T c #89817d",
".U c #89857d",
".V c #8d857d",
".W c #8d897d",
".X c #9d896d",
".Y c #91897d",
".Z c #be8940",
".0 c #c28128",
".1 c #c2812c",
".2 c #ca892c",
".3 c #ca8930",
".4 c #ce8930",
".5 c #ce8d30",
".6 c #d6912c",
".7 c #de912c",
".8 c #de952c",
"#` c #d6953c",
"#. c #e2952c",
"## c #e6992c",
"#a c #ea992c",
"#b c #ea9d30",
"#c c #ee9d30",
"#d c #f2a130",
"#e c #f6a130",
"#f c #958d81",
"#g c #998d81",
"#h c #9d9181",
/* pixels */
"`e`j`g`d```.`g`h`i`i`i`I`Y`Y`X`L`L`J`J`K`L`L`L`L`L`L`I`I`I`I`L`D",
"`f.t.h.b`C`#.f.t.t.t.t.S#h#g#f.Y.V.T.U.U.U.U.U.U.U.U.U.U.U.U.U`H",
"`f.t.h.b`G`#.f.t.t.t.t.K.V.U.U.U.U.U.U.U.U.U.U.U.U.U.U.U.U.U.U`H",
"`c.t.h.b`b`#.f.t.t.t.t.K.W.U.U.U.U.U.U.U.U.U.U.U.U.U.U.U.U.U.U`M",
"`E.t.f.a`#`Q.f.t.t.t.t.K.W.U.U.U.U.U.U.U.U.U.U.U.U.U.U.U.U.U.U`S",
"`P.h.b`G`#.b.h.t.t.t.t.K.V.U.U.U.U.U.U.U.U.U.U.U.U.U.U.U.U.U.T`S",
"`G.h.b`#`G.f.t.t.t.t.t.K.W.U.U.U.U.U.T.T.T.T.T.T.U.U.U.U.U.U.V`U",
"`G.h`W`#.g.h.t.t.t.t.t.K.V.T.T.T.T.r..`4`1`Z`p.o.M.Q.T.T.U.U.U`S",
"`P.h`C`#.f.t.t.t.t.t.t.K.U.M.M.K`w.B.P.4.5.5.3.H.q.L.q.N.R.U.U`S",
"`z.f`b`B.f.t.t.t.t.t.t.y.J.u.n.I.1#c#d#d#d#d#b`v`2`A`F`a`N.T.U`S",
"`B.b`b`C.f.t.t.t.t.t`P`m`A`n`s.6#d#e#e#c#`.C#..`.n.q.u.x.Q.U.U`S",
"`C.b`C`#.f.t.t.t.t`5`#`7.s`6`k.z#e#e#e#e.X.#.8.G.v.Q.T.T.U.U.U`S",
"`C.b`5`#.g.t.t.h.f`#`P.e.e`7`7.O#d#e#e#c.Z.D#a.F.v.Q.T.U.U.U.U`S",
"`C.h.a`b`#.d.a.g`#`#.a.k.v.m.i`x.0#c#c#d#d#d##`y.n.L.x.N.R.U.U`S",
"`C.t.f.a`z`#`#`#`#.l.a.x.T.x.p.m`l`r`q.A.E.2.7`o.e`S`2`N`N.U.U`S",
"`C.t.h.b.a.d`V`W`R.a.h.K.V.Q.K.x.w.v.j`3`0`u`t`8.q.q.u.K.T.U.U`S",
"`C.t.t.t.h.f.f.b.f.t.t.K.V.T.T.T.T.Q.Q.R.R.R.Q.Q.Q.Q.Q.T.T.U.U`S",
"`C.t.t.t.t.t.t.t.t.t.t.K.V.U.U.U.U.T.T.T.U.U.U.U.U.U.U.U.U.U.U`S",
"`C.t.t.t.t.t.t.t.t.t.t.K.V.U.U.U.U.U.U.U.U.U.U.U.U.U.U.U.U.U.U`S",
"`C.t.t.t.t.t.t.t.t.t.t.K.V.U.U.U.U.U.U.U.U.U.U.U.U.U.U.U.U.U.U`S",
"`C.t.t.t.t.t.t.t.t.t.t.K.V.U.U.U.U.U.U.U.U.U.U.U.U.U.U.U.U.U.U`S",
"`C.t.t.t.t.t.t.t.t.t.t.K.V.U.U.U.U.U.U.U.U.U.U.U.U.U.U.U.U.U.U`S",
"`C.t.t.t.t.t.t.t.t.t.t.K.V.U.U.U.U.U.U.U.U.U.U.U.U.U.U.U.U.U.U`S",
"`C.t.t.t.t.t.t.t.t.t.t.K.V.U.U.U.U.U.U.U.U.U.U.U.U.U.U.U.U.U.U`S",
"`C.t.t.t.t.t.t.t.t.t.t.K.V.U.U.U.U.U.U.U.U.U.U.U.U.U.U.U.U.U.U`S",
"`C.t.t.t.t.t.t.t.t.t.t.K.V.U.U.U.U.U.U.U.U.U.U.U.U.U.U.U.U.U.U`S",
"`C.t.t.t.t.t.t.t.t.t.t.K.V.U.U.U.U.U.U.U.U.U.U.U.U.U.U.U.U.U.U`S",
"`C.t.t.t.t.t.t.t.t.t.t.K.V.U.U.U.U.U.U.U.U.U.U.U.U.U.U.U.U.U.U`S",
"`C.t.t.t.t.t.t.t.t.t.t.K.V.U.U.U.U.U.U.U.U.U.U.U.U.U.U.U.U.U.U`S",
"`C.t.t.t.t.t.t.t.t.t.t.K.V.U.U.U.U.U.U.U.U.U.U.U.U.U.U.U.U.U.U`S",
"`B.t.t.t.t.t.t.t.t.t.t.S#h#g#f.Y.V.T.U.U.U.U.U.U.U.U.U.U.U.U.U`O",
"`B`T`R`R`R`R`R`R`R`R`R`R`R`R`R`R`R`R`R`R`R`R`7`7`7`7`7`7`7`7.c`O"
};
