/* XPM */
static char *le3d_rglobals[] = {
/* width height num_colors chars_per_pixel */
"    32    32       44            1",
/* colors */
"` c #343430",
". c #383430",
"# c #383c40",
"a c #3c4044",
"b c #3c4448",
"c c #3c4850",
"d c #3c4c50",
"e c #3c4c55",
"f c #404040",
"g c #444444",
"h c #484848",
"i c #484c4c",
"j c #4c4848",
"k c #4c4c48",
"l c #4c4c4c",
"m c #485050",
"n c #485559",
"o c #48555d",
"p c #4c555d",
"q c #4c595d",
"r c #504c4c",
"s c #55504c",
"t c #505050",
"u c #555555",
"v c #595550",
"w c #595955",
"x c #5d5955",
"y c #505d61",
"z c #556161",
"A c #65615d",
"B c #696561",
"C c #717171",
"D c #817d79",
"E c #857d79",
"F c #898179",
"G c #89817d",
"H c #89857d",
"I c #8d857d",
"J c #8d897d",
"K c #91897d",
"L c #ffaa30",
"M c #958d81",
"N c #998d81",
"O c #9d9181",
/* pixels */
"aedddddcdddnzzyqqoopqqqqqqnnnnqi",
"bCCCCCCCCCCFONMKIGHHHHHHHHHHHHHm",
"bCCCCCCCCCCDIHHHHHHHHHHHHHHHE`Hm",
"#CCCCCCCCCCDJHHHHHHHHHHHHB````Hr",
"jCCCCCCCCCCDJH```HHHHHB```LL``Hv",
"tCCCCCCCCCCDI`HHH`HH``````LL``Gv",
"lCCCCCCCCCCD.H```H`H``LL``````Ix",
"lCCCCCCCCCCD.H```H`H``LL``B`HHHv",
"tCCCCCCCCCCD.H```H`H``B``BHHHHHv",
"fCCCCCCCCCCDI`HHH`HH``BHHHHHHHHv",
"hCCCCCCCCCCDIH```HHHHHHHHHHHHHHv",
"kCCCCCCCCCCDIHHHHHHH``````````Hv",
"hCCCCCCCCCCDIHHHHHHH``LL``LL``Hv",
"hCCCCCCCCCCDIH```HHH``LL``LL``Hv",
"hCCCCCCCCCCDI`HHH`HH``````````Hv",
"hCCCCCCCCCCD.H```H`H``````````Hv",
"hCCCCCCCCCCD.H```H`H`LLLLLLL``Hv",
"hCCCCCCCCCCD.H```H`H`LLLLLLL``Hv",
"hCCCCCCCCCCDI`HHH`HH`LLLLLLL``Hv",
"hCCCCCCCCCCDIH```HHH``````````Hv",
"hCCCCCCCCCCDIHHHHHHH``````````Hv",
"hCCCCCCCCCCDIHHHHHHHHHHHHHHHHHHv",
"hCCCCCCCCCCDIHHHHHHHHHHHHHHHHHHv",
"hCCCCCCCCCCDIHHHHHHHHHHHHHHHHHHv",
"hCCCCCCCCCCDIHHHHHHHHHHHHHHHHHHv",
"hCCCCCCCCCCDIHHHHHHHHHHHHHHHHHHv",
"hCCCCCCCCCCDIHHHHHHHHHHHHHHHHHHv",
"hCCCCCCCCCCDIHHHHHHHHHHHHHHHHHHv",
"hCCCCCCCCCCDIHHHHHHHHHHHHHHHHHHv",
"hCCCCCCCCCCDIHHHHHHHHHHHHHHHHHHv",
"gCCCCCCCCCCFONMKIGHHHHHHHHHHHHHs",
"gwuuuuuuuuuuuuuuuuuuuuAAAAAAAABs"
};
