/* XPM */
static char *le3d_rayBake[] = {
/* width height num_colors chars_per_pixel */
"    32    32      256            2",
/* colors */
"`` c #3c4246",
"`. c #3f4d55",
"`# c #3f4c53",
"`a c #3f4b53",
"`b c #495459",
"`c c #576160",
"`d c #556060",
"`e c #515d60",
"`f c #4e5a5e",
"`g c #4c585d",
"`h c #4b575d",
"`i c #4c575e",
"`j c #4c585e",
"`k c #4b575b",
"`l c #484c4d",
"`m c #3d454b",
"`n c #737373",
"`o c #89827a",
"`p c #9f9283",
"`q c #988e82",
"`r c #948c80",
"`s c #90887f",
"`t c #8c867f",
"`u c #211e1b",
"`v c #8a847e",
"`w c #495052",
"`x c #837f79",
"`y c #8e877f",
"`z c #e5e5e5",
"`A c #3b3f42",
"`B c #837f7a",
"`C c #8f887f",
"`D c #878787",
"`E c #ffffff",
"`F c #504e4d",
"`G c #4c4b4a",
"`H c #ff8e00",
"`I c #5a5652",
"`J c #505050",
"`K c #8d877f",
"`L c #ffbb00",
"`M c #5a5753",
"`N c #4f4f4f",
"`O c #8e887f",
"`P c #5e5a54",
"`Q c #5b5652",
"`R c #414142",
"`S c #484848",
"`T c #4c4c4b",
"`U c #4b4b4b",
"`V c #474747",
"`W c #89837d",
"`X c #8b857f",
"`Y c #55514d",
"`Z c #585857",
"`0 c #545454",
"`1 c #65605c",
"`2 c #696560",
"`3 c #000000",
"`4 c #000000",
"`5 c #000000",
"`6 c #000000",
"`7 c #000000",
"`8 c #000000",
".` c #000000",
".. c #000000",
".# c #000000",
".a c #000000",
".b c #000000",
".c c #000000",
".d c #000000",
".e c #000000",
".f c #000000",
".g c #000000",
".h c #000000",
".i c #000000",
".j c #000000",
".k c #000000",
".l c #000000",
".m c #000000",
".n c #000000",
".o c #000000",
".p c #000000",
".q c #000000",
".r c #000000",
".s c #000000",
".t c #000000",
".u c #000000",
".v c #000000",
".w c #000000",
".x c #000000",
".y c #000000",
".z c #000000",
".A c #000000",
".B c #000000",
".C c #000000",
".D c #000000",
".E c #000000",
".F c #000000",
".G c #000000",
".H c #000000",
".I c #000000",
".J c #000000",
".K c #000000",
".L c #000000",
".M c #000000",
".N c #000000",
".O c #000000",
".P c #000000",
".Q c #000000",
".R c #000000",
".S c #000000",
".T c #000000",
".U c #000000",
".V c #000000",
".W c #000000",
".X c #000000",
".Y c #000000",
".Z c #000000",
".0 c #000000",
".1 c #000000",
".2 c #000000",
".3 c #000000",
".4 c #000000",
".5 c #000000",
".6 c #000000",
".7 c #000000",
".8 c #000000",
"#` c #000000",
"#. c #000000",
"## c #000000",
"#a c #000000",
"#b c #000000",
"#c c #000000",
"#d c #000000",
"#e c #000000",
"#f c #000000",
"#g c #000000",
"#h c #000000",
"#i c #000000",
"#j c #000000",
"#k c #000000",
"#l c #000000",
"#m c #000000",
"#n c #000000",
"#o c #000000",
"#p c #000000",
"#q c #000000",
"#r c #000000",
"#s c #000000",
"#t c #000000",
"#u c #000000",
"#v c #000000",
"#w c #000000",
"#x c #000000",
"#y c #000000",
"#z c #000000",
"#A c #000000",
"#B c #000000",
"#C c #000000",
"#D c #000000",
"#E c #000000",
"#F c #000000",
"#G c #000000",
"#H c #000000",
"#I c #000000",
"#J c #000000",
"#K c #000000",
"#L c #000000",
"#M c #000000",
"#N c #000000",
"#O c #000000",
"#P c #000000",
"#Q c #000000",
"#R c #000000",
"#S c #000000",
"#T c #000000",
"#U c #000000",
"#V c #000000",
"#W c #000000",
"#X c #000000",
"#Y c #000000",
"#Z c #000000",
"#0 c #000000",
"#1 c #000000",
"#2 c #000000",
"#3 c #000000",
"#4 c #000000",
"#5 c #000000",
"#6 c #000000",
"#7 c #000000",
"#8 c #000000",
"a` c #000000",
"a. c #000000",
"a# c #000000",
"aa c #000000",
"ab c #000000",
"ac c #000000",
"ad c #000000",
"ae c #000000",
"af c #000000",
"ag c #000000",
"ah c #000000",
"ai c #000000",
"aj c #000000",
"ak c #000000",
"al c #000000",
"am c #000000",
"an c #000000",
"ao c #000000",
"ap c #000000",
"aq c #000000",
"ar c #000000",
"as c #000000",
"at c #000000",
"au c #000000",
"av c #000000",
"aw c #000000",
"ax c #000000",
"ay c #000000",
"az c #000000",
"aA c #000000",
"aB c #000000",
"aC c #000000",
"aD c #000000",
"aE c #000000",
"aF c #000000",
"aG c #000000",
"aH c #000000",
"aI c #000000",
"aJ c #000000",
"aK c #000000",
"aL c #000000",
"aM c #000000",
"aN c #000000",
"aO c #000000",
"aP c #000000",
"aQ c #000000",
"aR c #000000",
"aS c #000000",
"aT c #000000",
"aU c #000000",
"aV c #000000",
"aW c #000000",
"aX c #000000",
"aY c #000000",
"aZ c #000000",
"a0 c #000000",
"a1 c #000000",
"a2 c #000000",
"a3 c #000000",
"a4 c #000000",
"a5 c #000000",
"a6 c #000000",
"a7 c #000000",
"a8 c #000000",
/* pixels */
"```.`#`#`#`#`#`a`#`#`#`b`c`d`e`f`g`h`h`i`j`j`g`g`g`g`k`k`k`k`g`l",
"`m`n`n`n`n`n`n`n`n`n`n`o`p`q`r`s`t`u`u`u`u`u`u`u`u`u`u`u`v`v`v`w",
"`m`n`n`n`n`n`n`n`n`n`n`x`y`v`v`v`v`u`z`z`z`z`z`z`z`z`z`u`u`v`v`w",
"`A`n`n`n`n`n`n`n`n`n`n`B`C`v`v`v`v`u`z`D`D`D`D`D`D`D`D`u`E`u`v`F",
"`G`n`n`n`n`n`n`n`n`n`n`B`C`v`v`v`v`u`z`D`D`D`H`H`D`D`D`u`E`E`u`I",
"`J`n`n`n`n`n`n`n`n`n`n`x`K`v`v`v`v`u`z`D`D`H`L`H`u`D`D`u`u`u`u`M",
"`N`n`n`n`n`n`n`n`n`n`n`B`O`v`v`v`v`u`z`D`D`H`H`H`u`D`D`D`D`z`u`P",
"`N`n`n`n`n`n`n`n`n`n`n`x`K`v`v`v`v`u`z`D`D`D`u`u`D`D`D`D`D`z`u`Q",
"`J`n`n`n`n`n`n`n`n`n`n`x`K`v`v`v`v`u`z`D`D`D`D`D`D`H`H`H`u`z`u`I",
"`R`n`n`n`n`n`n`n`n`n`n`x`K`v`v`v`v`u`z`D`H`D`D`D`D`H`L`H`u`z`u`I",
"`S`n`n`n`n`n`n`n`n`n`n`x`K`v`v`v`v`u`z`D`L`H`D`D`D`H`H`H`u`z`u`I",
"`T`n`n`n`n`n`n`n`n`n`n`x`K`v`v`v`v`u`z`D`L`L`H`D`D`u`u`u`u`z`u`I",
"`U`n`n`n`n`n`n`n`n`n`n`x`K`v`v`v`v`u`z`D`L`L`L`H`D`D`D`D`D`z`u`I",
"`U`n`n`n`n`n`n`n`n`n`n`x`K`v`v`v`v`u`z`D`u`u`u`u`u`D`D`D`D`z`u`I",
"`U`n`n`n`n`n`n`n`n`n`n`x`K`v`v`v`v`u`z`D`D`D`D`D`D`D`D`D`D`z`u`I",
"`U`n`n`n`n`n`n`n`n`n`n`x`K`v`v`v`v`u`z`z`z`z`z`z`z`z`z`z`z`z`u`I",
"`U`n`n`n`n`n`n`n`n`n`n`x`K`v`v`v`v`u`u`u`u`u`u`u`u`u`u`u`u`u`u`I",
"`U`n`n`n`n`n`n`n`n`n`n`x`K`v`v`v`v`v`v`v`v`v`v`v`v`v`v`v`v`v`v`I",
"`U`n`n`n`n`n`n`n`n`n`n`x`K`v`v`v`v`v`v`v`v`v`v`v`v`v`v`v`v`v`v`I",
"`U`n`n`n`n`n`n`n`n`n`n`x`K`v`v`v`v`v`v`v`v`v`v`v`v`v`v`v`v`v`v`I",
"`U`n`n`n`n`n`n`n`n`n`n`x`K`v`v`v`v`v`v`v`v`v`v`v`v`v`v`v`v`v`v`I",
"`U`n`n`n`n`n`n`n`n`n`n`x`K`v`v`v`v`v`v`v`v`v`v`v`v`v`v`v`v`v`v`I",
"`U`n`n`n`n`n`n`n`n`n`n`x`K`v`v`v`v`v`v`v`v`v`v`v`v`v`v`v`v`v`v`I",
"`U`n`n`n`n`n`n`n`n`n`n`x`K`v`v`v`v`v`v`v`v`v`v`v`v`v`v`v`v`v`v`I",
"`U`n`n`n`n`n`n`n`n`n`n`x`K`v`v`v`v`v`v`v`v`v`v`v`v`v`v`v`v`v`v`I",
"`U`n`n`n`n`n`n`n`n`n`n`x`K`v`v`v`v`v`v`v`v`v`v`v`v`v`v`v`v`v`v`I",
"`U`n`n`n`n`n`n`n`n`n`n`x`K`v`v`v`v`v`v`v`v`v`v`v`v`v`v`v`v`v`v`I",
"`U`n`n`n`n`n`n`n`n`n`n`x`K`v`v`v`v`v`v`v`v`v`v`v`v`v`v`v`v`v`v`I",
"`U`n`n`n`n`n`n`n`n`n`n`x`K`v`v`v`v`v`v`v`v`v`v`v`v`v`v`v`v`v`v`I",
"`U`n`n`n`n`n`n`n`n`n`n`B`K`v`v`v`v`v`v`v`v`v`v`v`v`v`v`v`v`v`v`I",
"`V`n`n`n`n`n`n`n`n`n`n`o`p`q`r`s`t`W`X`v`v`v`v`v`v`v`v`v`v`v`v`Y",
"`V`Z`0`0`0`0`0`0`0`0`0`0`0`0`0`0`0`0`0`0`0`0`1`1`1`1`1`1`1`1`2`Y"
};
