/* XPM */
static char *out_rayDiffuseLightLoc[] = {
/* width height num_colors chars_per_pixel */
"    20    20        8            1",
/* colors */
"` s bg c #ffffff",
". c #000000",
"# c #ffac00",
"a c #000000",
"b c #000000",
"c c #000000",
"d c #000000",
"e c #000000",
/* pixels */
"````````````````````",
"``````````.`````````",
"``````````.`````````",
"````.`````.``````.``",
"````..``.....```..``",
"`````...#####.`..```",
"``````.#######..````",
"`````.#########.````",
"````.###########.```",
"````.###########.```",
"`....###########....",
"````.###########.```",
"````.###########.```",
"`````.#########.````",
"``````.#######..````",
"`````...#####....```",
"````..``.....```..``",
"```..`````.``````.``",
"``````````.`````````",
"``````````.`````````"
};
