/* XPM */
static char * out_TSplineShape_xpm[] = {
"20 20 4 1",
" 	c None",
".	c #3D0000",
"+	c #DC2029",
"@	c #3D0000",
"                    ",
"          ...       ",
"        ..+++...... ",
"        .++++++++.  ",
"       .++++++++.   ",
"       .++++++++.   ",
"       .+++++++.    ",
"       .+++++++.    ",
"      .++++++++.    ",
"      .@@++++++.    ",
"     .+++@@@+++.    ",
"    ..+++@++@@@.    ",
"    .++++@++++.     ",
"  ..++++@+++++.     ",
" .++++++@++++..     ",
"...+++@@+++++.      ",
"   ...@+++++..      ",
"      ...++.        ",
"        ...         ",
"                    "};
