/* XPM */
static char *magick[] = {
/* columns rows colors chars-per-pixel */
"32 32 255 2",
"   c #121b23",
".  c #1f262f",
"X  c #311a18",
"o  c #252e37",
"O  c #2a3239",
"+  c #332521",
"@  c #322328",
"#  c #362829",
"$  c #392a2a",
"%  c #3c2e30",
"&  c #35312c",
"*  c #30363f",
"=  c #373b38",
"-  c #3a3334",
";  c #3b343d",
":  c #3d3a3c",
">  c #2d3844",
",  c #2e3b48",
"<  c #393c49",
"1  c #364051",
"2  c #37485b",
"3  c #384f5f",
"4  c #394647",
"5  c #2f4862",
"6  c #344b64",
"7  c #334f6c",
"8  c #355473",
"9  c #32557a",
"0  c #422f30",
"q  c #463336",
"w  c #423e3f",
"e  c #6f0c13",
"r  c #710409",
"t  c #434446",
"y  c #464c4e",
"u  c #4d424a",
"i  c #424f50",
"p  c #4f5457",
"a  c #5c4a4b",
"s  c #554242",
"d  c #53565a",
"f  c #475361",
"g  c #42566d",
"h  c #455963",
"j  c #4a5865",
"k  c #69575a",
"l  c #655355",
"z  c #744a4d",
"x  c #7c5767",
"c  c #6e6163",
"v  c #6d6e72",
"b  c #64717d",
"n  c #70686e",
"m  c #385d89",
"M  c #366191",
"N  c #366ba1",
"B  c #337fbf",
"V  c #3b7aba",
"C  c #3a7fc7",
"Z  c #4a6e97",
"A  c #466689",
"S  c #477fb9",
"D  c #6d7884",
"F  c #6b6fab",
"G  c #6d75af",
"H  c #6776b9",
"J  c #6e7ab6",
"K  c #7373ad",
"L  c #727cb9",
"P  c #3c86d0",
"I  c #3c8dd6",
"U  c #3b8ad9",
"Y  c #3e91e4",
"T  c #77818d",
"R  c #78838e",
"E  c #4589ce",
"W  c #4887c9",
"Q  c #4b8acc",
"!  c #418bd6",
"~  c #458eda",
"^  c #428edc",
"/  c #4a8fd5",
"(  c #4690c7",
")  c #4692de",
"_  c #4590db",
"`  c #4992dc",
"'  c #4c92da",
"]  c #4c94dd",
"[  c #578dd5",
"{  c #5594db",
"}  c #5c9ad9",
"|  c #5494d5",
" . c #4392e4",
".. c #4493e4",
"X. c #4695e4",
"o. c #4392e3",
"O. c #4a93e1",
"+. c #4b95e2",
"@. c #4d96e2",
"#. c #4896e7",
"$. c #4e9de8",
"%. c #519deb",
"&. c #559be2",
"*. c #51a9d5",
"=. c #59aedb",
"-. c #49a1ee",
";. c #4ca7f4",
":. c #54a6ec",
">. c #56aaee",
",. c #55a5f4",
"<. c #51a9f5",
"1. c #56adff",
"2. c #5ba4f4",
"3. c #5ab2ff",
"4. c #5bb6f8",
"5. c #5bb8f6",
"6. c #5ebaff",
"7. c #5fbcff",
"8. c #5abdff",
"9. c #6684c6",
"0. c #678ed7",
"q. c #6198d0",
"w. c #7183c5",
"e. c #758ec4",
"r. c #7290c4",
"t. c #729dca",
"y. c #6d96e1",
"u. c #6f9fec",
"i. c #769ae4",
"p. c #7d9ae1",
"a. c #6fa2d6",
"s. c #6da1dc",
"d. c #7aa8d7",
"f. c #61a1f4",
"g. c #64a7f9",
"h. c #67a9fe",
"j. c #6fb6e3",
"k. c #6dbae6",
"l. c #6bbeea",
"z. c #60bfff",
"x. c #7dbae9",
"c. c #5fc9ff",
"v. c #5fcdff",
"b. c #67c3ef",
"n. c #69c1ed",
"m. c #63c2f4",
"M. c #62c2ff",
"N. c #62c5ff",
"B. c #64c7ff",
"V. c #61c9ff",
"C. c #61cdff",
"Z. c #65c9ff",
"A. c #64ceff",
"S. c #69c9fc",
"D. c #69d4ff",
"F. c #72c5f8",
"G. c #71caf8",
"H. c #7ecaf1",
"J. c #893c3d",
"K. c #a01b20",
"L. c #bd2a28",
"P. c #9c3f40",
"I. c #807171",
"U. c #9c6266",
"Y. c #b04147",
"T. c #b0476c",
"R. c #bf4b6f",
"E. c #b24b65",
"W. c #d60000",
"Q. c #db0202",
"!. c #d80808",
"~. c #df0e14",
"^. c #d71a1a",
"/. c #c93333",
"(. c #d53636",
"). c #d83336",
"_. c #e10000",
"`. c #e40f0f",
"'. c #ed1717",
"]. c #f61514",
"[. c #ff1f1e",
"{. c #f41d1d",
"}. c #fa1c2c",
"|. c #ff221e",
" X c #ea2431",
".X c #e2333f",
"XX c #e7383f",
"oX c #ef3237",
"OX c #e9343a",
"+X c #f72121",
"@X c #f42a2a",
"#X c #ff2320",
"$X c #ff2626",
"%X c #fd2424",
"&X c #ff2728",
"*X c #ff2929",
"=X c #ff2a2c",
"-X c #ff2c2f",
";X c #f72132",
":X c #f52936",
">X c #ff2e31",
",X c #fd2c33",
"<X c #fb303b",
"1X c #de2f48",
"2X c #d6314b",
"3X c #db374e",
"4X c #e53c46",
"5X c #f23546",
"6X c #c34450",
"7X c #da4d4b",
"8X c #cf4c69",
"9X c #d36a6c",
"0X c #e14057",
"qX c #915c89",
"wX c #898a8d",
"eX c #858d97",
"rX c #899098",
"tX c #958888",
"yX c #949597",
"uX c #93979e",
"iX c #9a9799",
"pX c #97a5b7",
"aX c #a19a9c",
"sX c #a0a1a5",
"dX c #a7a6aa",
"fX c #b6b5b5",
"gX c #b7b7b8",
"hX c #bdbbbc",
"jX c #8a90cd",
"kX c #84abd3",
"lX c #8aafd5",
"zX c #8ab0d5",
"xX c #91acc8",
"cX c #94b4d4",
"vX c #9ab6d3",
"bX c #94badb",
"nX c #a1b3cb",
"mX c #a5bace",
"MX c #b4bfc9",
"NX c #bebfc2",
"BX c #86c7ed",
"VX c #8fcae8",
"CX c #97c9e5",
"ZX c #a4cade",
"AX c #abcad9",
"SX c #bfc1c3",
"DX c #bec1c4",
"FX c #b3c9d5",
"GX c #cf8484",
"HX c #cda0a0",
"JX c #c1c1c1",
"KX c #c0c2c4",
"LX c #c3c5c4",
"PX c #cec8c5",
"IX c #d0c8c4",
/* pixels */
"JXJXJXJXJXJXJXJXJXJXJXJXJXJXJXJXJXJXJXJXJXJXJXJXJXJXJXJXJXJXJXJX",
"JXJXJXJXJXJXJXJXJXJXJXJXJXJXJXJXJXJXJXJXJXJXJXJXJXJXJXJXJXJXJXJX",
"JXJXJXJXJXJXJXJXJXJXJXJXJXJXJXJXJXJXJXJXJXJXJXJXJXJXJXJXJXJXJXJX",
"JXJXJXJXJXJXJXJXJXJXJXJXJXJXJXJXJXJXJXJXJXJXJXJXJXJXJXJXJXJXJXJX",
"JXJXJXJXJXJXJXJXJXJXJXJXJXJXJXJXJXJXJXJXJXJXJXJXJXJXJXJXJXJXJXJX",
"JXJXJXJXJXJXJXJXJXJXJXJXJXJXJXJXJXJXJXJXJXJXJXJXJXJXJXJXJXJXJXJX",
"JXJXJXJXJXJXJXJXSXJXJXJXJXJXJXJXJXJXJXJXJXJXJXJXJXJXJXJXJXJXJXJX",
"JXJXJXSXmXlXa.} ' ] d.SXJXJXJXJXJXJXJXJXJXJXJXJXJXJXJXJXJXJXJXJX",
"JXJXkX~ _ ^ ^ ) _ O.^ [ nXJXJXJXJXJXJXJXJXJXJXJXJXJXJXLXJXJXJXJX",
"JXJXkXU ` ` ] { [ 9.L H e.JXJXJXJXJXJXJXcXlXzXlXcXvXcXvXMXJXJXJX",
"JXJXnX! ` 2.g.y.w.J G F r.LXLXJXJXJXJXJX] Y o. . . . .....MXLXJX",
"JXJXSX/ _ g.h.0.K qXT.2X3X9XGXHXJXJXLXJX{ ..@.@.@.+.+.@...&.JXJX",
"JXJXJX| ~ ,.i.R.1X;X}.;X}.Q.W.!.^.(.7XU.W #.O.O.O.O.+.+.+. .s.PX",
"JXJXJXq.! <.jX%X&X,X:X X~.W.W.W.W.W._.r ( 4.>.>.>.>.>.>.:.:.-.bX",
"JXJXJXt.P ,.p.<X=X-X>X-X%X{.'.`.Q.W._.e *.D.Z.Z.Z.Z.Z.Z.Z.Z.c.BX",
"JXJXJXxXC $.u.5X=X>X>X>X-X*X*X*X$X+X].K.=.A.B.B.B.B.B.B.Z.Z.c.CX",
"JXJXLXpXV ` f.0X=X>X>X-X*X*X*X*X*X*X%XoXj.v.B.B.B.B.B.Z.Z.Z.V.AX",
"JXyXd , N E ,.8X|.*X=X=X*X*X*X*X*X*X#XOXk.C.B.B.B.B.B.Z.Z.Z.S.KX",
"JXp   o 5 V %.L E.4X=X$X&X*X*X*X*X*X#XXXl.C.Z.Z.Z.Z.Z.Z.Z.V.G.JX",
"JXJX* o O 9 ' I B Z x Y.).@X$X$X&X*X#X4Xn.C.Z.Z.Z.Z.Z.Z.Z.V.H.JX",
"JXJXwX  . > M m g j h h d z P./.@X$X[.4Xb.C.Z.Z.Z.Z.Z.Z.Z.c.VXPX",
"JXJXJXv wXfXiXn u ; : t y i i y a J.L.6Xm.V.Z.Z.Z.Z.Z.Z.Z.V.ZXIX",
"JXJXJXJXJXJXJXJXJXaXk q % - w t t 4 = f m.N.M.M.N.B.B.B.Z.Z.FXPX",
"JXJXJXJXJXJXJXJXJXJXJXhXtXa 0 # & : & 3 5.7.6.6.6.6.z.M.N.S.KXJX",
"JXJXJXJXJXJXJXJXJXJXJXJXJXJXhXI.s $ + 2 1.1.1.1.1.3.3.6.8.F.JXJX",
"JXJXJXJXJXJXJXJXJXJXJXJXJXJXJXJXJXl X < S Q Q / ' @.%.,.;.x.JXJX",
"JXJXJXJXJXJXJXJXJXJXJXJXJXJXJXJXJXc @ ; 1 6 6 7 7 8 8 9 A NXJXJX",
"JXJXJXJXJXJXJXJXJXJXJXJXJXJXJXJXJXJXhXdXsXuXrXeXR T D b gXJXJXJX",
"JXJXJXJXJXJXJXJXJXJXJXJXJXJXJXJXJXJXJXJXJXJXJXJXJXJXJXJXJXJXJXJX",
"JXJXJXJXJXJXJXJXJXJXJXJXJXJXJXJXJXJXJXJXJXJXJXJXJXJXJXJXJXJXJXJX",
"JXJXJXJXJXJXJXJXJXJXJXJXJXJXJXJXJXJXJXJXJXJXJXJXJXJXJXJXJXJXJXJX",
"JXJXJXJXJXJXJXJXJXJXJXJXJXJXJXJXJXJXJXJXJXJXJXJXJXJXJXJXJXJXJXJX"
};
