/* XPM */
static char *PTB32_xpm[]={
"32 32 756 2",
"      c #671E1D",
" 0    c #792322",
" 1    c #802524",
" 2    c #802624",
" 3    c #7F2524",
" 4    c #7D2523",
" 5    c #7C2523",
" 6    c #7A2422",
" 7    c #792422",
" 8    c #762321",
" 9    c #742221",
" a    c #722220",
" b    c #70211F",
" c    c #6D201F",
" d    c #6B201E",
" e    c #691F1D",
" f    c #671F1D",
" g    c #661E1C",
" h    c #631D1C",
" i    c #621D1B",
" j    c #601D1B",
" k    c #5F1C1A",
" l    c #5E1C1A",
" m    c #5D1B1A",
" n    c #5C1B1A",
" o    c #5B1B19",
" p    c #5A1A19",
" q    c #591A19",
" r    c #581A19",
" s    c #581919",
" t    c #7D2423",
" u    c #7C2423",
" v    c #7B2423",
" w    c #782422",
" x    c #752321",
" y    c #742320",
" z    c #70221F",
" A    c #6E211F",
" B    c #6C211E",
" C    c #6A201E",
" D    c #69201D",
" E    c #661F1C",
" F    c #65201C",
" G    c #631F1C",
" H    c #611E1B",
" I    c #601E1B",
" J    c #5E1D1A",
" K    c #5D1C1A",
" L    c #5C1C1A",
" M    c #5A1B19",
" N    c #571A18",
" O    c #571918",
" P    c #561918",
" Q    c #772322",
" R    c #792522",
" S    c #8B412B",
" T    c #7B2923",
" U    c #813324",
" V    c #8C4528",
" W    c #914F2C",
" X    c #985A31",
" Y    c #9B6131",
" Z    c #A16B31",
" &    c #A06B34",
"0     c #A6753A",
"00    c #AA7939",
"01    c #A97C38",
"02    c #A97B37",
"03    c #A4772E",
"04    c #B88C3E",
"05    c #A1772B",
"06    c #9C7223",
"07    c #9B7224",
"08    c #916522",
"09    c #91661D",
"0a    c #8A5F1C",
"0b    c #855A1B",
"0c    c #7E5419",
"0d    c #744619",
"0e    c #673417",
"0f    c #5A2317",
"0g    c #5D231B",
"0h    c #703D1F",
"0i    c #561C17",
"0j    c #541918",
"0k    c #752221",
"0l    c #792F20",
"0m    c #B79B3A",
"0n    c #874E24",
"0o    c #815F22",
"0p    c #A08536",
"0q    c #B09A43",
"0r    c #BAA853",
"0s    c #BEAF5F",
"0t    c #C5B363",
"0u    c #C6B464",
"0v    c #C8B762",
"0w    c #C8B658",
"0x    c #C8B74F",
"0y    c #C9B546",
"0z    c #C7AD3D",
"0A    c #C1A635",
"0B    c #B69A2C",
"0C    c #AF9425",
"0D    c #A88F20",
"0E    c #A28920",
"0F    c #9D841C",
"0G    c #96801B",
"0H    c #8D7B16",
"0I    c #7F6D0F",
"0J    c #7D6811",
"0K    c #6C580D",
"0L    c #48300B",
"0M    c #6F4425",
"0N    c #AB9336",
"0O    c #4B2411",
"0P    c #4C1615",
"0Q    c #712120",
"0R    c #43250F",
"0S    c #481B13",
"0T    c #30100D",
"0U    c #250E0A",
"0V    c #25100A",
"0W    c #271309",
"0X    c #2A170A",
"0Y    c #2B170B",
"0Z    c #2D1A0B",
"0&    c #2F1C0B",
"1     c #39200D",
"10    c #562A14",
"11    c #582B15",
"12    c #572A15",
"13    c #592A15",
"14    c #562814",
"15    c #4E2412",
"16    c #31180B",
"17    c #271308",
"18    c #251208",
"19    c #241008",
"1a    c #230F08",
"1b    c #210C08",
"1c    c #1F0B08",
"1d    c #1F0908",
"1e    c #270F0A",
"1f    c #42230F",
"1g    c #260C0A",
"1h    c #280B0B",
"1i    c #401312",
"1j    c #531917",
"1k    c #621D1C",
"1l    c #36100F",
"1m    c #290C0B",
"1n    c #200A09",
"1o    c #1F0A09",
"1p    c #1D0908",
"1q    c #1C0908",
"1r    c #1F0A08",
"1s    c #200B09",
"1t    c #200B08",
"1u    c #1D0A08",
"1v    c #1C0808",
"1w    c #220A09",
"1x    c #210A09",
"1y    c #2B0D0C",
"1z    c #3E1211",
"1A    c #4B1615",
"1B    c #461514",
"1C    c #691F1E",
"1D    c #681F1D",
"1E    c #651E1C",
"1F    c #641E1C",
"1G    c #5D1D1A",
"1H    c #81513E",
"1I    c #A2876F",
"1J    c #9F866E",
"1K    c #968361",
"1L    c #918252",
"1M    c #948646",
"1N    c #998A3E",
"1O    c #978235",
"1P    c #917B2F",
"1Q    c #8D772C",
"1R    c #897429",
"1S    c #857025",
"1T    c #836E22",
"1U    c #846E20",
"1V    c #563F11",
"1W    c #33100E",
"1X    c #3F1311",
"1Y    c #481614",
"1Z    c #491614",
"1&    c #4E1716",
"2     c #661E1D",
"20    c #611D1B",
"21    c #62241C",
"22    c #D0BD9B",
"23    c #FDFDFB",
"24    c #FEFDFA",
"25    c #FEFDE2",
"26    c #FDFDBC",
"27    c #FDFD9E",
"28    c #FEFB83",
"29    c #FCE96F",
"2a    c #EBD45C",
"2b    c #DEC84F",
"2c    c #D5BF47",
"2d    c #CDB73F",
"2e    c #C7B139",
"2f    c #C0AB33",
"2g    c #89711B",
"2h    c #4C1A14",
"2i    c #4B1715",
"2j    c #4C1715",
"2k    c #4D1715",
"2l    c #4D1716",
"2m    c #642C1E",
"2n    c #D0C59D",
"2o    c #E4E1C7",
"2p    c #E2DFC2",
"2q    c #E2DEAE",
"2r    c #E1DE94",
"2s    c #EDE98A",
"2t    c #FEFC86",
"2u    c #FBE971",
"2v    c #EBD65E",
"2w    c #CCB843",
"2x    c #C3AE39",
"2y    c #BCA733",
"2z    c #B7A32E",
"2A    c #B39F2A",
"2B    c #96831D",
"2C    c #4E1E14",
"2D    c #4A1614",
"2E    c #4A1615",
"2F    c #601C1B",
"2G    c #581B18",
"2H    c #592117",
"2I    c #807312",
"2J    c #898213",
"2K    c #888011",
"2L    c #888010",
"2M    c #898010",
"2N    c #C5B74A",
"2O    c #FDF883",
"2P    c #FCEB73",
"2Q    c #E5D059",
"2R    c #918414",
"2S    c #897C0D",
"2T    c #887B0C",
"2U    c #897B0C",
"2V    c #887A0C",
"2W    c #7B670C",
"2X    c #4B1B13",
"2Y    c #471614",
"2Z    c #5E201B",
"2&    c #733B26",
"3     c #743E29",
"30    c #723D2A",
"31    c #713D2B",
"32    c #703E2B",
"33    c #876C24",
"34    c #918320",
"35    c #847317",
"36    c #74600E",
"37    c #745F0F",
"38    c #BBA948",
"39    c #FDF782",
"3a    c #F9E66E",
"3b    c #E2CF59",
"3c    c #806D13",
"3d    c #78620F",
"3e    c #7A630F",
"3f    c #79630F",
"3g    c #79610F",
"3h    c #6A4B0F",
"3i    c #4C1E14",
"3j    c #4B1C14",
"3k    c #4A1B14",
"3l    c #481714",
"3m    c #471514",
"3n    c #481514",
"3o    c #491514",
"3p    c #591B19",
"3q    c #784729",
"3r    c #EFE784",
"3s    c #F5EF9D",
"3t    c #F5F0AE",
"3u    c #F5F0BD",
"3v    c #F5EFC7",
"3w    c #F5F0CC",
"3x    c #F3EEC1",
"3y    c #E4DAA0",
"3z    c #917240",
"3A    c #4D1E15",
"3B    c #A88C46",
"3C    c #FDF47E",
"3D    c #F7E46C",
"3E    c #DDCA56",
"3F    c #634217",
"3G    c #A48637",
"3H    c #B39A36",
"3I    c #AE9531",
"3J    c #AB922E",
"3K    c #A88E2B",
"3L    c #A48A28",
"3M    c #A18726",
"3N    c #9C8222",
"3O    c #7F5E1B",
"3P    c #512414",
"3Q    c #461513",
"3R    c #581A18",
"3S    c #805629",
"3T    c #F8F685",
"3U    c #FEFE9F",
"3V    c #FDFDAD",
"3W    c #FDFDB8",
"3X    c #FDFDC4",
"3Y    c #FDFDC8",
"3Z    c #FEFEC3",
"3&    c #FEFEBB",
"4     c #F1ED9E",
"40    c #775530",
"41    c #A58842",
"42    c #FCEF78",
"43    c #F4E069",
"44    c #D9C652",
"45    c #614116",
"46    c #BCA13F",
"47    c #CBB841",
"48    c #C4B13A",
"49    c #C0AD35",
"4a    c #BCA831",
"4b    c #B8A52D",
"4c    c #B5A22A",
"4d    c #B3A028",
"4e    c #B09C26",
"4f    c #977E1F",
"4g    c #512614",
"4h    c #551918",
"4i    c #82582A",
"4j    c #FAF47A",
"4k    c #F2F07D",
"4l    c #B4B34C",
"4m    c #AAAA49",
"4n    c #A9A94C",
"4o    c #A9A94E",
"4p    c #C0BE69",
"4q    c #F7F6A0",
"4r    c #FEFD9E",
"4s    c #B3A451",
"4t    c #A48A3F",
"4u    c #FAE871",
"4v    c #F0DC65",
"4w    c #D4C24E",
"4x    c #583B14",
"4y    c #B49C3A",
"4z    c #CBB740",
"4A    c #C0AE37",
"4B    c #AD9C29",
"4C    c #A99826",
"4D    c #A79624",
"4E    c #A69421",
"4F    c #A89722",
"4G    c #B19E26",
"4H    c #AF9B24",
"4I    c #7F6418",
"4J    c #461613",
"4K    c #451513",
"4L    c #541917",
"4M    c #805628",
"4N    c #F9E96F",
"4O    c #EBE165",
"4P    c #8C820F",
"4Q    c #7A7408",
"4R    c #7A7308",
"4S    c #7E750E",
"4T    c #E0DA72",
"4U    c #FEFE8F",
"4V    c #D1CA5E",
"4W    c #A08C3A",
"4X    c #F6E26B",
"4Y    c #EDD961",
"4Z    c #D0BE4B",
"4&    c #44330F",
"5     c #AE9936",
"50    c #C9B63F",
"51    c #B2A22E",
"52    c #7D7208",
"53    c #7E7107",
"54    c #7F7107",
"55    c #8C7F10",
"56    c #B6A330",
"57    c #B09C24",
"58    c #98841C",
"59    c #481C12",
"5a    c #441413",
"5b    c #451413",
"5c    c #521817",
"5d    c #511816",
"5e    c #754922",
"5f    c #F4DD64",
"5g    c #EFDC60",
"5h    c #AA962C",
"5i    c #82652B",
"5j    c #80642B",
"5k    c #7F632B",
"5l    c #8F7633",
"5m    c #EFE977",
"5n    c #FEF980",
"5o    c #C6BB4D",
"5p    c #A28F36",
"5q    c #EFDB63",
"5r    c #E8D45C",
"5s    c #CBB946",
"5t    c #42310E",
"5u    c #AD9A36",
"5v    c #C9B53D",
"5w    c #AE9E2D",
"5x    c #5E4F0B",
"5y    c #59490A",
"5z    c #5A4A0A",
"5A    c #8C7B1C",
"5B    c #BDAE42",
"5C    c #97851B",
"5D    c #411B0F",
"5E    c #421312",
"5F    c #4F1816",
"5G    c #6A3D1E",
"5H    c #EAD25A",
"5I    c #F8E165",
"5J    c #FAE76C",
"5K    c #FAEA71",
"5L    c #FBEE75",
"5M    c #FAEF77",
"5N    c #FBF178",
"5O    c #FEF278",
"5P    c #F8E870",
"5Q    c #938623",
"5R    c #9D8931",
"5S    c #E9D55D",
"5T    c #E2CF56",
"5U    c #C6B441",
"5V    c #42310D",
"5W    c #AD9933",
"5X    c #C7B43C",
"5Y    c #C0AD36",
"5Z    c #AE992E",
"5&    c #AA962B",
"6     c #A89329",
"60    c #A69127",
"61    c #B5A02B",
"62    c #AF9B23",
"63    c #706012",
"64    c #4F1716",
"65    c #5F3118",
"66    c #DAC24D",
"67    c #F0D95D",
"68    c #F5DF63",
"69    c #FAE468",
"6a    c #FCE66B",
"6b    c #FCE86D",
"6c    c #F8E46B",
"6d    c #B7A73E",
"6e    c #6C5E0B",
"6f    c #917D2E",
"6g    c #E3CF57",
"6h    c #DFCB52",
"6i    c #C1AF3D",
"6j    c #40300D",
"6k    c #B39E35",
"6l    c #C7B33A",
"6m    c #C2AE36",
"6n    c #BEAA32",
"6o    c #BBA72F",
"6p    c #B8A52C",
"6q    c #B6A229",
"6r    c #B4A027",
"6s    c #B29E25",
"6t    c #A3911F",
"6u    c #362609",
"6v    c #1D0808",
"6w    c #250B0A",
"6x    c #562615",
"6y    c #C8B03F",
"6z    c #E8D155",
"6A    c #CFBD46",
"6B    c #C3B541",
"6C    c #C4B743",
"6D    c #C4B643",
"6E    c #BDB03E",
"6F    c #9B8E24",
"6G    c #75670A",
"6H    c #453508",
"6I    c #88752B",
"6J    c #DEC951",
"6K    c #D9C54C",
"6L    c #BCAB38",
"6M    c #3F2F0C",
"6N    c #B5A135",
"6O    c #C5B239",
"6P    c #BEAB33",
"6Q    c #B6A42D",
"6R    c #B3A12A",
"6S    c #B19F28",
"6T    c #AF9D26",
"6U    c #B19E25",
"6V    c #A89620",
"6W    c #39270B",
"6X    c #4F1D14",
"6Y    c #AD932D",
"6Z    c #E0C94C",
"6&    c #B09E27",
"7     c #7A7107",
"70    c #776F06",
"71    c #766E06",
"72    c #776D05",
"73    c #746606",
"74    c #4B3B06",
"75    c #1E0E07",
"76    c #857329",
"77    c #D9C54B",
"78    c #D6C248",
"79    c #B9A735",
"7a    c #3E2E0C",
"7b    c #B7A234",
"7c    c #C4B037",
"7d    c #9F9121",
"7e    c #766F07",
"7f    c #766E07",
"7g    c #776E07",
"7h    c #786F08",
"7i    c #A29024",
"7j    c #B19D25",
"7k    c #A89520",
"7l    c #3B2A0B",
"7m    c #4B1814",
"7n    c #8D741F",
"7o    c #D9C346",
"7p    c #C4AC33",
"7q    c #634110",
"7r    c #4E280F",
"7s    c #4D280F",
"7t    c #4C270F",
"7u    c #421E0E",
"7v    c #1E0A07",
"7w    c #1B0A07",
"7x    c #847127",
"7y    c #D4C046",
"7z    c #D1BD43",
"7A    c #B3A131",
"7B    c #41300E",
"7C    c #B8A333",
"7D    c #C1AD34",
"7E    c #847719",
"7F    c #4D3F05",
"7G    c #4C3E05",
"7H    c #4D3E05",
"7I    c #5B4C0A",
"7J    c #BCAC48",
"7K    c #B09D26",
"7L    c #9F8D1E",
"7M    c #311F09",
"7N    c #72531A",
"7O    c #D0B940",
"7P    c #C8B238",
"7Q    c #6C4615",
"7R    c #421412",
"7S    c #411412",
"7T    c #3D1311",
"7U    c #837025",
"7V    c #CEBA41",
"7W    c #CDB840",
"7X    c #AC9A2D",
"7Y    c #45340F",
"7Z    c #B8A332",
"7&    c #938123",
"8     c #725D21",
"80    c #705A1F",
"81    c #6F591E",
"82    c #84712C",
"83    c #B6A63D",
"84    c #AC9822",
"85    c #776713",
"86    c #210E07",
"87    c #1E0808",
"88    c #5A3217",
"89    c #BFA937",
"8a    c #CDB63C",
"8b    c #8E6F1A",
"8c    c #441612",
"8d    c #401311",
"8e    c #3E1311",
"8f    c #2C0D0C",
"8g    c #1C0A07",
"8h    c #7E6B20",
"8i    c #BCAA37",
"8j    c #BAA834",
"8k    c #988923",
"8l    c #46340F",
"8m    c #B7A231",
"8n    c #BCA731",
"8o    c #B9A52F",
"8p    c #B7A22D",
"8q    c #B29E28",
"8r    c #AC9925",
"8s    c #AD9924",
"8t    c #9A881C",
"8u    c #392809",
"8v    c #1E0908",
"8w    c #A8902E",
"8x    c #C7B13A",
"8y    c #A58A22",
"8z    c #411312",
"8A    c #38110F",
"8B    c #4E4009",
"8C    c #736C08",
"8D    c #726D07",
"8E    c #6A6205",
"8F    c #4E3C10",
"8G    c #B8A330",
"8H    c #B9A42F",
"8I    c #B6A12D",
"8J    c #B39F2B",
"8K    c #B19D28",
"8L    c #AF9A26",
"8M    c #AC9824",
"8N    c #5A4B0B",
"8O    c #1F0C07",
"8P    c #6D551B",
"8Q    c #897D1F",
"8R    c #887713",
"8S    c #4E2711",
"8T    c #3D1211",
"8U    c #3C1210",
"8V    c #221106",
"8W    c #312106",
"8X    c #332406",
"8Y    c #44310F",
"8Z    c #A49425",
"8&    c #A69625",
"9     c #A49423",
"90    c #A29222",
"91    c #A19020",
"92    c #9F8E1E",
"93    c #938318",
"94    c #645709",
"95    c #261407",
"96    c #4A260F",
"97    c #5D4E06",
"98    c #5E5005",
"99    c #301809",
"9a    c #230A09",
"9b    c #1A0807",
"9c    c #1B0807",
"9d    c #342308",
"9e    c #6D6505",
"9f    c #6E6804",
"9g    c #6E6704",
"9h    c #6E6604",
"9i    c #6B6304",
"9j    c #564A04",
"9k    c #291707",
"9l    c #3E1610",
"9m    c #220D08",
"9n    c #1E0A08",
"9o    c #200D09",
"9p    c #210E0B",
"9q    c #23100C",
"9r    c #26130D",
"9s    c #281610",
"9t    c #291711",
"9u    c #291710",
"9v    c #28160F",
"9w    c #301710",
"9x    c #3D1D11",
"9y    c #41240D",
"9z    c #362009",
"9A    c #2D1C06",
"9B    c #2C1B06",
"9C    c #2C1A07",
"9D    c #271507",
"9E    c #1F0B07",
"9F    c #6E5B10",
"9G    c #443209",
"9H    c #332209",
"9I    c #746021",
"9J    c #A49545",
"9K    c #ADA261",
"9L    c #B2A872",
"9M    c #B8AF7B",
"9N    c #C0B883",
"9O    c #C1BA84",
"9P    c #BCB477",
"9Q    c #B9AF62",
"9R    c #B6AB51",
"9S    c #B8A745",
"9T    c #A08A2E",
"9U    c #64590A",
"9V    c #5C5308",
"9W    c #5D5307",
"9X    c #554A08",
"9Y    c #4B3C08",
"9Z    c #332107",
"9&    c #55480A",
"a     c #473A08",
"a0    c #1F0909",
"a1    c #573014",
"a2    c #695D0E",
"a3    c #423008",
"a4    c #4D4109",
"a5    c #605712",
"a6    c #675B19",
"a7    c #6A601B",
"a8    c #6A611B",
"a9    c #68631A",
"aa    c #69641B",
"ab    c #696519",
"ac    c #686615",
"ad    c #686514",
"ae    c #686611",
"af    c #67660F",
"ag    c #67650E",
"ah    c #636308",
"ai    c #646304",
"aj    c #636104",
"ak    c #636103",
"al    c #5B5803",
"am    c #4D4204",
"an    c #2A1708",
"ao    c #625310",
"ap    c #574C05",
"aq    c #200909",
"ar    c #471713",
"as    c #3C1B0E",
"at    c #210B08",
"au    c #220E08",
"av    c #2B1908",
"aw    c #2C1D07",
"ax    c #2D1E08",
"ay    c #302008",
"az    c #2F2008",
"aA    c #3F240C",
"aB    c #46260E",
"aC    c #321F07",
"aD    c #281607",
"aE    c #220F07",
"aF    c #2A1608",
"aG    c #491515",
"aH    c #461414",
"aI    c #310E0E",
"aJ    c #270B0B",
"aK    c #3B1110",
"aL    c #2D0D0D",
"aM    c #35100F",
"aN    c #2D0D0C",
"aO    c #210909",
"   0 1 2 3 4 5 6 7 8 9 a b c d e f g h i j k l m n o p p q r r s",
" 9 t t u v 6 w x y a z A B C D E F G H I J K L M M q r r N O O P",
" Q R S T U V W X Y Z &0 000102030405060708090a0b0c0d0e0f0g0h0i0j",
"0k0l0m0n0o0p0q0r0s0t0u0v0w0x0y0z0A0B0C0D0E0F0G0H0I0J0K0L0M0N0O0P",
"0Q B0R0S0T0U0V0W0X0Y0Z0&1 10111213141415161718191a1b1c1d1e1f1g1h",
" c e1i1j1k1j1l1m1m1n1o1p1q1r1s1t1s1s1s1r1u1u1q1v1d1w1x1y1z1A1B1l",
"1C1D1E1E1F h j1G1H1I1J1K1L1M1N1O1P1Q1R1S1T1U1V1W1X1Y1Z1A1&1&1&1&",
"2 1E1F1k20 k K2122232425262728292a2b2c2d2e2f2g2h2i2j2j2j2j2j2k2l",
" h i j k K o M2m2n2o2p2q2r2s2t2u2v2w2x2y2z2A2B2C1Z2D2D2E1A1A1A0P",
"2F l K n M2G N2H2I2J2K2L2M2N2O2P2Q2R2S2T2U2V2W2X2Y1Y1Y1Y1Z1Z2E2E",
" m n2Z2&3 303132333435363738393a3b3c3d3e3f3g3h3i3j3k3l3m3n3n3o1Z",
" M3p3q3r3s3t3u3v3w3x3y3z3A3B3C3D3E3F3G3H3I3J3K3L3M3N3O3P3Q3m3m3n",
"3R N3S3T3U3V3W3X3Y3Z3&4 404142434445464748494a4b4c4d4e4f4g3Q1B3m",
" P4h4i4j4k4l4m4n4o4p4q4r4s4t4u4v4w4x4y4z4A4B4C4D4E4F4G4H4I4J4K3Q",
"4L1j4M4N4O4P4Q4R4R4S4T4U4V4W4X4Y4Z4&5 50515253535455565758595a5b",
"5c5d5e5f5g5h5i5j5k5l5m5n5o5p5q5r5s5t5u5v5w5x5y5y5z5A5B575C5D5E5a",
"5d5F5G5H5I5J5K5L5M5N5O5P5Q5R5S5T5U5V5W5X5Y5Z5&6 60614d62631b1m1i",
"641&65666768696a6b6b6c6d6e6f6g6h6i6j6k6l6m6n6o6p6q6r6s6t6u1v6v6w",
"1&2k6x6y6z6A6B6C6D6E6F6G6H6I6J6K6L6M6N6O6P6Q6R6S6T4G6U6V6W1v6v6v",
"2k0P6X6Y6Z6&7 707172737475767778797a7b7c7d7e7f7g7h7i7j7k7l1v6v6v",
"2j1A7m7n7o7p7q7r7s7t7u7v7w7x7y7z7A7B7C7D7E7F7G7H7I7J7K7L7M1v6v6v",
"1A2E1Z7N7O7P7Q7R7S1X7T1g7w7U7V7W7X7Y7Z6n7&8 808182838485861v6v87",
"1A2E1Y88898a8b8c7S8d8e8f8g8h8i8j8k8l8m8n8o8p618q8r8s8t8u1p6v6v8v",
"2E1Z3n3A8w8x8y598z8d1X8A1p8B8C8D8E8F8G8H8I8J8K8L8M7L8N8O1v6v6v8v",
"2E3o3n3l8P8Q8R8S8T8U8U8A1n8V8W8X8W8Y8Z8&9 9091929394951v6v6v8v8v",
"2E3o3n3Q969798991w1w1x9a1p9b9b9b9c9d9e9f9g9g9h9i9j9k1v6v6v8v8v1d",
"3o3n3m3m9l9m9n9n9o9p9q9r9s9t9u9v9w9x9y9z9A9B9C9D9E6v9n8v8v8v8v1d",
"3o3n3m129F9G9H9I9J9K9L9M9N9O9P9Q9R9S9T9U9V9W9X9Y9Z1a9&a 1t8v1da0",
"3o3n3ma1a2a3a4a5a6a7a8a9aaabacadaeafagahaiajakalamanaoap9m1da0aq",
"3o3n3marasat1rau17anavawaxayazazazayaAaBaC9CaDaE1c8v0WaF1d1daqaq",
"aG3n3maHaI1d8v8v8v6v6v6v6v6v6v6v6v6vaJaKaJ6v6v878v8v8v1da0aqaqaq",
"aG3n3m5baLa01d8v8v8v8v6v6v6v6v6v6v6v1daMaN8v8v8v8v1d1da0aqaqaqaO"};
