/* XPM */
static char *TEST_xpm[]={
"40 40 608 2",
"      c #9C9C9C",
" 0    c #9D9D9D",
" 1    c #9B9B9B",
" 2    c #9A9A9A",
" 3    c #999999",
" 4    c #9A9A99",
" 5    c #989898",
" 6    c #979797",
" 7    c #969696",
" 8    c #959595",
" 9    c #949494",
" a    c #9F9F9F",
" b    c #9E9E9E",
" c    c #81858D",
" d    c #7F846B",
" e    c #C4C459",
" f    c #A9A987",
" g    c #A1A1A1",
" h    c #A0A0A0",
" i    c #9C9EA2",
" j    c #666F85",
" k    c #2C3A5B",
" l    c #6F7832",
" m    c #F7F705",
" n    c #CECE50",
" o    c #A0A09E",
" p    c #A3A3A3",
" q    c #A4A4A4",
" r    c #A3A3A4",
" s    c #979DAA",
" t    c #6E89C5",
" u    c #4E6EB4",
" v    c #2D3D63",
" w    c #3A4C67",
" x    c #96A96A",
" y    c #9BA599",
" z    c #A6A6A6",
" A    c #A5A5A5",
" B    c #A7A7A7",
" C    c #A4A4A5",
" D    c #959DB0",
" E    c #6787CB",
" F    c #5C81D3",
" G    c #6585CB",
" H    c #6F82AC",
" I    c #5C7EC7",
" J    c #5980D1",
" K    c #6C8AC2",
" L    c #B5B77F",
" M    c #ACAC92",
" N    c #A2A2A2",
" O    c #A9A9A9",
" P    c #A8A8A8",
" Q    c #A6A8AB",
" R    c #8A99BA",
" S    c #6084D1",
" T    c #5D83D4",
" U    c #6E8BCA",
" V    c #8C9AB7",
" W    c #7D92BF",
" X    c #5C82D3",
" Y    c #7B979C",
" Z    c #F6F70A",
" &    c #DFDF39",
"0     c #A6A6A2",
"00    c #ABABAB",
"01    c #AAAAAA",
"02    c #ACACAC",
"03    c #AAABAB",
"04    c #A2A6B1",
"05    c #7A92C7",
"06    c #5D84D6",
"07    c #5D82D3",
"08    c #7B91C1",
"09    c #8A99B8",
"0a    c #8F9CB9",
"0b    c #909DB9",
"0c    c #8E9CB9",
"0d    c #7991C4",
"0e    c #5D7DAF",
"0f    c #BFCB44",
"0g    c #BEC46B",
"0h    c #A7A7A5",
"0i    c #AEAEAE",
"0j    c #AFAFAF",
"0k    c #ACADAE",
"0l    c #A4A8B0",
"0m    c #8F9DBB",
"0n    c #6889D1",
"0o    c #5F85D6",
"0p    c #6586CE",
"0q    c #687DAC",
"0r    c #707E9B",
"0s    c #717E9B",
"0t    c #7A87A4",
"0u    c #8F9DBA",
"0v    c #919FBB",
"0w    c #8D9DBD",
"0x    c #6888CE",
"0y    c #5F85CE",
"0z    c #718DC7",
"0A    c #A6A8AC",
"0B    c #989A9F",
"0C    c #898D96",
"0D    c #8C919E",
"0E    c #8B98B3",
"0F    c #778DBD",
"0G    c #6482C2",
"0H    c #6585C9",
"0I    c #6484C9",
"0J    c #7A90BD",
"0K    c #707F9E",
"0L    c #707D9A",
"0M    c #7C89A6",
"0N    c #909DBA",
"0O    c #869AC4",
"0P    c #5F86D8",
"0Q    c #5C83D6",
"0R    c #90A1AF",
"0S    c #BEBE84",
"0T    c #ADADA6",
"0U    c #B2B2B2",
"0V    c #9FA1A6",
"0W    c #5B6B8E",
"0X    c #465E93",
"0Y    c #6F83B0",
"0Z    c #8696B8",
"0&    c #8997B5",
"1     c #8491AE",
"10    c #6F7C98",
"11    c #6F7B96",
"12    c #717D98",
"13    c #808DA8",
"14    c #828FAB",
"15    c #808DA9",
"16    c #73809C",
"17    c #717E9A",
"18    c #778599",
"19    c #9CA9A6",
"1a    c #7F97C8",
"1b    c #5F86D5",
"1c    c #BBC94F",
"1d    c #F9F90B",
"1e    c #C4C47C",
"1f    c #ADADAD",
"1g    c #B6B6B6",
"1h    c #AEB1B6",
"1i    c #728BC0",
"1j    c #597CC9",
"1k    c #6381C0",
"1l    c #6F7E9D",
"1m    c #748099",
"1n    c #79859E",
"1o    c #75819A",
"1p    c #818DA7",
"1q    c #8490AA",
"1r    c #8591AB",
"1s    c #828EA8",
"1t    c #737F9A",
"1u    c #717E95",
"1v    c #C0C642",
"1w    c #F0F217",
"1x    c #ACB694",
"1y    c #7D95C9",
"1z    c #7290A5",
"1A    c #B5C65F",
"1B    c #B8BB8F",
"1C    c #B4B4B4",
"1D    c #B3B3B3",
"1E    c #82868D",
"1F    c #5B83D8",
"1G    c #6384CB",
"1H    c #8594B4",
"1I    c #8996B1",
"1J    c #8895B0",
"1K    c #8895AF",
"1L    c #8995B0",
"1M    c #8893AD",
"1N    c #8692AB",
"1O    c #8490A9",
"1P    c #838FA6",
"1Q    c #AEB95C",
"1R    c #D3DB34",
"1S    c #A3AE8E",
"1T    c #8C99B4",
"1U    c #7990C1",
"1V    c #5D80C9",
"1W    c #7089BD",
"1X    c #A9ABAF",
"1Y    c #B3B3AC",
"1Z    c #B2B2AC",
"1&    c #888888",
"2     c #858585",
"20    c #878787",
"21    c #868686",
"22    c #929BAE",
"23    c #668DE0",
"24    c #618BE4",
"25    c #7392D4",
"26    c #8C9BBC",
"27    c #8D9AB7",
"28    c #8D9AB6",
"29    c #8A97B1",
"2a    c #8995AF",
"2b    c #8591AA",
"2c    c #8792A4",
"2d    c #8C9999",
"2e    c #6E7D9B",
"2f    c #7A8688",
"2g    c #AFB76C",
"2h    c #818F7C",
"2i    c #2D3E63",
"2j    c #5F6864",
"2k    c #E2E335",
"2l    c #DBDB52",
"2m    c #B1B1B1",
"2n    c #818181",
"2o    c #A7A8A9",
"2p    c #899DC7",
"2q    c #648EE9",
"2r    c #638EEA",
"2s    c #7695D8",
"2t    c #909FBF",
"2u    c #919FBC",
"2v    c #8F9CBA",
"2w    c #8F9CB8",
"2x    c #8695B4",
"2y    c #7384A6",
"2z    c #7D8D98",
"2A    c #6683B9",
"2B    c #5677BF",
"2C    c #81936A",
"2D    c #F8F906",
"2E    c #DDE228",
"2F    c #75808F",
"2G    c #858A6C",
"2H    c #F0F10B",
"2I    c #F1F120",
"2J    c #B8B8A9",
"2K    c #B0B0B0",
"2L    c #848484",
"2M    c #8B8B8B",
"2N    c #A8AAB0",
"2O    c #7394DA",
"2P    c #628DE9",
"2Q    c #668FE6",
"2R    c #8D9FC6",
"2S    c #93A1BF",
"2T    c #92A0BD",
"2U    c #909EBC",
"2V    c #8196C3",
"2W    c #6286D1",
"2X    c #A1B573",
"2Y    c #ECEF16",
"2Z    c #AABB6C",
"2&    c #8B98B1",
"3     c #929570",
"30    c #E4E41A",
"31    c #C7C737",
"32    c #888883",
"33    c #AFAFA8",
"34    c #CBCB72",
"35    c #C5C58E",
"36    c #B6B6B4",
"37    c #8F8F8F",
"38    c #8E8E8E",
"39    c #9DA7BC",
"3a    c #638ADE",
"3b    c #6089E3",
"3c    c #6D90DA",
"3d    c #91A1C3",
"3e    c #94A2BF",
"3f    c #8F9EBF",
"3g    c #8297C4",
"3h    c #6086D6",
"3i    c #5B81D4",
"3j    c #8C9E76",
"3k    c #FBFB04",
"3l    c #E4E42E",
"3m    c #A5A5A1",
"3n    c #838381",
"3o    c #878778",
"3p    c #868681",
"3q    c #838383",
"3r    c #8A8A8A",
"3s    c #B4B4B3",
"3t    c #B7B7B7",
"3u    c #B5B5B5",
"3v    c #BCBCBC",
"3w    c #929292",
"3x    c #B3B4B6",
"3y    c #7C96CC",
"3z    c #5C84D9",
"3A    c #5C83D9",
"3B    c #6780B4",
"3C    c #8998B9",
"3D    c #6D8BCD",
"3E    c #5D82D2",
"3F    c #8095C1",
"3G    c #A6A99E",
"3H    c #C4C446",
"3I    c #B48453",
"3J    c #A76362",
"3K    c #917272",
"3L    c #8C8484",
"3M    c #B4B2B2",
"3N    c #8C8C8C",
"3O    c #BABABA",
"3P    c #B9B9B9",
"3Q    c #B8B8B8",
"3R    c #C8C8C8",
"3S    c #C2C2C2",
"3T    c #A9AFBB",
"3U    c #6182C8",
"3V    c #4969AF",
"3W    c #2B3C64",
"3X    c #364A75",
"3Y    c #5479C6",
"3Z    c #6383C7",
"3&    c #949FB6",
"4     c #A7A8AA",
"40    c #8C8482",
"41    c #DE2222",
"42    c #FB0303",
"43    c #F30D0D",
"44    c #EA2828",
"45    c #DE5959",
"46    c #CC8989",
"47    c #BEA2A2",
"48    c #BDB7B7",
"49    c #BBBBBB",
"4a    c #CBCBCB",
"4b    c #CDCDCD",
"4c    c #C4C4C4",
"4d    c #939393",
"4e    c #B9B9BA",
"4f    c #798398",
"4g    c #29385C",
"4h    c #243355",
"4i    c #263457",
"4j    c #576A94",
"4k    c #878E9B",
"4l    c #919191",
"4m    c #8D8D8D",
"4n    c #9D7A7A",
"4o    c #F50909",
"4p    c #FE0000",
"4q    c #FD0000",
"4r    c #FA0000",
"4s    c #F80000",
"4t    c #EC0505",
"4u    c #DF1313",
"4v    c #BD4747",
"4w    c #BCB7B7",
"4x    c #CFCFCF",
"4y    c #AFB0B3",
"4z    c #424E69",
"4A    c #263456",
"4B    c #4E576B",
"4C    c #8B8C8F",
"4D    c #BFBFBF",
"4E    c #D77E7E",
"4F    c #FC0303",
"4G    c #F50000",
"4H    c #F60000",
"4I    c #F20000",
"4J    c #EB0000",
"4K    c #B60606",
"4L    c #9A2828",
"4M    c #9C6969",
"4N    c #BDBBBB",
"4O    c #BEBEBE",
"4P    c #BDBDBD",
"4Q    c #D1D1D1",
"4R    c #D2D2D2",
"4S    c #D3D3D3",
"4T    c #CACACA",
"4U    c #8B8F99",
"4V    c #646A79",
"4W    c #959597",
"4X    c #C7C0C0",
"4Y    c #E93636",
"4Z    c #EE0000",
"4&    c #E60000",
"5     c #E20000",
"50    c #E00000",
"51    c #CB2B2B",
"52    c #BFA2A2",
"53    c #C0BEBE",
"54    c #D4D4D4",
"55    c #D5D5D5",
"56    c #D6D6D6",
"57    c #CECECE",
"58    c #9FA0A0",
"59    c #C7C7C7",
"5a    c #C5C5C5",
"5b    c #A18686",
"5c    c #CC0C0C",
"5d    c #A80505",
"5e    c #932222",
"5f    c #CE0D0D",
"5g    c #D60000",
"5h    c #D50000",
"5i    c #CF0101",
"5j    c #C92222",
"5k    c #C29494",
"5l    c #C1BFBF",
"5m    c #C0BFBF",
"5n    c #D7D7D7",
"5o    c #D8D8D8",
"5p    c #D0D0D0",
"5q    c #969595",
"5r    c #8F7373",
"5s    c #8B2E2E",
"5t    c #8B6868",
"5u    c #8B8484",
"5v    c #A23434",
"5w    c #B90000",
"5x    c #C90000",
"5y    c #C20000",
"5z    c #BE1010",
"5A    c #B86E6E",
"5B    c #C0C0C0",
"5C    c #D9D9D9",
"5D    c #8E8C8C",
"5E    c #8C8989",
"5F    c #9A7C7C",
"5G    c #A40808",
"5H    c #BB0000",
"5I    c #B80000",
"5J    c #B40000",
"5K    c #9F0000",
"5L    c #8A1919",
"5M    c #BCB3B3",
"5N    c #C1C1C1",
"5O    c #DADADA",
"5P    c #909090",
"5Q    c #908C8C",
"5R    c #842C2C",
"5S    c #A50000",
"5T    c #930000",
"5U    c #780000",
"5V    c #630A0A",
"5W    c #794444",
"5X    c #BEBBBB",
"5Y    c #805959",
"5Z    c #6A0404",
"5&    c #681919",
"6     c #7A4C4B",
"60    c #A09791",
"61    c #BBBDB9",
"62    c #C3C3C3",
"63    c #C0C2C0",
"64    c #BCC0BC",
"65    c #BEC0BE",
"66    c #898989",
"67    c #847C7C",
"68    c #7C5E5E",
"69    c #B3ACAC",
"6a    c #9FB99F",
"6b    c #38AD39",
"6c    c #4FAE50",
"6d    c #BBC3BB",
"6e    c #C2C4C2",
"6f    c #79B779",
"6g    c #3AAC3C",
"6h    c #5EB25F",
"6i    c #B8BFB8",
"6j    c #BEBFBE",
"6k    c #BDBEBD",
"6l    c #8E8D8D",
"6m    c #929492",
"6n    c #418E42",
"6o    c #069308",
"6p    c #0DA70F",
"6q    c #5AB15B",
"6r    c #B5C1B6",
"6s    c #35A736",
"6t    c #0DA50F",
"6u    c #14A515",
"6v    c #98B998",
"6w    c #B6BFB6",
"6x    c #7DB57E",
"6y    c #64B565",
"6z    c #99B399",
"6A    c #178118",
"6B    c #058D07",
"6C    c #0EA610",
"6D    c #4DAA4E",
"6E    c #197E1A",
"6F    c #09820A",
"6G    c #117912",
"6H    c #78AB78",
"6I    c #34AB35",
"6J    c #15B017",
"6K    c #23BB25",
"6L    c #7BB27C",
"6M    c #C9C9C9",
"6N    c #C6C6C6",
"6O    c #C7C8C7",
"6P    c #8FAE8F",
"6Q    c #137C14",
"6R    c #099B0B",
"6S    c #046905",
"6T    c #025503",
"6U    c #045B05",
"6V    c #11A413",
"6W    c #1BB71C",
"6X    c #1DAD1F",
"6Y    c #158717",
"6Z    c #6D986D",
"6&    c #C6C7C6",
"7     c #7FA780",
"70    c #0D760E",
"71    c #047305",
"72    c #036204",
"73    c #024C03",
"74    c #0C6E0D",
"75    c #22BA24",
"76    c #149316",
"77    c #2D802E",
"78    c #8CA58D",
"79    c #C2C6C2",
"7a    c #569957",
"7b    c #057606",
"7c    c #035D04",
"7d    c #0B780C",
"7e    c #188219",
"7f    c #5E8C5E",
"7g    c #B4BBB4",
"7h    c #CCCCCC",
"7i    c #B2BFB2",
"7j    c #68B469",
"7k    c #1BAC1D",
"7l    c #14A016",
"7m    c #0D790E",
"7n    c #047205",
"7o    c #0DA00E",
"7p    c #559A56",
"7q    c #BEC1BE",
"7r    c #838883",
"7s    c #638F63",
"7t    c #29A82C",
"7u    c #18B61A",
"7v    c #25C027",
"7w    c #169B18",
"7x    c #077208",
"7y    c #047D05",
"7z    c #069508",
"7A    c #1AAB1B",
"7B    c #86B886",
"7C    c #7E867E",
"7D    c #328A33",
"7E    c #13AB16",
"7F    c #1FBD21",
"7G    c #20B022",
"7H    c #0F8010",
"7I    c #056206",
"7J    c #025003",
"7K    c #036104",
"7L    c #058306",
"7M    c #099B0A",
"7N    c #149D16",
"7O    c #8DB98E",
"7P    c #C3C4C3",
"7Q    c #7F867F",
"7R    c #196F1A",
"7S    c #1DA91F",
"7T    c #149115",
"7U    c #207321",
"7V    c #597859",
"7W    c #156816",
"7X    c #024D03",
"7Y    c #276528",
"7Z    c #2E812F",
"7&    c #058107",
"8     c #059006",
"80    c #19A31A",
"81    c #97BB97",
"82    c #939493",
"83    c #597A5A",
"84    c #126A13",
"85    c #457445",
"86    c #7B827B",
"87    c #838483",
"88    c #537753",
"89    c #3A6F3B",
"8a    c #94A894",
"8b    c #AEBCAF",
"8c    c #2D8A2E",
"8d    c #047A06",
"8e    c #0B9F0D",
"8f    c #219723",
"8g    c #A9B7A9",
"8h    c #868786",
"8i    c #7F8B7F",
"8j    c #B8BAB8",
"8k    c #898A89",
"8l    c #BABCBA",
"8m    c #A5B8A5",
"8n    c #267C27",
"8o    c #057106",
"8p    c #286A28",
"8q    c #B1B9B1",
"8r    c #A1B4A1",
"8s    c #4D7D4D",
"8t    c #A6B2A6",
"8u    c #C5C6C5",
"   0   0   0                 1 2 3 4 2 2 3 2 3 3 5 3 5 5 6 6 6 6 6 7 7 8 9 9 8 9",
" a b a b b b a a a b b a b b   c d e f     1   2 2 2 2 1 2 3 3 3 5 5 5 6 7 6 7 7",
" g h g g h h g g g g g h h i j k l m n o b 0 0 0             1 2 2 1 2 3 3 3 3 3",
" p p p q p q q p p q q r s t u v w x y g h h a h a a a b b b b 0 0   1   1 1 1 2",
" z A z z B z A z A A C D E F G H I J K L M N N N N g h h a a a a a b b b 0 0 0  ",
" O P O P O O O O O Q R S T U R V W X Y Z &0  A q q p p p N N g g g h h a a a b b",
"00010202020002030405060708090a0b0c0d0e0f0g0h P B B A A A q q p p p N N N g g g h",
"0i0i0j0i0i0k0l0m0n0o0p0q0r0s0t0u0v0w0x0y0z0A01 O P B B B z z z A A A q q p p p g",
"0j0B0C0D0E0F0G0H0I0J0K0L0M0L0L V0N0u0O0P0Q0R0S0T010101 P P P P B B z z A A A A q",
"0U0V0W0X0Y0Z0&1 10111213141516170s18191a1b1c1d1e1f02020000000101 O O P B B z z A",
"1g1g1h1i1j1k1l1m1n1o1p1q1r1q1s1t1u1v1w1x1y1z1A1B0j0i0i1f1f020200000101 O P P B P",
"1C1D0j1E0H1F1G1H1I1J1K1L1K1M1N1O1P1Q1R1S1T1U1V1W1X1Y1Z0j0j0i1f1f1f020000010101 O",
"1&2 202122232425262727280E292a1K2b2c2d2e2f2g2h2i2j2k2l1Y2m0j0j0j0i1f1f0200000000",
"2n2  a z2o2p2q2r2s2t2u2v0a2w282x2y2z2A2B2C2D2E2F2G2H2I2J0U0U2m2K2K0j0j0i1f021f1f",
"1&2L2M z012N2O2P2Q2R2S2T2T2U2V2W2X2Y2Z2&3 303132333435361C1C0U0U0U2m2K0j0j0i0i0i",
"37201&38002K393a3b3c3d3e3f3g3h3i3j3k3l3m3n3o3p3q2n3r3s3t1g1g3u1C1D0U0U0U2m2K0j0j",
"3v3w2M38001D3x3y3z3A3B3C3D X3E3F3G3H3I3J3K3L3M0U3N2m3O3P3Q3Q1g1g3u1C1D1D0U0U0U2K",
"3R3S 737 81C3Q3T3U3V3W3X3Y3Z3&4 38404142434445464748493O3O3Q3Q3t1g3u3u1C1D1D1D0U",
"4a4b4c 84d1D3O4e4f4g4h4i4j4k4l4d4m4n4o4p4q4r4s4t4u4v4w3v493O3P3P3Q3Q1g3u3u1C1C1D",
"4x4x4a   5 23u3Q4y4z4A4B4C4l 94D3Q4E4F4G4H4I4J4K4L4M4N4O4P493O3O3P3P3Q3t1g3u3u3u",
"4Q4R4S4x4T h 2 03Q4U4V4W 5 6 13R4X4Y4Z4&5 4&505152534D4D4O4P3v493O3P3P3Q3t1g1g1g",
"4S5455565657 g 10U  584a4x4b595a5b5c5d5e5f5g5h5i5j5k5l5m4D4O4P4P3v493O3O3P3P3Q3t",
"5555565n5o5o4x p h N4b56565p g5q5r5s5t5u5v5w5x5x5y5z5A535B4D4O4O4P3v49493O3O3P3Q",
"55565n5o5C5C5C5454545o5n554S4c 85D5E3N2M5F5G5H5I5J5K5L5M5N5N5B4O4P4P3v3v493O3O3P",
"55565n5o5C5C5O5O5C5C5o5n564x  4l 9383N5P5Q5R5S5T5U5V5W5X3S5N5N5B4D4O4P4P3v49493O",
"565n5n5o5C5C5C5C5C5o5o5n564x   15N4d3N2M3r5Y5Z5&6 60614c626364655B4D4O4P4P3v3v3v",
"565n5n5o5o5o5C5C5o5o5n56554S4b4b4a 54m2M666768696a6b6c6d6e6f6g6h6i5B6j6k4O4P4P3v",
"56565n5o5o5o5o5o5o5n565655544S4R5p5a4l2M3r6l666m6n6o6p6q6r6s6t6u6v6w6x6y6w4O4O4O",
"55565n5n5n5n5n5n5n565655544S4R4R4Q4T 64l 83v 56j6z6A6B6C6D6E6F6G6H6I6J6K6L6j4D4O",
"555656565n5n5n56565655544S4S4S4R5p4x6M3R6N5a5B6M6O6P6Q6o6R6S6T6U6V6W6X6Y6Z4D5B4D",
"5555565656565656555554544S4S4R4Q5p4x574b59 94d4D4c6&7 7071727374757677786j5N5B5B",
"54555555555555555554544S4S4R4R4Q5p4x4x4b59 9663N3w4c797a7b7c737d7e7f7g3S3S3S5N5B",
"54545555555555545454544S4S4R4Q5p5p4x4x577h5N4m203N7i7j7k7l7m7n7o7p7q4c6262623S3S",
"5454545454545454544S4S4S4R4Q4Q5p5p4x4x577h5N4m7r7s7t7u7v7w7x7y7z7A7B6e4c6262623S",
"54545454545454544S4S4S4R4R4Q4Q5p5p4x57573R4d7C7D7E7F7G7H7I7J7K7L7M7N7O7P4c4c6262",
"4S4S4S54544S4S4S4S4S4R4R4R4Q4Q5p4x4x4x573R 97Q7R7S7T7U7V7W7X7Y7Z7&8 80817P4c4c62",
"4S4S4S4S4S4S4S4S4S4S4R4R4Q4Q4Q5p5p4x57577h5B82838485868788898a8b8c8d8e8f8g5a5a4c",
"4S4S4S4S4S4S4S4S4R4R4R4Q4Q4Q5p5p5p4x574b624d1&8h8i8j5P218k8l593R8m8n8o8p8q5a5a4c",
"4S4S4S4S4S4S4S4R4R4R4R4Q4Q4Q5p5p5p4x4x6M37664m3w5N4T5B5P21374O3R3R8r8s8t6N6N6N6N",
"4S4S4S4S4S4S4S4R4R4R4R4Q4Q4Q5p5p5p4x4x6M4d4d3S597h7h4a5B5P21374O3R3R8u5959596N6N"};
