/* XPM */
static char *PTB_UI_xpm[]={
"40 40 128 2",
"      c #9496B5",
" 0    c #846194",
" 1    c #7B69A5",
" 2    c #6B69AD",
" 3    c #5A5DA5",
" 4    c #6365AD",
" 5    c #6361A5",
" 6    c #635DA5",
" 7    c #7371AD",
" 8    c #6B6DAD",
" 9    c #5A59A5",
" a    c #8C86B5",
" b    c #9C9EB5",
" c    c #A5A2BD",
" d    c #948EB5",
" e    c #A5A6BD",
" f    c #8C8EA5",
" g    c #8C8EAD",
" h    c #BD555A",
" i    c #633C84",
" j    c #5251AD",
" k    c #39349C",
" l    c #6361B5",
" m    c #6B69B5",
" n    c #4241A5",
" o    c #5A59AD",
" p    c #4A4DA5",
" q    c #292C94",
" r    c #39389C",
" s    c #6B6DB5",
" t    c #6365B5",
" u    c #4A49A5",
" v    c #6B6DBD",
" w    c #7371BD",
" x    c #5A5DB5",
" y    c #080C8C",
" z    c #6B69A5",
" A    c #948E94",
" B    c #B5B2B5",
" C    c #84829C",
" D    c #84868C",
" E    c #6B6D8C",
" F    c #BDB6C6",
" G    c #ADAABD",
" H    c #9492AD",
" I    c #9C9AB5",
" J    c #9C9ABD",
" K    c #A59EBD",
" L    c #9C9EBD",
" M    c #9496AD",
" N    c #A59EB5",
" O    c #9C9AA5",
" P    c #CEC7CE",
" Q    c #ADAAAD",
" R    c #A59EA5",
" S    c #9C969C",
" T    c #ADA6AD",
" U    c #A5A2A5",
" V    c #B5AEB5",
" W    c #9C9A9C",
" X    c #9C9E9C",
" Y    c #B5B6B5",
" Z    c #949294",
" &    c #A5A6A5",
"0     c #C6C7C6",
"00    c #C6C3C6",
"01    c #C6BEC6",
"02    c #CECBCE",
"03    c #BDBABD",
"04    c #BDB2B5",
"05    c #BDBEBD",
"06    c #8C8A8C",
"07    c #949694",
"08    c #8C716B",
"09    c #ADAEAD",
"0a    c #8C9684",
"0b    c #527142",
"0c    c #8C8E8C",
"0d    c #BDB6BD",
"0e    c #B5A2A5",
"0f    c #949284",
"0g    c #4A8A4A",
"0h    c #9C7D7B",
"0i    c #BDA6A5",
"0j    c #B59A9C",
"0k    c #B58684",
"0l    c #CECFCE",
"0m    c #D6CFD6",
"0n    c #D6D7D6",
"0o    c #D6D3D6",
"0p    c #C6BEBD",
"0q    c #E7E7E7",
"0r    c #EFEBEF",
"0s    c #DEDBDE",
"0t    c #E7DFE7",
"0u    c #ADB2BD",
"0v    c #738AB5",
"0w    c #8C7994",
"0x    c #B5595A",
"0y    c #ADB6AD",
"0z    c #949E84",
"0A    c #429642",
"0B    c #F7F3F7",
"0C    c #ADBAAD",
"0D    c #739A6B",
"0E    c #AD9E9C",
"0F    c #738A63",
"0G    c #E7E3E7",
"0H    c #B5C3B5",
"0I    c #94927B",
"0J    c #C68284",
"0K    c #947963",
"0L    c #94A28C",
"0M    c #BD8E8C",
"0N    c #94AE94",
"0O    c #A59A84",
"0P    c #BD9E9C",
"0Q    c #949E8C",
"0R    c #B5867B",
"0S    c #C66563",
"0T    c #A59A8C",
"0U    c #8C9273",
"0V    c #B59294",
"0W    c #849673",
"0X    c #A5AEA5",
"0Y    c #7B797B",
"0Z    c #8C868C",
"0&    c #848284",
"   0 1 2 3 4 2 5 2 6 4 7 8 7 3 8 5 5 6 5 6 4 4 3 8 2 4 2 8 6 4 9 9 9 a b c d e f",
" g h i j j k j l m l n o p o q r j s o m m t u p j v n o w l x y y y z A B C D E",
" F G b H I I I H J K I c L L K L I J K I L I L   c I c I K L K L M K N N N N N O",
" P Q R S T T U V W U A V U X U U Y W U Z & S X U B W B W & T Q X V0 0 0 0  P00 T",
" P0 0 0 0 0 0001 P P P P P P P P00 P P P P P P00 P P P P P P P P00020202 P02 B Z",
"02000304030103030305000000000000000000000000000000000000000000000 0303050301 Z06",
"02 V0708 Z09 Q Q Q Q0000000000000000000000000000000000000000000002 S S W R02 Y06",
"02 V0a0b0c Q &09 Y0d00000000030303000d050300 B010300000000000000 P U U T Q02 B06",
"020e0f0g0h V T V Y0000000000 B B Q05 Q050d00 T03 Q05010000000505050301000002 B06",
"020i0j W0k040105010000000000 Y0  B0d0l0m0000 B0  Q030n0000000905030 0o000002 B06",
"020100030p050000000000000000 B0l0 020q0m0003 Y0o0 0l0r0 0000030o020s0t000002 B06",
" P0000000000 T Q030000000000 B0  B B B0300 B00 B B V0m0000000 02020l02000002 B06",
" P0000000000 U Q0903030100000d03 Q X Q030505 B U B B000000000000000000000002 B06",
" P000000000009 Q T Q Q0300000500 B Q03000002 V Q0000000000000000000000000002 B06",
" P0000000000050303030500000000 P0505000000 P01050000000000000000000000000002 B06",
"020 01010501030000030001000d000000000000000000000000000000000000 P0005050d02 B06",
"020u0v Q Q0d U W R V U T Q X S U0000000000000000000000000000000002 Q U Q Q02 B06",
"02030w0x0y03 V0d030101010101 V B0300 Y030d00 Y03 Y0000000000000000 Q Q Q V02 B06",
"020o020z0A05 U T0900000000000300 B00 B P0300 V02 V00000000000000000000000002 B06",
"020202050y03 Z R B0000000000 Q09 X W S V00 X03 U R W000000000000000000000002 B06",
" P000000000001010000000000000302010505090d P02000101000000000000000000000002 B06",
" P0000000000 A S S S06 W00000d0 00000B T B0000000000000000000000000000000002 B06",
" P0000000000 B05000000000000030l0m02 P Q Y00000300 Y050501000000000000000002 B06",
" P0000000000 R X0d00000000000500 V W & R U0000 P0m Q X R U000000000000000002 B06",
"020 000000000000000000000000000000000000000000000000000000000000000 0 0 00 P Y06",
"020 0C050C01 B03030300000000000000000000000000000000000000000000 P050d03 Y P02 Z",
"02050D0E0F Y W Q Q V00000000010100000100000001000100000000000000 P U S R Q0o0G Z",
"020H0I0J0K0309 Y0300000000000d050d00 Y010300 B00 B0000000000000000 B B B Y0o0G Z",
"020H0L0M0D0507 T V0000000000 B03 Q0d0905030d B05090d00000000000000000000000o0G Z",
"02 P00 Y0N05 Q V0300000000000d05 V09 Q0d00 V00 V V0900000000000000000000000o0G Z",
" P0000000000010300000000000000020103030100000205030500000000000000000000000o0G Z",
"0200050505010100000003000000000000000000000000000000000000000000 P010505030o0G Z",
"02050O0P0Q0d Q T T & Q090d0000000000000000000000000000000000000002 V Q V090o0G Z",
"02020R0S0T0d & Q V B030305000d0303000d030300 Y030d000000000000000  Q T Q B0o0G Z",
"02020U0V0W03 T V B00000000000d05 Y00 Y0 0301 V02 B0000000000000000050505010o0G Z",
"02000y030X0307 R B0000000000 V03 U U W B00 Q05 T U U00000000000000000000000o0G Z",
"0200000000000303010000000000000 030303010001 P050303000000000000000000000002 B0c",
" P0200 P P P P P P P P P P P P02 P P P P P P P P P P P P P P P P P P P00020d R06",
" P V B0 0 0 0 0 0 0 0 0 0 0 0 0 0 0 0 0 0 0 0 0 0 0 0 0 0 0 0 0 0 0 0 03 V Q01 Z",
" &0Y0Y0Y0Y0Y0Y0Y0Y0Y0Y0Y0Y0Y0Y0Y0Y0Y0Y0Y0Y0Y0Y0Y0Y0Y0Y0Y0Y0Y0Y0Y0Y0Y0Y0Z0Y0& Z0&"};
