/* XPM */
static char *X_xpm[]={
"32 32 459 2",
"      c #C1C1C1",
" 0    c #C3C3C2",
" 1    c #C5C4C3",
" 2    c #BCB9BD",
" 3    c #B4B3BA",
" 4    c #C2C2C2",
" 5    c #C4C3C2",
" 6    c #C7C6C3",
" 7    c #CAC8C4",
" 8    c #CAC7C4",
" 9    c #C9C7C4",
" a    c #C8C7C4",
" b    c #CCCAC6",
" c    c #B6B4BB",
" d    c #2C4987",
" e    c #12226D",
" f    c #A3A3B1",
" g    c #C6C6C4",
" h    c #C2C2C1",
" i    c #C7C5C2",
" j    c #CBC5C1",
" k    c #C2BDBE",
" l    c #B8B6BB",
" m    c #9DA2B1",
" n    c #8891A8",
" o    c #8890A8",
" p    c #8E96AB",
" q    c #9097AC",
" r    c #919AAE",
" s    c #9699AD",
" t    c #989AAD",
" u    c #9C9FAF",
" v    c #406E9C",
" w    c #003A84",
" x    c #0A2D72",
" y    c #A4A4B1",
" z    c #CFCCC6",
" A    c #C5C5C3",
" B    c #C3C2C2",
" C    c #C9C6C3",
" D    c #C4BCBC",
" E    c #A0A7B5",
" F    c #6888AE",
" G    c #3F6396",
" H    c #1C5F93",
" I    c #0A6898",
" J    c #05759F",
" K    c #067EA5",
" L    c #097EA6",
" M    c #0979A4",
" N    c #086496",
" O    c #095388",
" P    c #0B668E",
" Q    c #0B6A91",
" R    c #046590",
" S    c #065489",
" T    c #053C7D",
" U    c #3B608E",
" V    c #979EAE",
" W    c #C1BEBE",
" X    c #C9C5C2",
" Y    c #AEAAB4",
" Z    c #BFBFC0",
" &    c #CAC6C2",
"0     c #C2B9BA",
"00    c #949EB2",
"01    c #5292BC",
"02    c #2AA8DA",
"03    c #22B8EA",
"04    c #22B5E6",
"05    c #20A1D5",
"06    c #1A8DC3",
"07    c #1482B6",
"08    c #0F77AA",
"09    c #07679A",
"0a    c #05538C",
"0b    c #065A8A",
"0c    c #076E93",
"0d    c #077193",
"0e    c #067294",
"0f    c #087094",
"0g    c #0A6695",
"0h    c #0A6EA1",
"0i    c #016097",
"0j    c #0A4586",
"0k    c #3B5D92",
"0l    c #637EA7",
"0m    c #1F438C",
"0n    c #8185A3",
"0o    c #CAC9C5",
"0p    c #8BA0B7",
"0q    c #4A96C2",
"0r    c #27ABDE",
"0s    c #26C4F2",
"0t    c #2DC8F4",
"0u    c #2EC6F1",
"0v    c #2FC7F2",
"0w    c #30C9F4",
"0x    c #31CDF7",
"0y    c #30C9F5",
"0z    c #259CD3",
"0A    c #1F8DC4",
"0B    c #219DCF",
"0C    c #2098CB",
"0D    c #1D8EC3",
"0E    c #1D8EC2",
"0F    c #156CA8",
"0G    c #0C4687",
"0H    c #0D8BB6",
"0I    c #109BC0",
"0J    c #0E92BA",
"0K    c #1380B2",
"0L    c #2EA9D9",
"0M    c #218FC7",
"0N    c #0F4786",
"0O    c #8E8DA5",
"0P    c #C9C8C5",
"0Q    c #C4C4C3",
"0R    c #B2AFB7",
"0S    c #304C88",
"0T    c #1887C3",
"0U    c #26BEF1",
"0V    c #30D0FB",
"0W    c #30CDF8",
"0X    c #2FC7F3",
"0Y    c #2EC5F1",
"0Z    c #2EC4F0",
"0&    c #2EC5F0",
"1     c #25A0D5",
"10    c #239FD2",
"11    c #29BFE8",
"12    c #29BFE9",
"13    c #2BC5EE",
"14    c #21AADB",
"15    c #40A5CB",
"16    c #4FAECB",
"17    c #0A73A6",
"18    c #0F98BE",
"19    c #0F95BC",
"1a    c #0D95BB",
"1b    c #1484B6",
"1c    c #153576",
"1d    c #666883",
"1e    c #BEBDC0",
"1f    c #3F5179",
"1g    c #042656",
"1h    c #02336A",
"1i    c #0E5B95",
"1j    c #1E8BC3",
"1k    c #2AB4E7",
"1l    c #2FC7F5",
"1m    c #31D0FA",
"1n    c #2399D0",
"1o    c #23A5D5",
"1p    c #29BEE8",
"1q    c #28BAE5",
"1r    c #21A9DB",
"1s    c #328CBC",
"1t    c #74F4F7",
"1u    c #78FEFE",
"1v    c #2576A8",
"1w    c #098CB5",
"1x    c #0F97BD",
"1y    c #0286B2",
"1z    c #597199",
"1A    c #D0CAC6",
"1B    c #C2C3C2",
"1C    c #C1C0C1",
"1D    c #989BA8",
"1E    c #657088",
"1F    c #314265",
"1G    c #0C2755",
"1H    c #012A5F",
"1I    c #094D86",
"1J    c #197AB5",
"1K    c #2091CB",
"1L    c #26B1E0",
"1M    c #29BDE7",
"1N    c #28BDE7",
"1O    c #23B2E1",
"1P    c #2B88BB",
"1Q    c #6EE8F0",
"1R    c #77FFFF",
"1S    c #79FFFF",
"1T    c #58C2D8",
"1U    c #0A6BA1",
"1V    c #0F9ABF",
"1W    c #0E93BA",
"1X    c #087EB0",
"1Y    c #3472A5",
"1Z    c #BFBABD",
"1&    c #C8C8C5",
"2     c #CCCAC7",
"20    c #C2BFC2",
"21    c #A6A7B1",
"22    c #747D92",
"23    c #445370",
"24    c #162856",
"25    c #052B6C",
"26    c #1E98CB",
"27    c #2AC4EE",
"28    c #29BCE6",
"29    c #2AC0EA",
"2a    c #26BAE6",
"2b    c #2486BC",
"2c    c #66DBE7",
"2d    c #78FFFF",
"2e    c #74FFFF",
"2f    c #77FCFD",
"2g    c #2C80AE",
"2h    c #0883B0",
"2i    c #0E7DAE",
"2j    c #1596C5",
"2k    c #1490C1",
"2l    c #9299AE",
"2m    c #CCCBC8",
"2n    c #C6C4C5",
"2o    c #B8B7BC",
"2p    c #77788F",
"2q    c #112B5C",
"2r    c #147AB0",
"2s    c #29B8E6",
"2t    c #1E97CA",
"2u    c #155E9F",
"2v    c #5ECDDF",
"2w    c #61D2E2",
"2x    c #0D5695",
"2y    c #179ECA",
"2z    c #1AAAD2",
"2A    c #0FA0CD",
"2B    c #5584AB",
"2C    c #C9C1BF",
"2D    c #CDCCC9",
"2E    c #9B9BA6",
"2F    c #243463",
"2G    c #085A91",
"2H    c #08538B",
"2I    c #3797C4",
"2J    c #76FFFF",
"2K    c #75FFFF",
"2L    c #7AFFFF",
"2M    c #57C1D9",
"2N    c #1963A6",
"2O    c #1593C2",
"2P    c #19ABD2",
"2Q    c #16ABD3",
"2R    c #2381B3",
"2S    c #B2ADB6",
"2T    c #C5C4C2",
"2U    c #C4C4C2",
"2V    c #CFC6C5",
"2W    c #4A7497",
"2X    c #005988",
"2Y    c #339EC9",
"2Z    c #57EEFF",
"2&    c #71FCFE",
"3     c #6CE9F0",
"30    c #3396C8",
"31    c #3DD1F4",
"32    c #1A74B0",
"33    c #169FC9",
"34    c #19AAD2",
"35    c #1095C5",
"36    c #7D8FAB",
"37    c #CBC7C3",
"38    c #C6C5C3",
"39    c #C7C1C1",
"3a    c #607E9F",
"3b    c #024681",
"3c    c #2B8DBC",
"3d    c #5AFBFF",
"3e    c #3CB0D7",
"3f    c #51B7D1",
"3g    c #7BFFFF",
"3h    c #78FFFE",
"3i    c #45A4C9",
"3j    c #38C2EE",
"3k    c #45E7FF",
"3l    c #38B9E5",
"3m    c #1473AD",
"3n    c #19A9D1",
"3o    c #11A6D0",
"3p    c #4082AD",
"3q    c #C1B9BC",
"3r    c #B9B8BC",
"3s    c #467097",
"3t    c #1576A3",
"3u    c #58CADD",
"3v    c #4EBEE0",
"3w    c #267FAC",
"3x    c #0A2555",
"3y    c #102657",
"3z    c #429DB9",
"3A    c #61D4E3",
"3B    c #32A2D4",
"3C    c #42E1FF",
"3D    c #41DBFF",
"3E    c #44E4FF",
"3F    c #2C99CE",
"3G    c #1383B6",
"3H    c #17B1D7",
"3I    c #1B77AD",
"3J    c #B5B1B7",
"3K    c #CBC9C5",
"3L    c #A4A6B2",
"3M    c #2C578B",
"3N    c #319CC0",
"3O    c #5CCDE0",
"3P    c #3A8DAF",
"3Q    c #0A346A",
"3R    c #222C5E",
"3S    c #979AA5",
"3T    c #9C9DA8",
"3U    c #20315B",
"3V    c #296E94",
"3W    c #6EE7F1",
"3X    c #40A7D0",
"3Y    c #3CD3F9",
"3Z    c #42DCFF",
"3&    c #43DDFD",
"4     c #207FB9",
"40    c #139AC7",
"41    c #1B7EB2",
"42    c #B1AFB7",
"43    c #C5C3C2",
"44    c #9897A9",
"45    c #29679B",
"46    c #2382B7",
"47    c #215C90",
"48    c #103467",
"49    c #2B3C66",
"4a    c #6E768F",
"4b    c #B5B4BC",
"4c    c #CAC9C7",
"4d    c #CBCAC7",
"4e    c #B1B1B7",
"4f    c #384365",
"4g    c #0E346C",
"4h    c #36B3E4",
"4i    c #43E0FF",
"4j    c #3DC8F0",
"4k    c #1475B0",
"4l    c #197DB1",
"4m    c #ACACB7",
"4n    c #C8C6C4",
"4o    c #A8AAB4",
"4p    c #1C4C8C",
"4q    c #105D9D",
"4r    c #184073",
"4s    c #50547C",
"4t    c #979AA8",
"4u    c #C1C0C2",
"4v    c #CCCBC7",
"4w    c #C7C7C5",
"4x    c #4B4A72",
"4y    c #1868A1",
"4z    c #44E6FF",
"4A    c #31ADDE",
"4B    c #145798",
"4C    c #A7ABB6",
"4D    c #C6C4C2",
"4E    c #C0BDBF",
"4F    c #344A86",
"4G    c #03448A",
"4H    c #30416F",
"4I    c #9D9CA8",
"4J    c #BAB8BA",
"4K    c #223163",
"4L    c #2EADDD",
"4M    c #43E6FF",
"4N    c #2676B3",
"4O    c #A39DAC",
"4P    c #C8C7C5",
"4Q    c #9796AB",
"4R    c #002974",
"4S    c #2D4073",
"4T    c #BBB9BB",
"4U    c #CACAC6",
"4V    c #C2C1C1",
"4W    c #7A768C",
"4X    c #0E427D",
"4Y    c #41DEFF",
"4Z    c #42DDFF",
"4&    c #41DCFF",
"5     c #3DDEFF",
"50    c #4282B5",
"51    c #BBB2B6",
"52    c #CDCBC7",
"53    c #6C7299",
"54    c #001B66",
"55    c #7B7F98",
"56    c #CECDC9",
"57    c #C3C1C2",
"58    c #323762",
"59    c #228CC2",
"5a    c #42DFFF",
"5b    c #31C1EF",
"5c    c #6B7BA2",
"5d    c #CCCCC7",
"5e    c #696F97",
"5f    c #001463",
"5g    c #9E9EAF",
"5h    c #9693A1",
"5i    c #0F2E67",
"5j    c #3BCDF5",
"5k    c #43DFFF",
"5l    c #42E4FF",
"5m    c #2F94C9",
"5n    c #A09BAB",
"5o    c #C7C7C4",
"5p    c #A3A3B2",
"5q    c #021467",
"5r    c #8287A3",
"5s    c #CCCBC6",
"5t    c #CACAC7",
"5u    c #504F70",
"5v    c #186DA5",
"5w    c #41DDFF",
"5x    c #3AD8FD",
"5y    c #487BAD",
"5z    c #C0B9BA",
"5A    c #3E4380",
"5B    c #424882",
"5C    c #CBCAC6",
"5D    c #C6C6C5",
"5E    c #ACAAB1",
"5F    c #182B5F",
"5G    c #33BAE7",
"5H    c #44E8FF",
"5I    c #31B9E9",
"5J    c #747FA2",
"5K    c #CBC8C4",
"5L    c #AFAFB8",
"5M    c #252973",
"5N    c #A1A1B1",
"5O    c #CCCBC9",
"5P    c #68667F",
"5Q    c #0F4C86",
"5R    c #43EBFF",
"5S    c #328FC4",
"5T    c #A8A1AE",
"5U    c #CBCBC6",
"5V    c #7F80A0",
"5W    c #5B5E8E",
"5X    c #BBBABD",
"5Y    c #252E5B",
"5Z    c #1E90C7",
"5&    c #5386B4",
"6     c #8384A2",
"60    c #B9B9BD",
"61    c #CBCAC8",
"62    c #848596",
"63    c #00195B",
"64    c #7C85A6",
"65    c #C0C0C1",
"66    c #BFC0C1",
"67    c #7A7A94",
"68    c #B4B2B9",
"69    c #CBCBC7",
"                                                                ",
"                                           0 1                  ",
"                                         1 2 3 0                ",
"                   4 5 6 7 8 9 9 9 a a b c d e f g              ",
"             h i j k l m n o p q r s t u v w x y z 0   A h      ",
"         B C D E F G H I J K L M N O P Q R S T U V W X Y Z      ",
"     0 &0 000102030405060708090a0b0c0d0e0f0g0h0i0j0k0l0m0n0o    ",
"   0 Z0p0q0r0s0t0u0v0w0x0y0z0A0B0C0D0E0F0G0H0I0J0K0L0M0N0O0P    ",
"0Q0R0S0T0U0V0W0X0Y0Z0u0&1 10111212131415161718191a1b1c1d A 4    ",
" 01e1f1g1h1i1j1k1l1m0Z1n1o1p1q1q1p1r1s1t1u1v1w191x1y1z1A1B      ",
"   51C1D1E1F1G1H1I1J1K1L1M1q1q1N1O1P1Q1R1S1T1U1V1W1X1Y1Z 0      ",
"     B1&2 202122232425262728292a2b2c2d2e2e2f2g2h2i2j2k2l 9      ",
"           0 g2m2n2o2p2q2r2s2t2u2v1S2e2e2e2d2w2x2y2z2A2B2C      ",
"                 4 12D2E2F2G2H2I2J2K2e2e2e2L2M2N2O2P2Q2R2S2T    ",
"                    2U2V2W2X2Y2Z2&2K2e2e1R3 3031323334353637    ",
"                  38393a3b3c3d3e3f3g2K2e3h3i3j3k3l3m3n3o3p3q 0  ",
"                 93r3s3t3u3v3w3x3y3z1S3g3A3B3C3D3E3F3G3H3I3J 5  ",
"              3K3L3M3N3O3P3Q3R3S3T3U3V3W3X3Y3Z3D3Z3&4 40414243  ",
"            0o4445464748494a4b4c4d4e4f4g4h3E3D3D3D4i4j4k4l4m2T  ",
"          4n4o4p4q4r4s4t4u4v 1    4w B4x4y4z3D3D3D3D3E4A4B4C4D  ",
"         04E4F4G4H4I4v0P 0          4w4J4K4L3E3D3D3D3D4M4N4O38  ",
"        4P4Q4R4S4T4U4V                2m4W4X4Y4Z3D3D4&5 5051 0  ",
"        5253545556                     05758593k3D3D5a5b5c37    ",
"        5d5e5f5g a                      4c5h5i5j5k3D5l5m5n 6    ",
"        5o5p5q5r5s                       h5t5u5v3k5w5x5y5z 4    ",
"         h5o5A5B5C h                      5D5E5F5G5H5I5J5K      ",
"           g5L5M5N5o                        5O5P5Q5R5S5T38      ",
"            5U5V5W1& h                       A5X5Y5Z5& D h      ",
"             4 h6 60 h                        616263645s        ",
"               40Q65                           4666768 0        ",
"                                                 469 0          ",
"                                                                "};
