/* XPM */
static char *render_cartoonShader[] = {
/* columns rows colors chars-per-pixel */
"32 32 54 1",
"  c #747474",
". c gray46",
"X c #767676",
"o c #777777",
"O c gray47",
"+ c #797979",
"@ c gray48",
"# c #7C7C7C",
"$ c gray49",
"% c #7E7E7E",
"& c #898989",
"* c gray54",
"= c #8B8B8B",
"- c gray56",
"; c #909090",
": c gray57",
"> c #989898",
", c gray60",
"< c #9A9A9A",
"1 c gray61",
"2 c gray62",
"3 c #9F9F9F",
"4 c #A0A0A0",
"5 c gray64",
"6 c #A4A4A4",
"7 c #A5A5A5",
"8 c gray65",
"9 c #A7A7A7",
"0 c #AEAEAE",
"q c #AFAFAF",
"w c gray69",
"e c #B1B1B1",
"r c #B2B2B2",
"t c #BBBBBB",
"y c #BCBCBC",
"u c gray",
"i c gray75",
"p c #C0C0C0",
"a c #C1C1C1",
"s c gray76",
"d c gray77",
"f c #C5C5C5",
"g c gray80",
"h c #CDCDCD",
"j c #CECECE",
"k c gainsboro",
"l c #DDDDDD",
"z c gray90",
"x c #E6E6E6",
"c c #F4F4F4",
"v c gray96",
"b c #FBFBFB",
"n c #FDFDFD",
"m c gray100",
/* pixels */
"ssssssssssssssssssssssssssssssss",
"ssssssssssssssssssssssssssssssss",
"sssssssssie>&$    @&>eisssssssss",
"sssssssi0-XXXX@@@@XX @-0isssssss",
"ssssssi1$X@7jxvnnvxj7@X$1tssssss",
"ssssst>X@9lvnnnnnnnnvl7@@>isssss",
"ssssi>X@dvnnnnnnnnnnnnvd@X>issss",
"ssss1X@jnnnnnnnnnnnnnnnnj@X3isss",
"sss0$XdnnnnnnnnnnnnnnnnnnsX$esss",
"ssi-X7vnnnnnnnnnnnnnnnnnnv7X-sss",
"ss0X@lnnnnnnnnnnnnnnnnnnnnl@@ess",
"ss>X7nnnnnnnnnnnnnnnnnnnnnn3 1ss",
"ss&Xjnnnnnnnnnnnnnnnnnnnnnnj &ss",
"ss@XxnnnnnnnnnnnnnnnnnnnnnnxX$ss",
"ssX@vnnnnnnnnnnnnnnnnnnnnnnvXXss",
"ss @nnnnnnnnnnnnnnnnnnnnnnnn@Xss",
"ss @nnnnnnnnnnnnnnnnnnnnnnnn@Xss",
"ssX@vnnnnnnnnnnnnnnnnnnnnnnv@Xss",
"ss$XxnnnnnnnnnnnnnnnnnnnnnnxX@ss",
"ss&XjnnnnnnnnnnnnnnnnnnnnnnjX&ss",
"ss>X7nnnnnnnnnnnnnnnnnnnnnn3X>ss",
"ss0@@lnnnnnnnnnnnnnnnnnnnnl@Xess",
"ssi-X7vnnnnnnnnnnnnnnnnnnv7X-iss",
"sss0$XdnnnnnnnnnnnnnnnnnndX$0sss",
"sssi1X@jnnnnnnnnnnnnnnnnj$X1ssss",
"ssssi>X@svnnnnnnnnnnnnvd@X>tssss",
"sssssi>XX7lnnnnnnnnnnl7X@>tsssss",
"ssssssi3$XX3jxvnnvxj7@ $1issssss",
"sssssssie-@XXXXX@@XX X-0isssssss",
"sssssssssie1&$XXXX@&>eisssssssss",
"ssssssssssssssssssssssssssssssss",
"ssssssssssssssssssssssssssssssss"
};
