/* XPM */
static char *render_RayDiffuseLight[] = {
/* width height num_colors chars_per_pixel */
"    32    32      256            2",
/* colors */
"`` c #3c4246",
"`. c #3f4d55",
"`# c #3f4c53",
"`a c #3f4b53",
"`b c #495459",
"`c c #576160",
"`d c #556060",
"`e c #515d60",
"`f c #4e5a5e",
"`g c #4c585d",
"`h c #4b575d",
"`i c #4c575e",
"`j c #4c585e",
"`k c #4b575b",
"`l c #484c4d",
"`m c #3d454b",
"`n c #737373",
"`o c #89827a",
"`p c #9f9283",
"`q c #988e82",
"`r c #948c80",
"`s c #90887f",
"`t c #8c867f",
"`u c #89837d",
"`v c #8a847e",
"`w c #495052",
"`x c #837f79",
"`y c #8e877f",
"`z c #88837e",
"`A c #88837d",
"`B c #89847e",
"`C c #3b3f42",
"`D c #837f7a",
"`E c #8f887f",
"`F c #504e4d",
"`G c #4c4b4a",
"`H c #ffae28",
"`I c #5a5652",
"`J c #505050",
"`K c #ffa82e",
"`L c #89837e",
"`M c #5a5753",
"`N c #4f4f4f",
"`O c #8e887f",
"`P c #ffa82f",
"`Q c #8c857e",
"`R c #5e5a54",
"`S c #ffab33",
"`T c #494949",
"`U c #3f3f3f",
"`V c #ffaa31",
"`W c #5b5652",
"`X c #ffa82c",
"`Y c #ffa832",
"`Z c #414142",
"`0 c #616161",
"`1 c #ffa931",
"`2 c #575757",
"`3 c #484848",
"`4 c #000000",
"`5 c #313131",
"`6 c #2b2b2b",
"`7 c #353535",
"`8 c #ffaa32",
".` c #666666",
".. c #4c4c4b",
".# c #4e4e4e",
".a c #171717",
".b c #0d0d0d",
".c c #444444",
".d c #ffac32",
".e c #ffa62c",
".f c #4b4b4b",
".g c #090909",
".h c #3f2a00",
".i c #a26c00",
".j c #d28d00",
".k c #885900",
".l c #211900",
".m c #1c1c1c",
".n c #ffab32",
".o c #ba7900",
".p c #ffac00",
".q c #b57a00",
".r c #040400",
".s c #885c00",
".t c #9d6700",
".u c #ffa933",
".v c #ffab30",
".w c #0d0900",
".x c #4e3700",
".y c #3a3a3a",
".z c #704600",
".A c #795200",
".B c #ffa42e",
".C c #c88500",
".D c #ffab31",
".E c #7e5700",
".F c #794e00",
".G c #ffb127",
".H c #171100",
".I c #e69500",
".J c #2b1c00",
".K c #ffae2e",
".L c #ffaa33",
".M c #986400",
".N c #b07200",
".O c #e19700",
".P c #925f00",
".Q c #121212",
".R c #5c3d00",
".S c #ab7400",
".T c #8d5c00",
".U c #573900",
".V c #040404",
".W c #ffa932",
".X c #797979",
".Y c #757575",
".Z c #8a857f",
".0 c #85817a",
".1 c #ffaa30",
".2 c #918a80",
".3 c #8d867f",
".4 c #8b857e",
".5 c #474747",
".6 c #88837a",
".7 c #a59785",
".8 c #9e9283",
"#` c #958d80",
"#. c #8b857f",
"## c #55514d",
"#a c #585857",
"#b c #545454",
"#c c #5f5c59",
"#d c #6e685f",
"#e c #6d675e",
"#f c #6b655d",
"#g c #69635c",
"#h c #67625c",
"#i c #65615c",
"#j c #65605c",
"#k c #696560",
"#l c #000000",
"#m c #000000",
"#n c #000000",
"#o c #000000",
"#p c #000000",
"#q c #000000",
"#r c #000000",
"#s c #000000",
"#t c #000000",
"#u c #000000",
"#v c #000000",
"#w c #000000",
"#x c #000000",
"#y c #000000",
"#z c #000000",
"#A c #000000",
"#B c #000000",
"#C c #000000",
"#D c #000000",
"#E c #000000",
"#F c #000000",
"#G c #000000",
"#H c #000000",
"#I c #000000",
"#J c #000000",
"#K c #000000",
"#L c #000000",
"#M c #000000",
"#N c #000000",
"#O c #000000",
"#P c #000000",
"#Q c #000000",
"#R c #000000",
"#S c #000000",
"#T c #000000",
"#U c #000000",
"#V c #000000",
"#W c #000000",
"#X c #000000",
"#Y c #000000",
"#Z c #000000",
"#0 c #000000",
"#1 c #000000",
"#2 c #000000",
"#3 c #000000",
"#4 c #000000",
"#5 c #000000",
"#6 c #000000",
"#7 c #000000",
"#8 c #000000",
"a` c #000000",
"a. c #000000",
"a# c #000000",
"aa c #000000",
"ab c #000000",
"ac c #000000",
"ad c #000000",
"ae c #000000",
"af c #000000",
"ag c #000000",
"ah c #000000",
"ai c #000000",
"aj c #000000",
"ak c #000000",
"al c #000000",
"am c #000000",
"an c #000000",
"ao c #000000",
"ap c #000000",
"aq c #000000",
"ar c #000000",
"as c #000000",
"at c #000000",
"au c #000000",
"av c #000000",
"aw c #000000",
"ax c #000000",
"ay c #000000",
"az c #000000",
"aA c #000000",
"aB c #000000",
"aC c #000000",
"aD c #000000",
"aE c #000000",
"aF c #000000",
"aG c #000000",
"aH c #000000",
"aI c #000000",
"aJ c #000000",
"aK c #000000",
"aL c #000000",
"aM c #000000",
"aN c #000000",
"aO c #000000",
"aP c #000000",
"aQ c #000000",
"aR c #000000",
"aS c #000000",
"aT c #000000",
"aU c #000000",
"aV c #000000",
"aW c #000000",
"aX c #000000",
"aY c #000000",
"aZ c #000000",
"a0 c #000000",
"a1 c #000000",
"a2 c #000000",
"a3 c #000000",
"a4 c #000000",
"a5 c #000000",
"a6 c #000000",
"a7 c #000000",
"a8 c #000000",
/* pixels */
"```.`#`#`#`#`#`a`#`#`#`b`c`d`e`f`g`h`h`i`j`j`g`g`g`g`k`k`k`k`g`l",
"`m`n`n`n`n`n`n`n`n`n`n`o`p`q`r`s`t`u`v`v`v`v`v`v`v`v`v`v`v`v`v`w",
"`m`n`n`n`n`n`n`n`n`n`n`x`y`z`A`B`v`v`v`v`v`v`v`v`v`v`v`v`v`v`v`w",
"`C`n`n`n`n`n`n`n`n`n`n`D`E`v`v`v`v`v`v`v`v`v`v`v`v`v`v`v`v`v`v`F",
"`G`n`n`n`n`n`n`n`n`n`n`D`E`v`v`v`H`v`v`v`v`v`v`v`v`v`v`v`v`v`v`I",
"`J`n`n`n`n`n`n`n`n`n`n`K`K`v`v`v`v`v`v`v`v`v`v`v`v`v`v`v`v`v`L`M",
"`N`n`n`n`n`n`n`n`n`n`n`D`O`P`v`v`v`v`v`v`v`v`v`v`v`v`v`v`v`v`Q`R",
"`N`n`n`n`P`n`n`n`n`n`S`T`U`v`v`V`v`v`v`v`v`v`v`v`v`v`v`v`v`v`v`W",
"`J`n`n`X`n`n`n`n`n`n`n`T`U`v`v`v`v`Y`v`v`v`v`v`v`v`v`v`v`v`v`v`I",
"`Z`n`n`n`0`1`n`n`n`n`n`T`U`v`v`v`v`v`v`2`v`v`v`v`v`v`v`v`v`v`v`I",
"`3`n`n`Y`4`5`n`n`n`n`n`6`7`B`8`v`v`v`6`4.``v`v`v`v`v`v`v`v`v`v`I",
"..`n`n`n.#`4`5`n`n.a`4`4`4.b`6`v`v`6`4.c.d`v`V`v.e`v`v`v`v`v`v`I",
".f`V`n`S`n.#`4.g`4.h.i.j.j.k.l`4.m`4.c`v.n`v`v`v`v`v`v`v`v`v`v`I",
".f`n`n`n`8`n`7`4.o.p.p.p.p.p.p.q.r.a`v`v`v`v`v`v`v`v`v`v`v`v`v`I",
".f`n`8`n`n`8`4.s.p.p.p.p.p.p.p.p.t`4.u`v`v`v`V.v`v`v`v`v`v`v`v`I",
".f`n`n.u`n.c.w.p.p.p.p.p.p.p.p.p.p.x.y`8`v`v`v`v`v`v`v`v`v`v`v`I",
".f`n`n`n`n`4.z.p.p.p.p.p.p.p.p.p.p.A`4`v.n`v`v`v`v.B`v`v`v`v`v`I",
".f`7`5`7`7`4.q.p.p.p.p.p.p.p.p.p.p.C`4`7.m`7`7`v`v`v`v`v`v`v`v`I",
".f`2`2`2.c`4.t.p.p.p.p.p.p.p.p.p.p.C`4`5.c.c.c`v`v`v`v`v`v`v`v`I",
".D`n`n`8`n.b.E.p.p.p.p.p.p.p.p.p.p.F.a`v`v`v`v`v`v`v.G`v`v`v`v`I",
".f`n`n`n`n`0.H.I.p.p.p.p.p.p.p.p.p.J`8`8`8`v`v`v`v.K`v`v`v`v`v`I",
".f`V.D.L`n`n`4.M.p.p.p.p.p.p.p.p.N`4`v`8`v`v`1`v`v`v`v`v`v`v`v`I",
".f`n`8`n`8`n.g`4.A.O.p.p.p.p.p.P`4.Q`v`v`v`v`v`v`v`v`v`v`v`v`v`I",
".f`n`n`n`S`6`4`5`4`4.R.S.T.U`4`4`U`4`5`v`v`v`v`v`v`v`v`v`v`v`v`I",
".f`n`n.L`6`4.c`n`n`n.V`4`4`4`2`v`v.#`4`7`v`v`v`v`v`v`v`v`v`v`v`I",
".f`n`n`2`4.c`n.n`n`n`n`T`U`v`v`v`v`v.#`4`0`v`v`v`v`v`v`v`v`v`v`I",
".f`n`n.W.X`n`n`n`n`n`n`T`U`B`S`v`v`v`v.Y.Z`v`v`v`v`v`v`v`v`v`v`I",
".f`n`n`n`n`n`n`n`n`n.W`T`U.u`v`v`v`v.D`v`u`u`v`v`v`v`v`v`v`v`v`I",
".f`n`n`n`n`n`n`n`n`n`n`T`U`L`A`u`L`v.L`v`v`v`v`v`v`v`v`v`v`v`v`I",
".f`n`n`n`n`n`n`n.D`n`n.0`q.1.2.2`O.3.4`v`v`v`v`v`v`v`v`v`v`v`v`I",
".5`n`n`n`n`n`n`n`n`n`n.6.7`K`p.8#``E#.`v`v`v`v`v`v`v`v`v`v`v`v##",
".5#a#b#b#b#b#b#b#b#b#b#c#d#e#f#g#h#i#j#j#j#j#j#j#j#j#j#j#j#j#k##"
};
