/* XPM */
static char *render_RayDiffuse1[] = {
/* width height num_colors chars_per_pixel */
"    32    32      256            2",
/* colors */
"`` c #3c4246",
"`. c #3f4d55",
"`# c #3f4c53",
"`a c #3f4b53",
"`b c #495459",
"`c c #576160",
"`d c #556060",
"`e c #515d60",
"`f c #4e5a5e",
"`g c #4c585d",
"`h c #4b575d",
"`i c #4c575e",
"`j c #4c585e",
"`k c #4b575b",
"`l c #484c4d",
"`m c #3d454b",
"`n c #737373",
"`o c #89827a",
"`p c #9f9283",
"`q c #988e82",
"`r c #948c80",
"`s c #90887f",
"`t c #8c867f",
"`u c #89837d",
"`v c #8a847e",
"`w c #495052",
"`x c #837f79",
"`y c #8e877f",
"`z c #88837e",
"`A c #88837d",
"`B c #89847e",
"`C c #3b3f42",
"`D c #837f7a",
"`E c #8f887f",
"`F c #504e4d",
"`G c #4c4b4a",
"`H c #5a5652",
"`I c #505050",
"`J c #8d877f",
"`K c #89837e",
"`L c #5a5753",
"`M c #4f4f4f",
"`N c #8e887f",
"`O c #8c857e",
"`P c #5e5a54",
"`Q c #23201d",
"`R c #46423d",
"`S c #1a1815",
"`T c #5b5652",
"`U c #24211e",
"`V c #3b3834",
"`W c #918e8a",
"`X c #a5a29e",
"`Y c #a9a6a2",
"`Z c #4c4843",
"`0 c #414142",
"`1 c #807d78",
"`2 c #979490",
"`3 c #8d8a86",
"`4 c #9d9a96",
"`5 c #a29f9b",
"`6 c #a6a39f",
"`7 c #aaa7a3",
"`8 c #888581",
".` c #47433e",
".. c #262320",
".# c #484848",
".a c #67635e",
".b c #9f9c98",
".c c #928f8b",
".d c #95928e",
".e c #8e8b87",
".f c #9a9793",
".g c #a3a09c",
".h c #a7a4a0",
".i c #827f7a",
".j c #25221f",
".k c #272420",
".l c #4c4c4b",
".m c #221f1c",
".n c #494540",
".o c #a19e9a",
".p c #94918d",
".q c #999692",
".r c #adaaa6",
".s c #7d7974",
".t c #211e1b",
".u c #4b4b4b",
".v c #322f2b",
".w c #8c8985",
".x c #96938f",
".y c #5c5853",
".z c #1d1b18",
".A c #706c67",
".B c #908d89",
".C c #403d39",
".D c #504c47",
".E c #736f6a",
".F c #7e7b76",
".G c #3a3733",
".H c #64605b",
".I c #282521",
".J c #6d6964",
".K c #4f4b46",
".L c #7c7873",
".M c #6e6a65",
".N c #373430",
".O c #534f4a",
".P c #58544f",
".Q c #48443f",
".R c #817e79",
".S c #83807b",
".T c #9b9894",
".U c #605c57",
".V c #56524d",
".W c #57534e",
".X c #5a5651",
".Y c #716d68",
".Z c #635f5a",
".0 c #514d48",
".1 c #3e3b37",
".2 c #55514c",
".3 c #ffaa33",
".4 c #b0803e",
".5 c #76726d",
".6 c #6c6863",
".7 c #726e69",
".8 c #54504b",
"#` c #84817c",
"#. c #413e3a",
"## c #3c3935",
"#a c #595550",
"#b c #4e4a45",
"#c c #7f7c77",
"#d c #6b6762",
"#e c #66625d",
"#f c #43403c",
"#g c #5b5752",
"#h c #68645f",
"#i c #696560",
"#j c #615d58",
"#k c #65615c",
"#l c #797570",
"#m c #9e9b97",
"#n c #28231e",
"#o c #7e7a75",
"#p c #78746f",
"#q c #75716c",
"#r c #b78541",
"#s c #aba8a4",
"#t c #3f3c38",
"#u c #77736e",
"#v c #625e59",
"#w c #474747",
"#x c #8b857f",
"#y c #55514d",
"#z c #585857",
"#A c #545454",
"#B c #b48441",
"#C c #5f5c59",
"#D c #bf8d46",
"#E c #be8c45",
"#F c #bd8b45",
"#G c #bc8a45",
"#H c #bb8a45",
"#I c #bb8945",
"#J c #65605c",
"#K c #000000",
"#L c #000000",
"#M c #000000",
"#N c #000000",
"#O c #000000",
"#P c #000000",
"#Q c #000000",
"#R c #000000",
"#S c #000000",
"#T c #000000",
"#U c #000000",
"#V c #000000",
"#W c #000000",
"#X c #000000",
"#Y c #000000",
"#Z c #000000",
"#0 c #000000",
"#1 c #000000",
"#2 c #000000",
"#3 c #000000",
"#4 c #000000",
"#5 c #000000",
"#6 c #000000",
"#7 c #000000",
"#8 c #000000",
"a` c #000000",
"a. c #000000",
"a# c #000000",
"aa c #000000",
"ab c #000000",
"ac c #000000",
"ad c #000000",
"ae c #000000",
"af c #000000",
"ag c #000000",
"ah c #000000",
"ai c #000000",
"aj c #000000",
"ak c #000000",
"al c #000000",
"am c #000000",
"an c #000000",
"ao c #000000",
"ap c #000000",
"aq c #000000",
"ar c #000000",
"as c #000000",
"at c #000000",
"au c #000000",
"av c #000000",
"aw c #000000",
"ax c #000000",
"ay c #000000",
"az c #000000",
"aA c #000000",
"aB c #000000",
"aC c #000000",
"aD c #000000",
"aE c #000000",
"aF c #000000",
"aG c #000000",
"aH c #000000",
"aI c #000000",
"aJ c #000000",
"aK c #000000",
"aL c #000000",
"aM c #000000",
"aN c #000000",
"aO c #000000",
"aP c #000000",
"aQ c #000000",
"aR c #000000",
"aS c #000000",
"aT c #000000",
"aU c #000000",
"aV c #000000",
"aW c #000000",
"aX c #000000",
"aY c #000000",
"aZ c #000000",
"a0 c #000000",
"a1 c #000000",
"a2 c #000000",
"a3 c #000000",
"a4 c #000000",
"a5 c #000000",
"a6 c #000000",
"a7 c #000000",
"a8 c #000000",
/* pixels */
"```.`#`#`#`#`#`a`#`#`#`b`c`d`e`f`g`h`h`i`j`j`g`g`g`g`k`k`k`k`g`l",
"`m`n`n`n`n`n`n`n`n`n`n`o`p`q`r`s`t`u`v`v`v`v`v`v`v`v`v`v`v`v`v`w",
"`m`n`n`n`n`n`n`n`n`n`n`x`y`z`A`B`v`v`v`v`v`v`v`v`v`v`v`v`v`v`v`w",
"`C`n`n`n`n`n`n`n`n`n`n`D`E`v`v`v`v`v`v`v`v`v`v`v`v`v`v`v`v`v`v`F",
"`G`n`n`n`n`n`n`n`n`n`n`D`E`v`v`v`v`v`v`v`v`v`v`v`v`v`v`v`v`v`v`H",
"`I`n`n`n`n`n`n`n`n`n`n`x`J`v`v`v`v`v`v`v`v`v`v`v`v`v`v`v`v`v`K`L",
"`M`n`n`n`n`n`n`n`n`n`n`D`N`v`v`v`v`v`v`v`v`v`v`v`v`v`v`v`v`v`O`P",
"`M`n`n`n`n`n`n`n`n`n`Q`R`S`Q`v`v`v`v`v`v`v`v`v`v`v`v`v`v`v`v`v`T",
"`I`n`n`n`n`n`n`n`U`V`W`X`Y`W`Z`S`U`v`v`v`v`v`v`v`v`v`v`v`v`v`v`H",
"`0`n`n`n`n`n`n`S`1`Y`2`3`4`5`6`7`8.`....`v`v`v`v`v`v`v`v`v`v`v`H",
".#`n`n`n`n`Q.a`7.b.c.d.e.f`5`5`5.g.h`7.i`Z.j.k`v`v`v`v`v`v`v`v`H",
".l`n`n.m.n.o`5.p.p.d.d.e.q.o.g.g.g.g`5.g.h.r.s.t`v`v`v`v`v`v`v`H",
".u...v.w.h.d.p.d.d.d.d.e.x.o.g.g.g.g.g.g`5.x.y`S`v`v`v`v`v`v`v`H",
".z.A`7.q.c.d.d.d.d.d.d.B.d`5.g.g.g.g.g`5.e.C.D`S`v`v`v`v`v`v`v`H",
"...y.E.f.f.p.d.d.d.d.p`W.p.o.g.g.g.g.o.F.G`Z.H.I`v`v`v`v`v`v`v`H",
"`Q.J.K`Z.L`4`2.p.d.d.d.c.c.o.g.g.g.o.M.N.O.P.y.j`v`v`v`v`v`v`v`H",
".u.Q.R.H.Q.K.S`4.q.p.d.d.w.T.o`5.o.U.N.V.W.V.X.t`v`v`v`v`v`v`v`H",
".u..`1.J.Y.Z.Q.V`8.b.d.w.f.q`4.T.0.1.P.V.2.P.W.t`v`v`v`v.3`v.3`H",
".4`Q.H.5.6.J.7.U.`.8#`.o.o.o.B#.##.0.8.V.2#a#b`Q`v`v`v`v.3.3`v`H",
".u`S`S#c#d.6.6.J.J.J.y#e.f`8#f#g#h.P`Z#b.8.y.n...3`v`v.3`v`v`v`H",
".u.3.m.L.A.J#i#i`3.o.o#c.8.1#j#h#k.a#k.X`Z.V.1`S.3`v`v.3`v`v`v`H",
".u`n.k.8#l#k.Y.q.o`4#m.o#l`R#h.H.H.H#k#e.Z.Y#n`S.3.3`v`v`v`v`v`H",
".u`n`S`S#o#o.b.o`4`4`4`5#o.C#e.H.H.H.H.Z#p.Q...3.3`v.3.3`v`v.3`H",
".u`n`n.m#e`Y.o`4`4`4`4.o.p`Z.Z#k.H.H.H#q.`.j.3.3`v.3.3`v`v`v`v`H",
".4.3`n.3.k`V`5`X`4`4`4.b#m.O.U#k.H.Z.5`Z.j.3.3.3.3.3`v`v`v`v`v#r",
".u`n.3.3.3.3`U.Y#s.o`4`4.g.8.X#e.Z.Y.D`Q.3.3.3`v`v`v.3`v.3.3`v`H",
".4`n`n`n.3.3.3..#t.o`X`4.o.0.8#k.E.2`Q.3.3.3`v.3`v`v`v`v`v.3`v`H",
".u`n`n.3`n.3.3.3.3`U.Y#s.o#k#b#u#a.m.3.3.3`u`v`v.3`v`v`v.3`v`v`H",
".4`n`n`n.3.3.3.3.3.3.k.G.h`1.X#v.m.3.3.3.3.3`v`v.3`v`v.3`v`v`v`H",
".4`n`n.3`n`n.3.3.3.3.3.3...Z.Q.m.3.3.3.3.3.3`v.3.3`v`v`v`v`v`v#r",
"#w`n`n`n`n`n.3.3.3.3.3.3.3.3.3.3.3`E#x`v.3`v`v`v`v`v`v.3`v`v`v#y",
"#w#z#A#B#A#B#B#B#A#B#B#C#D#D#E#F#G#H#I#I#I#I#J#J#J#J#J#J#J#J#i#y"
};
