/* XPM */
static char *magick[] = {
/* columns rows colors chars-per-pixel */
"32 32 231 2",
"   c #28281f",
".  c #2e3c17",
"X  c #373524",
"o  c #3b3928",
"O  c #3b3a25",
"+  c #373730",
"@  c #36421a",
"#  c #3b461d",
"$  c #3f4f1f",
"%  c #364120",
"&  c #3c4621",
"*  c #3c4c21",
"=  c #3f4b28",
"-  c #413f29",
";  c #404526",
":  c #44472c",
">  c #444a26",
",  c #424c24",
"<  c #454c2c",
"1  c #474d32",
"2  c #4b4730",
"3  c #4b4a32",
"4  c #4f4d3f",
"5  c #44433a",
"6  c #445323",
"7  c #445128",
"8  c #495525",
"9  c #4c522c",
"0  c #495824",
"q  c #4e5b2d",
"w  c #475237",
"e  c #4d5433",
"r  c #4f533a",
"t  c #514f33",
"y  c #50562c",
"u  c #525d2c",
"i  c #525334",
"p  c #51563b",
"a  c #555d34",
"s  c #5c5b3b",
"d  c #53622d",
"f  c #59622f",
"g  c #556633",
"h  c #5b6434",
"j  c #5d6139",
"k  c #606436",
"l  c #63653c",
"z  c #636c36",
"x  c #646c3c",
"c  c #696d3e",
"v  c #64723e",
"b  c #6b743c",
"n  c #70783c",
"m  c #4d4c41",
"M  c #565b42",
"N  c #5a5b44",
"B  c #576045",
"V  c #5e624c",
"C  c #5f6f40",
"Z  c #666140",
"A  c #62644e",
"S  c #676941",
"D  c #6a6b41",
"F  c #686a4c",
"G  c #636254",
"H  c #677643",
"J  c #6c7641",
"K  c #6e7c45",
"L  c #716f47",
"P  c #746e48",
"I  c #727444",
"U  c #747548",
"Y  c #707a43",
"T  c #717e45",
"R  c #747b45",
"E  c #727846",
"W  c #787e45",
"Q  c #7d7a4e",
"!  c #797559",
"~  c #7f7e53",
"^  c #656463",
"/  c #6d6d64",
"(  c #6e6e6c",
")  c #747663",
"_  c #77776c",
"`  c #767b69",
"'  c #757571",
"]  c #7e834a",
"[  c #7d864d",
"{  c #7c814d",
"}  c #7e894c",
"|  c #82864d",
" . c #838b4f",
".. c #898e4e",
"X. c #808750",
"o. c #878158",
"O. c #848d51",
"+. c #808e5c",
"@. c #888354",
"#. c #8a8558",
"$. c #898953",
"%. c #8b9257",
"&. c #8f9558",
"*. c #8f985c",
"=. c #938e58",
"-. c #939554",
";. c #94945d",
":. c #969955",
">. c #92995b",
",. c #9c975f",
"<. c #9b9c5d",
"1. c #818576",
"2. c #8a8e7e",
"3. c #979061",
"4. c #989e62",
"5. c #939d62",
"6. c #99a36e",
"7. c #9da77b",
"8. c #a39f65",
"9. c #a39f68",
"0. c #a2a35e",
"q. c #a4a365",
"w. c #a7a668",
"e. c #a0a96c",
"r. c #aaa764",
"t. c #ada66a",
"y. c #adaa6e",
"u. c #acad6b",
"i. c #aaac65",
"p. c #afb26f",
"a. c #afb57a",
"s. c #b3a973",
"d. c #b0b066",
"f. c #b8b56d",
"g. c #b5b36c",
"h. c #b4b574",
"j. c #b8b272",
"k. c #bdb971",
"l. c #bdbc78",
"z. c #c0be75",
"x. c #c2b97a",
"c. c #c6bf79",
"v. c #c6c276",
"b. c #ccc67c",
"n. c #8c8c84",
"m. c #96968c",
"M. c #a2ad8a",
"N. c #a1a39c",
"B. c #a6a99e",
"V. c #a9b187",
"C. c #afb68b",
"Z. c #afb998",
"A. c #b7bd8d",
"S. c #b1b795",
"D. c #b1b89f",
"F. c #aaaca2",
"G. c #abaaa0",
"H. c #a4a4a4",
"J. c #adb0a6",
"K. c #b2b5ab",
"L. c #b9b7b4",
"P. c #b9b9b3",
"I. c #b4b4b3",
"U. c #c1c380",
"Y. c #c8c281",
"T. c #cbc981",
"R. c #c4c79f",
"E. c #cdd091",
"W. c #d1c684",
"Q. c #d2cd84",
"!. c #d0cf95",
"~. c #d7d58e",
"^. c #d9d183",
"/. c #dcd38c",
"(. c #d1d193",
"). c #c4c5be",
"_. c #c5cbb0",
"`. c #ccd1aa",
"'. c #cbd0b1",
"]. c #d3d4ab",
"[. c #d3d6ba",
"{. c #e1d98c",
"}. c #e7dc94",
"|. c #e4df9f",
" X c #e6e091",
".X c #ece393",
"XX c #eee698",
"oX c #f7ed9c",
"OX c #e5e4a2",
"+X c #e8e7bc",
"@X c #edecbf",
"#X c #fcf4a4",
"$X c #f9f7ab",
"%X c #fffaa9",
"&X c #f5f0b5",
"*X c #fffeb2",
"=X c #ffffb6",
"-X c #c7c9c3",
";X c #c9cbc3",
":X c #cecfc9",
">X c #c2c3c2",
",X c #d3d3cf",
"<X c #d5d4d2",
"1X c #dededd",
"2X c #dbdcda",
"3X c #e2e3c0",
"4X c #e2e3c9",
"5X c #e0e3d1",
"6X c #e2e4da",
"7X c #ffffc6",
"8X c #fffac4",
"9X c #fffdcc",
"0X c #f7f7df",
"qX c #ffffd9",
"wX c #ffffdd",
"eX c #e3e3e2",
"rX c #eeeee7",
"tX c #ececeb",
"yX c #eef0e9",
"uX c #f4f3e2",
"iX c #f1f3eb",
"pX c #ffffe4",
"aX c #fefde2",
"sX c #ffffec",
"dX c #f4f4f3",
"fX c #f7f8f6",
"gX c #fcfcf4",
"hX c #fafaf9",
"jX c #fffffa",
"kX c Gray100",
"lX c #fcfbfc",
/* pixels */
"kXkXkXkXkXkXkXkXkXkXkXkXkXkXkXkXkXkXkXkXkXkXkXkXkXkXkXkXkXkXkXkX",
"kXkXkXkXkXkXkXkXkXkXkXkXkXkXkXkXkXkXkXkXkXkXkXkXkXjXkXkXkXkXkXkX",
"kXkXkXkXkXkXkXkXkXkXkXkXkXkXkXkXkXkXkXkXkXkXkXkXkXjXgXkXkXkXkXkX",
"kXkXkXkXkXkXkXkXkXkXkXkXjXkXkXkXkXkXkXkXkXkXkXkXkXsXqXjXkXkXkXkX",
"kXkXkXkXkXkXkXkXkXkXkXjXpXjXkXkXkXkXkXkXkXkXkXkXjX9X7XgXkXkXkXkX",
"kXkXkXkXkXkXkXkXkXkXgXqX7XaXkXkXkXkXkXkXkXkXfX0X@X$X=XpXkXkXkXfX",
"kXkXkXkXkXkXkXkXjXaX8X*X*XwXkXkXkXkXkXkXiX4X].E.~.XX%X7XfX6X[.`.",
"kXkXkXkXkXkXkXkX0X&X#X#X%XkXkXkXjXyX5X'.A.a.h.l.T.{.oXOXZ.7.6.e.",
"kXkXkXkXkXkXuX+X|. X.XoX&XhX6X_.V.6.5.*.*.<.q.p.l.Q.}.Q.H T [ %.",
"kXkXkXkXfX3X(.Q.Q.^.{..X!.M.+.[ [ O. . .O.&.<.w.j.Y./.y.g v T X.",
"kXkXkXfX].v.z.z.v.b.Q./.4.v b T [ [ [ ]  .$.;.8.y.x.W.E a x J { ",
"kXkXiXR.u.i.d.g.f.k.c.b.K d z J Y R R E W { $.;.9.s.{ 7 q j x E ",
"kXrXC.>.:.<.0.r.r.u.j.x.u q h x x x c c D U Q #.3.~ = < e a j S ",
"fXS. .} ..-.-.,.,.8.t.q.* 8 u a h s j j l S L Q o.F B p e i a s ",
"D.K b n W ] | | $.=.,.U & , < 9 9 9 e i i s s Z ! 6X;XF.2.) A N ",
"C d h z b b b I U Q @.l 1 w r M V V A N r 3 2 3 G.kXkXkXhXtX<XP.",
"6 0 u f h k k l l D P F B.F.K.).:X,X-XG._ 4 o X eXkXkXkXkXkXkXkX",
"6 $ 8 8 y y 9 9 9 i i t ).lXkXkXkXkXkXlX2Xn.+ ' kXkXkXkXkXkXkXkX",
"6 # , > > > ; : 3 : - O 4 eXkXkXkXkXkXkXkXtX( 2XkXkXkXkXkXkXkXkX",
"# @ # & ; 3 V 1.m.n./ 5   ^ fXkXkXkXkXkXkXkX>XhXkXkXkXkXkXkXkXkX",
". % < M 1.P.eXhXkXlXfX2XN.^ <XkXkXkXkXkXkXkXfXkXkXkXkXkXkXkXkXkX",
"w ` J.2XhXkXkXkXkXkXkXkXkXdX1XkXkXkXkXkXkXkXkXkXkXkXkXkXkXkXkXkX",
"N.tXkXkXkXkXkXkXkXkXkXkXkXkXkXkXkXkXkXkXkXkXkXkXkXkXkXkXkXkXkXkX",
"eXhXkXkXkXkXkXkXkXkXkXkXkXkXkXkXkXkXkXkXkXkXkXkXkXkXkXkXkXkXkXkX",
"G P.tXfXkXkXkXkXkXkXkXkXkXkXkXkXkXkXkXkXkXkXkXkXkXkXkXkXkXkXkXkX",
"X / I.tXkXkXkXkXkXkXkXkXkXkXkXkXkXkXkXkXkXkXkXkXkXkXkXkXkXkXkXkX",
"m / H.1XfXkXkXkXkXkXkXkXkXkXkXkXkXkXkXkXkXkXkXkXkXkXkXkXkXkXkXkX",
"dXkXkXkXkXkXkXkXkXkXkXkXkXkXkXkXkXkXkXkXkXkXkXkXkXkXkXkXkXkXkXkX",
"kXkXkXkXkXkXkXkXkXkXkXkXkXkXkXkXkXkXkXkXkXkXkXkXkXkXkXkXkXkXkXkX",
"kXkXkXkXkXkXkXkXkXkXkXkXkXkXkXkXkXkXkXkXkXkXkXkXkXkXkXkXkXkXkXkX",
"kXkXkXkXkXkXkXkXkXkXkXkXkXkXkXkXkXkXkXkXkXkXkXkXkXkXkXkXkXkXkXkX",
"kXkXkXkXkXkXkXkXkXkXkXkXkXkXkXkXkXkXkXkXkXkXkXkXkXkXkXkXkXkXkXkX"
};
