/* XPM */
static char * tsCopy_xpm[] = {
"32 32 20 1",
" 	c #8EBBD3",
".	c #A4A4A4",
"+	c #B7B7B7",
"@	c #9A9A9A",
"#	c #BABABA",
"$	c #6D8B9A",
"%	c #5E8193",
"&	c #BFBFBF",
"*	c #ABABAB",
"=	c #A1ACB2",
"-	c #90A1AA",
";	c #648596",
">	c #8399A4",
",	c #872482",
"'	c #1E5876",
")	c #3BB2F0",
"!	c #52174F",
"~	c #F5E94F",
"{	c #FE0000",
"]	c #C1C1C1",
"]]]]]]]]]]]]]]]]]]]]]]]]]]]]]]]]",
"]]]]]]]]]]]]]]]]]]''$]]]]]]]]]]]",
"]]]]]]]]]]]]]]]]]]')'$]]]]]]]]]]",
"]]]]]]]]]]]]]]]]>>'))'$]]]]]]]]]",
"]]]]]]]'''''''''''')))'$]]]]]]]]",
"]]]]]]]')))))))))))))))'$]]]]]]]",
"]]]]]>>'))))))))))))))))'-]]]]]]",
"]]]]]> ')))))))))))))))'$]]]]]]]",
"]]]]]> '''''''''''')))';]]]]]]]]",
"]]]]]>            '))'%]]]]]]]]]",
"]]]]]>>>>>>>>>>>> ')'%]]]]]]]]]]",
"]]]]]]]]]]]]]]]]> ''%]]]]]]]]]]]",
"]]]]]]]]]]]]]]]]> >=]]]]]]]]]]]]",
"]]]]]]]]]]]]]]]]>>=]]]]]]]]]]]]]",
"]!!!!!!!!!!!!!!!!!]]]],,,,,,,,,]",
"]!{{{{{{{!~~~~~~~!]&#+,~~~~~~~,]",
"]!{{{{{{{!~~~~~~~!]#*.,~~~~~~~,]",
"]!{{{{{{{!~~~~~~~!]+.@,~~~~~~~,]",
"]!{{{{{{{!~~~~~~~!]+.@,~~~~~~~,]",
"]!{{{{{{{!~~~~~~~!]+.@,~~~~~~~,]",
"]!{{{{{{{!~~~~~~~!]+.@,~~~~~~~,]",
"]!{{{{{{{!~~~~~~~!]+.@,~~~~~~~,]",
"]!!!!!!!!!!!!!!!!!]+.@,,,,,,,,,]",
"]!{{{{{{{!{{{{{{{!]+.@@@@@@@.+]]",
"]!{{{{{{{!{{{{{{{!]#*.......*#]]",
"]!{{{{{{{!{{{{{{{!]&#+++++++#&]]",
"]!{{{{{{{!{{{{{{{!]]]]]]]]]]]]]]",
"]!{{{{{{{!{{{{{{{!]]]]]]]]]]]]]]",
"]!{{{{{{{!{{{{{{{!]]]]]]]]]]]]]]",
"]!{{{{{{{!{{{{{{{!]]]]]]]]]]]]]]",
"]!!!!!!!!!!!!!!!!!]]]]]]]]]]]]]]",
"]]]]]]]]]]]]]]]]]]]]]]]]]]]]]]]]"};
