/* XPM */
static char * TSconeRed_xpm[] = {
"32 32 225 2",
"  	c None",
". 	c #C1C1C1",
"+ 	c #C2AFAF",
"@ 	c #C5AEAF",
"# 	c #B35257",
"$ 	c #CE919E",
"% 	c #B4AFAF",
"& 	c #9D0808",
"* 	c #DD444F",
"= 	c #C0AFAF",
"- 	c #8A595A",
"; 	c #B4090D",
"> 	c #F0374D",
", 	c #C25D5D",
"' 	c #750608",
") 	c #BA0909",
"! 	c #F14A69",
"~ 	c #D42F33",
"{ 	c #BEAFAF",
"] 	c #82595A",
"^ 	c #8C0707",
"/ 	c #C70A0A",
"( 	c #F24F6E",
"_ 	c #E71822",
": 	c #BD7E7E",
"< 	c #5D0406",
"[ 	c #9F0808",
"} 	c #CD0A0F",
"| 	c #F14E6C",
"1 	c #EC1F2E",
"2 	c #D03D3D",
"3 	c #BEB0AF",
"4 	c #7E595A",
"5 	c #790608",
"6 	c #A70808",
"7 	c #D10A0A",
"8 	c #F0435B",
"9 	c #F03143",
"0 	c #DA0B10",
"a 	c #C28F8F",
"b 	c #B3AEAE",
"c 	c #510406",
"d 	c #8A0707",
"e 	c #B00909",
"f 	c #CF0A0A",
"g 	c #F0394A",
"h 	c #F44763",
"i 	c #E70E13",
"j 	c #C51A1A",
"k 	c #BCAFAF",
"l 	c #856A6A",
"m 	c #640507",
"n 	c #980707",
"o 	c #B6090D",
"p 	c #CF0A0F",
"q 	c #EE313E",
"r 	c #F5587D",
"s 	c #E81116",
"t 	c #D50A0A",
"u 	c #C09FA0",
"v 	c #480303",
"w 	c #9B0808",
"x 	c #B8090D",
"y 	c #EE2F3C",
"z 	c #F65E88",
"A 	c #ED1A24",
"B 	c #E00B10",
"C 	c #C63B3B",
"D 	c #848484",
"E 	c #9C9C9C",
"F 	c #A8A8A8",
"G 	c #B4B4B4",
"H 	c #846B6B",
"I 	c #5B0404",
"J 	c #810606",
"K 	c #A10808",
"L 	c #BC0909",
"M 	c #EA252E",
"N 	c #F66390",
"O 	c #F12A38",
"P 	c #E80D0D",
"Q 	c #BF9E9F",
"R 	c #909090",
"S 	c #606060",
"T 	c #6C6C6C",
"U 	c #787878",
"V 	c #999495",
"W 	c #5C2527",
"X 	c #6A0505",
"Y 	c #880707",
"Z 	c #A5080C",
"` 	c #D30A0A",
" .	c #E91C21",
"..	c #F55A82",
"+.	c #F2354B",
"@.	c #EA0F0F",
"#.	c #DC0B10",
"$.	c #BE2B2B",
"%.	c #4E3132",
"&.	c #4D0404",
"*.	c #740505",
"=.	c #94070A",
"-.	c #AD0808",
";.	c #C10909",
">.	c #D30A0F",
",.	c #E8191E",
"'.	c #F54C6C",
").	c #F4415F",
"!.	c #EC1116",
"~.	c #E40B0B",
"{.	c #CD0A0A",
"].	c #BE8F90",
"^.	c #5A5353",
"/.	c #430E10",
"(.	c #600404",
"_.	c #7F0609",
":.	c #C00909",
"<.	c #E4151A",
"[.	c #F4435C",
"}.	c #F44360",
"|.	c #EE171C",
"1.	c #E60B10",
"2.	c #D60B0F",
"3.	c #B81919",
"4.	c #513C3C",
"5.	c #6E0505",
"6.	c #9F080B",
"7.	c #B40909",
"8.	c #C30A0A",
"9.	c #DF0F0F",
"0.	c #F33446",
"a.	c #F44969",
"b.	c #F21F29",
"c.	c #E90C11",
"d.	c #DE0B0B",
"e.	c #BD8E8E",
"f.	c #590406",
"g.	c #770608",
"h.	c #8E0707",
"i.	c #A30808",
"j.	c #B60909",
"k.	c #C30A0E",
"l.	c #E41111",
"m.	c #F23143",
"n.	c #F1242D",
"o.	c #EB0E13",
"p.	c #E20B0B",
"q.	c #D60B0B",
"r.	c #BD4C4C",
"s.	c #554848",
"t.	c #620505",
"u.	c #940707",
"v.	c #B80909",
"w.	c #C90A0A",
"x.	c #DF0E0E",
"y.	c #F22933",
"z.	c #F43D57",
"A.	c #F32837",
"B.	c #E40B10",
"C.	c #DA0B0B",
"D.	c #BFB0B0",
"E.	c #4B2627",
"F.	c #510404",
"G.	c #720505",
"H.	c #870606",
"I.	c #98070B",
"J.	c #AD080C",
"K.	c #BE0909",
"L.	c #DE0D12",
"M.	c #F01F24",
"N.	c #F3384E",
"O.	c #ED1015",
"P.	c #E80B0B",
"Q.	c #BB5C5E",
"R.	c #512626",
"S.	c #5F0407",
"T.	c #AE0909",
"U.	c #C0090E",
"V.	c #C90A0E",
"W.	c #E00F13",
"X.	c #EF1C21",
"Y.	c #F33042",
"Z.	c #EF1419",
"`.	c #C44D50",
" +	c #5E4949",
".+	c #6A0507",
"++	c #900707",
"@+	c #B20909",
"#+	c #DF0D12",
"$+	c #EF1A1F",
"%+	c #F32A38",
"&+	c #F1161C",
"*+	c #E90C0C",
"=+	c #E60B0B",
"-+	c #DC0B0B",
";+	c #C39E9E",
">+	c #8C8C8C",
",+	c #6B3232",
"'+	c #CB0A0F",
")+	c #D50A0F",
"!+	c #DD0C0C",
"~+	c #EA1313",
"{+	c #F2232D",
"]+	c #F22735",
"^+	c #F2171D",
"/+	c #EA0D0D",
"(+	c #C88F8F",
"_+	c #959595",
":+	c #6F5858",
"<+	c #852828",
"[+	c #CB0A0A",
"}+	c #E81318",
"|+	c #F11E23",
"1+	c #D85F5F",
"2+	c #C3B0B0",
"3+	c #9D9D9D",
"4+	c #928383",
"5+	c #A35254",
"6+	c #A74244",
"7+	c #B63B3B",
"8+	c #CF3C3F",
"9+	c #D24F4F",
"0+	c #D8575A",
"a+	c #D86D70",
"b+	c #D38084",
". . . . . . . . . . . . . . . . . . . . . . . . . . . . . . . . ",
". . . . . . . . . . . . . . . . . . . . . . . . . . . . . . . . ",
". . . . . . . . . . . . . . . . . . . . . . . . . . . . . . . . ",
". . . . . . . . . . . . . . . + @ . . . . . . . . . . . . . . . ",
". . . . . . . . . . . . . . . # $ . . . . . . . . . . . . . . . ",
". . . . . . . . . . . . . . % & * = . . . . . . . . . . . . . . ",
". . . . . . . . . . . . . . - ; > , . . . . . . . . . . . . . . ",
". . . . . . . . . . . . . % ' ) ! ~ { . . . . . . . . . . . . . ",
". . . . . . . . . . . . . ] ^ / ( _ : . . . . . . . . . . . . . ",
". . . . . . . . . . . . % < [ } | 1 2 3 . . . . . . . . . . . . ",
". . . . . . . . . . . . 4 5 6 7 8 9 0 a . . . . . . . . . . . . ",
". . . . . . . . . . . b c d e f g h i j k . . . . . . . . . . . ",
". . . . . . . . . . . l m n o p q r s t u . . . . . . . . . . . ",
". . . . . . . . . . . v ' w x 7 y z A B C . . . . . . . . . . . ",
". . . D E F G . . . H I J K L f M N O P p Q . . . . . . . . . . ",
". . . R S S T U R V W X Y Z L `  ...+.@.#.$.. . . . . . . . . . ",
". . . . S S S S S %.&.*.=.-.;.>.,.'.).!.~.{.].. . . . . . . . . ",
". . . . U S S S ^./.(._.n e :.>.<.[.}.|.1.2.3.. . . . . . . . . ",
". . . . E S S S 4.v 5.Y 6.7.8.7 9.0.a.b.c.d./ e.. . . . . . . . ",
". . . . . T S S /.f.g.h.i.j.k.7 l.m.}.n.o.p.q.r.. . . . . . . . ",
". . . . . U S s.v t.J u.6 v.w.t x.y.z.A.o.B.C.8.D.. . . . . . . ",
". . . . . F S E.F.G.H.I.J.K./ t L.M.N.A.O.P.d.7 Q.. . . . . . . ",
". . . . . . U R.S.g.^ & T.U.V.t W.X.Y.A.Z.c.~.0 `.. . . . . . . ",
". . . . . . E  +.+J ++i.@+:.w.t #+$+%+A.&+*+=+-+;+. . . . . . . ",
". . . . . . . >+,+H.n 6 @+:.'+)+!+~+{+]+^+/+1.(+. . . . . . . . ",
". . . . . . . . _+:+<+6 v.8.[+)+!+}+|+{+&+1+2+. . . . . . . . . ",
". . . . . . . . . . 3+4+5+6+7+8+9+0+a+b+. . . . . . . . . . . . ",
". . . . . . . . . . . . . . . . . . . . . . . . . . . . . . . . ",
". . . . . . . . . . . . . . . . . . . . . . . . . . . . . . . . ",
". . . . . . . . . . . . . . . . . . . . . . . . . . . . . . . . ",
". . . . . . . . . . . . . . . . . . . . . . . . . . . . . . . . ",
". . . . . . . . . . . . . . . . . . . . . . . . . . . . . . . . "};
