/* XPM */
static char *TSinsertCrease2[] = {
/* columns rows colors chars-per-pixel */
"32 32 194 2",
"   c #423D53",
".  c #482560",
"X  c #4F3B61",
"o  c #56266B",
"O  c #663773",
"+  c #722F7F",
"@  c #7E207B",
"#  c #4E435C",
"$  c #57575E",
"%  c #5D5664",
"&  c #656567",
"*  c #666669",
"=  c #737373",
"-  c #79797B",
";  c #6E3C9D",
":  c #7B2885",
">  c #6B59A4",
",  c #9B171E",
"<  c #9F2139",
"1  c #A6191D",
"2  c #AC181E",
"3  c #AE1A20",
"4  c #A41A34",
"5  c #B51B21",
"6  c #BA1B23",
"7  c #AA202E",
"8  c #B6253B",
"9  c #BE283E",
"0  c #8D327F",
"q  c #972562",
"w  c #932F79",
"e  c #9D3261",
"r  c #A62640",
"t  c #A3224A",
"y  c #AD2053",
"u  c #AA2A5A",
"i  c #BF2E4E",
"p  c #BA2354",
"a  c #BE3E55",
"s  c #AC236D",
"d  c #A5247F",
"f  c #B5287E",
"g  c #BD277F",
"h  c #BD336F",
"j  c #C31C23",
"k  c #CB1D25",
"l  c #C21E31",
"z  c #D41E26",
"x  c #D71F28",
"c  c #D91F27",
"v  c #C52333",
"b  c #C92636",
"n  c #D5222C",
"m  c #DC2028",
"M  c #D32033",
"N  c #DB2131",
"B  c #E22129",
"V  c #EB212A",
"C  c #F4222B",
"Z  c #FE232D",
"A  c #FE2630",
"S  c #FF263B",
"D  c #FF2934",
"F  c #FF2D3B",
"G  c #FF313E",
"H  c #C32041",
"J  c #C6234B",
"K  c #CE2343",
"L  c #C02853",
"P  c #CB2451",
"I  c #CD3447",
"U  c #D62349",
"Y  c #D92457",
"T  c #C52778",
"R  c #C82774",
"E  c #D9277A",
"W  c #FF2D43",
"Q  c #FF3343",
"!  c #FF354A",
"~  c #FF3C4D",
"^  c #FF3E50",
"/  c #FF2D6B",
"(  c #FF3166",
")  c #FF3274",
"_  c #FF4253",
"`  c #82258D",
"'  c #892395",
"]  c #892991",
"[  c #8C3999",
"{  c #962585",
"}  c #92258E",
"|  c #962490",
" . c #9C2698",
".. c #953297",
"X. c #8C36A7",
"o. c #9528A8",
"O. c #9B28A2",
"+. c #9B2AAA",
"@. c #9D2AB3",
"#. c #AD288D",
"$. c #A62D96",
"%. c #A22D9E",
"&. c #AD2999",
"*. c #A13C81",
"=. c #A23190",
"-. c #BB2987",
";. c #BE2A8C",
":. c #B22B9A",
">. c #BE2B97",
",. c #B92B9F",
"<. c #A529A7",
"1. c #A52BAB",
"2. c #AC2AA2",
"3. c #AB2BAB",
"4. c #A339AA",
"5. c #B52BA5",
"6. c #B32BAE",
"7. c #B92CA7",
"8. c #B82CAC",
"9. c #B52CB0",
"0. c #BA2DB2",
"q. c #B030AE",
"w. c #BC36A1",
"e. c #B533B0",
"r. c #994A95",
"t. c #9045AA",
"y. c #9B43AC",
"u. c #8E61AC",
"i. c #B741B4",
"p. c #B64EB4",
"a. c #B840B3",
"s. c #B94CB4",
"d. c #BA57B6",
"f. c #BB5AB6",
"g. c #AE66BB",
"h. c #B871B5",
"j. c #BC7ABA",
"k. c #C32983",
"l. c #C92C96",
"z. c #C32FBB",
"x. c #CC2FB8",
"c. c #C53CBE",
"v. c #D22EA7",
"b. c #D92CA6",
"n. c #FF3280",
"m. c #FF39A3",
"M. c #FF36B7",
"N. c #C92FC0",
"B. c #CB30C3",
"V. c #CF30CC",
"C. c #C93AC3",
"Z. c #D631C1",
"A. c #D331CB",
"S. c #DA33D1",
"D. c #E134D2",
"F. c #E335D8",
"G. c #EF39DF",
"H. c #F73AC0",
"J. c #FF3ACD",
"K. c #EB39E2",
"L. c #F139E7",
"P. c #F53AEC",
"I. c #FC3CF3",
"U. c #FF3BFD",
"Y. c #FF44FF",
"T. c #FF51FF",
"R. c #848384",
"E. c gray55",
"W. c #9B9B9B",
"Q. c #A18BB5",
"!. c #B384B0",
"~. c #B783B9",
"^. c #B589B3",
"/. c #BE8FB7",
"(. c #B98BB9",
"). c #BD92BB",
"_. c #BF98BD",
"`. c #A4A4A4",
"'. c #ABABAB",
"]. c #AFAFB9",
"[. c #B3ADBC",
"{. c #BCA3BD",
"}. c #BBA9BC",
"|. c gray70",
" X c #BAB4BD",
".X c #BCBCBC",
"XX c #B2A8C2",
"oX c #BDBBC0",
"OX c #BEC0C0",
"+X c #C289BF",
"@X c #C0A5BD",
"#X c #C1B4BF",
"$X c #C0BCC0",
"%X c #C0C0C0",
/* pixels */
"%X%X%X%X%X%X%X%X%X%X%X%X%X%X%X%X%X%X%X%X%X%X%X%X%X%X%X%X%X%X%X%X",
"%X%X%X%X%X%X%X%X%X%X%X%X%X%X%X%X%X%X%X%X%X%X%X%X%X%X%X%X%X%X%X%X",
"%X%X%X%X%X%X%X%X%X%X_.}.%X$X%X%X%X%X%X%X%X%X%X%X%X%X%X%X%X%X%X%X",
"%X%X%X%X%X%X%X%X%XOXf.0.$X$X%X%X%X%X%X%X%X%X%X%X%X%X%X%X%X%X%X%X",
"%X%X%X%X%X%X%X%X%X%XC.K.C.!.oX%X%X%X%X_.~.%X%XOX%X%X%X%X%X%X%X%X",
"%X%X%X%X%X%X%X%X%X%Xz.T.P.8.r.^.j.e.{ I w.oX%XOX%X%X%X%X%X%X%X%X",
"%X%X%X%X%X%X%X%X%X_.v.D n.A. .@ s J n c I q.%XOX%X%X%X%X%X%X%X%X",
"%X%X%X%X%X%X%X%X}.B./ D W I.l.2 5 j c B n R s.OX%X%X%X%X%X%X%X%X",
"%X%X%X%XOXOXoXp.9.b.~ Q D M.S.K 5 k z m c B q.).%X%X%X%X%X%X%X%X",
"%X%XW. X_.i.1.u U C Q _ D W K.x.5 2 k m B c l q.#X%X%X%X%X%X%X%X",
"%X'.- ..9.9 c B V Z D _ G D V.S.R 1 6 n c < } R R [.%X%X%X%X%X%X",
".X= = O >.m B n V A D F G F U.Y.N.2.{ #.5.8.2.4 M w.oX%X%X%X%X%X",
"|.= = % 5.f B n c C D D D Y.Y.Y.K.0.| | ] 7 m m m P g.%X%X%X%X%X",
".XR.= & O.6.n c n B C C E L.) Q m.N.q , j m m m m m l.XX%X%X%X%X",
".XW.= = + 9.0 c B m v p 8.Z.G D Q S.0.6 5 k m m m m n 0.oX%X%X%X",
"%X%X= = # 8.3.r t o.9.9.@.Z _ ! D / S.;.2 6 m m m m n *.i.%X%X%X",
"%X%X= = * <.9.9.9.2.e m C Z Q ~ D F J.N.H j j c c c m m 4.(.$X$X",
"%XoX`.= = : 9.$.b m m m B D D ~ F D H.F.8.y 6 z B c m c > e.).%X",
"%X%X`.= = X 6.-.m m m m m C A F F Z V.+Xd.>.2 j c c L :.9.9.+.%X",
"%X%X|.- = $ 3.1.m m m m m B Z D F S 0.oX.Xd.&.w [ 0.8.8.t. X].%X",
"OX%X.XE.= = : 3.L m m m c c C A D x.e.%X%X%X@X8.0.8.f.$XOX%X%X%X",
"%X%X%X`.- = . 0.:.m m m B c c B Y 0.+X%X%X%X%X%XoX$X%X%XOX%X%X%X",
"%X%X%X`.R.= = q.+.m m m c B c m 0.8.$X%X%X%X%X%X$X%X%X%X%X%X%X%X",
"%X%X%X%XE.= * ' 1.=.m m n n p 8.0.j.%X%X%X%X%X%X%X%X%X%X%X%X%X%X",
"%X%X%X%XW.- = o 8.1.8 n T 9.9.e.@X%X%X%X%X%X%X%X%X%X%X%X%X%X%X%X",
"%X%X%X%X'.= =   6.3.9.k.5.+.u. X%X%X%X%X%X%X%X%X%X%X%X%X%X%X%X%X",
"%X%X%X%X%XE.E.- +.e.9.X.Q.%X%X%X%X%X%X%X%X%X%X%X%X%X%X%X%X%X%X%X",
"%X%X%X%X%X.X.X%X; y.oX%X%X%X%X%X%X%X%X%X%X%X%X%X%X%X%X%X%X%X%X%X",
"%X%X%X%X%X%X%X%X%X%X%X%X%X%X%X%X%X%X%X%X%X%X%X%X%X%X%X%X%X%X%X%X",
"%X%X%X%X%X%X%X.X%X%X%X%X%X%X%X%X%X%X%X%X%X%X%X%X%X%X%X%X%X%X%X%X",
"%X%X%X%X%X%X%X%X%X%X%X%X%X%X%X%X%X%X%X%X%X%X%X%X%X%X%X%X%X%X%X%X",
"%X%X%X%X%X%X%X%X%X%X%X%X%X%X%X%X%X%X%X%X%X%X%X%X%X%X%X%X%X%X%X%X"
};
