/* XPM */
static char * TScylinderRed_xpm[] = {
"32 32 134 2",
"  	c None",
". 	c #C1C1C1",
"+ 	c #C78F8F",
"@ 	c #CE5D5D",
"# 	c #CB6E6E",
"$ 	c #C97E80",
"% 	c #C2AFAF",
"& 	c #DA0B0B",
"* 	c #D81B1B",
"= 	c #BE5D5F",
"- 	c #D61B1B",
"; 	c #9B5A5C",
"> 	c #C0090E",
", 	c #CE1B1F",
"' 	c #8B6A6B",
") 	c #5F0407",
"! 	c #AE090C",
"~ 	c #CF0A0A",
"{ 	c #D50A0A",
"] 	c #DF1015",
"^ 	c #E20B10",
"/ 	c #B40909",
"( 	c #8C1717",
"_ 	c #550404",
": 	c #590406",
"< 	c #680505",
"[ 	c #940707",
"} 	c #A70808",
"| 	c #B60909",
"1 	c #BA0909",
"2 	c #D50E0E",
"3 	c #DC171C",
"4 	c #D52A3E",
"5 	c #DC4565",
"6 	c #C93045",
"7 	c #C21F2F",
"8 	c #AF0C10",
"9 	c #980707",
"0 	c #92070A",
"a 	c #963939",
"b 	c #A08D8E",
"c 	c #530404",
"d 	c #590404",
"e 	c #5D0404",
"f 	c #640507",
"g 	c #6E0505",
"h 	c #790606",
"i 	c #810606",
"j 	c #870606",
"k 	c #8A0707",
"l 	c #900707",
"m 	c #98070B",
"n 	c #9A0707",
"o 	c #920707",
"p 	c #943939",
"q 	c #510404",
"r 	c #5B0404",
"s 	c #640505",
"t 	c #770606",
"u 	c #7F0609",
"v 	c #850609",
"w 	c #8C0707",
"x 	c #94070A",
"y 	c #994A4A",
"z 	c #AA9D9D",
"A 	c #600407",
"B 	c #770608",
"C 	c #974A4C",
"D 	c #4F0404",
"E 	c #620507",
"F 	c #6C0508",
"G 	c #870609",
"H 	c #8A070A",
"I 	c #960707",
"J 	c #A36C6D",
"K 	c #5B1414",
"L 	c #570404",
"M 	c #600404",
"N 	c #6C0505",
"O 	c #750606",
"P 	c #7F0606",
"Q 	c #96070B",
"R 	c #A97C7E",
"S 	c #9C9C9C",
"T 	c #531414",
"U 	c #620505",
"V 	c #AE8D8D",
"W 	c #787878",
"X 	c #6C6C6C",
"Y 	c #606060",
"Z 	c #521B1B",
"` 	c #5F0404",
" .	c #8E0707",
"..	c #B39E9E",
"+.	c #552626",
"@.	c #5B0406",
"#.	c #6A0505",
"$.	c #750608",
"%.	c #521B1C",
"&.	c #B4B4B4",
"*.	c #573233",
"=.	c #550406",
"-.	c #7D0606",
";.	c #8E1717",
">.	c #563131",
",.	c #6A0507",
"'.	c #96393B",
").	c #A8A8A8",
"!.	c #5B4848",
"~.	c #740505",
"{.	c #848484",
"].	c #5D5454",
"^.	c #581B1B",
"/.	c #B69E9E",
"(.	c #5F5454",
"_.	c #5C1B1B",
":.	c #5D0406",
"<.	c #A67576",
"[.	c #909090",
"}.	c #696969",
"|.	c #603D3D",
"1.	c #671C1C",
"2.	c #740508",
"3.	c #7D0609",
"4.	c #7A3739",
"5.	c #988D8D",
"6.	c #727272",
"7.	c #625555",
"8.	c #684949",
"9.	c #635454",
"0.	c #713E3F",
"a.	c #6B4A4A",
"b.	c #715858",
"c.	c #959595",
". . . . . . . . . . . . . . . . . . . . . . . . . . . . . . . . ",
". . . . . . . . . . . . . . . . . . . . . . . . . . . . . . . . ",
". . . . . . . . . . . . . . . . . . . . . . . . . . . . . . . . ",
". . . . . . . . . . . . . . . . . . . . . . . . . . . . . . . . ",
". . . . . . . . . . . . . . . . . . . . . . . . . . . . . . . . ",
". . . . . . . . . . . . + @ @ @ @ @ # $ + % . . . . . . . . . . ",
". . . . . . . . . # & & & & & & & & & & & & @ + . . . . . . . . ",
". . . . . . . . * & & & & & & & & & & & & & & & # . . . . . . . ",
". . . . . . . = & & & & & & & & & & & & & & & & - . . . . . . . ",
". . . . . . . ; > & & & & & & & & & & & & & & & , . . . . . . . ",
". . . . . . . ' ) ! ~ { & & & & & & & & & ] ^ / ( . . . . . . . ",
". . . . . . . ' _ : < [ } | 1 2 3 4 5 6 7 8 9 0 a . . . . . . . ",
". . . . . . . b c d e f g h i j k l [ 9 m n 9 o p . . . . . . . ",
". . . . . . . b q d r s g t u v w l x 9 m n 9 l y . . . . . . . ",
". . . . . . . z q d r A g B u v k l x 9 n n 9 0 C . . . . . . . ",
". . . . . . . . D d r E F t u G H l [ 9 m n I l J . . . . . . . ",
". . . . . . . . K L r M N O P G w l [ 9 m n Q l R . . . . . . . ",
". . . . . . . S T L r U N O u G H l [ 9 n n Q w V . . . . . . . ",
". . . . . W X Y Z L r ` g t P v w l [ 9 n m Q  .... . . . . . . ",
". . . . W Y Y Y +.L @.M #.$.P v w l [ 9 n m Q k . . . . . . . . ",
". . . W Y Y Y Y %.L r M #.$.P j H l [ 9 n 9 [ j . . . . . . . . ",
". . &.Y Y Y Y Y *.=.r ) N $.-.j w l Q 9 n m [ ;.. . . . . . . . ",
". . &.W Y Y Y Y >._ : e ,.O -.j w l Q 9 n m [ '.. . . . . . . . ",
". . . ).X Y Y Y !.=.: e #.~.-.j w o Q 9 n 9 o '.. . . . . . . . ",
". . . . . {.X Y ].^.: ) < ~.-.v w l [ 9 n 9 0 /.. . . . . . . . ",
". . . . . . ).W X (._.:.,.$.-.v w o [ 9 n 9 <.. . . . . . . . . ",
". . . . . . . . ).[.}.|.1.2.3.j w l I 9 4.5.. . . . . . . . . . ",
". . . . . . . . . . &.[.6.7.8.9.0.a.b.c.&.. . . . . . . . . . . ",
". . . . . . . . . . . . . &.).).).&.. . . . . . . . . . . . . . ",
". . . . . . . . . . . . . . . . . . . . . . . . . . . . . . . . ",
". . . . . . . . . . . . . . . . . . . . . . . . . . . . . . . . ",
". . . . . . . . . . . . . . . . . . . . . . . . . . . . . . . . "};
