/* XPM */
static char *TSedgedelete4[] = {
/* columns rows colors chars-per-pixel */
"32 32 248 2",
"   c #6E1C76",
".  c #6C3471",
"X  c #7D236C",
"o  c #722178",
"O  c #753277",
"+  c #655F66",
"@  c #62587E",
"#  c #7F537D",
"$  c #795D78",
"%  c #766375",
"&  c #746C73",
"*  c #737373",
"=  c #7C7C7C",
"-  c #7F1F96",
";  c #6E3495",
":  c #71258E",
">  c #7A3493",
",  c #119E68",
"<  c #139E72",
"1  c #06A167",
"2  c #02A06A",
"3  c #02A67B",
"4  c #0AA375",
"5  c #09A479",
"6  c #19A477",
"7  c #549C7F",
"8  c #43BA77",
"9  c #5DA677",
"0  c #7BAA6F",
"q  c #369880",
"w  c #24A682",
"e  c #3BAC8B",
"r  c #38A698",
"t  c #469C88",
"y  c #62AF94",
"u  c #67B7A5",
"i  c #981B67",
"p  c #873367",
"a  c #8E3671",
"s  c #AB2D49",
"d  c #AD2F5E",
"f  c #A5354D",
"g  c #A5335D",
"h  c #B32C43",
"j  c #B32D5B",
"k  c #BE3348",
"l  c #BD3C52",
"z  c #AE296C",
"x  c #AE2479",
"c  c #AE2E71",
"v  c #AD2E7B",
"b  c #AB3176",
"n  c #B32C6D",
"m  c #B82568",
"M  c #B12771",
"N  c #B12F72",
"B  c #88586A",
"V  c #B54F53",
"C  c #AE6B62",
"Z  c #CB1D26",
"A  c #D01F2C",
"S  c #DD1F27",
"D  c #C62B37",
"F  c #C42B3A",
"G  c #CE2030",
"H  c #CC2935",
"J  c #C82A38",
"K  c #D6262E",
"L  c #DE2025",
"P  c #DB232A",
"I  c #D32631",
"U  c #D6213B",
"Y  c #D02832",
"T  c #DA2433",
"R  c #DC2A38",
"E  c #E01F25",
"W  c #E32025",
"Q  c #E02228",
"!  c #C7254A",
"~  c #C62843",
"^  c #C6275E",
"/  c #C32B5B",
"(  c #C92352",
")  c #CC2951",
"_  c #C82859",
"`  c #D72547",
"'  c #D22655",
"]  c #C12B68",
"[  c #C92965",
"{  c #CA286D",
"}  c #C82878",
"|  c #D53363",
" . c #D1535C",
".. c #C9427C",
"X. c #CC4C7C",
"o. c #CE5664",
"O. c #D2486B",
"+. c #D25363",
"@. c #D6556B",
"#. c #D85361",
"$. c #D95569",
"%. c #DD5B63",
"&. c #DA5F6B",
"*. c #D35277",
"=. c #D0577D",
"-. c #D95D71",
";. c #CB656D",
":. c #C96078",
">. c #C47970",
",. c #DB6066",
"<. c #DD636A",
"1. c #DD6A6E",
"2. c #D46770",
"3. c #DA6273",
"4. c #DE6A71",
"5. c #E0666C",
"6. c #E0696E",
"7. c #E06C71",
"8. c #87248A",
"9. c #872B84",
"0. c #8B258F",
"q. c #8D2889",
"w. c #8E2591",
"e. c #92258E",
"r. c #94288F",
"t. c #9A258C",
"y. c #912593",
"u. c #912991",
"i. c #97299A",
"p. c #992594",
"a. c #9C2799",
"s. c #9A289E",
"d. c #973F95",
"f. c #9527A0",
"g. c #9A2EAA",
"h. c #A22586",
"j. c #A92680",
"k. c #A02799",
"l. c #A12993",
"z. c #A2289B",
"x. c #B42A9A",
"c. c #BB2C9A",
"v. c #BE3D8D",
"b. c #BB369C",
"n. c #A629A0",
"m. c #AB2AA5",
"M. c #AD2BA8",
"N. c #A03FA0",
"B. c #B32BA2",
"V. c #B22BAC",
"C. c #BB2CA5",
"Z. c #B92CAB",
"A. c #B62CB0",
"S. c #B82DB1",
"D. c #B334AC",
"F. c #BA3DA2",
"G. c #BA39AF",
"H. c #B235B0",
"J. c #B13AB0",
"K. c #B831B6",
"L. c #BA32BA",
"P. c #844B81",
"I. c #894285",
"U. c #8A509E",
"Y. c #96559C",
"T. c #915893",
"R. c #9B539C",
"E. c #8D5BA0",
"W. c #9E63A1",
"Q. c #947FA0",
"!. c #9B7EA6",
"~. c #BB429F",
"^. c #BF499A",
"/. c #AA5DAA",
"(. c #B744A8",
"). c #B74BA0",
"_. c #B44EAF",
"`. c #B843A1",
"'. c #B451B8",
"]. c #B45EB4",
"[. c #A56DB0",
"{. c #A57CAA",
"}. c #A973A7",
"|. c #AC7CAA",
" X c #BC66A8",
".X c #B660B3",
"XX c #BE75AA",
"oX c #BF7EAE",
"OX c #B079B5",
"+X c #BD7FB1",
"@X c #B87DB8",
"#X c #C52A82",
"$X c #C22A8D",
"%X c #C43D88",
"&X c #C4399C",
"*X c #C12DB7",
"=X c #C731A3",
"-X c #C82AC2",
";X c #C44486",
":X c #C3438E",
">X c #C24B8E",
",X c #C84182",
"<X c #C94B83",
"1X c #C3518D",
"2X c #CB5382",
"3X c #CD5B8A",
"4X c #C75C91",
"5X c #D25E80",
"6X c #C2628E",
"7X c #C3699B",
"8X c #C567C6",
"9X c #9AAC6E",
"0X c #B0A166",
"qX c #BEB070",
"wX c #ACCE72",
"eX c #B7C170",
"rX c #C3825F",
"tX c #C3947A",
"yX c #C2A972",
"uX c #D9C96C",
"iX c #D1CC72",
"pX c #828282",
"aX c #8C8C8C",
"sX c #948E9C",
"dX c #939393",
"fX c #9B9B9B",
"gX c #98AFAB",
"hX c #AF84AD",
"jX c #A79AA6",
"kX c #AD93A5",
"lX c #A99BAF",
"zX c #B68DBC",
"xX c #B982B3",
"cX c #B987B9",
"vX c #B299B2",
"bX c #A0A0A0",
"nX c #AAAAAA",
"mX c #B9A5B8",
"MX c #BAAAB9",
"NX c #B2B2B2",
"BX c #BDB3BC",
"VX c #BDBCBD",
"CX c #AEA5C3",
"ZX c #96C2B3",
"AX c #BDC2C1",
"SX c #D0A387",
"DX c #C0B6C0",
"FX c #C1C1C1",
/* pixels */
"FXFXFXFXFXFXFXFXFXFXFXFXFXFXFXFXFXFXFXFXFXFXFXFXFXFXFXFXFXFXFXFX",
"FXFXFXFXFXFXFXFXFXFXFXAXDXxX7X7XxXFXFXFXFXFXFXFXFXFXFXFXFXFXFXFX",
"FXFXFXFXFXFXFXAXZXu e gX3X@.%.6.@.+XFXFXFXFXFXFXFXFXFXFXFXFXFXFX",
"FXFXFXFXFXBXxXkX7 6 9 V 1.1.6.5.4.*.@XFXFXFXFXFXFXFXFXFXFXFXFXFX",
"FXFXBXcX(.v.X.#.C 0XiXyX<.4.7.6.5.>X_.xXFXFXFXFXFXFXFXFXFXFXFXFX",
"FXlXL.~.+.%.<.4.7. .qXiXtX<.<.2X6X>XX.=.XXFXFXFXFXFXFXFXFXFXFXFX",
"FXFX/.%X6.7.4.7.4.<.l y 2 4 t `.X.5.7.7.-. XFXFXFXFXFXFXFXFXFXFX",
"FXFXBX=X&.7.7.7.&.1XsX4 , 1 9Xo.7.6.7.7.5.2X].FXFXFXFXFXFXFXFXFX",
"FXFXFXT.b.2X=.2X;X<X:.;.2.0 eXrX<.4.4.4.-.^.J..XFXFXFXFXFXFXFXFX",
"FXFXFXCXM.H.).O.<.4.4.4.7.7.uXwX>.4.3.<XF.D.8XzXFXFXFXFXFXFXFXFX",
"FXFXFXFXQ.L.X.6.7.7.7.7.4.4.SX8 5 q !.K.-XM.OXFXFXFXFXFXFXFXFXFX",
"FXFXFXFXDXR.%X<.7.7.7.4.7.3Xr 3 w U.i h b S.S.OXFXFXFXFXFXFXFXFX",
"FXFXFXFXFXsX*X..%.7.5.$.:XD.'.B Y A G H H N S.S.[.FXFXFXFXFXFXFX",
"FXFXCX@ ; : - D.:X*.,Xb.&X) Y K P L L H Y ) c.S.S.OXFXFXFXFXFXFX",
"FXNXjXM.u.e.e.V.J.G.| F Y I K P S S K [ c.Z.z.V.S.S.[.DXFXFXFXFX",
"VX9X& w.m.r.a k R H Y I K P P Q U } C.V.a.p.j.! N S.S.@XFXFXFXFX",
"kXy * 9.a.V.g F I Y I K P P ' $XS.m.p.t.N I Q I H N S.S.[.FXFXFX",
"DXaX* & r.V.a.F P P P U { C.Z.z.e.h.( W P Q Q K Y J n S.S.[.FXFX",
"FXNX9X@ P.a.S.j P ` #XZ.M.a.t.x T W W W Q Q Q Q Q P J n S.S.[.FX",
"FXNXpX* * r.M.m.c.V.m.p.t.m E W E E W W P P P P Q Q Y f > S.g.CX",
"FXFXfXB & # e.Z.V.e.h.! P P E W E E W Q P P P P K F p u.S.m.w.E.",
"FXFXmX0 * * q.m.m.~ Q W P L E W W W W P P P P K d i.S.M.p.r.{.AX",
"FXFXBXdX* * $ u.S.c P Q Q W E E W W W P P K / l.S.V.a.r.{.FXFXFX",
"FXFXCXNX= * * 9.z.V.J Q W E S Q E W P P [ c.S.V.a.e.|.FXFXFXFXFX",
"FXFXFXAXdX* * & e.Z.v I S S S P P P ^ x.S.V.a.r.|.VXFXFXFXFXFXFX",
"FXFXFXFXfX* * * o a.V.s Z A J J ] B.S.V.s.e.}.VXFXFXFXFXAXFXFXFX",
"FXFXFXFXVXaX* * % e.V.8.  X z B.S.V.s.0.W.BXFXFXFXFXFXFXFXFXFXFX",
"FXFXFXFXVXfX* * * O a.V.0.a.S.A.s.u.Y.BXFXFXFXFXFXFXFXFXFXFXFXFX",
"FXFXFXFXFXbX= * * + q.m.S.S.f.r.R.MXFXFXFXFXFXFXFXFXFXFXFXFXFXFX",
"FXFXFXFXFXVXaX* * pX. e.u.0.R.mXFXFXFXFXFXFXFXFXFXFXFXFXFXFXFXFX",
"FXFXFXFXFXFXnXdXnXVXVXvXd.hXFXFXFXFXFXFXFXFXFXFXFXFXFXFXFXFXDXFX",
"FXFXFXFXFXFXFXNXAXFXFXFXFXDXFXFXFXFXFXFXFXFXFXFXFXFXFXFXFXFXFXFX"
};
