/* XPM */
static char *EndUV[] = {
/* columns rows colors chars-per-pixel */
"32 32 238 2",
"   c #340A0A",
".  c #3A0400",
"X  c #410C0C",
"o  c #590505",
"O  c #541111",
"+  c #6C0606",
"@  c #631615",
"#  c #7F0000",
"$  c #6E2F2F",
"%  c #713D3D",
"&  c #7B2F7E",
"*  c #5D766F",
"=  c #7E5A5A",
"-  c #727774",
";  c #7D7F7F",
":  c #778785",
">  c #8C0000",
",  c #AB0000",
"<  c #B50000",
"1  c #BC0001",
"2  c #BB272A",
"3  c #AD2276",
"4  c #B82472",
"5  c #815757",
"6  c #8F6E6E",
"7  c #906A6A",
"8  c #9A7868",
"9  c #BC4948",
"0  c #A04B78",
"q  c #BE7B7B",
"w  c #C6080A",
"e  c #D20000",
"r  c #DB0000",
"t  c #D80709",
"y  c #D71B1B",
"u  c #CE3A37",
"i  c #D22525",
"p  c #D42728",
"a  c #DC2029",
"s  c #DC282F",
"d  c #D3223D",
"f  c #DA2231",
"g  c #D82239",
"h  c #DB2A31",
"j  c #D92A39",
"k  c #D9353C",
"l  c #E30000",
"z  c #E4090C",
"x  c #E90103",
"c  c #EB0A0C",
"v  c #E70D10",
"b  c #E11B1D",
"n  c #E03031",
"m  c #CE274B",
"M  c #C42256",
"N  c #CF255B",
"B  c #D42343",
"V  c #D4264B",
"C  c #D72F44",
"Z  c #D52B49",
"A  c #D02659",
"S  c #D83841",
"D  c #CA2666",
"F  c #CB266C",
"G  c #CD2A66",
"H  c #C8286E",
"J  c #C32675",
"K  c #C6297C",
"L  c #C92772",
"P  c #C92F78",
"I  c #CB5656",
"U  c #D6444B",
"Y  c #D65A5A",
"T  c #CA6363",
"R  c #D46062",
"E  c #833E8F",
"W  c #8531A6",
"Q  c #8E36A3",
"!  c #9D27AA",
"~  c #9832A7",
"^  c #AD289B",
"/  c #AF379B",
"(  c #B12989",
")  c #BC288B",
"_  c #B4299C",
"`  c #BD2A94",
"'  c #B92B9C",
"]  c #A428AC",
"[  c #AF2BA0",
"{  c #AC2BAD",
"}  c #A333AF",
"|  c #A134B2",
" . c #B42DAE",
".. c #BB2CA6",
"X. c #B92CAC",
"o. c #B62DB0",
"O. c #B82DB0",
"+. c #B235A1",
"@. c #B930AD",
"#. c #B930B0",
"$. c #B93BB2",
"%. c #B22BD7",
"&. c #B92DD7",
"*. c #93539D",
"=. c #9348A7",
"-. c #9353A3",
";. c #9A59AB",
":. c #965FB7",
">. c #9B5DB5",
",. c #9661B7",
"<. c #A04B84",
"1. c #AD4DAD",
"2. c #A74EB4",
"3. c #A356B5",
"4. c #A159B5",
"5. c #B944A8",
"6. c #A26DBB",
"7. c #A072A8",
"8. c #A278BB",
"9. c #AD76B9",
"0. c #AD79BA",
"q. c #B749DB",
"w. c #BA5BDB",
"e. c #BC79E5",
"r. c #C1298C",
"t. c #C02C97",
"y. c #C52DDC",
"u. c #C82FDC",
"i. c #CB31D6",
"p. c #D535D5",
"a. c #D230DA",
"s. c #D53AD5",
"d. c #DB35DB",
"f. c #DD3CDD",
"g. c #D230E2",
"h. c #DC31E2",
"j. c #E236E1",
"k. c #E23AE2",
"l. c #C84DA5",
"z. c #D559A5",
"x. c #CC4FC9",
"c. c #CA40D7",
"v. c #C84BD7",
"b. c #C652C3",
"n. c #D542D5",
"m. c #D344DB",
"M. c #DA42DB",
"N. c #DA5BDA",
"B. c #C56DD5",
"V. c #C76FDF",
"C. c #CD72DC",
"Z. c #DE6CDE",
"A. c #DA7CDF",
"S. c #CE6CE0",
"D. c #C17CE5",
"F. c #CF75E7",
"G. c #D074E0",
"H. c #DC7CE1",
"J. c #E040E0",
"K. c #E560E5",
"L. c #E16AE1",
"P. c #BA9D34",
"I. c #C09F39",
"U. c #C2A137",
"Y. c #C3A33A",
"T. c #C6A83B",
"R. c #C8A73B",
"E. c #CCAB3C",
"W. c #C49C40",
"Q. c #C99C48",
"!. c #CF9659",
"~. c #C5A142",
"^. c #CAA343",
"/. c #CEA049",
"(. c #D4A146",
"). c #D0A349",
"_. c #D6D600",
"`. c #D8D800",
"'. c #DADA16",
"]. c #D9D919",
"[. c #9D8484",
"{. c #AA9999",
"}. c #A58CB8",
"|. c #AD94B9",
" X c #B683A5",
".X c #BE8EBB",
"XX c #A5A4B6",
"oX c #A6A4B8",
"OX c #AAA9B7",
"+X c #B1A4A4",
"@X c #B5A0BB",
"#X c #B6B3B3",
"$X c #B8B7BE",
"%X c #BBBBBC",
"&X c #BDC2BD",
"*X c #BFC9C9",
"=X c #BDD3D3",
"-X c #C98F90",
";X c #CA9393",
":X c #C2A0A1",
">X c #C3ACAC",
",X c #C2B6B6",
"<X c #C2BDBD",
"1X c #C9B6B7",
"2X c #D0B5B6",
"3X c #E2B6B8",
"4X c #D99EDA",
"5X c #C08FE1",
"6X c #C985E6",
"7X c #CD89E7",
"8X c #C693E3",
"9X c #DD9AE6",
"0X c #C1BEC1",
"qX c #D0A5EA",
"wX c #DFACEA",
"eX c #DBB6E8",
"rX c #E2ADE6",
"tX c #ECABE9",
"yX c #CAC4AA",
"uX c #C4C3BE",
"iX c #CAC8BF",
"pX c #DBCCB6",
"aX c #DED4A3",
"sX c #E2D7A7",
"dX c #E7D9A5",
"fX c #E2E2A7",
"gX c #C1C1C1",
"hX c #C3C9C9",
"jX c #CBCCCC",
"kX c #CAD2D2",
"lX c #D1CFCF",
"zX c #D5D3C3",
"xX c #D8D8C2",
"cX c #DBD9CC",
"vX c #D2D2D2",
"bX c #E5C1E5",
"nX c #E8C7E8",
"mX c #E1E1E1",
/* pixels */
"gXgX0X0XgXgX0X0XuXgX0XgXgXgXgXgXgXgXgXgXgXgXgXgXgXgXgXgXgXgXgX0X",
"gXgX4XS.8XrXqXnXeXrXbXrX9Xe.e.9X7Xe.6X5X0XuXgXgXgX0XgXgXgXgXgXgX",
"gXgX~ k.k.k.k.k.J.k.d.d.d.f.f.f.d.j.j.j.@X%XgXgXgX%X%XgXuXgXgXgX",
"gXgXz.k.jX0X0XhXf.d.vXjXlXM.M.vXjXhXvXj.}.*XuXgXuX*X0X0XgXgXgXgX",
"gXgXl.k.0X0XgXjXm.M.gX*XgXm.d.gXuXuXhXj.|.uXgXgXgX%XgXgXgXgXgXgX",
"gXgX| k.jX<XP.U.~.^.uXlXY.Q.Y.P.uXjXvXj.|.uXgXgXgX<X*XgXgXgXgXgX",
"gXgXB.f.J.f.I.`.`.`.M.m.^.`.`.`.n.M.M.f.}.gXgXgXuX0XgXgXgXuXgX*X",
"gXgXw.f.j.j.!.`.pX`.%.i./.`.xX`.d.a.u.j.|.&XgXgXgXgXgXgXgXgX%X<X",
"gXgXw.f.gXlXR.`.`.T.cXvXE.`.`.Y.zXjXmXf.|.gXgXgXgXgX0XgXgX*X<X%X",
"gXgXC.f.hX0XyXyX&.s.hXgXsXp.c.dX%X*XlXf.}.gXgX0XgXgXuXgXgXgXgXgX",
"gXgXH.J.hX0XgXhXi.n.gXgXjXn.s.lXgXgXjXf.}.%X0XgXgX%XgXgXuXgXgXgX",
"gXgXC.J.0XgXR.E.E.E.iXlXE.(./.Y.pX2X3Xf.|.gX%XuX*X<XgXgXgXgX0XgX",
"gXgXA.J.h.k.R.`.`.`.p.d.8 1.b. X>.9.:.} >.6.9.,.,.0.6.:.6.8.gXgX",
"gXgXC.J.m.q.Y.`.xX_.v.x.& o. . . .{  . .' J ) X.X.` J ) _ X.%X0X",
"gXgXC.f.gXhXI.'.].P.hX1X0 o.k a a a d [ Z a s H X.P a h U ` oXgX",
"gXgXC.J.gXgXsXN.N.fXuX1X<.o.a a a a a X.D a a a o.L a a a L $XgX",
"gXgXC.k.gXgX0XM.u.gXgXgXE O.a a a a a ..N a a a ..g a a a F $XuX",
"gX&XF.k.hXgXgXf.y.gXgXgX7.o.d a a a s ..D a p B X.j a a a r.$XgX",
"0XgXK.j.h.g.a.d.f.d.d.d.Q O.X.X.X.O. .X...` ' X.X.` r.M 3 X.$XgX",
"*XhXtXF.L.L.Z.L.Z.Z.Z.Z.=.O.G N f a Z X.S s a B X.g a a k X.$XgX",
"#X9 y T gXgXgX*XgXgXgXgX*.O.a a a a a X.a a a a O.a a s a  .oX0X",
"#Xo e r I ,XgXgXgXgXgXgX;.O.a a a a a o.a a s a O.a a a a X.oX0X",
"gX- . 1 l u >XhXgXgXgXgX*.O.a a a a a X.s a a a X.m h a k O.oX0X",
"gX&X* X 1 r i ;X=X>X%X0X;.O.{ `  .@.X.O.o.o.X.#.O.@.O.o.] #.oX0X",
"gXgXvX:   < x b R h ;XgX*.#.O.O.O.O.O. .X. ./ O.O.O.X.X.O.O.oX0X",
"gXgXgXjX; O w c x x Y %X*.o.U a a s a +.h a a a X.m s f B O.oX0X",
"gXgXgXgX:X2 z c c c n %X*.O.a a a a a 5.a a a a X.V s a a O.$X0X",
"gXgXgXhX7 # , 1 t c v ;X*.O.a a a f a $.a j a a O.K s a a t.oXgX",
"gXgXgXgX#X5 % @ + > , q -.O.k s s d N $.a a a a O.A a a a r.oXgX",
"0XgXgXuXgXkXgX{.[.= $ 6 1.O.! ! ! ! { ] ! 4 4 (  .{ { ^ ^ X.OXgX",
"gXgXgXgX*XgXgXjXkXhX#X+X.X4.2.2.2.2.2.2.2.2.2.2.3.4.4.4.4.W gXgX",
"gXgXgXgX%XgXgXgXgXgXgXgXgXgXgXgXgXgXgXgXgXgX0XgXgXgXgXgXgXgXgXgX"
};
