/* XPM */
static char *StartUV[] = {
/* columns rows colors chars-per-pixel */
"32 32 163 2",
"   c #340A0A",
".  c #3A0400",
"X  c #410C0C",
"o  c #590505",
"O  c #541111",
"+  c #6C0606",
"@  c #631615",
"#  c #7F0000",
"$  c #6E2F2F",
"%  c #713D3D",
"&  c #5D766F",
"*  c #7E5A5A",
"=  c #727774",
"-  c #7D7F7F",
";  c #721D9F",
":  c #771EA0",
">  c #692B93",
",  c #7A2A86",
"<  c #7931A3",
"1  c #778785",
"2  c #8C0000",
"3  c #AB0000",
"4  c #B50000",
"5  c #BC0001",
"6  c #BB272A",
"7  c #826C28",
"8  c #856831",
"9  c #8A643C",
"0  c #815757",
"q  c #8F6E6E",
"w  c #906A6A",
"e  c #BC4948",
"r  c #BE7B7B",
"t  c #C6080A",
"y  c #D20000",
"u  c #DB0000",
"i  c #D80709",
"p  c #D71B1B",
"a  c #CE3A37",
"s  c #D22525",
"d  c #DF2F32",
"f  c #E30000",
"g  c #E4090C",
"h  c #E90103",
"j  c #EB0A0C",
"k  c #E70D10",
"l  c #E11B1D",
"z  c #E03031",
"x  c #CB5656",
"c  c #D65A5A",
"v  c #CA6363",
"b  c #D46062",
"n  c #FB7076",
"m  c #FB7178",
"M  c #812B9C",
"N  c #9A3C81",
"B  c #8321A3",
"V  c #8C23A5",
"C  c #8230A5",
"Z  c #8D30A7",
"A  c #8F30A8",
"S  c #9124A6",
"D  c #9625A8",
"F  c #932CA3",
"G  c #942FA9",
"H  c #9C26A9",
"J  c #9C2CA6",
"K  c #9B2FAA",
"L  c #9330A9",
"P  c #A32AAB",
"I  c #AA2AAD",
"U  c #A134AF",
"Y  c #A73EA8",
"T  c #A83DA9",
"R  c #B12BAF",
"E  c #B42CB0",
"W  c #B82DB1",
"Q  c #85429C",
"!  c #93539D",
"~  c #974EA0",
"^  c #9353A3",
"/  c #9A59AB",
"(  c #9E5FB5",
")  c #9661B7",
"_  c #A44782",
"`  c #AF4BAF",
"'  c #A74DB4",
"]  c #A356B5",
"[  c #A159B5",
"{  c #A26DBB",
"}  c #A278BB",
"|  c #AD79BA",
" . c #DE3EDE",
".. c #E13FDE",
"X. c #E03BE0",
"o. c #F6658B",
"O. c #F76888",
"+. c #C24AD0",
"@. c #DD41DD",
"#. c #DD4ADD",
"$. c #DE51DE",
"%. c #E545D2",
"&. c #E546DB",
"*. c #E54AD2",
"=. c #E145E1",
"-. c #E34DE3",
";. c #E841E8",
":. c #E351E3",
">. c #F7BF13",
",. c #C0B07D",
"<. c #F9C210",
"1. c #FFD100",
"2. c #FFF87E",
"3. c #9D8484",
"4. c #8E8EA6",
"5. c #9C9CAB",
"6. c #9D9DB2",
"7. c #AA9999",
"8. c #A58CB8",
"9. c #AD94B9",
"0. c #B986BA",
"q. c #BE8EBB",
"w. c #BA9DBC",
"e. c #A1A1AE",
"r. c #A5A4B6",
"t. c #A6A4B8",
"y. c #AAAAB7",
"u. c #B1A4A4",
"i. c #B5A0BB",
"p. c #BAA5BD",
"a. c #BCADBE",
"s. c #B6B3B3",
"d. c #B8B7BE",
"f. c #BCBBBD",
"g. c #BCBCC0",
"h. c #BDC2BD",
"j. c #BFC9C9",
"k. c #BDD3D3",
"l. c #C98F90",
"z. c #CA9393",
"x. c #C2A0A1",
"c. c #C3ACAC",
"v. c #C2B6B6",
"b. c #C1BCBC",
"n. c #D783E6",
"m. c #D986E6",
"M. c #D696E1",
"N. c #D298E6",
"B. c #DE90E6",
"V. c #C4B4C1",
"C. c #CBA0E6",
"Z. c #DDB1E6",
"A. c #E291E6",
"S. c #CFC495",
"D. c #CDC499",
"F. c #C9C3A6",
"G. c #C8C2AB",
"H. c #C2C1BA",
"J. c #C1C1C1",
"K. c #C3C9C9",
"L. c #C9CCCC",
"P. c #CAD2D2",
"I. c #D1CFCF",
/* pixels */
"J.J.J.J.J.J.J.J.J.J.J.J.J.J.H.J.J.J.J.J.J.J.J.J.J.J.J.J.J.J.J.J.",
"J.J.J.a.w.w.w.w.w.w.w.w.w.w.w.w.w.w.p.g.J.J.J.J.J.J.J.J.J.J.J.J.",
"J.J.f.X.#.=.$.#. .#.#.@.$.#.=.:.-.:.;.;.p.J.J.J.J.J.J.J.J.J.J.J.",
"J.J.6.X.m n n n  .n n n m m X.m m m m -.8.J.J.H.V.H.J.J.J.J.J.J.",
"J.J.y...m m m m X.n n n n n  .n m m m -.9.J.J.J.J.J.J.J.J.J.J.J.",
"J.J.y.@.m m m m X.n n n n n X.n m m m &.9.J.J.J.J.J.J.J.J.J.J.J.",
"J.J.y. .o.o.O.m X.n n m n n X.n m n n -.8.J.J.J.J.J.J.J.j.H.J.J.",
"J.J.4. .@. .....X.X.X.X.X.X.X.X. . .X.X.9.J.J.J.J.J.J.J.J.J.J.J.",
"J.J.5.@.n n n n X.m m m m m X.n n n m &.8.J.J.J.J.J.f.f.J.J.J.J.",
"J.J.5.@.m n m m X.m m m m n X.n n n n -.8.J.J.J.J.J.j.H.J.J.J.J.",
"J.f.y.@.n m m m X.m m m m m  .n n n n *.8.g.J.J.J.J.j.j.J.J.H.J.",
"J.j.y.@.n m m m X.m m m m n X.n n n n %.9.J.J.J.J.J.b.V.J.J.J.J.",
"J.J.5.X.X.X.X.X.X.X.X.X.0.' +.| ( | ( U ( { | ) ) | ) ( { } J.J.",
"J.J.4.=.m m m n  .m m m , W R R I R E R R E R E E E E R E W g.J.",
"J.J.6.X.n m m m X.m m n _ W V.J.J.J.G J J.J.J.L K J.J.J.J.W t.J.",
"H.J.6.X.n n n m X.n m n N W j.H.J.J.L H J.J.J.A K J.J.J.J.W d.J.",
"J.J.r.X.m m m m  .n m m , W J.J.7 7 7 8 H.H.7 8 7 7 H.j.J.W d.J.",
"J.J.e.X.o.o.o.o. .o.o.o.! W P P 7 1.1.1.K I 8 1.1.1.L K K E d.J.",
"J.J.f.$.=.=.=.=...X.=.X.Q W H H 8 1.S.1.; B 8 1.2.1.S S V W d.J.",
"j.K.b.V.M.B.A.n.m.N.Z.C.Q W J.J.7 1.1.7 H.J.7 1.1.7 H.H.J.W d.J.",
"f.e p v J.J.J.J.J.J.J.J.! W J.J.G.F.: < H.H.D.D M S.J.J.J.W t.J.",
"s.o y u x v.J.J.J.J.J.J./ W J.J.h.P.M L J.J.J.K S H.J.J.J.W t.J.",
"J.= . 5 u a c.j.J.J.J.J.! W J.j.7 7 7 7 H.J.7 7 7 7 v.H.J.W t.J.",
"J.H.&   5 u s l.P.c.b.J./ W P I 7 1.1.1.J S 7 1.1.1.P I I W t.J.",
"J.J.I.1   4 f l b z z.J.^ E A < 7 1.2.1.< < 7 1.2.1.C < > W t.J.",
"J.J.J.L.3.X t j h h c f.! W J.J.7 <.>.7 H.J.7 1.1.7 H.J.J.W t.H.",
"J.J.J.J.u.6 g k j j z f.! W H.J.D.Y T ,.J.J.S.T ^ S.J.J.J.W d.J.",
"J.J.J.L.w 2 3 5 i g j z.! W J.J.J.K S J.J.J.J.K D J.J.J.J.W t.J.",
"J.J.J.J.s.0 % @ + 2 3 r ^ W J.J.J.U B H.J.J.J.L I J.J.J.J.W r.J.",
"J.J.J.J.J.P.J.7.3.* $ q ` W H H H H P H H H H P R I I I I W y.J.",
"J.J.J.J.J.J.J.L.P.K.s.u.q.[ ' ' ' ' ' ' ' ' ' ' ] [ [ ] [ C J.J.",
"J.J.J.J.J.J.J.J.J.J.J.J.J.J.J.J.J.J.J.J.J.J.J.J.J.J.J.J.J.J.J.J."
};
