/* XPM */
static char * tsExtrude_xpm[] = {
"32 32 570 2",
"  	c #C1C1C1",
". 	c #C2C0C1",
"+ 	c #C0C2C1",
"@ 	c #C2C0C3",
"# 	c #C1C2C4",
"$ 	c #C0C0C0",
"% 	c #C4C0C1",
"& 	c #C1C1BF",
"* 	c #C1C1C3",
"= 	c #C2C0C5",
"- 	c #C2C1BF",
"; 	c #C0C2BF",
"> 	c #C3C2C0",
", 	c #C0C1C3",
"' 	c #C3C1C2",
") 	c #C1C3C0",
"! 	c #C0C0BE",
"~ 	c #BEC2C1",
"{ 	c #C2C2C4",
"] 	c #C1C0C5",
"^ 	c #C2C2C2",
"/ 	c #BFC0C2",
"( 	c #C0C0C2",
"_ 	c #9B8C87",
": 	c #B6B1AD",
"< 	c #BFC1BE",
"[ 	c #BFC1C0",
"} 	c #C1C3C2",
"| 	c #C4BFC3",
"1 	c #B3AFAC",
"2 	c #784C3F",
"3 	c #70240C",
"4 	c #855F52",
"5 	c #A3908C",
"6 	c #C6C0C2",
"7 	c #C5C1C2",
"8 	c #9B8C89",
"9 	c #813422",
"0 	c #953014",
"a 	c #AC7B53",
"b 	c #947D39",
"c 	c #53180A",
"d 	c #846054",
"e 	c #ACA19D",
"f 	c #C3C1C4",
"g 	c #C1C0BE",
"h 	c #C1BFC2",
"i 	c #C2C2C0",
"j 	c #B4AEAE",
"k 	c #6F402E",
"l 	c #963316",
"m 	c #A13F34",
"n 	c #E0BD79",
"o 	c #F4E554",
"p 	c #F4E357",
"q 	c #B89D56",
"r 	c #634022",
"s 	c #561B0B",
"t 	c #8F6E67",
"u 	c #B8B0AE",
"v 	c #C2C1BC",
"w 	c #926C69",
"x 	c #8B3B22",
"y 	c #A03719",
"z 	c #C99367",
"A 	c #F5E257",
"B 	c #F7EA50",
"C 	c #F5E84C",
"D 	c #F8E854",
"E 	c #F2E652",
"F 	c #EBD26B",
"G 	c #794F39",
"H 	c #47170D",
"I 	c #622D1B",
"J 	c #885D54",
"K 	c #AEA199",
"L 	c #C1C0C6",
"M 	c #988D89",
"N 	c #51261D",
"O 	c #5D200B",
"P 	c #8D2D15",
"Q 	c #D1A576",
"R 	c #F2E654",
"S 	c #F5EA54",
"T 	c #F6E851",
"U 	c #F4EB50",
"V 	c #F3E453",
"W 	c #F4E951",
"X 	c #F6E853",
"Y 	c #EDD966",
"Z 	c #CAAB6B",
"` 	c #5C282A",
" .	c #4C180A",
"..	c #8A3A21",
"+.	c #B4A39C",
"@.	c #B5B0AD",
"#.	c #A6847A",
"$.	c #975A47",
"%.	c #A23F22",
"&.	c #92381E",
"*.	c #2A0D05",
"=.	c #391107",
"-.	c #5A1C0D",
";.	c #936A2A",
">.	c #F1DF59",
",.	c #F5E955",
"'.	c #F5EB58",
").	c #F5E753",
"!.	c #F7E952",
"~.	c #F4E94F",
"{.	c #EDDC5A",
"].	c #74331F",
"^.	c #8D2D14",
"/.	c #902C12",
"(.	c #A4918A",
"_.	c #9F8E86",
":.	c #9F9089",
"<.	c #9C2D26",
"[.	c #A33B1E",
"}.	c #661F0D",
"|.	c #902418",
"1.	c #BB3A50",
"2.	c #831930",
"3.	c #311308",
"4.	c #3D0C07",
"5.	c #3B0A06",
"6.	c #641E16",
"7.	c #D1AD63",
"8.	c #F3E84E",
"9.	c #F4EA4B",
"0.	c #F7E84F",
"a.	c #F3EA4D",
"b.	c #EDD768",
"c.	c #9C795B",
"d.	c #6A2A0F",
"e.	c #952F16",
"f.	c #74270D",
"g.	c #772510",
"h.	c #BAB0AF",
"i.	c #A9A09B",
"j.	c #A88478",
"k.	c #A9847B",
"l.	c #8D3215",
"m.	c #993416",
"n.	c #9F351B",
"o.	c #B0131E",
"p.	c #B60434",
"q.	c #58050F",
"r.	c #631E0E",
"s.	c #C7506E",
"t.	c #80203C",
"u.	c #361206",
"v.	c #4B0708",
"w.	c #3F0017",
"x.	c #310208",
"y.	c #461409",
"z.	c #693012",
"A.	c #B2834F",
"B.	c #E7C56C",
"C.	c #F5E657",
"D.	c #5D2639",
"E.	c #762B14",
"F.	c #963115",
"G.	c #B70829",
"H.	c #3E1404",
"I.	c #812913",
"J.	c #9B9C9E",
"K.	c #693A30",
"L.	c #842813",
"M.	c #933212",
"N.	c #A02214",
"O.	c #AA1227",
"P.	c #B91E48",
"Q.	c #CA225D",
"R.	c #CA205E",
"S.	c #C91C5E",
"T.	c #96063B",
"U.	c #441406",
"V.	c #7F1E15",
"W.	c #740526",
"X.	c #44150B",
"Y.	c #580D08",
"Z.	c #3B0018",
"`.	c #400018",
" +	c #300205",
".+	c #51190A",
"++	c #72341D",
"@+	c #B48861",
"#+	c #784F2F",
"$+	c #842A12",
"%+	c #D20639",
"&+	c #D9004F",
"*+	c #451509",
"=+	c #8B3A1F",
"-+	c #8D8D8B",
";+	c #431F13",
">+	c #782610",
",+	c #AF0333",
"'+	c #C91C5C",
")+	c #CC2364",
"!+	c #CB2764",
"~+	c #CD2562",
"{+	c #CB2662",
"]+	c #C60E54",
"^+	c #48060A",
"/+	c #671F10",
"(+	c #51050F",
"_+	c #4F1708",
":+	c #470310",
"<+	c #3A0016",
"[+	c #3D0014",
"}+	c #3C0019",
"|+	c #3A0112",
"1+	c #300705",
"2+	c #3C1007",
"3+	c #591E0C",
"4+	c #923219",
"5+	c #9D2210",
"6+	c #E90059",
"7+	c #FA015D",
"8+	c #C30140",
"9+	c #481708",
"0+	c #965745",
"a+	c #747474",
"b+	c #4C352F",
"c+	c #6E230E",
"d+	c #BA023E",
"e+	c #C82461",
"f+	c #CD2563",
"g+	c #CA2561",
"h+	c #C92763",
"i+	c #CA2464",
"j+	c #C92460",
"k+	c #CA2864",
"l+	c #940032",
"m+	c #4B1709",
"n+	c #391203",
"o+	c #4F1009",
"p+	c #350117",
"q+	c #390015",
"r+	c #3B0119",
"s+	c #3B0014",
"t+	c #40001A",
"u+	c #3C0113",
"v+	c #1D0902",
"w+	c #321207",
"x+	c #8F2B13",
"y+	c #E4024E",
"z+	c #F50057",
"A+	c #FB005F",
"B+	c #B0003E",
"C+	c #501807",
"D+	c #975644",
"E+	c #717274",
"F+	c #615C59",
"G+	c #601D0D",
"H+	c #82090E",
"I+	c #CE2463",
"J+	c #CB2160",
"K+	c #CC2163",
"L+	c #CA2663",
"M+	c #CB2563",
"N+	c #CC1F5F",
"O+	c #CA2662",
"P+	c #C40A53",
"Q+	c #46050D",
"R+	c #260E04",
"S+	c #4A0B06",
"T+	c #350014",
"U+	c #370015",
"V+	c #370018",
"W+	c #3B0016",
"X+	c #3A0114",
"Y+	c #340114",
"Z+	c #250C08",
"`+	c #581E0A",
" @	c #A40919",
".@	c #F20059",
"+@	c #F8015C",
"@@	c #F9005B",
"#@	c #9B0231",
"$@	c #5A1D0B",
"%@	c #A47669",
"&@	c #747371",
"*@	c #656563",
"=@	c #552519",
"-@	c #7C1809",
";@	c #B90A45",
">@	c #CA2462",
",@	c #B10A40",
"'@	c #820622",
")@	c #591C0A",
"!@	c #41160D",
"~@	c #4B090A",
"{@	c #340011",
"]@	c #360115",
"^@	c #390013",
"/@	c #210007",
"(@	c #391109",
"_@	c #6C1F0D",
":@	c #D10341",
"<@	c #F00059",
"[@	c #F40058",
"}@	c #FA005C",
"|@	c #64200B",
"1@	c #A06658",
"2@	c #77787A",
"3@	c #73746F",
"4@	c #533632",
"5@	c #6B220F",
"6@	c #A30528",
"7@	c #C8195A",
"8@	c #C92561",
"9@	c #CB1E5D",
"0@	c #7E091C",
"a@	c #77090C",
"b@	c #8A2F1A",
"c@	c #A83F1F",
"d@	c #A53C1F",
"e@	c #64080B",
"f@	c #440D06",
"g@	c #310013",
"h@	c #350012",
"i@	c #2D0110",
"j@	c #1C0902",
"k@	c #4D1808",
"l@	c #86170E",
"m@	c #EB0156",
"n@	c #F1015C",
"o@	c #F70059",
"p@	c #9E0231",
"q@	c #AD867F",
"r@	c #8A8987",
"s@	c #747275",
"t@	c #4E433F",
"u@	c #7F0A10",
"v@	c #860D20",
"w@	c #821D21",
"x@	c #8E3A22",
"y@	c #9F3619",
"z@	c #A0361C",
"A@	c #A1381A",
"B@	c #B50333",
"C@	c #C40047",
"D@	c #8D0031",
"E@	c #351007",
"F@	c #3A020D",
"G@	c #310016",
"H@	c #360014",
"I@	c #2A000C",
"J@	c #2B0E06",
"K@	c #621E0B",
"L@	c #CF0444",
"M@	c #F30157",
"N@	c #F3005E",
"O@	c #F70058",
"P@	c #7A0321",
"Q@	c #70230F",
"R@	c #AB857C",
"S@	c #868686",
"T@	c #747472",
"U@	c #5D5956",
"V@	c #521908",
"W@	c #802A13",
"X@	c #983518",
"Y@	c #983013",
"Z@	c #A60E1A",
"`@	c #B20435",
" #	c #B8013A",
".#	c #C00146",
"+#	c #C71859",
"@#	c #C92061",
"##	c #BE0E4E",
"$#	c #54040D",
"%#	c #51190C",
"&#	c #300014",
"*#	c #310111",
"=#	c #370111",
"-#	c #1B0301",
";#	c #44140A",
">#	c #83170B",
",#	c #EB0255",
"'#	c #EE0058",
")#	c #F6005A",
"!#	c #F3005A",
"~#	c #72051C",
"{#	c #76260B",
"]#	c #B5A29C",
"^#	c #9C9E9D",
"/#	c #737371",
"(#	c #422B25",
"_#	c #71230C",
":#	c #A6081F",
"<#	c #B9023B",
"[#	c #C51055",
"}#	c #CB2360",
"|#	c #CB2763",
"1#	c #CB2361",
"2#	c #8A0031",
"3#	c #471608",
"4#	c #38030D",
"5#	c #330013",
"6#	c #2E000D",
"7#	c #290E03",
"8#	c #B9062E",
"9#	c #ED005C",
"0#	c #EF0159",
"a#	c #F4005A",
"b#	c #F80058",
"c#	c #60050C",
"d#	c #85412E",
"e#	c #B8B3B0",
"f#	c #9FA1A0",
"g#	c #7B7B7D",
"h#	c #737375",
"i#	c #554140",
"j#	c #5E1F0D",
"k#	c #7E0A0B",
"l#	c #C4094E",
"m#	c #CC2666",
"n#	c #C6225E",
"o#	c #520613",
"p#	c #250007",
"q#	c #381209",
"r#	c #7F170E",
"s#	c #E80056",
"t#	c #ED0156",
"u#	c #B30926",
"v#	c #D5063A",
"w#	c #A5452D",
"x#	c #802810",
"y#	c #C1BFC0",
"z#	c #ABACAE",
"A#	c #838381",
"B#	c #5D5A55",
"C#	c #501809",
"D#	c #7D160D",
"E#	c #BB124D",
"F#	c #CD2362",
"G#	c #CC2763",
"H#	c #CB2565",
"I#	c #C82564",
"J#	c #880531",
"K#	c #3F1505",
"L#	c #2F010E",
"M#	c #210905",
"N#	c #5A1B0C",
"O#	c #BA072E",
"P#	c #E90155",
"Q#	c #D20142",
"R#	c #9E2C21",
"S#	c #C55338",
"T#	c #BC4E2D",
"U#	c #8F3D27",
"V#	c #A8837A",
"W#	c #BCB0B0",
"X#	c #BBBAB8",
"Y#	c #8E9293",
"Z#	c #747273",
"`#	c #441F16",
" $	c #75230D",
".$	c #B30236",
"+$	c #C9265F",
"@$	c #CB2660",
"#$	c #CE2664",
"$$	c #C61E5B",
"%$	c #520414",
"&$	c #371209",
"*$	c #351105",
"=$	c #6D220D",
"-$	c #A40E19",
";$	c #BD2728",
">$	c #BE502F",
",$	c #A5452C",
"'$	c #A77868",
")$	c #BBB2AD",
"!$	c #A0A2A1",
"~$	c #7B7B7B",
"{$	c #452A23",
"]$	c #63210B",
"^$	c #900A15",
"/$	c #CC2462",
"($	c #CA2665",
"_$	c #CD2560",
":$	c #CB2062",
"<$	c #C8205D",
"[$	c #CA2260",
"}$	c #B11952",
"|$	c #5F0511",
"1$	c #2F0E05",
"2$	c #52180C",
"3$	c #92381D",
"4$	c #C35436",
"5$	c #9B2E27",
"6$	c #C3C1C6",
"7$	c #C2C1BD",
"8$	c #C0C1C5",
"9$	c #A19FA0",
"0$	c #818284",
"a$	c #757374",
"b$	c #727473",
"c$	c #551A0C",
"d$	c #82180A",
"e$	c #BD194E",
"f$	c #C72763",
"g$	c #CC2461",
"h$	c #BC094A",
"i$	c #7A0F2D",
"j$	c #621A1B",
"k$	c #61200E",
"l$	c #BD4E32",
"m$	c #A34020",
"n$	c #6F240D",
"o$	c #A37367",
"p$	c #AA918C",
"q$	c #888A85",
"r$	c #727270",
"s$	c #676566",
"t$	c #49190B",
"u$	c #71230D",
"v$	c #B20A3B",
"w$	c #9A0839",
"x$	c #670E0A",
"y$	c #8A3016",
"z$	c #B14328",
"A$	c #B24121",
"B$	c #B04326",
"C$	c #B7B1B1",
"D$	c #BBB9BC",
"E$	c #989898",
"F$	c #777779",
"G$	c #757472",
"H$	c #63220E",
"I$	c #870A12",
"J$	c #6E0121",
"K$	c #57100A",
"L$	c #64210E",
"M$	c #A03B1F",
"N$	c #A73B1F",
"O$	c #983516",
"P$	c #A7776B",
"Q$	c #B6A19E",
"R$	c #BABABA",
"S$	c #797979",
"T$	c #757170",
"U$	c #544242",
"V$	c #5E1F0E",
"W$	c #7F2A15",
"X$	c #95331A",
"Y$	c #A3371D",
"Z$	c #8C3A22",
"`$	c #BAB0AE",
" %	c #BEC2C3",
".%	c #AAACA9",
"+%	c #858585",
"@%	c #8D8F8E",
"#%	c #7B7A78",
"$%	c #983112",
"%%	c #933013",
"&%	c #955645",
"*%	c #B4A19A",
"=%	c #C1C2BD",
"-%	c #C4C0BF",
";%	c #C1C0BC",
">%	c #B7BCB8",
",%	c #BCBABD",
"'%	c #C0C2BD",
")%	c #935546",
"!%	c #A17568",
"~%	c #C5C1C0",
"                . +   @ # $ . + % & * +   = - * @ ;   * - > % , ",
"                #   . ' $ ) ! >   $ + . & ~ , ; & , . { . ; ] & ",
"                @ $ ; & ^ /   + ~ ) ( . & _ : . &   + ; $ # < @ ",
"                &   . [ } | ^   & %   1 2 3 4 5 * $ 6 * ^ ! + . ",
"                & $   . &   7 ;     8 9 0 a b c d e   -   f } g ",
"                + @ ,   + , h i j k l m n o p q r s t u   ^ h } ",
"                  #     @ # v w x y z A B C D E F G H I J K L   ",
"                + . - - & M N O P Q R S T U V W X Y Z `  ...+.& ",
"* - . , @ ~ & * , @.#.$.%.&.*.=.-.;.>.,.'.T ).!.o ~.{.].^./.(.  ",
",   + ) h . _.:.<.[.}.|.1.2.3.4.5. .6.7.8.9.0.a.b.c.d.e.f.g.h.~ ",
"; { i.j.k.l.m.n.o.p.q.r.s.t.u.v.w.x.y.z.A.B.W C.D.E.F.G.H.I.$ . ",
"J.K.L.M.N.O.P.Q.R.S.T.U.V.W.X.Y.Z.`. +4..+++@+#+$+F.%+&+*+=+& i ",
"-+;+>+,+'+)+!+~+~+{+]+^+/+(+_+:+<+[+}+|+1+2+3+4+5+6+7+8+9+0+, . ",
"a+b+c+d+e+f+g+h+i+j+k+l+m+n+o+p+q+r+s+t+u+v+w+x+y+z+A+B+C+D+] + ",
"E+F+G+H+I+J+K+L+M+N+O+P+Q+R+S+T+U+V+W+X+Y+Z+`+ @.@+@@@#@$@%@$ . ",
"&@*@=@-@;@L+>@~+!+O+,@'@)@!@~@{@{@]@^@s+/@(@_@:@<@[@}@#@|@1@) . ",
"2@3@4@5@6@7@8@9@0@a@b@c@d@e@f@g@h@h@q+i@j@k@l@m@n@o@+@p@|@q@  ; ",
"r@s@t@)@u@v@w@x@y@z@A@B@C@D@E@F@G@h@H@I@J@K@L@<@M@N@O@P@Q@R@' $ ",
"S@T@U@V@W@X@Y@Z@`@ #.#+#@###$#%#&#*#=#-#;#>#,#'#<@)#!#~#{#]#+ { ",
"^#/#/#(#_#:#<#[#}#}#|#>@j+1#2#3#4#5#6#7#$@8#9#.@0#a#b#c#d#e#+ $ ",
"f#g#h#i#j#k#l#{+!+O+8@m#~+M+n#o#s 5#p#q#r#s#t#'#<@u#v#w#x#y#  . ",
"z#A#/#B#C#D#E#|#F#G#H#O+I#G#L+J#K#L#M#N#O#P#Q#R#S#T#U#V#W#^ - + ",
"X#Y#Z#/#`# $.${++$@$I#!+#$8@f+$$%$&$*$=$-$;$>$,$'$)$~   ) / i   ",
"  !$~$s@{$]$^$/$M+($_$O+:$<$[$}$|$1$2$3$4$5$j., 6$7$8$. [ & $   ",
"; 9$0$a$b$c$d$e$f$g$[$)+h$i$j$k$l$m$n$o$p$  * &                 ",
"+ , q$r$s$t$u$v$F#e+w$c#x$y$z$A$B$j.C$  $                       ",
"% D$E$F$G${$H$I$J$K$L$M$N$O$P$Q$& - @ * . & - ;                 ",
"  R$9$S$T$U$-.V$W$X$Y$Z$V#`$  . + i * . &  %f [                 ",
"* + .%+%@%#%/+$%%%&%*%i & * { =%-%* &   * & $ '                 ",
"} ;%R$>%,%'%)%!%. . }     $ + *   , } & ; y#f [                 ",
". ] - * * ^ $ * ^   , * * i & .     * $ +   < *                 ",
"~ %   + & & *     . . ~ . + @ ,   ~%; @ * -   &                 "};
