/* XPM */
static char *TSextendEdge2[] = {
/* columns rows colors chars-per-pixel */
"32 32 249 2",
"   c #6E1C76",
".  c #6C3471",
"X  c #7D236C",
"o  c #722178",
"O  c #753277",
"+  c #655F66",
"@  c #62587E",
"#  c #7F537D",
"$  c #795D78",
"%  c #766375",
"&  c #746C73",
"*  c #737373",
"=  c #7C7C7C",
"-  c #7F1F96",
";  c #6E3495",
":  c #71258E",
">  c #7A3493",
",  c #981B67",
"<  c #873367",
"1  c #8E3671",
"2  c #AB2D49",
"3  c #AD2F5E",
"4  c #A5354D",
"5  c #A5335D",
"6  c #B32C43",
"7  c #B32D5B",
"8  c #BE3348",
"9  c #BD3C52",
"0  c #AE296C",
"q  c #AE2479",
"w  c #AE2E71",
"e  c #AD2E7B",
"r  c #AB3176",
"t  c #B32C6D",
"y  c #B82568",
"u  c #B12771",
"i  c #B12F72",
"p  c #905176",
"a  c #9E6A7E",
"s  c #AF5A7F",
"d  c #B6466B",
"f  c #AF646B",
"g  c #BB6176",
"h  c #CB1D26",
"j  c #D01F2C",
"k  c #DD1F27",
"l  c #C42B39",
"z  c #CE2030",
"x  c #CC2935",
"c  c #C82A38",
"v  c #D6262E",
"b  c #DD2025",
"n  c #DC232A",
"m  c #DB292D",
"M  c #D32631",
"N  c #D12832",
"B  c #DA2433",
"V  c #D9333F",
"C  c #DD3A30",
"Z  c #E01F25",
"A  c #E22125",
"S  c #E02228",
"D  c #E73E2A",
"F  c #C7254A",
"G  c #C62843",
"H  c #C6275E",
"J  c #C32B5B",
"K  c #C92352",
"L  c #CD2951",
"P  c #D72547",
"I  c #D82A45",
"U  c #C12B68",
"Y  c #C92965",
"T  c #CA286D",
"R  c #C82878",
"E  c #CA317F",
"W  c #DE4231",
"Q  c #E8482D",
"!  c #E55A33",
"~  c #E57039",
"^  c #D1535C",
"/  c #CF4E6D",
"(  c #C9427C",
")  c #CC4F7B",
"_  c #D24C77",
"`  c #D6546D",
"'  c #DA576A",
"]  c #DD5B64",
"[  c #DD5F6D",
"{  c #D45678",
"}  c #D55A7F",
"|  c #DA5E71",
" . c #DE6753",
".. c #C87476",
"X. c #DD636A",
"o. c #DF696E",
"O. c #D56477",
"+. c #DC6475",
"@. c #DE6C71",
"#. c #D27873",
"$. c #DC7172",
"%. c #E0666C",
"&. c #E0696E",
"*. c #E06C72",
"=. c #87248A",
"-. c #872B84",
";. c #8B258F",
":. c #8D2889",
">. c #8E2591",
",. c #92258E",
"<. c #94288F",
"1. c #9A258C",
"2. c #912593",
"3. c #912991",
"4. c #97299A",
"5. c #992594",
"6. c #9C2799",
"7. c #9A289E",
"8. c #973F95",
"9. c #9527A0",
"0. c #9A2EAA",
"q. c #A32585",
"w. c #A92680",
"e. c #A02799",
"r. c #A12993",
"t. c #A2289B",
"y. c #B52A9C",
"u. c #BB2C9A",
"i. c #BD359D",
"p. c #A629A0",
"a. c #AB2AA5",
"s. c #AD2BA8",
"d. c #A03FA0",
"f. c #B32BA2",
"g. c #B22BAC",
"h. c #BB2CA5",
"j. c #B82DAD",
"k. c #B62DB0",
"l. c #B82DB1",
"z. c #B533AD",
"x. c #B339AD",
"c. c #BD35A3",
"v. c #B932AC",
"b. c #BE3AA4",
"n. c #B535B1",
"m. c #B53AB1",
"M. c #B831B4",
"N. c #BC34BC",
"B. c #844B81",
"V. c #894285",
"C. c #96559C",
"Z. c #915893",
"A. c #9B539C",
"S. c #8B5BA1",
"D. c #9446A3",
"F. c #9945A4",
"G. c #9E63A1",
"H. c #947FA0",
"J. c #A84D9E",
"K. c #BD468E",
"L. c #BD449C",
"P. c #BC5B8A",
"I. c #A140AA",
"U. c #A04CA2",
"Y. c #AA54A8",
"T. c #AA5DAA",
"R. c #B843A1",
"E. c #BB42AA",
"W. c #B55EB3",
"Q. c #B850B2",
"!. c #BB5EB1",
"~. c #A07E89",
"^. c #A56DB0",
"/. c #A57CAA",
"(. c #A973A7",
"). c #AC7CAA",
"_. c #BC66A8",
"`. c #BA64B2",
"'. c #BE75AA",
"]. c #BF7EAE",
"[. c #B079B5",
"{. c #BA7DB9",
"}. c #C52A82",
"|. c #C43D88",
" X c #C03B9B",
".X c #C12DB7",
"XX c #C731A3",
"oX c #C03CA3",
"OX c #C72AC1",
"+X c #C4428E",
"@X c #CB4481",
"#X c #CA468A",
"$X c #CB4B85",
"%X c #CD4D8E",
"&X c #C24496",
"*X c #C4469C",
"=X c #C24B93",
"-X c #CD5381",
";X c #CC538B",
":X c #C4539D",
">X c #D04E83",
",X c #C460C3",
"<X c #879D73",
"1X c #B4A565",
"2X c #A7C777",
"3X c #ED8D3C",
"4X c #C99E75",
"5X c #C3B56D",
"6X c #D1BC68",
"7X c #EB9640",
"8X c #EB9B41",
"9X c #E19D69",
"0X c #E8AF53",
"qX c #EDBD49",
"wX c #E9B752",
"eX c #F0B244",
"rX c #DDD867",
"tX c #F2CF4D",
"yX c #F1D34C",
"uX c #F4DC4C",
"iX c #E1DA63",
"pX c #F5E64F",
"aX c #F5E94F",
"sX c #F6EC50",
"dX c #828282",
"fX c #8C8C8C",
"gX c #958D9E",
"hX c #939393",
"jX c #9B9B9B",
"kX c #8387A9",
"lX c #9AB2B3",
"zX c #AF84AD",
"xX c #A79AA6",
"cX c #A99BAF",
"vX c #B68DBC",
"bX c #B987B9",
"nX c #B299B2",
"mX c #A0A0A0",
"MX c #AAAAAA",
"NX c #BCA5BB",
"BX c #BAAAB9",
"VX c #B2B2B2",
"CX c #BBB3BB",
"ZX c #BDBCBD",
"AX c #AEA5C3",
"SX c #BDC2C1",
"DX c #C0B6C0",
"FX c #C1BBC0",
"GX c #C1C1C1",
/* pixels */
"GXGXGXGXGXGXGXGXGXGXGXGXGXGXGXGXFXGXGXGXGXGXGXGXGXGXGXGXGXGXGXGX",
"GXGXGXGXGXGXGXGXGXFXGXGXNX_.E.v.!.GXGXGXGXGXGXGXGXGXGXGXGXGXGXGX",
"GXGXGXGXGXGXGXSXlXkXS.x.l. X$X+.` ].GXGXGXGXGXGXGXGXGXGXGXGXGXGX",
"GXGXGXGXGXNXQ.x..XU.fXd %.*.%.%.*.) {.GXFXGXGXGXGXGXGXGXGXGXGXGX",
"GXGXAXbXm.l.oX@Xf 1XrX6XX.@.*.*.[ *Xl.v.bXFXGXGXGXGXGXGXGXGXGXGX",
"GXMX.XL./ ] %.*.o.^ 5XiX4XX.{ i.l.j. X;X'.GXGXGXGXGXGXGXGXGXGXGX",
"GXGXT.|.&.*.%.*.@.X.9 2X<XD.k.b.+X[ *.*.| _.GXGXGXGXGXGXGXGXGXGX",
"GXGXCXXX' *.*.*.+.K.Y.x.J.a #.@.*.*.*.*.%.;X!.GXGXGXGXGXGXGXGXGX",
"GXGXGXZ.i.-X-X&Xv.l.&XO.@.$.$.@.*.*.*.*.} v.l.W.GXGXGXGXGXGXGXGX",
"GXGXGXGXs.M.k.c.) @.*.*.*.*.@.$.@.*.%Xv.l.k.,XvXGXGXGXGXGXGXGXGX",
"GXGXGXGXgXl.$X*.*.*.*.*.*.*.$...P.oXz.l.OXs.[.GXGXGXGXGXGXGXGXGX",
"GXGXGXGXFXd.|.%.*.*.*.*.*.*XL.b.I.F., 6 r l.l.[.GXGXGXGXGXGXGXGX",
"GXGXGXGXGXgXl.( ] *.&._ c.l.m.p N v j x x i j.l.^.GXGXGXGXGXGXGX",
"GXGXZX@ ; : - x.+X#Xc.l.b.0XqXm n b k x M L y.l.l.[.GXGXGXGXGXGX",
"GXZXxXa.2.,.,.g.k.l.}.c N yXaX8Xk k v Y XXs.p.s.l.l.^.GXGXGXGXGX",
"VXdX* <.t.2.1 G I x N N v W aXaXI R h.s.e.2.w.F t l.l.[.GXGXGXGX",
"MXdX* V.t.g.5 l M N M B n B  .9X:Xa.5.1.u M n N x i l.l.^.GXGXGX",
"ZXfX* & <.g.6.x n A n B T h.g.p.s g L A n S A v N x t k.l.^.GXGX",
"GXVXdX* p 4.l.7 v P }.j.s.e.1.u yXaXQ A S S S S S n c t l.l.^.GX",
"GXVXdX* & ;.a.a.u.k.p.5.1.y Z A D aXuXA n n n n S S N 4 > l.0.AX",
"GXSXjX* * # 2.j.s.,.q.F v n A Z A 3XaXeXn n n n v c < 3.l.a.>.S.",
"GXGXVX* * * :.a.a.G A Z A b Z A A A uXaX~ n n v 3 4.l.a.5.3./.GX",
"GXGXGXhX& * $ 2.k.w n A A k Z Z A A ! aXaXC J t.l.g.6.3./.GXGXGX",
"GXGXGXVX= * * -.p.g.c n A k Z A A S m 8XwXK.l.g.6.<.).GXGXGXGXGX",
"GXGXGXZXfX* * % ,.g.e M b k k v n n H y.l.s.6.<.).ZXGXGXGXGXGXGX",
"GXGXGXGXjX* * * o e.g.2 h j c x U f.l.j.7.<.(.CXGXGXGXGXGXGXGXGX",
"GXGXGXGXGXdX* * % ,.g.=.  X 0 g.l.g.9.<.G.CXGXGXGXGXGXGXGXGXGXGX",
"GXGXGXGXSXjX* * * O e.s.>.6.j.g.7.3.C.BXGXGXGXGXGXGXGXGXGXGXGXSX",
"GXGXGXGXGXmX= * * + ;.a.l.g.9.;.A.BXGXGXGXGXGXGXGXGXGXGXGXGXGXGX",
"GXGXGXGXGXZXfX* * dX. ,.2.<.A.BXGXGXGXGXGXGXGXGXGXGXGXGXGXGXGXGX",
"GXGXGXGXGXSXMXhXMXGXZXnX8.zXGXGXGXGXGXGXGXGXGXGXGXGXGXGXGXGXGXGX",
"GXGXGXGXGXGXSXZXZXGXFXGXGXGXGXGXGXGXGXGXGXGXGXGXGXGXGXGXGXGXGXGX"
};
