/* XPM */
static char * TSconvert_xpm[] = {
"32 32 314 2",
"  	c None",
". 	c #C1C1C1",
"+ 	c #C0B8B8",
"@ 	c #C0B0B0",
"# 	c #C0A8A8",
"$ 	c #B8B8B8",
"% 	c #C89898",
"& 	c #C88080",
"* 	c #C87878",
"= 	c #B0B0B0",
"- 	c #B8A8A8",
"; 	c #C0A0A0",
"> 	c #C89090",
", 	c #C87880",
"' 	c #D06868",
") 	c #D05050",
"! 	c #D83838",
"~ 	c #C87078",
"{ 	c #A89898",
"] 	c #A08888",
"^ 	c #C07878",
"/ 	c #D06060",
"( 	c #D04850",
"_ 	c #D82828",
": 	c #F2484E",
"< 	c #D83030",
"[ 	c #B8B8C0",
"} 	c #A8B0B8",
"| 	c #7090A8",
"1 	c #485068",
"2 	c #403850",
"3 	c #902838",
"4 	c #C01828",
"5 	c #D06068",
"6 	c #B0B8B8",
"7 	c #88A0B0",
"8 	c #5888B0",
"9 	c #2878B0",
"0 	c #1070B0",
"a 	c #205080",
"b 	c #403040",
"c 	c #802028",
"d 	c #D01018",
"e 	c #D80810",
"f 	c #D82020",
"g 	c #2068A0",
"h 	c #0060B0",
"i 	c #0068C0",
"j 	c #0070C8",
"k 	c #0078C8",
"l 	c #0870C0",
"m 	c #483040",
"n 	c #582028",
"o 	c #B80810",
"p 	c #D05058",
"q 	c #8098A8",
"r 	c #206098",
"s 	c #0060A8",
"t 	c #0068B8",
"u 	c #0070C0",
"v 	c #0078D0",
"w 	c #0080D8",
"x 	c #285080",
"y 	c #502028",
"z 	c #901018",
"A 	c #E01818",
"B 	c #C88888",
"C 	c #C098A0",
"D 	c #F00000",
"E 	c #90A0B0",
"F 	c #4878A0",
"G 	c #0058A0",
"H 	c #0068B0",
"I 	c #0078D8",
"J 	c #0080E0",
"K 	c #0878C8",
"L 	c #403048",
"M 	c #582020",
"N 	c #B80808",
"O 	c #D84048",
"P 	c #E00808",
"Q 	c #507898",
"R 	c #106098",
"S 	c #0888E8",
"T 	c #1098F0",
"U 	c #1898F0",
"V 	c #0890E8",
"W 	c #0088E0",
"X 	c #1860A0",
"Y 	c #801818",
"Z 	c #286890",
"` 	c #085898",
" .	c #38C0F8",
"..	c #40C0F8",
"+.	c #28B0F8",
"@.	c #186098",
"#.	c #482028",
"$.	c #D80008",
"%.	c #B9BEBF",
"&.	c #105890",
"*.	c #005898",
"=.	c #1898E8",
"-.	c #38C0F0",
";.	c #60E8F8",
">.	c #40C8F8",
",.	c #1090F0",
"'.	c #205888",
").	c #B81010",
"!.	c #B39B9B",
"~.	c #005088",
"{.	c #0888E0",
"].	c #20A0E8",
"^.	c #48C8F8",
"/.	c #30B0E8",
"(.	c #285880",
"_.	c #402830",
":.	c #B81018",
"<.	c #A94A4F",
"[.	c #B59293",
"}.	c #BEBBB8",
"|.	c #105888",
"1.	c #005090",
"2.	c #0070B8",
"3.	c #1890E8",
"4.	c #482020",
"5.	c #551919",
"6.	c #571818",
"7.	c #442322",
"8.	c #32352D",
"9.	c #382F29",
"0.	c #BE090E",
"a.	c #B7362F",
"b.	c #B48A8E",
"c.	c #BCBBBC",
"d.	c #286088",
"e.	c #085890",
"f.	c #0060A0",
"g.	c #1078C8",
"h.	c #72121C",
"i.	c #7B090C",
"j.	c #88080A",
"k.	c #810708",
"l.	c #7F0708",
"m.	c #9C0A08",
"n.	c #A10808",
"o.	c #C40A0A",
"p.	c #CB0F0B",
"q.	c #CB0A10",
"r.	c #CD0A0F",
"s.	c #C50A0A",
"t.	c #BD090E",
"u.	c #B14649",
"v.	c #B49A9E",
"w.	c #507890",
"x.	c #185888",
"y.	c #1563AA",
"z.	c #7D1B28",
"A.	c #7E0707",
"B.	c #7E0708",
"C.	c #8A0709",
"D.	c #A70808",
"E.	c #AD0C08",
"F.	c #BB0A10",
"G.	c #C20B0C",
"H.	c #CD0F0A",
"I.	c #D50A0A",
"J.	c #CC0A0F",
"K.	c #B41112",
"L.	c #B24D4D",
"M.	c #BDAEA9",
"N.	c #8898A0",
"O.	c #406888",
"P.	c #790B0F",
"Q.	c #900708",
"R.	c #AE0909",
"S.	c #B60909",
"T.	c #BE0E09",
"U.	c #DC1313",
"V.	c #DC1318",
"W.	c #DB1313",
"X.	c #C61118",
"Y.	c #B61111",
"Z.	c #B48E92",
"`.	c #708898",
" +	c #185880",
".+	c #185495",
"++	c #860708",
"@+	c #98070B",
"#+	c #A70C08",
"$+	c #E42328",
"%+	c #EC333C",
"&+	c #EC2B34",
"*+	c #E4232C",
"=+	c #C30A0B",
"-+	c #B51115",
";+	c #B36C6D",
">+	c #A8B0B0",
",+	c #688898",
"'+	c #286080",
")+	c #004880",
"!+	c #313C62",
"~+	c #7D0708",
"{+	c #820807",
"]+	c #9F0808",
"^+	c #C00C0E",
"/+	c #E01C23",
"(+	c #EC425A",
"_+	c #F0678B",
":+	c #EF6088",
"<+	c #ED425A",
"[+	c #E41B20",
"}+	c #B14B46",
"|+	c #7890A0",
"1+	c #386888",
"2+	c #085888",
"3+	c #740C12",
"4+	c #800707",
"5+	c #9A0A0C",
"6+	c #BA0B11",
"7+	c #DD1A1F",
"8+	c #E53A4A",
"9+	c #E75880",
"0+	c #F06FA0",
"a+	c #EE5167",
"b+	c #D50A0F",
"c+	c #AF1818",
"d+	c #B8C0C0",
"e+	c #98A8A8",
"f+	c #487090",
"g+	c #760E12",
"h+	c #7D0707",
"i+	c #860A08",
"j+	c #96070C",
"k+	c #D41317",
"l+	c #EF5875",
"m+	c #E41B1B",
"n+	c #A7080C",
"o+	c #861D1E",
"p+	c #7E0909",
"q+	c #810606",
"r+	c #980B07",
"s+	c #A6080C",
"t+	c #B50909",
"u+	c #D31317",
"v+	c #E42B33",
"w+	c #AE8E8E",
"x+	c #7E1213",
"y+	c #860C10",
"z+	c #9D0909",
"A+	c #AE090C",
"B+	c #A12626",
"C+	c #B49D9E",
"D+	c #812021",
"E+	c #801618",
"F+	c #900707",
"G+	c #AF1410",
"H+	c #AA5555",
"I+	c #956D6A",
"J+	c #7B2424",
"K+	c #870A07",
"L+	c #A71010",
"M+	c #B3747A",
"N+	c #A69A99",
"O+	c #8C5356",
"P+	c #81110E",
"Q+	c #880A07",
"R+	c #AD0909",
"S+	c #AB0A0E",
"T+	c #B30A0B",
"U+	c #AC0E12",
"V+	c #A2131C",
"W+	c #B10B0D",
"X+	c #9A2D30",
"Y+	c #AE999B",
"Z+	c #A68B89",
"`+	c #83413C",
" @	c #97070B",
".@	c #9E0808",
"+@	c #9D7276",
"@@	c #B7B0B3",
"#@	c #AFA8AB",
"$@	c #957273",
"%@	c #832C2C",
"&@	c #790806",
"*@	c #900F12",
"=@	c #A35C5D",
"-@	c #B6AAA9",
";@	c #BFBCB8",
">@	c #BEB8BB",
",@	c #ADA2A1",
"'@	c #947273",
")@	c #7A3436",
"!@	c #780806",
"~@	c #800606",
"{@	c #8D0809",
"]@	c #960B08",
"^@	c #90211E",
"/@	c #935B5D",
"(@	c #AD999B",
"_@	c #B7B4B0",
":@	c #9E898B",
"<@	c #844B4E",
"[@	c #7A1515",
"}@	c #890E0E",
"|@	c #8A231D",
"1@	c #923D3D",
"2@	c #A47E7B",
"3@	c #AFACA8",
"4@	c #967B7A",
"5@	c #833634",
"6@	c #821D1D",
"7@	c #790E10",
"8@	c #8B4445",
"9@	c #946363",
". . . . . + + @ # # . . . . . . . . . . . . . . . . . . . . . . ",
". . + $ + + @ # % & * # . . . . . . . . . . . . . . . . . . . . ",
". . . $ = - ; > , ' ) ! ~ + . . . . . . . . . . . . . . . . . . ",
". . . . $ { ] ^ / ( ! _ : < % . . . . . . . . . . . . . . . . . ",
". . . . [ } | 1 2 3 4 : : : : 5 + . . . . . . . . . . . . . . . ",
". . . 6 7 8 9 0 a b c d e : : : f % . . . . . . . . . . . . . . ",
". . 6 | g h i j k l m n o : : : : : p @ . . . . . . . . . . . . ",
". $ q r s t u k v w v x y z : : : : : A B . . . C D . . . . . . ",
". E F G H u k v I w J J K L M N : : : : : O ; : P D . . . . . . ",
". Q R h t u k v w S T U V W X y Y : : : : : : : : D . . . . . . ",
". Z ` h t u k v J U  ...+.S w @.#.$.: : : : : : : D %.. . . . . ",
". &.*.h t u k v J =.-.;.>.,.'.#.).: : : : : : : : D !.. . . . . ",
". ~.*.s t u k v w {.].^./.(._.:.: : : : : : : : : D <.[.}.. . . ",
". |.1.s H 2.j k v I {.3.4.4.4.5.6.4.7.8.8.8.9.4.4.4.0.a.b.c.. . ",
". d.e.f.s t u j k v w g.h.i.j.k.l.m.n.o.p.q.r.r.r.r.s.t.u.v.}.. ",
". w.x.*.f.H t u u k y.z.A.B.C.D.E.F.G.H.r.r.I.I.I.r.J.s.K.L.M.. ",
". N.O.~.*.s H H t u P.A.B.Q.R.S.T.s.s.r.I.U.V.V.W.X.q.o.0.Y.Z.. ",
". 6 `. +~.*.f.s H .+B.++@+#+R.S.T.s.s.I.U.$+%+&+*+W.I.r.=+-+;+. ",
". . >+,+'+)+1.*.G !+~+{+]+#+R.S.t.^+s.I./+(+_+:+<+[+I.r.s.-+}+. ",
". . . >+|+1+ +2+~.3+B.4+5+]+R.S.6+s.o.r.7+8+9+0+a+$+b+r.s.S.c+. ",
". . . . d+e+,+f+d.g+h+i+j+]+R.S.T.0.s.r.r.k+$+l+<+m+I.H.s.S.n+. ",
". . . . . . . . . o+p+q+r+]+s+t+S.T.s.H.r.u+$+v+$+k+r.s.0.S.s+. ",
". . . . . . . . . w+x+q+y+z+n+R.S.S.0.s.s.k+7+k+I.H.s.s.T.A+B+. ",
". . . . . . . . . C+D+E+F+r+]+n+R.S.S.0.0.o.s.o.s.0.0.T.S.G+H+. ",
". . . . . . . . . . I+J+K+F+@+]+n+R.S.S.T.0.0.0.0.T.S.S.R.L+M+. ",
". . . . . . . . . . N+O+P+Q+F+@+]+n+R+S+T+U+V+W+T+t+R+R+n+X+Y+. ",
". . . . . . . . . . $ Z+`+P+Q+F+ @.@]+n+R.R.R.R.R.n+n+]+B++@@@. ",
". . . . . . . . . . . #@$@%@&@Q+F+r+@+]+]+n+n+n+n+]+@+*@=@-@;@. ",
". . . . . . . . . . . >@,@'@)@!@~@K+{@{@]@ @ @ @@+F+^@/@(@. . . ",
". . . . . . . . . . . . . _@:@<@J+[@q+q+q+Q+Q+}@|@1@2@#@. . . . ",
". . . . . . . . . . . . . . . 3@4@O+5@6@7@7@%@8@9@Y+;@. . . . . ",
". . . . . . . . . . . . . . . . . . . . . . . . . . . . . . . . "};
