/* XPM */
static char *magick[] = {
/* columns rows colors chars-per-pixel */
"32 32 252 2",
"   c #382f29",
".  c #32352d",
"X  c #080e5b",
"o  c #081b58",
"O  c #0f0c64",
"+  c #081d62",
"@  c #081b6d",
"#  c #0a1d73",
"$  c #0b1571",
"%  c #022c5d",
"&  c #032554",
"*  c #00315d",
"=  c #162d5c",
"-  c #002567",
";  c #022e63",
":  c #06296b",
">  c #0f237a",
",  c #003c62",
"<  c #033d6a",
"1  c #033c77",
"2  c #193168",
"3  c #103665",
"4  c #3e3043",
"5  c #3f3852",
"6  c #393155",
"7  c #243a60",
"8  c #323a60",
"9  c #333973",
"0  c #14487a",
"q  c #2e5779",
"w  c #3e5671",
"e  c #5e0f1f",
"r  c #561919",
"t  c #5d132e",
"y  c #482020",
"u  c #4a2029",
"i  c #442322",
"p  c #402830",
"a  c #4d2330",
"s  c #552129",
"d  c #640e1c",
"f  c #7e0707",
"g  c #7e0708",
"h  c #790806",
"j  c #7c0a0c",
"k  c #790e10",
"l  c #791317",
"z  c #701c28",
"x  c #7d1b28",
"c  c #7b2424",
"v  c #7a3436",
"b  c #453346",
"n  c #434a6c",
"m  c #616d7e",
"M  c #101a80",
"N  c #092c82",
"B  c #0c2b89",
"V  c #0a2486",
"C  c #08368a",
"Z  c #0b3a94",
"A  c #093b9c",
"S  c #1a2290",
"D  c #093ea0",
"F  c #1738a7",
"G  c #084097",
"H  c #044a95",
"J  c #025198",
"K  c #1f5680",
"L  c #18578c",
"P  c #105386",
"I  c #1a5790",
"U  c #0359aa",
"Y  c #0f52b8",
"T  c #065cb5",
"R  c #1355a2",
"E  c #1355b2",
"W  c #0844a6",
"Q  c #186098",
"!  c #006bae",
"~  c #0060b3",
"^  c #006ebb",
"/  c #0f61b8",
"(  c #006cb4",
")  c #0072bd",
"_  c #1665a8",
"`  c #205888",
"'  c #285880",
"]  c #235790",
"[  c #2f6a90",
"{  c #055fc0",
"}  c #0468c7",
"|  c #0074c1",
" . c #0078c2",
".. c #007dcf",
"X. c #1078c8",
"o. c #425493",
"O. c #4c6e94",
"+. c #507288",
"@. c #517998",
"#. c #617583",
"$. c #787c87",
"%. c #0081d9",
"&. c #0689e4",
"*. c #048ce9",
"=. c #0083e3",
"-. c #058af4",
";. c #0391ee",
":. c #1890e8",
">. c #1195ec",
",. c #1093f1",
"<. c #17a6fb",
"1. c #30b0e8",
"2. c #3dc8f9",
"3. c #6e818e",
"4. c #6982a3",
"5. c #41c3f8",
"6. c #810606",
"7. c #840708",
"8. c #850907",
"9. c #880a07",
"0. c #8b0a0b",
"q. c #880909",
"w. c #860c10",
"e. c #81110e",
"r. c #801618",
"t. c #811b1b",
"y. c #8f1019",
"u. c #900707",
"i. c #96070b",
"p. c #98070b",
"a. c #980b07",
"s. c #9f0808",
"d. c #9a0a0c",
"f. c #960b08",
"g. c #900f12",
"h. c #8a231d",
"j. c #90211e",
"k. c #812021",
"l. c #802028",
"z. c #832c2c",
"x. c #833634",
"c. c #902838",
"v. c #9a2d30",
"b. c #923d3d",
"n. c #a7080c",
"m. c #a60a08",
"M. c #ae0909",
"N. c #ac0e12",
"B. c #a71010",
"V. c #af1410",
"C. c #af1818",
"Z. c #a2131c",
"A. c #b5090a",
"S. c #be0b0c",
"D. c #ba0a10",
"F. c #b51113",
"G. c #b81010",
"H. c #b81018",
"J. c #a12626",
"K. c #b7362f",
"L. c #83413c",
"P. c #88484a",
"I. c #8c5356",
"U. c #935b5d",
"Y. c #956867",
"T. c #977476",
"R. c #a94a4f",
"E. c #a75959",
"W. c #b14a49",
"Q. c #a47e7b",
"!. c #b36c6d",
"~. c #b3747a",
"^. c #c40a0a",
"/. c #cd0a0f",
"(. c #cd0f0a",
"). c #cb0a10",
"_. c #c61118",
"`. c #d50a0a",
"'. c #d80008",
"]. c #d80810",
"[. c #d41317",
"{. c #d01018",
"}. c #dc1318",
"|. c #dd1a1f",
" X c #dc1313",
".X c #c01828",
"XX c #d82020",
"oX c #d82828",
"OX c #d83030",
"+X c #d83838",
"@X c #e00808",
"#X c #e21a1a",
"$X c #f00000",
"%X c #e21c22",
"&X c #e42328",
"*X c #e4232c",
"=X c #e82b34",
"-X c #ec333c",
";X c #e53a4a",
":X c #d84048",
">X c #d04850",
",X c #d05050",
"<X c #d05058",
"1X c #c07979",
"2X c #c87078",
"3X c #c87878",
"4X c #d06060",
"5X c #d06068",
"6X c #d06868",
"7X c #ee4950",
"8X c #ed425a",
"9X c #f2484e",
"0X c #ee5167",
"qX c #ef5875",
"wX c #c87880",
"eX c #e75880",
"rX c #ef6088",
"tX c #f0678b",
"yX c #f06fa0",
"uX c #86959d",
"iX c #9e898b",
"pX c #99999e",
"aX c #8498a7",
"sX c #90a0b0",
"dX c #ad8f8f",
"fX c #a48b8a",
"gX c #ad999b",
"hX c #a69a99",
"jX c #b48a8e",
"kX c #b48e92",
"lX c #b4999b",
"zX c #a4acab",
"xX c #afa9aa",
"cX c #ada2a1",
"vX c #a6aab6",
"bX c #bbaba9",
"nX c #b6aaa9",
"mX c #b3b2b2",
"MX c #b1b9b9",
"NX c #b8b7bf",
"BX c Gray72",
"VX c #bdbcbb",
"CX c #c88080",
"ZX c #c88888",
"AX c #c89090",
"SX c #c89898",
"DX c #c098a0",
"FX c #c0a0a0",
"GX c #c0a8a8",
"HX c #c0b0b0",
"JX c #c0b8b8",
"KX c #c1c1c1",
/* pixels */
"KXKXKXKXKXJXJXHXGXGXKXKXKXKXKXKXKXKXKXKXKXKXKXKXKXKXKXKXKXKXKXKX",
"KXKXJXBXJXJXHXGXSXCX3XGXKXKXKXKXKXKXKXKXKXKXKXKXKXKXKXKXKXKXKXKX",
"KXKXKXBXmXnXFXAXwX6X,X+X2XJXKXKXKXKXKXKXKXKXKXKXKXKXKXKXKXKXKXKX",
"KXKXKXKXBXhXfX1X4X>X+XoX9XOXSXKXKXKXKXKXKXKXKXKXKXKXKXKXKXKXKXKX",
"KXKXKXKXNXvX4.n 5 c..X9X9X9X9X5XJXKXKXKXKXKXKXKXKXKXKXKXKXKXKXKX",
"KXKXKXvXo.Z Z E I 4 l.{.].9X9X9XXXSXKXKXKXKXKXKXKXKXKXKXKXKXKXKX",
"KXKXMX9 V F } =...T b s D.9X9X9X9X9X<XHXKXKXKXKXKXKXKXKXKXKXKXKX",
"KXBXaXo O M W T T D T ] a y.9X9X9X9X9X#XZXKXKXKXDX$XKXKXKXKXKXKX",
"KXsXO.& # 1 : + X S F Y / 6 s A.7X9X9X9X9X:XFX9X@X$XKXKXKXKXKXKX",
"KX@.0 o Z  .( ! 1 $ } *.;.*._ u r.9X9X9X9X9X9X9X9X$XKXKXKXKXKXKX",
"KX[ < # U ) ^ | J V -.<.<.*.%.I u '.9X9X9X9X9X9X9X$XVXKXKXKXKXKX",
"KXL ; V | ^ ^ | H B ,.2.2.,.` u G.9X9X9X9X9X9X9X9X$XlXKXKXKXKXKX",
"KXP - B | ^ ^ ) C B >.5.1.'   H.9X9X9X9X9X9X9X9X9X$XR.kXVXKXKXKX",
"KXK @ U ) ^ ^ ) C B &.:.y y y r r y y . . .   y y y S.K.jXVXKXKX",
"KXq > ~ ^ ) ^ ) C B %.X.l j q.6.g a.m.^.(.)././././.^.S.W.lXVXKX",
"KX+.2 @ V A T ^ B B R x g g q.n.M.D.^.(././.`.`.`./.).^.F.W.bXKX",
"KXuXw & & - $ N B B t f g u.M.A.S.^.^./.`. X}.}. X_.).^.S.F.kXKX",
"KXMX3.7 % * % ; B B g 7.p.m.M.A.S.^.^.`. X&X-X=X*X X`./.^.F.!.KX",
"KXKXzX#.= * , < N B g 6.s.m.M.A.S.^.^.`.%X8XrXrX8X%X`./.^.F.W.KX",
"KXKXKXzXm = % , < d g 6.d.s.M.A.D.^.^./.|.;XeXyX0X&X`.).^.A.C.KX",
"KXKXKXKXMX$.8 = 3 e g 8.i.s.M.A.S.S.^././.[.&XqX8X#X`.(.^.A.n.KX",
"KXKXKXKXKXVXmXpX$.z j 6.a.s.n.A.A.S.^.(./.[.&X=X&X[./.^.S.A.n.KX",
"KXKXKXKXKXKXKXKXJXdXl 6.w.s.n.M.A.A.S.^.^.[.|.[.`.(.^.^.S.M.J.KX",
"KXKXKXKXKXKXKXKXKXlXk.r.u.a.s.n.M.A.A.S.S.^.^.^.^.S.S.S.A.V.E.KX",
"KXKXKXKXKXKXKXKXKXKXY.c 9.u.p.s.n.M.A.A.S.S.S.D.S.S.A.A.M.B.~.KX",
"KXKXKXKXKXKXKXKXKXKXhXI.e.9.u.p.m.n.M.n.A.N.Z.A.A.A.M.M.n.v.gXKX",
"KXKXKXKXKXKXKXKXKXKXBXfXL.e.9.u.i.s.s.n.M.M.M.M.M.n.n.s.J.T.mXKX",
"KXKXKXKXKXKXKXKXKXKXKXxXT.z.h 9.u.a.p.s.s.n.n.n.n.s.p.g.E.nXJXKX",
"KXKXKXKXKXKXKXKXKXKXKXVXcXT.v h 6.9.0.0.f.i.i.f.p.u.j.U.gXKXKXKX",
"KXKXKXKXKXKXKXKXKXKXKXKXKXmXiXP.c l 6.6.6.9.9.0.h.b.Q.xXKXKXKXKX",
"KXKXKXKXKXKXKXKXKXKXKXKXKXKXKXxXT.I.x.t.k k z.P.Y.gXVXKXKXKXKXKX",
"KXKXKXKXKXKXKXKXKXKXKXKXKXKXKXKXKXKXKXKXKXKXJXKXKXKXKXKXKXKXKXKX"
};
