/* XPM */
static char *magick[] = {
/* columns rows colors chars-per-pixel */
"32 32 256 2",
"   c #382f29",
".  c #32352d",
"X  c #571919",
"o  c #482020",
"O  c #482228",
"+  c #58262a",
"@  c #562531",
"#  c #790806",
"$  c #7f0708",
"%  c #790e10",
"&  c #7a1515",
"*  c #7b2c2d",
"=  c #4b334c",
"-  c #4f3d57",
";  c #593d53",
":  c #653f4e",
">  c #4a4159",
",  c #6f6063",
"<  c #7a6567",
"1  c #07599d",
"2  c #0e58ab",
"3  c #194aa8",
"4  c #1a68b6",
"5  c #246bba",
"6  c #006dc1",
"7  c #057ec8",
"8  c #027ad5",
"9  c #0a7bdb",
"0  c #1a6bd3",
"q  c #473eba",
"w  c #502dab",
"e  c #6e1db4",
"r  c #5439c1",
"t  c #642ac1",
"y  c #7c24cd",
"u  c #7238d4",
"i  c #586c93",
"p  c #4465a3",
"a  c #5179ad",
"s  c #6b5aa2",
"d  c #697080",
"f  c #7f6e86",
"g  c #4150dd",
"h  c #5548da",
"j  c #5e78d5",
"k  c #6341db",
"l  c #7957d0",
"z  c #7766dc",
"x  c #7564c4",
"c  c #068be9",
"v  c #008df3",
"b  c #0595fc",
"n  c #1e81f7",
"m  c #1c94f4",
"M  c #08abff",
"N  c #07baff",
"B  c #3986c4",
"V  c #2381e0",
"C  c #259be8",
"Z  c #3b9bf1",
"A  c #2ea2e8",
"S  c #26bfff",
"D  c #3aa2e9",
"F  c #3db9eb",
"G  c #3ebaf0",
"H  c #38a7f5",
"J  c #0ecfff",
"K  c #18c0fc",
"L  c #3ecffe",
"P  c #4d8adb",
"I  c #47a7f2",
"U  c #5cb0ea",
"Y  c #6b8bd0",
"T  c #679ec6",
"R  c #7783df",
"E  c #6190f3",
"W  c #768fe4",
"Q  c #73b2df",
"!  c #57f3ff",
"~  c #6dc0ff",
"^  c #810606",
"/  c #880a07",
"(  c #8b0a0b",
")  c #860808",
"_  c #81110e",
"`  c #811b1b",
"'  c #87181a",
"]  c #900707",
"[  c #97070b",
"{  c #930b0b",
"}  c #98070b",
"|  c #9f0808",
" . c #990b0b",
".. c #980b07",
"X. c #960e12",
"o. c #981618",
"O. c #8a231d",
"+. c #92211e",
"@. c #82282b",
"#. c #8b2a32",
"$. c #952b35",
"%. c #923d3d",
"&. c #8e2e2d",
"*. c #a7080c",
"=. c #a60a08",
"-. c #ae0909",
";. c #a60e12",
":. c #aa1415",
">. c #b50909",
",. c #be0b0c",
"<. c #ba0a10",
"1. c #b51113",
"2. c #b81215",
"3. c #b81824",
"4. c #a12626",
"5. c #b7362f",
"6. c #911a40",
"7. c #813053",
"8. c #983d42",
"9. c #83413c",
"0. c #88484a",
"q. c #8c5356",
"w. c #99494b",
"e. c #9f4440",
"r. c #98585a",
"t. c #946363",
"y. c #977476",
"u. c #a94a4f",
"i. c #a3514f",
"p. c #a75959",
"a. c #b14a49",
"s. c #a6615f",
"d. c #a67978",
"f. c #b36c6d",
"g. c #b3747a",
"h. c #c40a0a",
"j. c #cd0b0e",
"k. c #cb0a10",
"l. c #c61118",
"z. c #d50a0a",
"x. c #d80008",
"c. c #d80810",
"v. c #d41317",
"b. c #db1417",
"n. c #c01828",
"m. c #d82424",
"M. c #d83838",
"N. c #d83030",
"B. c #e00808",
"V. c #e21a1a",
"C. c #f00000",
"Z. c #e21c22",
"A. c #e42329",
"S. c #e82b34",
"D. c #ec333c",
"F. c #e53a4a",
"G. c #d84048",
"H. c #d04850",
"J. c #d05054",
"K. c #c57678",
"L. c #d06365",
"P. c #ed425a",
"I. c #f2484e",
"U. c #ee5167",
"Y. c #ef5875",
"T. c #8714b9",
"R. c #862fb9",
"E. c #851dca",
"W. c #9215c9",
"Q. c #af0cc3",
"!. c #a111cd",
"~. c #b504cc",
"^. c #b91fcd",
"/. c #b82ac9",
"(. c #b438c3",
"). c #a84a90",
"_. c #bd55bf",
"`. c #af6299",
"'. c #b672bf",
"]. c #8f46d8",
"[. c #904ade",
"{. c #8265da",
"}. c #956cd1",
"|. c #9876c6",
" X c #9e7dd3",
".X c #8d6be2",
"XX c #ac4ec1",
"oX c #ab54cc",
"OX c #b952c2",
"+X c #af7acb",
"@X c #a972d0",
"#X c #be66c8",
"$X c #bf6cc9",
"%X c #bc67c3",
"&X c #bb78c7",
"*X c #c100cf",
"=X c #c900d9",
"-X c #c87880",
";X c #e75880",
":X c #ef6088",
">X c #f0678b",
",X c #f06fa0",
"<X c #c067cc",
"1X c #c07ec5",
"2X c #c070ca",
"3X c #9e898b",
"4X c #939db5",
"5X c #97a9b3",
"6X c #a58c8c",
"7X c #ae999b",
"8X c #b48a8e",
"9X c #b48e92",
"0X c #b69a99",
"qX c #bf99b3",
"wX c #a897bc",
"eX c #afa9aa",
"rX c #ada2a1",
"tX c #a4b3bf",
"yX c #b4a9a9",
"uX c #bca8a7",
"iX c #b7b4b3",
"pX c #bdbcbb",
"aX c #8a96d3",
"sX c #9e80d3",
"dX c #8c94c8",
"fX c #92b3d0",
"gX c #a183ce",
"hX c #a99dc2",
"jX c #bd81c4",
"kX c #bf8bcc",
"lX c #bc99c2",
"zX c #bd97c3",
"xX c #ada5c4",
"cX c #a7b8c6",
"vX c #bda2ca",
"bX c #babcc4",
"nX c #9fc0cd",
"mX c #bec0c3",
"MX c #c88484",
"NX c #c89898",
"BX c #c89090",
"VX c #c098a0",
"CX c #c0a0a0",
"ZX c #c0a8a8",
"AX c #c1b2b2",
"SX c #c1baba",
"DX c #c38ac6",
"FX c #c79cc4",
"GX c #c5a3c8",
"HX c #c3bdc2",
"JX c #c6b7c7",
"KX c #d2b3c7",
"LX c #c1c1c1",
"PX c #c8c7c8",
"IX c #d2ccc3",
"UX c #c9d7c8",
/* pixels */
"LXLXLXLXLXSXSXZXZXZXLXLXLXLXLXLXLXLXLXLXLXLXLXLXLXLXLXLXLXLXLXLX",
"LXLXSXpXSXSXAXZXNXMXK.ZXLXLXLXLXLXLXLXLXLXLXLXLXLXLXLXLXLXLXLXLX",
"LXLXLXLXiXyXCXBXK.L.J.M.K.SXLXLXLXLXLXLXLXLXLXLXLXLXLXLXLXLXLXLX",
"LXLXLXLXmXyX6XK.L.H.M.m.I.N.NXLXLXLXLXLXLXLXLXLXLXLXLXLXLXLXLXLX",
"LXLXLXLXLXmX5Xd > $.n.I.I.I.I.L.SXLXLXLXLXLXLXLXLXLXLXLXLXLXLXLX",
"LXLXLXLXLXbXxXhXs = @.v.c.I.I.I.m.NXLXHXLXLXLXLXLXLXLXLXLXLXLXLX",
"LXLXmXbXxX|.XX&X&Xx ; + >.I.I.I.I.I.J.AXLXLXLXLXLXLXLXLXLXLXLXLX",
"HXlXgX}.R j wXIXKX1XfXi @ X.I.I.I.I.I.V.MXLXLXLX0XC.LXLXLXLXLXLX",
"bXOX{.H I P dXfXQ aXHXbXT > + >.I.I.I.I.I.G.CXI.B.C.LXLXLXLXLXLX",
"bX@X.Xz Z V m M N K F nXmXfXa @ ` I.I.I.I.I.I.I.I.C.LXLXLXLXLXLX",
"mXsX~ [.u 9 v b S ! J D jX%X|.p O x.I.I.I.I.I.I.I.C.bXLXLXLXLXLX",
"mX XW aXR.t 0 9 m E ].u l lX5X: 2.I.I.I.I.I.I.I.I.C.0XLXLXLXLXLX",
"bX+XFXtX1 e ~.!.E.y h n D 5X, 3.I.I.I.I.I.I.I.I.I.C.u.9XpXLXLXLX",
"LX1XDXcX1 w =X*Xr 8 c b B < @ X X o o . . .   o o o ,.5.8XpXLXLX",
"PX<X<XxX4 3 W.T.2 6 9 c i #.( ^ $ ..=.h.j.k.j.j.k.j.h.,.a.0XpXLX",
"JX/.Q._.Y 8 t q 7 C C 5 7._ ( =.-.<.h.j.j.j.z.z.z.j.k.h.1.a.uXLX",
"LXkX(.GXPXI k g M L A `.#.] -.>.,.h.h.j.z.b.b.b.b.l.k.h.h.1.9XLX",
"SXAXqX&XHXPXoXz G U 4Xs.o.=.-.>.,.h.h.z.b.A.D.S.A.b.z.j.h.1.f.LX",
"LXSXAXvX&XPX#X1XUXLX0Xw.;.=.-.>.,.h.h.z.Z.P.>X:XP.V.z.k.h.1.a.LX",
"LXLXHXLXjXDX#X1XUXHX`.6.X.| -.>.<.h.h.j.b.F.;X,XU.A.z.k.h.>.:.LX",
"LXLXLXLXPX$X/.2XkXOX).8.X.| -.>.,.,.h.j.j.v.A.Y.P.V.z.j.h.>.*.LX",
"LXLXLXLXLXGX^./.%XqX7Xw.o.| *.>.>.,.h.j.j.v.A.S.A.v.j.h.,.>.*.LX",
"LXLXLXLXLXJX#XlXHXLX7Xr.' | *.-.>.>.,.h.h.v.b.v.z.j.h.h.,.-.4.LX",
"LXLXLXLXLXLXHXLXLXLXAXd.4. .| *.-.>.>.,.,.h.h.h.h.,.,.,.>.1.p.LX",
"LXLXLXLXLXLXLXLXLXLXIX0Xe.{ ..| *.-.>.>.,.<.,.,.,.,.>.>.-.;.g.LX",
"LXLXLXLXLXLXLXLXLXLXPXuXi.+.{ } =.*.-.*.>.;.:.>.>.>.-.-.*.$.7XLX",
"LXLXLXLXLXLXLXLXLXLXLX6X9._ / ] [ | | *.-.-.-.-.-.*.*.| 4.y.iXLX",
"LXLXLXLXLXLXLXLXLXLXLXeXy.@.# / ] [ } | | *.*.*.*.| } X.p.yXSXLX",
"LXLXLXLXLXLXLXLXLXLXLXpXrXy.* # ^ / ] ( ..[ [ [ } ( +.r.7XLXLXLX",
"LXLXLXLXLXLXLXLXLXLXLXLXmXiX3X0.* & ^ ^ ^ / / ( O.%.d.eXLXLXLXLX",
"LXLXLXLXLXLXLXLXLXLXLXLXmXLXLXeXy.q.#.` % % @.0.t.7XpXLXLXLXLXLX",
"LXLXLXLXLXLXLXLXLXLXLXLXLXLXLXLXLXLXLXmXLXLXLXLXLXLXLXLXLXLXLXLX"
};
