/* XPM */
static char *TSinsertPt8[] = {
/* columns rows colors chars-per-pixel */
"32 32 223 2",
"   c #7F5979",
".  c #766571",
"X  c #7E687A",
"o  c #7A7279",
"O  c #83587F",
"+  c #826A7F",
"@  c #807E7F",
"#  c #B04C7E",
"$  c #BC5868",
"%  c #BF6461",
"&  c #BD7869",
"*  c #DA0B0B",
"=  c #D71C1C",
"-  c #DE262E",
";  c #DE282D",
":  c #D62F39",
">  c #DC2C32",
",  c #DB2D3A",
"<  c #D5343D",
"1  c #D33838",
"2  c #DA3035",
"3  c #EA0E0E",
"4  c #E61818",
"5  c #E81212",
"6  c #F01318",
"7  c #E61E22",
"8  c #E81D24",
"9  c #E52023",
"0  c #E22429",
"q  c #E0292D",
"w  c #E82023",
"e  c #CD3C57",
"r  c #CF395D",
"t  c #D72C45",
"y  c #DC2945",
"u  c #D32C5C",
"i  c #D82D53",
"p  c #D63046",
"a  c #D23649",
"s  c #D43F40",
"d  c #D03848",
"f  c #D3355C",
"g  c #D23B5C",
"h  c #CA3F6B",
"j  c #CF3972",
"k  c #D02F79",
"l  c #D1376A",
"z  c #C64558",
"x  c #C74950",
"c  c #C44C5C",
"v  c #C55555",
"b  c #CA5851",
"n  c #CE5E5E",
"m  c #C84460",
"M  c #C14877",
"N  c #CF6A4F",
"B  c #CE7C58",
"V  c #CC6767",
"C  c #CD7B60",
"Z  c #C97D7D",
"A  c #9A388D",
"S  c #9F3595",
"D  c #9F329A",
"F  c #9B3B90",
"G  c #AF19A8",
"H  c #B01BA7",
"J  c #BE1FAF",
"K  c #AA37A2",
"L  c #B427A8",
"P  c #B229A4",
"I  c #B92BAD",
"U  c #BB25B1",
"Y  c #BE24B8",
"T  c #BB2BB2",
"R  c #B233AA",
"E  c #BC32A6",
"W  c #BB33AC",
"Q  c #BC3BAB",
"!  c #B736B1",
"~  c #BD34B2",
"^  c #BB3BB3",
"/  c #BE3CB8",
"(  c #885C86",
")  c #8B5B88",
"_  c #94478C",
"`  c #914986",
"'  c #994094",
"]  c #9E4798",
"[  c #915A8D",
"{  c #846582",
"}  c #846883",
"|  c #886D87",
" . c #837982",
".. c #887B87",
"X. c #947793",
"o. c #947B93",
"O. c #A2429D",
"+. c #AB578B",
"@. c #AE47A9",
"#. c #AD52A9",
"$. c #B84FA1",
"%. c #B84AAB",
"&. c #BE44B8",
"*. c #BE54AF",
"=. c #BB59B6",
"-. c #B06181",
";. c #B7659A",
":. c #AA76A7",
">. c #B963B4",
",. c #BE61B9",
"<. c #BB69B6",
"1. c #BC6EB8",
"2. c #B17FAE",
"3. c #BE7EB9",
"4. c #C02D9D",
"5. c #CB2A99",
"6. c #CD368D",
"7. c #C23B95",
"8. c #C92BA6",
"9. c #C523B9",
"0. c #C428B0",
"q. c #C72BBB",
"w. c #CA2AB9",
"e. c #C63FA3",
"r. c #C135B8",
"t. c #C23EB0",
"y. c #C53FBD",
"u. c #CD3FB8",
"i. c #D826BF",
"p. c #C44482",
"a. c #C64B90",
"s. c #CB5E98",
"d. c #C34BAE",
"f. c #C446B9",
"g. c #C14AB6",
"h. c #C24CBC",
"j. c #CD46BE",
"k. c #C351B0",
"l. c #C253BC",
"z. c #DB40B2",
"x. c #D453BC",
"c. c #C56197",
"v. c #CD6099",
"b. c #C57B8B",
"n. c #C262BC",
"m. c #C16BBC",
"M. c #C864BC",
"N. c #C475BE",
"B. c #C27EBF",
"V. c #C643C0",
"C. c #C64CC0",
"Z. c #CE46C7",
"A. c #C94BC2",
"S. c #CD52C0",
"D. c #C859C2",
"F. c #CD5DC8",
"G. c #D141C7",
"H. c #D44FC1",
"J. c #D250CC",
"K. c #D05BC7",
"L. c #D951D0",
"P. c #CB62C4",
"I. c #CC6BC6",
"U. c #CB73C6",
"Y. c #CA7EC6",
"T. c #D16CCA",
"R. c #DB60DA",
"E. c #D87AD5",
"W. c #CCA364",
"Q. c #CAB76F",
"!. c #CCBD75",
"~. c #D9BF61",
"^. c #E5B36B",
"/. c #E1D35F",
"(. c #F1DD5E",
"). c #F6E84F",
"_. c #F5ED51",
"`. c #F7F04F",
"'. c #EDE361",
"]. c #E9E16B",
"[. c #858185",
"{. c #8B848A",
"}. c #8B898B",
"|. c #928F92",
" X c #969595",
".X c #9B9B9B",
"XX c #BE85BA",
"oX c #B992B7",
"OX c #BF94BC",
"+X c #BE9EBB",
"@X c #A4A4A4",
"#X c #ABAAAB",
"$X c #B3ADB4",
"%X c #BEA4BD",
"&X c #BDAABC",
"*X c #B3B3B3",
"=X c #BEB3BE",
"-X c #BBBBBB",
";X c #C78E8E",
":X c #C081BC",
">X c #C192BE",
",X c #C19DBF",
"<X c #D3B491",
"1X c #C0A1B8",
"2X c #C1ACBF",
"3X c #C9BFAB",
"4X c #C1B5B5",
"5X c #C0B4BD",
"6X c #C0BBBD",
"7X c #C58EC2",
"8X c #C88CC4",
"9X c #DF8ADC",
"0X c #C3A2C1",
"qX c #C2ABC1",
"wX c #C3B0C2",
"eX c #C0BCC0",
"rX c #E084DE",
"tX c #DDC28C",
"yX c #DCCE82",
"uX c #D9D08D",
"iX c #C5C1B3",
"pX c #D0CEA0",
"aX c #C0C0C0",
/* pixels */
"aXaXaXaXaXaXaXaXaXaXaXaXaXaXaXaXaXaXaXaXaXaXaXaXaXaXaXaXaXaXaXaX",
"aXaXaXaXaXaXaXaXaXaXaXaXaXaXaXaXaXaXaXaXaXaXaXaXaXaXaXaXaXaXaXaX",
"aXaXaXaXaXaXaXaXaXaXaXaXaXaXeXeXaXaXeXaXaXaXaXaXaXaXaXaXaXaXaXaX",
"aXaXaXaXaXaXaXaXaXaXaXaXaXeXeXeX8XT.I.0XeXaXaXaXaXaXaXaXaXaXaXaX",
"aXaXaXaXaXaXaXaXaXaXaXaXeXaXaX0XP.E.I.U.2XaXaXaXaXaXaXaXaXaXaXaX",
"aXaXaXaXaXaXaXaXaXaXaXaXaXeXN.A.j.x.f.l.Y.qXaXaXaXaXaXaXaXaXaXaX",
"aXaXaXaXaXaXaXaXaXaXaXeXY.P.u.7.z , j %.l.U.aXaXaXaXaXaXaXaXaXaX",
"aXaXaXaXaXaXaXaXaX8XI.P.d.p.d - 7 7 9 r %.D.U.aXaXaXaXaXaXaXaXaX",
"eXeXqX7XOX0XeXU.I.H.a.h t - 4 7 9 8 8 8 z f.h.U.aXaXaXaXaXaXaXaX",
"eX0XB.T.y.C.U.M.a.i q 7 7 7 7 9 9 9 9 7 8 g E h.Y.aXaXaXaXaXaXaX",
"eXOX~ F.F.k.-.z > 7 8 7 9 9 0 9 9 9 9 7 7 7 u I P.I.qXaXaXaXaXaX",
"aXoXT U T +.: 7 7 7 7 7 0 9 9 7 7 7 7 7 7 7 8 l ~ f.I.qXaXeXaXaX",
"aXX.D G G +.7 7 0 0 9 9 9 9 w 9 7 9 9 9 7 7 7 0 M g.,.&.l.3.eXaX",
"aX}.{ F L 4., 7 7 0 9 9 9 9 9 9 9 9 > 9 8 8 7 8 , z./ C.9XA.=.aX",
"aX-X{.) R w.6.9 7 9 9 7 w w 9 w 9 9 9 9 9 7 7 7 p d.V./ T / 1.wX",
"aXeX|.| O.I w.y 7 7 9 9 w 7 w 9 9 8 9 w 7 7 0 : B /.s.~ T U =.aX",
"aX-X.X..) K 9.5.0 w 7 9 9 9 9 9 w 0 a p a x N W./.].<X*.^ XXOXiX",
"aX-X@X{.+ _ L 9.e w 7 9 9 q 9 w 9 f r.S.^ b.).`.pXiX6XeX=X=XeXaX",
"aXaX*X X@ O S U 8.> w 9 9 9 9 9 > 5.f.rXV.t.!.iXaXaXaXaXaXaXaXaX",
"aXaX-X.X..X ` P 9.k > 9 9 9 9 2 $ W / J.A.N.2XiXaXaXeXaXaXaXaXaX",
"aXaX-X@X}.o   A J 0.c 0 0 - s & Q.c.$.@.! >.&XeXeXaXaXaXaXaXaXaX",
"aXaXiX*X.X@ . A I 9.i.% b B ~.).'.!.;.#.R XX*XaXaXaXaXaXaXaXaXaX",
"aXaXaX-X@X{.{ R T L.G.^._._.].uX6X4X+X+X&Xv 9 5 5 6 9 6 * aXaXaX",
"aXaX-X#X X..) T T R.Z.s.(.tXwX-X6XaXeX-XaX* 5 5 5 5 6 * * aXaXaX",
"aXaX-X#X|.@ ( T U Y Y T +X-XeXaXaXeXaXeXaX5 w 3 5 5 6 6 aXaXaXaX",
"aXaX-X$X.X[.} ] R T ~ 1.5X5XeXaXaXaXaXeXaX* w 3 3 5 5 5 6 aXaXaX",
"aXaXaX-X#X X{.o.:.3.OX+X=XeXaXaXaXaXaXiXaX* 3 6 * 4 3 5 6 6 aXaX",
"aXaXaXaX-X*X#X#X$X5X5XeXeXaXaXaXaXaXaX6XaX* 3 * * * 5 5 5 6 6 aX",
"aXaXaXaXaXaXeXaXaXaXaXaXaXaXaXaXaXaXaXaXaX1 = V Z * * 5 5 9 6 * ",
"aXaXaXaXaXaXaXaXaXaXaXaXaX-X-XaXaXaXaXaXaX;X;X4XaXZ = 4 4 * * * ",
"aXaXaXaXaXaXaXaXaXaXaXaXaX$X#XaXaXaXaXaXaXaXaXaXaXaXn * * * * aX",
"aXaXaXaXaXaXaXaXaXaXaXaXaXaXaXaXaXaXaXaXaXaXaXaXaXaXaX* * * 6XaX"
};
