/* XPM */
static char *TSinsertPtOpt2[] = {
/* columns rows colors chars-per-pixel */
"32 32 222 2",
"   c #7F5979",
".  c #766571",
"X  c #7E687A",
"o  c #7A7279",
"O  c #BF3D66",
"+  c #83587F",
"@  c #826A7F",
"#  c #807E7F",
"$  c #B74A77",
"%  c #BD506B",
"&  c #BB7C75",
"*  c #DA0B0B",
"=  c #D71C1C",
"-  c #DF282D",
";  c #DC2C32",
":  c #D92E39",
">  c #D33838",
",  c #DF3232",
"<  c #EA0E0E",
"1  c #E61818",
"2  c #E91213",
"3  c #EC1619",
"4  c #EA1A1D",
"5  c #F50B0C",
"6  c #F90607",
"7  c #F80708",
"8  c #F80809",
"9  c #F20E10",
"0  c #F01113",
"q  c #F01318",
"w  c #E71E22",
"e  c #E61C29",
"r  c #E81D21",
"t  c #E52123",
"y  c #E3252C",
"u  c #E1282D",
"i  c #E82022",
"p  c #E22234",
"a  c #E23633",
"s  c #CB3E5A",
"d  c #D72C40",
"f  c #DC244A",
"g  c #D92B45",
"h  c #DA2B4F",
"j  c #D5255E",
"k  c #DA2C54",
"l  c #D33545",
"z  c #D03D48",
"x  c #D83846",
"c  c #CE3961",
"v  c #C43578",
"b  c #CA3F74",
"n  c #D62763",
"m  c #D02F79",
"M  c #D03075",
"N  c #C94E54",
"B  c #C25656",
"V  c #CE5153",
"C  c #D74141",
"Z  c #D0665B",
"A  c #C46362",
"S  c #CA6B68",
"D  c #C97D7D",
"F  c #9A388D",
"G  c #9F3595",
"H  c #9B3C93",
"J  c #B11BA6",
"K  c #BE1FAF",
"L  c #BF309B",
"P  c #AE2DA3",
"I  c #AA34A1",
"U  c #B426A8",
"Y  c #B22AA6",
"T  c #B42BA8",
"R  c #B827AC",
"E  c #BA2CAD",
"W  c #B72BB0",
"Q  c #BD23B2",
"!  c #BB2BB2",
"~  c #B035A5",
"^  c #B136A9",
"/  c #B23AAA",
"(  c #BE34AA",
")  c #BD39B6",
"_  c #8C5A88",
"`  c #94478C",
"'  c #914986",
"]  c #9E4798",
"[  c #915A8D",
"{  c #856682",
"}  c #896087",
"|  c #886D87",
" . c #837982",
".. c #887B87",
"X. c #956D92",
"o. c #9C749B",
"O. c #9C7A9A",
"+. c #AF43A5",
"@. c #AD49A8",
"#. c #AB55A4",
"$. c #B747A0",
"%. c #B541AC",
"&. c #B54CAD",
"*. c #BC45A1",
"=. c #BA43B3",
"-. c #B84EB0",
";. c #B752AE",
":. c #B75AB0",
">. c #BB55B4",
",. c #BB59B6",
"<. c #A3789D",
"1. c #B5618D",
"2. c #B9689E",
"3. c #AC62A2",
"4. c #AB68A7",
"5. c #B26CAE",
"6. c #B967B2",
"7. c #B86AB1",
"8. c #BB7AB5",
"9. c #C32B95",
"0. c #C73C8A",
"q. c #CB3697",
"w. c #C93B97",
"e. c #C82CA5",
"r. c #C423B9",
"t. c #C42ABA",
"y. c #CB29B6",
"u. c #C82AB8",
"i. c #C43DBA",
"p. c #C838BD",
"a. c #D13AA7",
"s. c #CA4484",
"d. c #C74C91",
"f. c #C1539C",
"g. c #C85E99",
"h. c #C445A6",
"j. c #C54CA5",
"k. c #C64EAA",
"l. c #C441BB",
"z. c #C24BBA",
"x. c #CC4CBE",
"c. c #C556BE",
"v. c #D54FBD",
"b. c #C0619C",
"n. c #CA62A5",
"m. c #CA6BA2",
"M. c #C36EBD",
"N. c #CA61B5",
"B. c #C473BD",
"V. c #C74DC0",
"C. c #CB4CC2",
"Z. c #CA5AC3",
"A. c #D05CC4",
"S. c #CC64C4",
"D. c #CC6CC4",
"F. c #CB74C5",
"G. c #CA7EC6",
"H. c #D16BCC",
"J. c #BF8A7A",
"K. c #C7997D",
"L. c #D08B70",
"P. c #858185",
"I. c #8C828A",
"U. c #8B898B",
"Y. c #928F92",
"T. c #998298",
"R. c #9B8D9A",
"E. c #969595",
"W. c #9B939B",
"Q. c #9D9C9D",
"!. c #A18B96",
"~. c #A9969A",
"^. c #AA9B97",
"/. c #B29E95",
"(. c #A594A4",
"). c #A09EA0",
"_. c #A893A7",
"`. c #AD95AC",
"'. c #BB83B7",
"]. c #BC85B8",
"[. c #B69FB4",
"{. c #BC95B9",
"}. c #ACA096",
"|. c #B4AB94",
" X c #BEB392",
".X c #A3A3A3",
"XX c #ABA3AB",
"oX c #ABAAAB",
"OX c #B1ACB1",
"+X c #BEAEBD",
"@X c #B3B2B3",
"#X c #B9B5B9",
"$X c #BCBBBC",
"%X c #CC8899",
"&X c #D58F9C",
"*X c #DB9E98",
"=X c #C194BF",
"-X c #C29DBF",
";X c #CEAE83",
":X c #CCAE93",
">X c #CCB187",
",X c #C9BF8F",
"<X c #C1B691",
"1X c #DFB993",
"2X c #C1ACBF",
"3X c #C1B5B5",
"4X c #C1BCBC",
"5X c #C48EC1",
"6X c #DA80D6",
"7X c #C4A4C1",
"8X c #C2ABC1",
"9X c #C2B3C1",
"0X c #C1BCC0",
"qX c #DDBADC",
"wX c #CFC68F",
"eX c #D6CC8C",
"rX c #DBCA88",
"tX c #DCD38D",
"yX c #E6D787",
"uX c #E6DC8B",
"iX c #E9E08B",
"pX c #C0C0C0",
/* pixels */
"pXpXpXpXpXpXpXpXpXpXpXpXpXpXpXpXpXpXpXpXpXpXpXpXpXpXpXpXpXpXpXpX",
"pXpXpXpXpXpXpXpXpXpXpXpXpXpXpXpX0XpXpXpXpXpXpXpXpXpXpXpXpXpXpXpX",
"pXpXpXpXpXpXpXpXpXpXpXpXpXpX0X0XpX{.A.pXpXpXpXpXpXpXpXpXpXpXpXpX",
"pXpXpXpXpXpXpXpXpXpXpXpXpX0X0X0Xl.U qXB.0XpXpXpXpXpXpXpXpXpXpXpX",
"pXpXpXpXpXpXpXpXpXpXpXpX0XpXpX5Xt.U C.i.8X0XpXpXpXpXpXpXpXpXpXpX",
"pXpXpXpXpXpXpXpXpXpXpXpXpX0XB.x.p.r.r.z.G.8XpXpXpXpXpXpXpXpXpXpX",
"pXpXpXpXpXpXpXpX0XpX0X0XG.S.a.n d j M h.c.F.0XpXpXpXpXpXpXpXpXpX",
"pXpXpXpXpXpXpXpX0X5XD.A.j.b y q q 0 r p 0.Z.F.pXpXpXpXpXpXpXpXpX",
"9XpX8X5X5X7X0XB.D.v.s.g r 9 8 8 9 9 9 3 e q.z.G.pXpXpXpXpXpXpXpX",
"pX%.,.H.i.C.F.c.d.h 3 5 7 7 8 9 q 3 9 3 w p 9.z.G.pXpXpXpXpXpXpX",
"{.U Y qXA.k.% l u 3 5 7 7 7 5 5 9 3 9 0 r w f E S.D.9X0XpXpXpXpX",
"-.U U U W $ : r 0 5 5 7 5 5 5 9 9 5 9 9 r w e k L =.D.7X'.7.+XpX",
"6.U U U J c ; 3 5 5 8 5 0 0 9 0 0 5 5 0 r w w w p 1.5.=.=.=.>.8X",
"pXX.I H U L l 3 5 0 5 5 0 5 5 5 9 3 q 3 r r w r i N <.~ G.qXT :.",
"pX$XI.[ I u.w.; 5 5 7 5 5 5 5 5 0 4 3 4 w w t t , &  Xb.T ) -.8.",
"pX$XY.| ] ! y.c 3 8 7 7 0 5 5 5 9 q 3 i w w a A K.rXuX$.W Q ,.0X",
"pX#XQ..._ I r.e.- 5 5 5 3 0 0 9 3 4 i i t V ;XeXuXeX|.~.4.].).@X",
"pX$XoXU.@ ` U r.s 3 0 4 4 4 w r 3 i i a L.yXuXtX|.W.R.R.W.).Q.pX",
"pXpX@XE.# + G Q e.; i 4 i i u : x C Z >XuXwX X^.W.W.R.W.Q..X$XpX",
"pXpX#X^. .X ' Y r.m w w w g *./ ( *XuXtX<XW.W.W.W.XXOX#X0XpXpXpX",
"pXpX$X.XU.o   F K ( z y y v H.qX( b.:X^.R.W.W.XX#X$XpXpXpXpXpXpX",
"pXpXpX@XQ.# . F R E f.S J.g.R ! E 3.R.R.(.`.OX$X$XpXpXpXpXpXpXpX",
"pXpXpX@X.XI.{ Y ! i.n.1XiX%X%./ @.O.W.`.[.pXpXpXpXpXpXpXpXpXpXpX",
"pXpX$XoXE...P U U qXj.&XtX^.O.o.<.W.@X$X0XpXpXpXpXpXpXpXpXpXpXpX",
"pXpX$XoXE.# I U U U T 2.}.W.(.(.R.OXB = 2 < 3 4 3 * pXpXpXpXpXpX",
"pXpX$X@XE.P.} U U T T &.W.E.Q.OX#X4X* 1 < 2 2 3 * * pXpXpXpXpXpX",
"pXpXpX$XoXE.Q.T.#.$.@..X).@XpXpXpXpX2 t < 2 2 3 q pXpXpXpXpXpXpX",
"pXpXpXpX$X@XQ.Q.Q.Q.Q.Q.oXpXpXpXpXpX* t < < < < q q pXpXpXpXpXpX",
"pXpXpXpXpXpXpXOXoX.X.XpXpXpXpXpXpXpX* 2 q * 1 2 2 q 3 pXpXpXpXpX",
"pXpXpXpXpXpXpXpXpXpXpXpXpXpX4XpXpXpX* 0 * * * 2 2 2 q q pXpXpXpX",
"pXpXpXpXpXpXpXpXpXpXpXpXpXpXpXpXpXpX> = pXD * * 2 2 t q * 0XpXpX",
"pXpXpXpXpXpXpXpXpXpXpXpXpXpXpXpXpXpXpXpX3XpXD = 1 1 * * * * $XpX"
};
