/* XPM */
static char *TSmergeWhole[] = {
/* columns rows colors chars-per-pixel */
"32 32 146 2",
"   c #3d3027",
".  c #3f3c3a",
"X  c #4a0909",
"o  c #431414",
"O  c #560b0b",
"+  c #5b0b0b",
"@  c #561f0a",
"#  c #5c1a1a",
"$  c #4d251b",
"%  c #462020",
"&  c #403224",
"*  c #532121",
"=  c #572929",
"-  c #5a2d2d",
";  c #503b22",
":  c #650d0d",
">  c #6c0d0d",
",  c #651515",
"<  c #631d1d",
"1  c #6b1212",
"2  c #750303",
"3  c #730d0d",
"4  c #7b0404",
"5  c #7a0c0c",
"6  c #771414",
"7  c #7d1212",
"8  c #672323",
"9  c #683b3b",
"0  c #712626",
"q  c #7a2020",
"w  c #753e3e",
"e  c #7e3131",
"r  c #7a3c3c",
"t  c #46413b",
"y  c #52483d",
"u  c #6f5331",
"i  c #714632",
"p  c #474945",
"a  c #4b4848",
"s  c #524540",
"d  c #674343",
"f  c #6b4242",
"g  c #6f5151",
"h  c #7b5252",
"j  c #68635d",
"k  c #756363",
"l  c #756f60",
"z  c #7d6060",
"x  c #7c6f66",
"c  c #73716f",
"v  c #840b0b",
"b  c #8b0303",
"n  c #880d0d",
"m  c #821010",
"M  c #831a1a",
"N  c #8b1313",
"B  c #8b1d1d",
"V  c #940202",
"C  c #930d0d",
"Z  c #9c0000",
"A  c #9a0b0b",
"S  c #911515",
"D  c #832020",
"F  c #842929",
"G  c #8f2727",
"H  c #8d2929",
"J  c #863333",
"K  c #823a3a",
"L  c #912a2a",
"P  c #9a2222",
"I  c #963d3d",
"U  c #9f3333",
"Y  c #a00000",
"T  c #a10b0b",
"R  c #ab0000",
"E  c #ab0b0b",
"W  c #b40202",
"Q  c #b20808",
"!  c #bd0808",
"~  c #b01b1b",
"^  c #a62727",
"/  c #a42a2a",
"(  c #a13636",
")  c #bb2828",
"_  c #864141",
"`  c #834d4d",
"'  c #8c4f4f",
"]  c #805353",
"[  c #855b5b",
"{  c #895454",
"}  c #924242",
"|  c #945757",
" . c #9b5555",
".. c #89724a",
"X. c #936f42",
"o. c #806b6a",
"O. c #82706b",
"+. c #837575",
"@. c #897676",
"#. c #946666",
"$. c #9f6868",
"%. c #967671",
"&. c #967878",
"*. c #997474",
"=. c #a04f4f",
"-. c #a26969",
";. c #a77171",
":. c #ac7c7c",
">. c #c30202",
",. c #cd0202",
"<. c #d10303",
"1. c #db0000",
"2. c #e40101",
"3. c #ec0000",
"4. c #f40000",
"5. c #fe0000",
"6. c #998356",
"7. c #92836d",
"8. c #a4855d",
"9. c #bd965b",
"0. c #c49355",
"q. c #cd9856",
"w. c #c6b87f",
"e. c #e9b065",
"r. c #9f8282",
"t. c #988989",
"y. c #af8d8d",
"u. c #a79696",
"i. c #a29b9b",
"p. c #a99c9c",
"a. c #b09d9d",
"s. c #a8a097",
"d. c #bba78f",
"f. c #afa5a5",
"g. c #afadad",
"h. c #b2aeae",
"j. c #baafaf",
"k. c #b7b2b2",
"l. c #b9b2b2",
"z. c #e0c484",
"x. c #fecc8c",
"c. c #f0c992",
"v. c #c1c1c1",
"b. c #fee6c7",
"n. c #efeae4",
"m. c #fdf8ee",
/* pixels */
"v.v.v.v.v.v.v.v.v.v.v.v.v.v.v.v.v.v.v.v.v.v.v.v.v.v.v.v.v.v.v.v.",
"v.v.v.v.v.v.v.v.v.v.v.v.v.v.v.v.v.v.v.v.v.v.v.v.v.v.v.v.v.v.v.v.",
"v.v.v.l.#. . .:.y.v.v.v.v.v.v.v.v.v.v.v.l.v.v.v.v.v.v.v.v.l.v.v.",
"v.v.k.` K F m v N  .y.l.v.v.v.v.v.l. .{  .-. . .-.-.-.y.:.-.:.a.",
"v.v.u.r K 6 D m M G v  .h.v.v.v.-.n W 1.1.1.1.,.,.<.1.<.<.C : t.",
"v.l.` K 6 q 7 D L m 5 5 B ;.l. .v 3.3.3.3.3.3.3.3.3.3.2.<.m f.l.",
"v.[ f _ , 0 D L M m 7 5 5 v 7 v 2.4.4.4.4.4.4.4.4.4.4.3.n n v.v.",
"v.f d a & t y i 7 3 3 5 2 4 4 Z >.4.5.5.5.5.5.4.4.5.5.1.m p.v.v.",
"v.z f ; u 6.8.j   $ 7 4 2 2 b Z Z Y 1.2.5.5.5.5.5.5.5.A J v.v.v.",
"v.f.h a X.0.w.c.s.& $ * 2 2 4 V Y Y Y Z R 1.4.5.5.5.2.7 { v.v.v.",
"v.v.f.x x q.z.m.b.9.  o 1 1 7 v b V Z Z Y Y Y R W <.W N p.v.v.v.",
"v.v.v.v.r.c d.n.x.e...$ # o.p.H N b b V V Z Y Z V V n U v.v.v.v.",
"v.v.v.v.v.l.*.o.7.l a 8 # h.v.v.:.S V V V Z Z Z b v P _ v.v.v.v.",
"v.v.v.v.v.v.v.v.k.*.[ ] ] v.-.} M T Y R R Y Z Y Z Z / *.v.v.v.v.",
"v.v.v.v.v.v.v.v.v.v.v.l.} ) 1.3.5.5.5.5.4.1.>.W R Z P h.v.v.v.v.",
"v.v.v.v.v.v.v.v.v.v.p.S >.5.5.5.5.5.5.5.5.5.5.5.5.T =.v.v.v.v.v.",
"v.v.v.v.v.v.v.v.v.v.( E 5.5.5.5.5.5.5.5.5.5.5.5.3.P | v.v.v.v.v.",
"v.v.v.v.v.v.v.v.v.a.~ 5.5.5.5.5.5.5.5.5.5.5.5.5.1./ &.v.v.v.v.v.",
"v.v.v.v.v.v.v.v.l.^ ,.5.5.5.5.5.5.5.5.5.5.5.5.5.E P k.v.v.v.v.v.",
"v.v.v.v.v.v.v.v.( A 5.5.5.5.5.5.5.5.5.5.5.5.5.5.~ I v.v.v.v.v.v.",
"v.v.v.v.v.v.v.( n 4.5.5.5.5.5.5.5.5.5.5.5.5.5.<.<.<.v.v.v.v.v.v.",
"v.v.v.v.v.j.( A 3.5.5.5.5.5.5.5.5.5.5.5.5.5.5.Q 7 h.v.v.v.v.v.v.",
"v.v.v.v.p.N n 5.5.5.5.5.5.5.5.5.5.5.5.5.5.5.5.m < v.v.v.v.v.v.v.",
"v.v.i.D N ! 5.5.5.5.5.5.5.5.5.5.5.5.5.5.5.5.! m g v.v.v.v.v.v.v.",
"v.v.t.+ > m E ,.2.5.5.5.5.5.5.5.5.5.5.5.5.4.m J v.v.v.v.v.v.v.v.",
"v.v.v.h.@.9 + 1 m A ! 2.5.5.5.5.5.5.5.5.5.A m @.v.v.v.v.v.v.v.v.",
"v.v.v.v.v.v.v.k = O 3 7 S E ,.2.5.4.5.5.,.m < v.v.v.v.v.v.v.v.v.",
"v.v.v.v.v.v.v.v.v.i.+.= X > 6 C E ! 3.2.n > @.v.v.v.v.v.v.v.v.v.",
"v.v.v.v.v.v.v.v.v.v.v.v.i.k - X > 3 m n 5 h v.v.v.v.v.v.v.v.v.v.",
"v.v.v.v.v.v.v.v.v.v.v.v.v.v.v.v.k - < > + i.v.v.v.v.v.v.v.v.v.v.",
"v.v.v.v.v.v.v.v.v.v.v.v.v.v.v.v.v.v.g.@.i.v.v.v.v.v.v.v.v.v.v.v.",
"v.v.v.v.v.v.v.v.v.v.v.v.v.v.v.v.v.v.v.v.v.v.v.v.v.v.v.v.v.v.v.v."
};
