/* XPM */
static char * TSplaneRed_xpm[] = {
"32 32 29 1",
" 	c None",
".	c #C1C1C1",
"+	c #C0AFAF",
"@	c #C51A1E",
"#	c #C70A0A",
"$	c #C43B3B",
"%	c #C35C5E",
"&	c #C19E9F",
"*	c #C18E8F",
"=	c #C26D6F",
"-	c #C62B2B",
";	c #C44D4D",
">	c #B4B4B4",
",	c #727272",
"'	c #794A4C",
")	c #9F2A2A",
"!	c #BA1515",
"~	c #848484",
"{	c #6C6C6C",
"]	c #606060",
"^	c #863F3F",
"/	c #9C9C9C",
"(	c #6C5555",
"_	c #A8A8A8",
":	c #787878",
"<	c #909090",
"[	c #923537",
"}	c #AC1F1F",
"|	c #957474",
"................................",
"................................",
"................................",
"................................",
"................................",
"................................",
"................................",
"................................",
".............+..................",
"...........+@#$%&+..............",
"..........*#######$=++..........",
".........*###########@$=*+......",
"........*################-$%*...",
".......=####################;...",
"......;####################-....",
".....;#####################=....",
"....@#####################@.....",
"...$######################&.....",
"..>,')!##################;......",
"..~{]]]^!!###############&......",
"...>/{{]](^!!###########%.......",
"......_~:]]](')!########+.......",
".........><:]]]([)!####=........",
"............_<{]]]'^}!-.........",
".............../:{]]]|&.........",
".................>/~:...........",
"................................",
"................................",
"................................",
"................................",
"................................",
"................................"};
