/* XPM */
static char * TSsphereRed_xpm[] = {
"32 32 187 2",
"  	c None",
". 	c #C1C1C1",
"+ 	c #B79E9F",
"@ 	c #B05B5D",
"# 	c #BB5C5C",
"$ 	c #BE4D4D",
"% 	c #C34C4C",
"& 	c #C65D5F",
"* 	c #C27D7D",
"= 	c #C29FA0",
"- 	c #B59E9F",
"; 	c #B20909",
"> 	c #C70A0A",
", 	c #D10A0A",
"' 	c #D80B0B",
") 	c #DE0B10",
"! 	c #E40B10",
"~ 	c #E20B0B",
"{ 	c #DC0B10",
"] 	c #D33C40",
"^ 	c #A76C6E",
"/ 	c #A30808",
"( 	c #B6090D",
"_ 	c #C70A0E",
": 	c #D50A0A",
"< 	c #DE0B0B",
"[ 	c #E40B0B",
"} 	c #EB0C0C",
"| 	c #EF0C0C",
"1 	c #F10C11",
"2 	c #EF0C11",
"3 	c #EB0C11",
"4 	c #E00B0B",
"5 	c #CA6D6D",
"6 	c #C0AFAF",
"7 	c #8B3838",
"8 	c #9D0808",
"9 	c #B40909",
"0 	c #C30A0E",
"a 	c #CF0A0F",
"b 	c #DA0B10",
"c 	c #ED0C0C",
"d 	c #E80B11",
"e 	c #CE4D50",
"f 	c #A07B7C",
"g 	c #900707",
"h 	c #AD0808",
"i 	c #BE0909",
"j 	c #C90A0A",
"k 	c #D60B0F",
"l 	c #E80B0B",
"m 	c #F20D13",
"n 	c #F1101A",
"o 	c #F20D18",
"p 	c #CB7E80",
"q 	c #770606",
"r 	c #9B0808",
"s 	c #C10909",
"t 	c #CD0A0A",
"u 	c #E90C0C",
"v 	c #F00D12",
"w 	c #F11217",
"x 	c #F21929",
"y 	c #F22336",
"z 	c #F21B2A",
"A 	c #F11222",
"B 	c #C58E8F",
"C 	c #966B6B",
"D 	c #880707",
"E 	c #9F0808",
"F 	c #B00909",
"G 	c #C00909",
"H 	c #DA0B0B",
"I 	c #F11015",
"J 	c #F21D2C",
"K 	c #F43B5E",
"L 	c #F55687",
"M 	c #F44975",
"N 	c #F2273F",
"O 	c #640505",
"P 	c #B4090D",
"Q 	c #C1090E",
"R 	c #CF0A0A",
"S 	c #F01318",
"T 	c #F22130",
"U 	c #F55280",
"V 	c #F778AE",
"W 	c #F66DA4",
"X 	c #9E8D8D",
"Y 	c #6E0505",
"Z 	c #8C0707",
"` 	c #E60B0B",
" .	c #ED0E14",
"..	c #F4456A",
"+.	c #F6699E",
"@.	c #F66196",
"#.	c #F21727",
"$.	c #680505",
"%.	c #AE0909",
"&.	c #DC0B0B",
"*.	c #EF1419",
"=.	c #F33650",
"-.	c #F2273A",
";.	c #F11620",
">.	c #82595A",
",.	c #830609",
"'.	c #980707",
").	c #AB080C",
"!.	c #B80909",
"~.	c #C30A0A",
"{.	c #E80D0D",
"].	c #F21B25",
"^.	c #F10C0C",
"/.	c #620505",
"(.	c #7D0609",
"_.	c #940707",
":.	c #A10808",
"<.	c #E60B10",
"[.	c #EA0D0D",
"}.	c #D30A0A",
"|.	c #683F3F",
"1.	c #5F0404",
"2.	c #750606",
"3.	c #AB0808",
"4.	c #E20B10",
"5.	c #B85D5D",
"6.	c #BCAFAF",
"7.	c #606060",
"8.	c #5B4849",
"9.	c #570406",
"0.	c #6A0507",
"a.	c #810606",
"b.	c #92070A",
"c.	c #BA0909",
"d.	c #D80B10",
"e.	c #AC5B5B",
"f.	c #5D5454",
"g.	c #560F0F",
"h.	c #600404",
"i.	c #8A070A",
"j.	c #9A0707",
"k.	c #A70808",
"l.	c #C50A0A",
"m.	c #CB0A0A",
"n.	c #CB0A0F",
"o.	c #A90808",
"p.	c #572626",
"q.	c #590404",
"r.	c #680507",
"s.	c #7B0606",
"t.	c #9A070B",
"u.	c #A50808",
"v.	c #BC0909",
"w.	c #A24B4B",
"x.	c #5D5455",
"y.	c #571010",
"z.	c #5B0404",
"A.	c #7D0606",
"B.	c #8A0707",
"C.	c #BA090D",
"D.	c #94070A",
"E.	c #570404",
"F.	c #660505",
"G.	c #790606",
"H.	c #870606",
"I.	c #A7080C",
"J.	c #8E0707",
"K.	c #A16C6C",
"L.	c #909090",
"M.	c #5C3D3D",
"N.	c #640507",
"O.	c #740508",
"P.	c #830606",
"Q.	c #8C4949",
"R.	c #571011",
"S.	c #5D0404",
"T.	c #700505",
"U.	c #790608",
"V.	c #720505",
"W.	c #592626",
"X.	c #804949",
"Y.	c #AB9E9E",
"Z.	c #593233",
"`.	c #552626",
" +	c #573233",
".+	c #604747",
"++	c #978C8C",
". . . . . . . . . . . . . . . . . . . . . . . . . . . . . . . . ",
". . . . . . . . . . . . . . . . . . . . . . . . . . . . . . . . ",
". . . . . . . . . . . . . . . . . . . . . . . . . . . . . . . . ",
". . . . . . . . . . . . . . . . . . . . . . . . . . . . . . . . ",
". . . . . . . . . . . . . . . . . . . . . . . . . . . . . . . . ",
". . . . . . . . . . . . + @ # $ % & * = . . . . . . . . . . . . ",
". . . . . . . . . . - - ; > , ' ) ! ~ { ] = . . . . . . . . . . ",
". . . . . . . . . ^ / ( _ : < [ } | 1 2 3 4 5 6 . . . . . . . . ",
". . . . . . . . 7 8 9 0 a b [ c 1 1 1 1 1 2 d e 6 . . . . . . . ",
". . . . . . . f g h i j k ~ l 2 1 m n o 1 1 1 l p . . . . . . . ",
". . . . . . . q r ; s t ' [ u v w x y z A o 1 2 ~ B . . . . . . ",
". . . . . . C D E F G a H [ u I J K L M N A 1 1 } e . . . . . . ",
". . . . . . O D E P Q R k ~ u S T U V W K z 1 1 c ' 6 . . . . . ",
". . . . . X Y Z E F G t : ) `  .J ..+.@...#.m 1 } 4 * . . . . . ",
". . . . . . $.D E %.i _ , &.~ l *.T =.=.-.;.1 1 u 4 % . . . . . ",
". . . . . >.$.,.'.).!.~.t k < [ {.S ].].w I ^.c ! H $ . . . . . ",
". . . . . >./.(._.:.F i > a ' ) [ <.[.c 2 c 3 d 4 }.$ . . . . . ",
". . . . . |.1.2.Z r 3.!.G j , ' &.4 4.<.l <.4.) ' > 5.. . . . . ",
". . . 6.7.8.9.0.a.b.:.h c.s > a : d.b &.< &.&.k t i e.. . . . . ",
". . 6.7.7.f.g.h.2.i.j.k.%.!.G l.m., }.: k }.}.n.G o.6.. . . . . ",
". . 7.7.7.7.p.q.r.s.Z t.u.%.( i s ~.> m.m.j 0 v.%.w.. . . . . . ",
". 6.7.7.7.7.x.y.z.$.A.B.'.E o.%.; c.v.C.c.!.; 3.D.- . . . . . . ",
". 6.7.7.7.7.7.x.E.z.F.G.H.g '.:.I.k.).).h k.8 J.K.. . . . . . . ",
". . L.7.7.7.7.7.M.9.z.N.O.A.D g b.j.'.r '.g P.Q.. . . . . . . . ",
". . 6.7.7.7.7.7.7.x.R.z.S.F.T.s.a.P.,.,.U.V.f . . . . . . . . . ",
". . . 6.7.7.7.7.7.7.7.W.y.9.z.S.1.h.h.z.X.Y.. . . . . . . . . . ",
". . . . . Y.7.7.7.7.7.7.7.f.Z.`. + +.+++. . . . . . . . . . . . ",
". . . . . . . 6.L.7.7.7.7.7.7.7.L.++6.. . . . . . . . . . . . . ",
". . . . . . . . . . . . . 6.6.. . . . . . . . . . . . . . . . . ",
". . . . . . . . . . . . . . . . . . . . . . . . . . . . . . . . ",
". . . . . . . . . . . . . . . . . . . . . . . . . . . . . . . . ",
". . . . . . . . . . . . . . . . . . . . . . . . . . . . . . . . "};
