/* XPM */
static char * tsSplit_xpm[] = {
"32 32 296 2",
"  	c #C1C1BF",
". 	c #C0C2C1",
"+ 	c #C2C1C6",
"@ 	c #C0C0BE",
"# 	c #C2C2C0",
"$ 	c #C1C1C3",
"% 	c #C2C2C2",
"& 	c #C1C1C1",
"* 	c #C2C0C1",
"= 	c #C0C2BF",
"- 	c #C3C1C4",
"; 	c #C2C1BF",
"> 	c #D17BD2",
", 	c #CF83CE",
"' 	c #D37FD4",
") 	c #D088D1",
"! 	c #D382D1",
"~ 	c #D07DCF",
"{ 	c #D084CE",
"] 	c #D182D1",
"^ 	c #CD7ED1",
"/ 	c #D485D4",
"( 	c #D182D3",
"_ 	c #D486D2",
": 	c #D384D3",
"< 	c #D47ED5",
"[ 	c #D67DD7",
"} 	c #C0C1C3",
"| 	c #C0C0C0",
"1 	c #C1C2C4",
"2 	c #C2C0C3",
"3 	c #C1C0C5",
"4 	c #D27AD0",
"5 	c #DF999B",
"6 	c #E09599",
"7 	c #DD969A",
"8 	c #E1969B",
"9 	c #DE989A",
"0 	c #DE969A",
"a 	c #DF979B",
"b 	c #D27DD2",
"c 	c #DF9798",
"d 	c #DF979A",
"e 	c #DE9699",
"f 	c #E0989C",
"g 	c #D685D2",
"h 	c #D17DD2",
"i 	c #DE999C",
"j 	c #DF969D",
"k 	c #DD989B",
"l 	c #D07AD1",
"m 	c #E3989D",
"n 	c #D381D3",
"o 	c #C1C0BE",
"p 	c #D27DCE",
"q 	c #DE979B",
"r 	c #E2969A",
"s 	c #D481CF",
"t 	c #BDC1C4",
"u 	c #E0989B",
"v 	c #CF7BD0",
"w 	c #DF989C",
"x 	c #DE979F",
"y 	c #D483D2",
"z 	c #BEC2C1",
"A 	c #C2C2C4",
"B 	c #D07CD1",
"C 	c #E1969A",
"D 	c #E3969E",
"E 	c #D07BD0",
"F 	c #C1C3C2",
"G 	c #D27DD0",
"H 	c #DD989D",
"I 	c #E0979E",
"J 	c #E09899",
"K 	c #D481D1",
"L 	c #C3C1C2",
"M 	c #D37BD2",
"N 	c #DE979D",
"O 	c #D283D2",
"P 	c #C1BFC0",
"Q 	c #C1C3C0",
"R 	c #D07AD3",
"S 	c #D17CD1",
"T 	c #CF7DCF",
"U 	c #D17BD4",
"V 	c #D17CCF",
"W 	c #D179D0",
"X 	c #D383CC",
"Y 	c #C0C2BD",
"Z 	c #C0C1BC",
"` 	c #DF969F",
" .	c #DD9799",
"..	c #D480CB",
"+.	c #BFC3C4",
"@.	c #D07CD2",
"#.	c #E0959C",
"$.	c #E097A0",
"%.	c #DE9898",
"&.	c #C1BFC2",
"*.	c #C2C1C7",
"=.	c #C0C0C2",
"-.	c #E1969D",
";.	c #E2979B",
">.	c #D379D0",
",.	c #B92BB3",
"'.	c #B62DAF",
").	c #B72EB0",
"!.	c #B62DAE",
"~.	c #B62DB1",
"{.	c #BA2FB0",
"].	c #BA2DB0",
"^.	c #B82CB1",
"/.	c #CF7BD1",
"(.	c #DC9897",
"_.	c #E2979C",
":.	c #B92DB0",
"<.	c #F3EA4F",
"[.	c #F4E94F",
"}.	c #F6E94F",
"|.	c #F6E851",
"1.	c #F6E74E",
"2.	c #F4EA4D",
"3.	c #DE959C",
"4.	c #E2959B",
"5.	c #BA2CB2",
"6.	c #B92DB2",
"7.	c #B92BB1",
"8.	c #B72DB4",
"9.	c #B72EB2",
"0.	c #F7E851",
"a.	c #F5EA50",
"b.	c #B72EAF",
"c.	c #E11F27",
"d.	c #E01F24",
"e.	c #E01E27",
"f.	c #E12025",
"g.	c #E21F25",
"h.	c #E11E26",
"i.	c #F7E84F",
"j.	c #F6E94D",
"k.	c #F6E853",
"l.	c #DC9899",
"m.	c #DE2022",
"n.	c #E11E24",
"o.	c #DE1F26",
"p.	c #DE1F27",
"q.	c #F4E951",
"r.	c #F3EA4D",
"s.	c #D188D1",
"t.	c #D380D2",
"u.	c #D281D0",
"v.	c #D17FD1",
"w.	c #D480D6",
"x.	c #D07DCD",
"y.	c #D280D4",
"z.	c #CF7BD3",
"A.	c #E12023",
"B.	c #E21D26",
"C.	c #E01E26",
"D.	c #E21F27",
"E.	c #F7E84D",
"F.	c #C0C1C5",
"G.	c #F3E84E",
"H.	c #F7EA50",
"I.	c #B92EAF",
"J.	c #BC4848",
"K.	c #D81C1D",
"L.	c #CB6266",
"M.	c #C4C0C1",
"N.	c #C2C0C5",
"O.	c #DE1F24",
"P.	c #E01F22",
"Q.	c #F5E84E",
"R.	c #F5E750",
"S.	c #F4EB50",
"T.	c #F3E850",
"U.	c #F8E950",
"V.	c #B52DB1",
"W.	c #560605",
"X.	c #D30000",
"Y.	c #DB0100",
"Z.	c #CC5557",
"`.	c #C1B5B7",
" +	c #E11F28",
".+	c #DF1D26",
"++	c #B92DB4",
"@+	c #BA2EB3",
"#+	c #B62CB3",
"$+	c #B92CAE",
"%+	c #717775",
"&+	c #3B0602",
"*+	c #BC0000",
"=+	c #DE0000",
"-+	c #CA3B37",
";+	c #C3ABA9",
">+	c #BFC8CD",
",+	c #DD2024",
"'+	c #E31E27",
")+	c #B92CAF",
"!+	c #BFC1BC",
"~+	c #C2C2BA",
"{+	c #5E756F",
"]+	c #320C0B",
"^+	c #BD0001",
"/+	c #D12523",
"(+	c #CA8E90",
"_+	c #CBD1CF",
":+	c #C4ACAC",
"<+	c #C1BDBE",
"[+	c #C0BFC4",
"}+	c #BA2EB1",
"|+	c #B82CAF",
"1+	c #B52EAF",
"2+	c #D1D0CE",
"3+	c #788784",
"4+	c #33090A",
"5+	c #B30100",
"6+	c #E20100",
"7+	c #E11A1D",
"8+	c #D46164",
"9+	c #E03032",
"0+	c #CC9291",
"a+	c #DE2127",
"b+	c #DF2027",
"c+	c #DF2028",
"d+	c #E21D24",
"e+	c #C3BFC0",
"f+	c #CACBCD",
"g+	c #9A8486",
"h+	c #430D0B",
"i+	c #C60808",
"j+	c #EA0B0E",
"k+	c #EA0200",
"l+	c #E90003",
"m+	c #D7595C",
"n+	c #BCBCBE",
"o+	c #DD2026",
"p+	c #DF2025",
"q+	c #DF1E23",
"r+	c #E11D27",
"s+	c #B3A3A3",
"t+	c #B8272A",
"u+	c #E6090E",
"v+	c #E50D12",
"w+	c #EC0A0E",
"x+	c #EA0A0B",
"y+	c #E2302E",
"z+	c #BABCBB",
"A+	c #E02126",
"B+	c #E02222",
"C+	c #E32028",
"D+	c #DF1E21",
"E+	c #C3C2C0",
"F+	c #C8CCCB",
"G+	c #93696D",
"H+	c #8C0000",
"I+	c #A80000",
"J+	c #BA0200",
"K+	c #D70609",
"L+	c #E5080F",
"M+	c #EB090A",
"N+	c #CA9291",
"O+	c #BEC2C3",
"P+	c #E01D25",
"Q+	c #DE2125",
"R+	c #B8B3B0",
"S+	c #7F5859",
"T+	c #713D3F",
"U+	c #631513",
"V+	c #6A0606",
"W+	c #8A0000",
"X+	c #AC0001",
"Y+	c #BD7C7A",
"Z+	c #BFC1C0",
"`+	c #E21F23",
" @	c #AB9999",
".@	c #A08385",
"+@	c #7E5A5A",
"@@	c #6C2F2E",
"#@	c #916F6E",
"$@	c #DF1D25",
"%@	c #C4C0BF",
"&@	c #C9CDCC",
"*@	c #C9D1D3",
"=@	c #C3C9C9",
"-@	c #B7B3B2",
";@	c #AFA3A3",
">@	c #DF2123",
",@	c #E22028",
"'@	c #BFC1BE",
")@	c #C4BFC3",
"!@	c #BA2DAF",
"~@	c #B82CB3",
"{@	c #B62FB0",
"]@	c #B52DB3",
"  . + @ # $ $ % & $   &   $ & &     * & * = - ; & & & & & & & & ",
"& > , ' ) ! ~ { ] ^ / ( ( _ : _ < [ } | 1 & . 2 & & & & & & & & ",
"3 4 5 6 7 8 9 0 a b c d a a e f 9 g   & & & } . & & & & & & & & ",
"* h e i j 0 8 k j l d a a d j j m n 2 # 2 o * $ & & & & & & & & ",
"  p k q r 5 0 d c > a a 0 d f d 7 s t   * & & @ & & & & & & & & ",
"} > u k j a 9 q 9 v q 9 q w 9 x 9 y 2 & & z & A & & & & & & & & ",
"z B C 8 a 7 D 0 a l a a a a a 0 u E F | & . * | & & & & & & & & ",
"* G q 9 H 9 9 9 a l d d I 0 J j 0 K   L * = & . & & & & & & & & ",
"& ~ a a d a 0 a a M j N 8 u 0 a j O     P $ . 2 $ & | * Q $ * % ",
"$ h l E > R S l M T B v > U V W V X * $ * }   * Y | A   P Z $ # ",
"  B c d j a j d H V a `  .q 9 q 7 ..P . #   & & 2 @ * * +.} - Z ",
"$ @.a e I d j d a S k d w #.$.%.q R z & &.* *.; &.F =.$ & $ % = ",
"@ ' e u a e e f -.E ;. .c f q d q >.A &.Y # ,.'.).!.~.{.~.].^.& ",
"$ v a d 0 d ` a a /.(._.q k e f q b . = |   :.<.[.}.|.1.2.}.).$ ",
"=.@.a 3.f 0 I 9 a S a 4.:.5.6.:.6.7.8.^.9.& 5.}.[.2.0.a.[.}.b.=.",
"  B d a e u a q q l 5 a '.c.d.e.d.f.g.h.:.  ^.}.[.i.[.|.j.k.:.& ",
"& > 7 f u %.j 8 C @.l.a ~.m.n.o.c.f.g.p.~.o 5.2.}.[.2.q.|.r.~.& ",
"  s.t.u.v.w.x.B y.l 4 z.].A.B.C.h.c.n.D.6.A ~.q.[.}.[.}.E.[.:.P ",
"$ * & F F.2 $ . 3 P = . ).C.f.c.A.o.c.n.).. :.q.[.}.j.G.H.}.I.+ ",
"J.K.L.& F | * $ % | M.N.6.O.O.n.h.P.O.g.b.2 ^.j.Q.a.R.S.T.U.V.& ",
"W.X.Y.Z.`.  . ;   % = * ~.o.c.h.D.C. +.+++* :.^.@+^.#+I.$+6.).$ ",
"%+&+*+=+-+;+>+. & | % * I.P.d.d.P.,+f.'+)+.   } !+L *   $ M.& . ",
"~+{+]+^+=+/+(+_+:+<+[+# 6.5.^.^.9.}+^.|+:.:.~.7.:.~.).6.1+&   1 ",
"$ 2+3+4+5+6+7+8+9+0+; $ ).a+d.d.C.h.f.b+].C.f.c.C.c+d+O.:.& # e+",
"; . f+g+h+i+j+k+l+m+n+$ )+o+n.p+D.d.b+B.9.e.C.f.P.q+c.r+:.$ & * ",
"* & } s+t+u+v+w+x+y+z+& |+C.h.d.p.A+h.h.'.B+n.p+e.C+D+a+:.E+* | ",
"F $ F+G+H+I+J+K+L+M+N+O+V.h.A.p.A.h.d.P.:.P+c.D.f.O.c.Q+~.2 . * ",
"@ . L R+S+T+U+V+W+X+Y+Z+:.e.`+D+O.h.d.c.6.d.g.C.c.`+C.n.}+  N.  ",
"}   } * _+.  @.@+@@@#@3 5.n.O.c.h.p+r+$@6.`+o.c.C.d.o.p.)+$ $   ",
"$ %@| F Z+} &@*@=@-@;@Q ~.>@C.d.d.d.,@c.^.d.m.h.d.g.d.o.].  = $ ",
"Z+& * '@* P = } * )@} @ !@~@).9.].6.'.~@:.8.++{@:.]@)+@+7.  * & ",
"$ | A   * F $ ; . } $ % A . & M.. $ ; & ; & $   &.. ; $ A . F 2 "};
