/* XPM */
static char *TSconvertToPolyMesh[] = {
/* columns rows colors chars-per-pixel */
"32 32 256 2",
"   c #01043b",
".  c #1f323f",
"X  c #2f2a31",
"o  c #262933",
"O  c #293b37",
"+  c #0a0d49",
"@  c #05094f",
"#  c #0a0b5b",
"$  c #021546",
"%  c #041b4a",
"&  c #001552",
"*  c #071059",
"=  c #081459",
"-  c #061552",
";  c #171a4d",
":  c #161856",
">  c #0c0c65",
",  c #0d0e6b",
"<  c #0a1463",
"1  c #0c126d",
"2  c #0a186a",
"3  c #100c6f",
"4  c #10106f",
"5  c #131976",
"6  c #02244f",
"7  c #042251",
"8  c #022b5c",
"9  c #062659",
"0  c #00335d",
"q  c #00395e",
"w  c #0d3656",
"e  c #1e3543",
"r  c #1e3d43",
"t  c #163a50",
"y  c #1a3e56",
"u  c #062264",
"i  c #042c6b",
"p  c #042960",
"a  c #082575",
"s  c #09227a",
"d  c #003a60",
"f  c #033a68",
"g  c #093b61",
"h  c #073677",
"j  c #15247a",
"k  c #231868",
"l  c #323459",
"z  c #2d2a65",
"x  c #3f3f63",
"c  c #2d442e",
"v  c #2d443d",
"b  c #3c4c35",
"n  c #1e424b",
"m  c #1e4753",
"M  c #004378",
"N  c #004d7f",
"B  c #1b4468",
"V  c #1a5879",
"C  c #3f4264",
"Z  c #523b37",
"A  c #7a0500",
"S  c #791619",
"D  c #79261e",
"F  c #702438",
"G  c #793226",
"H  c #792828",
"J  c #524e66",
"K  c #59596f",
"L  c #634f44",
"P  c #646573",
"I  c #716f7b",
"U  c #110a82",
"Y  c #0c2083",
"T  c #0b258b",
"R  c #0b2a8a",
"E  c #0a2e91",
"W  c #0a308f",
"Q  c #0e3c80",
"!  c #073b93",
"~  c #083494",
"^  c #0a3499",
"/  c #0b3897",
"(  c #093a9e",
")  c #063691",
"_  c #12208d",
"`  c #162c91",
"'  c #123a90",
"]  c #0d35a3",
"[  c #1f2aa6",
"{  c #1d33a3",
"}  c #1538b1",
"|  c #222488",
" . c #202090",
".. c #262699",
"X. c #282baa",
"o. c #2130a7",
"O. c #2238b0",
"+. c #004c83",
"@. c #02478b",
"#. c #0d4d99",
"$. c #005185",
"%. c #00548a",
"&. c #0549a4",
"*. c #044baa",
"=. c #094cb9",
"-. c #074cb0",
";. c #015da3",
":. c #0256ab",
">. c #0454b9",
",. c #035db3",
"<. c #0950bd",
"1. c #055cbf",
"2. c #0f6288",
"3. c #0061a6",
"4. c #0064aa",
"5. c #076dae",
"6. c #0165b2",
"7. c #0068b4",
"8. c #006dbb",
"9. c #0165bc",
"0. c #0f70ae",
"q. c #0b78ae",
"w. c #0071bc",
"e. c #3f458d",
"r. c #214faa",
"t. c #2641b3",
"y. c #267389",
"u. c #3169b3",
"i. c #174ecb",
"p. c #1a55d0",
"a. c #0857c3",
"s. c #0363c8",
"d. c #0568c6",
"f. c #0567d4",
"g. c #0476d5",
"h. c #007ad4",
"j. c #0677e5",
"k. c #4c468d",
"l. c #4f5295",
"z. c #5a5c97",
"x. c #485fb1",
"c. c #5e6c80",
"v. c #626486",
"b. c #777781",
"n. c #7d7e8b",
"m. c #75758f",
"M. c #6c7cab",
"N. c #178bb6",
"B. c #0087ce",
"V. c #0f88c6",
"C. c #078ace",
"Z. c #1e89cd",
"A. c #0f87d4",
"S. c #0085e3",
"D. c #0087ee",
"F. c #008ae4",
"G. c #008ce8",
"H. c #0187f4",
"J. c #0092f2",
"K. c #0093f9",
"L. c #009cfe",
"P. c #01a4ff",
"I. c #258cce",
"U. c #2c93d4",
"Y. c #3d9fcc",
"T. c #35a2d4",
"R. c #3bb2f0",
"E. c #6e9dbb",
"W. c #7b81aa",
"Q. c #4598cc",
"!. c #559ecc",
"~. c #45a1cc",
"^. c #59a5cc",
"/. c #6ba7c3",
"(. c #79a5c2",
"). c #830400",
"_. c #800f0f",
"`. c #8f0300",
"'. c #840808",
"]. c #88140f",
"[. c #811916",
"{. c #970200",
"}. c #9f0300",
"|. c #900e07",
" X c #90120f",
".X c #901c17",
"XX c #87261c",
"oX c #94251e",
"OX c #982017",
"+X c #9a201a",
"@X c #842827",
"#X c #803535",
"$X c #a70200",
"%X c #af0300",
"&X c #a60f0f",
"*X c #b60400",
"=X c #b60903",
"-X c #be0000",
";X c #be0901",
":X c #bb2327",
">X c #a72926",
",X c #80403d",
"<X c #894949",
"1X c #934b47",
"2X c #906366",
"3X c #966c6c",
"4X c #aa5551",
"5X c #a26967",
"6X c #a67b7b",
"7X c #c60400",
"8X c #ce0000",
"9X c #ce0900",
"0X c #d50402",
"qX c #dc0a07",
"wX c #dd161b",
"eX c #e50e0e",
"rX c #e5130e",
"tX c #eb1010",
"yX c #e31821",
"uX c #f61b25",
"iX c #e62336",
"pX c #ee2b47",
"aX c #f62b43",
"sX c #f63349",
"dX c #f53b51",
"fX c #f65183",
"gX c #808f99",
"hX c #898998",
"jX c #998082",
"kX c #9a9a9a",
"lX c #8190ae",
"zX c #9899a7",
"xX c #9f9fb8",
"cX c #8eb2b9",
"vX c #9fa9b0",
"bX c #9eaeb9",
"nX c #96abb9",
"mX c #a19690",
"MX c #a98b88",
"NX c #a8a29f",
"BX c #b0a19f",
"VX c #a0a0a5",
"CX c #a9a9aa",
"ZX c #abacb3",
"AX c #a0a3b2",
"SX c #a7b1b8",
"DX c #aeb3b7",
"FX c #b0aaa7",
"GX c #b7b2ae",
"HX c #b4b4b5",
"JX c #b6b7b8",
"KX c #b7b8b8",
"LX c gray72",
"PX c #b8b6b6",
"IX c #8eadc1",
"UX c #85aac2",
/* pixels */
"LXLXLXLXLXDXDXSXbXbXLXPXPXLXLXLXLXLXLXLXLXLXLXLXLXLXLXLXLXLXLXLX",
"LXLXDXCXDXDXSXbXIX(./.bXLXLXLXLXLXLXLXLXLXLXLXLXLXLXLXLXLXLXLXLX",
"LXLXLXHXCXvXnXUX/.^.Q.U./.SXLXLXLXLXLXLXLXLXLXLXLXLXLXLXLXLXLXLX",
"LXLXLXLXCXzXgXE.^.~.U.I.R.U.IXLXLXLXLXLXLXLXLXLXLXLXLXLXLXLXLXLX",
"LXLXLXPXGXBX5XL b y.N.R.R.R.R.^.DXLXLXLXLXLXLXLXLXLXLXLXLXLXLXLX",
"LXLXLXFX6X4X>X&XD O V V.C.R.R.R.Z.IXLXLXLXLXLXLXLXLXLXLXLXLXLXLX",
"LXLXFX3XoX$X=X7X-X=Xv m q.R.R.R.R.R.~.DXLXLXLXLXLXLXLXLXLXLXLXLX",
"KXGX6XoX}.%X*X;X7X8X7XG n 2.R.R.R.R.R.A.(.LXLXLXcXF.LXLXLXLXLXLX",
"KXMX1X{.$X*X-X7X9X8X0X0X;Xc y 0.R.R.R.R.R.T.nXR.A.F.LXLXLXLXLXLX",
"LX1X X$X%X*X-X7X8XqXeXtXqX0X.Xn V R.R.R.R.R.R.R.R.F.LXJXLXLXLXLX",
"LX@X|.$X%X*X-X7X0XtXaXsXuXqX7X.Xe B.R.R.R.R.R.R.R.F.PXJXLXLXLXLX",
"LX].|.$X%X*X-X7X0XwXpXfXsXrXD . 0.R.R.R.R.R.R.R.R.F.ZXJXLXLXLXLX",
"LX).`.}.%X=X-X7X8X0XyXdXiXH . N.R.R.R.R.R.R.R.R.R.F.x.xXJXPXLXLX",
"LX_.).$X$X%X;X-X7X9X0X:Xe e e t t e . X X X X e e e a.5 zXJXLXLX",
"LX@X'.{.}.%X*X;X-X7X8XF @ , T ( >.d.! U ] K.f.=.o.o.Y *.lXJXJXLX",
"LX<X[.`.{.$X%X*X*X-X+Xm > i p 2 = # 3 X... .| _ 5 3 -.G.u.DXJXLX",
"LXjX#X).`.}.$X$X%X=XB $ 2 ,.w.4.3.+.= E 8.h.F.K.L.' ^ S.*.zXJXJX",
"LXFX3XS A `.{.}.$XoXB & s 6.8.8.8.4.s ] P.K.K.K.L.*.E g.S.M.HXJX",
"LXLXVX2XH A `.`.{.Z w # &.w.8.8.8.6.a =.L.K.K.K.L.9.T d.K.' DXJX",
"LXLXPXBX3X#XS A ).g 7 > :.w.8.8.8.6.2 =.L.K.K.K.K.h.E 1.G.>.AXLX",
"LXLXLXLXGXmX2X<X@XB 9 1 4.8.8.8.8.3.1 =.L.K.K.K.K.J.W ( S.s.W.LX",
"LXLXLXLXLXLXLXLXKXc.: ) 8.w.8.8.8.;., a.L.K.K.K.K.L.&.^ g.` zXLX",
"LXLXLXLXLXLXKXKXGXhX5 &.8.d.8.8.8.3.< a.L.K.K.K.K.L.d.T T z.LXLX",
"LXLXLXLXLXLXLXPXPXhXz s ! &.,.8.d.4.> d.L.K.K.L.K.D.d._ k.HXLXLX",
"LXLXLXLXLXLXLXLXLXDXK + = = Y ~ #.! 1 s.j.H.j.p.i.} ` | AXKXKXLX",
"LXLXLXLXLXLXLXLXLXLXzXl 7 8 8 = 2 < 1 O.o.] R j j h * m.KXLXLXLX",
"LXLXLXLXLXLXLXJXLXLXLXI ; 0 q 0 8 8 + j Q h f M +.f   zXLXKXLXLX",
"LXLXLXLXLXLXJXJXLXLXLXCXJ 7 q g q q $ i $.$.$.+.%.& hXHXJXKXKXLX",
"LXLXLXLXLXLXLXJXJXLXLXLXCXx 9 0 q q % i %.$.+.%.f P JXKXKXLXLXLX",
"LXLXLXLXLXLXKXKXLXLXLXLXPXVXC - & 8 7 u @.#.r.t.e.zXJXLXLXLXLXLX",
"LXLXLXLXLXLXKXLXLXLXLXLXJXCXCXCXP ;   , X.l.v.n.zXJXLXLXLXLXLXLX",
"LXLXLXLXLXLXLXLXLXLXLXLXLXLXLXJXLXkXb.hXZXDXJXJXJXPXLXLXLXLXLXLX"
};
