/* XPM */
static char * TSconvertToNURBS_xpm[] = {
"32 32 298 2",
"  	c None",
". 	c #B8B8B8",
"+ 	c #AEB3B7",
"@ 	c #A7B1B8",
"# 	c #9EAEB9",
"$ 	c #B0B0B0",
"% 	c #8EADC1",
"& 	c #75A4C2",
"* 	c #6EA2C3",
"= 	c #A8A8A8",
"- 	c #9FA9B0",
"; 	c #96ABB9",
"> 	c #85AAC2",
", 	c #6EACC3",
"' 	c #5DA1CC",
") 	c #4598CC",
"! 	c #2E94D5",
"~ 	c #66A8C3",
"{ 	c #909AA1",
"] 	c #808F99",
"^ 	c #6E9DBB",
"/ 	c #559ECC",
"( 	c #3D9FCC",
"_ 	c #258CCE",
": 	c #3BB2F0",
"< 	c #2891D3",
"[ 	c #B7B3AE",
"} 	c #B0A19F",
"| 	c #A26967",
"1 	c #634F44",
"2 	c #3C4C35",
"3 	c #267389",
"4 	c #178BB6",
"5 	c #55A9CC",
"6 	c #B0AAA7",
"7 	c #AA7F7F",
"8 	c #AA5551",
"9 	c #A72926",
"0 	c #A60F0F",
"a 	c #79261E",
"b 	c #2D3C33",
"c 	c #1E5E79",
"d 	c #0F88C6",
"e 	c #078ACE",
"f 	c #1E89CD",
"g 	c #97241E",
"h 	c #A70700",
"i 	c #B60800",
"j 	c #BE0800",
"k 	c #BE0000",
"l 	c #B60B07",
"m 	c #2D443D",
"n 	c #1E4753",
"o 	c #0775AE",
"p 	c #45A1CC",
"q 	c #A27777",
"r 	c #91261E",
"s 	c #9F0300",
"t 	c #AF0400",
"u 	c #B60400",
"v 	c #C60400",
"w 	c #CE0000",
"x 	c #793226",
"y 	c #1E424B",
"z 	c #0F6288",
"A 	c #178BD4",
"B 	c #7DA7C2",
"C 	c #8EB2B9",
"D 	c #008BE4",
"E 	c #A98B88",
"F 	c #974844",
"G 	c #970700",
"H 	c #A70000",
"I 	c #CE0900",
"J 	c #D60500",
"K 	c #BE0C07",
"L 	c #2D442E",
"M 	c #1E3E53",
"N 	c #076DAE",
"O 	c #35A2D4",
"P 	c #0784D4",
"Q 	c #904F4B",
"R 	c #90120F",
"S 	c #DC0C07",
"T 	c #E50E0E",
"U 	c #EB1010",
"V 	c #DC0707",
"W 	c #D60000",
"X 	c #982017",
"Y 	c #165279",
"Z 	c #892628",
"` 	c #900E07",
" .	c #F62B43",
"..	c #F63345",
"+.	c #F61B25",
"@.	c #901C17",
"#.	c #1E3D43",
"$.	c #0087CE",
"%.	c #B6AFB1",
"&.	c #88140F",
"*.	c #8F0300",
"=.	c #DD161B",
"-.	c #EE2B47",
";.	c #F65183",
">.	c #F6334E",
",.	c #E5130E",
"'.	c #81251E",
").	c #0F70AE",
"!.	c #92A1AB",
"~.	c #810300",
"{.	c #D40707",
"].	c #E31821",
"^.	c #F63B51",
"/.	c #E62336",
"(.	c #792A26",
"_.	c #253B3C",
":.	c #0F7CAE",
"<.	c #46839F",
"[.	c #88A0AD",
"}.	c #AEAFB5",
"|.	c #800F0F",
"1.	c #870600",
"2.	c #AF0000",
"3.	c #DD1B16",
"4.	c #1E3543",
"5.	c #173A50",
"6.	c #163A51",
"7.	c #1F323F",
"8.	c #2F2A31",
"9.	c #262933",
"0.	c #0879B3",
"a.	c #2D76AE",
"b.	c #81A2AE",
"c.	c #B1B2B1",
"d.	c #812826",
"e.	c #880A07",
"f.	c #970000",
"g.	c #BE130F",
"h.	c #11536C",
"i.	c #085075",
"j.	c #075480",
"k.	c #06507B",
"l.	c #064F79",
"m.	c #075D94",
"n.	c #076098",
"o.	c #0975BA",
"p.	c #0A7AC1",
"q.	c #0982C0",
"r.	c #0983C2",
"s.	c #4285A7",
"t.	c #91A6AC",
"u.	c #894C4E",
"v.	c #811916",
"w.	c #9F1D14",
"x.	c #195F76",
"y.	c #064B77",
"z.	c #064E77",
"A.	c #065481",
"B.	c #07639E",
"C.	c #0763A4",
"D.	c #0977B0",
"E.	c #0A78B7",
"F.	c #0976C2",
"G.	c #097FCA",
"H.	c #1071A9",
"I.	c #4983A8",
"J.	c #A0A8B5",
"K.	c #998082",
"L.	c #80403D",
"M.	c #0A4F73",
"N.	c #065887",
"O.	c #0868A5",
"P.	c #086CAB",
"Q.	c #086DB3",
"R.	c #1286CF",
"S.	c #128FCF",
"T.	c #1081BB",
"U.	c #106FAB",
"V.	c #85A3AE",
"W.	c #926969",
"X.	c #791619",
"Y.	c #8D2416",
"Z.	c #06527D",
"`.	c #06608F",
" +	c #07609E",
".+	c #1B9BDE",
"++	c #25ABE9",
"@+	c #1FA5EA",
"#+	c #0978B8",
"$+	c #1076AB",
"%+	c #6292AD",
"&+	c #A8A29F",
"*+	c #906366",
"=+	c #79262A",
"-+	c #7A0500",
";+	c #5B3F2D",
">+	c #064D7B",
",+	c #075E96",
"'+	c #0B78B6",
")+	c #1A95D5",
"!+	c #35BDEA",
"~+	c #58DDED",
"{+	c #51DCEC",
"]+	c #35BEEA",
"^+	c #1997D8",
"/+	c #427DA7",
"(+	c #9A6F6F",
"_+	c #803535",
":+	c #80070A",
"<+	c #0B4F6E",
"[+	c #064C79",
"}+	c #096092",
"|+	c #0A77AF",
"1+	c #1892D1",
"2+	c #2DADE2",
"3+	c #4BD4E4",
"4+	c #60EDEC",
"5+	c #43C2EC",
"6+	c #0988CA",
"7+	c #166DA5",
"8+	c #B7B1AE",
"9+	c #A19690",
"0+	c #894744",
"a+	c #0D4E70",
"b+	c #07507E",
"c+	c #065F8D",
"d+	c #1286C9",
"e+	c #49D0EC",
"f+	c #198ED8",
"g+	c #076A9E",
"h+	c #1B5A7E",
"i+	c #084C77",
"j+	c #054D7A",
"k+	c #06578F",
"l+	c #209FE1",
"m+	c #869AA7",
"n+	c #115176",
"o+	c #0B577E",
"p+	c #085E95",
"q+	c #086CA5",
"r+	c #246A97",
"s+	c #93A3AC",
"t+	c #1E5879",
"u+	c #145479",
"v+	c #065587",
"w+	c #0F67A4",
"x+	c #5082A1",
"y+	c #647B8D",
"z+	c #225473",
"A+	c #06507F",
"B+	c #0F679E",
"C+	c #6A9BAD",
"D+	c #91989E",
"E+	c #4E7385",
"F+	c #0D4C78",
"G+	c #096EA2",
"H+	c #096EA8",
"I+	c #0D6FA2",
"J+	c #126E99",
"K+	c #0A6EA7",
"L+	c #2A6E91",
"M+	c #8FA0A6",
"N+	c #80919F",
"O+	c #385E7B",
"P+	c #6A8A97",
"Q+	c #A7AEAE",
"R+	c #9FA6A6",
"S+	c #6B828E",
"T+	c #295C7C",
"U+	c #054872",
"V+	c #0E5B87",
"W+	c #57829A",
"X+	c #A0A7AD",
"Y+	c #AEAEB5",
"Z+	c #AEB5B4",
"`+	c #989FA5",
" @	c #6C828D",
".@	c #315D74",
"+@	c #075684",
"@@	c #075A8E",
"#@	c #1C5C89",
"$@	c #56798B",
"%@	c #909FA5",
"&@	c #A7A7AE",
"*@	c #819096",
"=@	c #476B7C",
"-@	c #134D72",
";@	c #0D5380",
">@	c #1B5582",
",@	c #3A6A89",
"'@	c #72899D",
")@	c #9F9FA6",
"!@	c #738490",
"~@	c #315D7C",
"{@	c #1B557A",
"]@	c #0D4D72",
"^@	c #406B83",
"/@	c #5E7A8B",
". . . . . + + @ # # . . . . . . . . . . . . . . . . . . . . . . ",
". . + $ + + @ # % & * # . . . . . . . . . . . . . . . . . . . . ",
". . . $ = - ; > , ' ) ! ~ + . . . . . . . . . . . . . . . . . . ",
". . . . $ { ] ^ / ( ! _ : < % . . . . . . . . . . . . . . . . . ",
". . . . [ } | 1 2 3 4 : : : : 5 + . . . . . . . . . . . . . . . ",
". . . 6 7 8 9 0 a b c d e : : : f % . . . . . . . . . . . . . . ",
". . 6 | g h i j k l m n o : : : : : p @ . . . . . . . . . . . . ",
". $ q r s t u k v w v x y z : : : : : A B . . . C D . . . . . . ",
". E F G H u k v I w J J K L M N : : : : : O ; : P D . . . . . . ",
". Q R h t u k v w S T U V W X y Y : : : : : : : : D . . . . . . ",
". Z ` h t u k v J U  ...+.S w @.#.$.: : : : : : : D %.. . . . . ",
". &.*.h t u k v J =.-.;.>.,.'.#.).: : : : : : : : D !.. . . . . ",
". ~.*.s t u k v w {.].^./.(._.:.: : : : : : : : : D <.[.}.. . . ",
". |.1.s H 2.j k v I {.3.4.4.4.5.6.4.7.8.8.8.9.4.4.4.0.a.b.c.. . ",
". d.e.f.s t u j k v w g.h.i.j.k.l.m.n.o.p.q.r.r.r.r.o.0.s.t.}.. ",
". u.v.*.f.H t u u k w.x.y.z.A.B.C.D.E.F.r.r.G.G.G.r.r.o.H.I.J.. ",
". K.L.~.*.s H H t u M.y.z.N.O.P.Q.o.o.r.G.R.S.S.R.T.q.o.0.U.V.. ",
". 6 W.X.~.*.f.s H Y.z.Z.`. +O.P.Q.o.o.G.R..+++@+.+R.G.r.#+$+%+. ",
". . &+*+=+-+1.*.G ;+z.>+,+ +O.P.0.'+o.G.)+!+~+{+]+^+G.r.o.$+/+. ",
". . . &+(+_+X.:+~.<+z.[+}+,+O.P.|+o.o.r.1+2+3+4+5+.+6+r.o.P.7+. ",
". . . . 8+9+*+0+d.a+y.b+c+,+O.P.Q.0.o.r.r.d+.+e+]+f+G.F.o.P.g+. ",
". . . . . . . . . h+i+j+k+,+g+P.P.Q.o.F.r.d+.+l+.+d+r.o.0.P.g+. ",
". . . . . . . . . m+n+j+o+p+g+O.P.P.0.o.o.d+1+d+G.F.o.o.Q.q+r+. ",
". . . . . . . . . s+t+u+v+k+,+g+O.P.P.0.0.o.o.o.o.0.0.Q.P.w+x+. ",
". . . . . . . . . . y+z+A+v+`.,+g+O.P.P.Q.0.0.0.0.Q.P.P.O.B+C+. ",
". . . . . . . . . . D+E+F+A+v+`.,+g+O.G+H+I+J+K+H+P.O.O.g+L+M+. ",
". . . . . . . . . . $ N+O+F+A+v+`.,+,+g+O.O.O.O.O.g+g+,+r+P+Q+. ",
". . . . . . . . . . . R+S+T+U+A+v+k+`.,+,+g+g+g+g+,+`.V+W+X+Y+. ",
". . . . . . . . . . . Z+`+ @.@U+j+A++@+@@@`.`.`.`.v+#@$@%@. . . ",
". . . . . . . . . . . . . &@*@=@z+-@j+j+j+A+A+;@>@,@'@R+. . . . ",
". . . . . . . . . . . . . . . )@!@E+~@{@]@]@T+^@/@M+Y+. . . . . ",
". . . . . . . . . . . . . . . . . . . . . . . . . . . . . . . . "};
