/* XPM */
static char * TStorusRed_xpm[] = {
"32 32 9 1",
" 	c None",
".	c #C1C1C1",
"+	c #B0A5AC",
"@	c #BA1519",
"#	c #E20B0B",
"$	c #DA313D",
"%	c #E28181",
"&	c #774246",
"*	c #6D181A",
"................................",
"................................",
"................................",
"................................",
"................................",
"................................",
"................................",
"...........++@###@$$+...........",
".........+@###$%#####$$.........",
"........@###$%%$#######$+.......",
".......@########@@@@@@@#@+......",
"......&@#####@@@******@@#@+.....",
".....+@###@@@***&******@@#$.....",
".....&@##@@**&&&&&&&***@@#$.....",
".....*@##@*&+++.++&&&**@###+....",
".....*@##@@+......&&&*@####+....",
"....+*@@##@@+.....+&*@@####+....",
"....&*@@####@@$+++@@######@.....",
"...+&&*@@#################@.....",
"...+&&*@@########$%%%%###@+.....",
"...+&&&*@@######$%%%$###@+......",
"....&&&&**@@##########@@&.......",
".....&&&&**@@@@#####@@*+........",
"......&&&&&***@@@@@@*++.........",
"........+&&&&&&&*&++............",
"...........+++++................",
"................................",
"................................",
"................................",
"................................",
"................................",
"................................"};
