/* XPM */
static char * TSconvertToNURBSOptions_xpm[] = {
"32 32 305 2",
"  	c None",
". 	c #B8B8B8",
"+ 	c #AEB3B7",
"@ 	c #A7B1B8",
"# 	c #9EAEB9",
"$ 	c #B0B0B0",
"% 	c #8EADC1",
"& 	c #75A4C2",
"* 	c #6EA2C3",
"= 	c #A8A8A8",
"- 	c #9FA9B0",
"; 	c #96ABB9",
"> 	c #85AAC2",
", 	c #6EACC3",
"' 	c #5DA1CC",
") 	c #4598CC",
"! 	c #2E94D5",
"~ 	c #66A8C3",
"{ 	c #909AA1",
"] 	c #808F99",
"^ 	c #6E9DBB",
"/ 	c #559ECC",
"( 	c #3D9FCC",
"_ 	c #258CCE",
": 	c #3BB2F0",
"< 	c #2891D3",
"[ 	c #B7B3AE",
"} 	c #B0A19F",
"| 	c #A26967",
"1 	c #634F44",
"2 	c #3C4C35",
"3 	c #267389",
"4 	c #178BB6",
"5 	c #55A9CC",
"6 	c #B0AAA7",
"7 	c #AA7F7F",
"8 	c #AA5551",
"9 	c #A72926",
"0 	c #A60F0F",
"a 	c #79261E",
"b 	c #2D3C33",
"c 	c #1E5E79",
"d 	c #0F88C6",
"e 	c #078ACE",
"f 	c #1E89CD",
"g 	c #97241E",
"h 	c #A70700",
"i 	c #B60800",
"j 	c #BE0800",
"k 	c #BE0000",
"l 	c #B60B07",
"m 	c #2D443D",
"n 	c #1E4753",
"o 	c #0775AE",
"p 	c #45A1CC",
"q 	c #A27777",
"r 	c #91261E",
"s 	c #9F0300",
"t 	c #AF0400",
"u 	c #B60400",
"v 	c #C60400",
"w 	c #CE0000",
"x 	c #793226",
"y 	c #1E424B",
"z 	c #0F6288",
"A 	c #178BD4",
"B 	c #7DA7C2",
"C 	c #8EB2B9",
"D 	c #008BE4",
"E 	c #A98B88",
"F 	c #974844",
"G 	c #970700",
"H 	c #A70000",
"I 	c #CE0900",
"J 	c #D60500",
"K 	c #BE0C07",
"L 	c #2D442E",
"M 	c #1E3E53",
"N 	c #076DAE",
"O 	c #35A2D4",
"P 	c #0784D4",
"Q 	c #904F4B",
"R 	c #90120F",
"S 	c #DC0C07",
"T 	c #E50E0E",
"U 	c #EB1010",
"V 	c #DC0707",
"W 	c #D60000",
"X 	c #982017",
"Y 	c #165279",
"Z 	c #892628",
"` 	c #900E07",
" .	c #F62B43",
"..	c #F63345",
"+.	c #F61B25",
"@.	c #901C17",
"#.	c #1E3D43",
"$.	c #0087CE",
"%.	c #B6AFB1",
"&.	c #88140F",
"*.	c #8F0300",
"=.	c #DD161B",
"-.	c #EE2B47",
";.	c #F65183",
">.	c #F6334E",
",.	c #E5130E",
"'.	c #81251E",
").	c #0F70AE",
"!.	c #92A1AB",
"~.	c #810300",
"{.	c #D40707",
"].	c #E31821",
"^.	c #F63B51",
"/.	c #E62336",
"(.	c #792A26",
"_.	c #253B3C",
":.	c #0F7CAE",
"<.	c #46839F",
"[.	c #88A0AD",
"}.	c #AEAFB5",
"|.	c #800F0F",
"1.	c #870600",
"2.	c #AF0000",
"3.	c #DD1B16",
"4.	c #1E3543",
"5.	c #173A50",
"6.	c #163A51",
"7.	c #1F323F",
"8.	c #2F2A31",
"9.	c #262933",
"0.	c #0879B3",
"a.	c #2D76AE",
"b.	c #81A2AE",
"c.	c #B1B2B1",
"d.	c #812826",
"e.	c #880A07",
"f.	c #970000",
"g.	c #BE130F",
"h.	c #11536C",
"i.	c #085075",
"j.	c #075480",
"k.	c #06507B",
"l.	c #064F79",
"m.	c #075D94",
"n.	c #076098",
"o.	c #0975BA",
"p.	c #0A7AC1",
"q.	c #0982C0",
"r.	c #0983C2",
"s.	c #4285A7",
"t.	c #91A6AC",
"u.	c #894C4E",
"v.	c #811916",
"w.	c #9F1D14",
"x.	c #195F76",
"y.	c #064B77",
"z.	c #064E77",
"A.	c #065481",
"B.	c #07639E",
"C.	c #0763A4",
"D.	c #0977B0",
"E.	c #0A78B7",
"F.	c #0976C2",
"G.	c #097FCA",
"H.	c #1071A9",
"I.	c #4983A8",
"J.	c #A0A8B5",
"K.	c #998082",
"L.	c #80403D",
"M.	c #0A4F73",
"N.	c #065887",
"O.	c #0868A5",
"P.	c #086CAB",
"Q.	c #086DB3",
"R.	c #1286CF",
"S.	c #128FCF",
"T.	c #1081BB",
"U.	c #106FAB",
"V.	c #85A3AE",
"W.	c #926969",
"X.	c #791619",
"Y.	c #8D2416",
"Z.	c #06527D",
"`.	c #06608F",
" +	c #07609E",
".+	c #1B9BDE",
"++	c #25ABE9",
"@+	c #1FA5EA",
"#+	c #087CC6",
"$+	c #0880BE",
"%+	c #0978B8",
"&+	c #1076AB",
"*+	c #6292AD",
"=+	c #A8A29F",
"-+	c #906366",
";+	c #000000",
">+	c #5B3F2D",
",+	c #064D7B",
"'+	c #075E96",
")+	c #0B78B6",
"!+	c #1A95D5",
"~+	c #35BDEA",
"{+	c #58DDED",
"]+	c #51DCEC",
"^+	c #35BEEA",
"/+	c #1997D8",
"(+	c #427DA7",
"_+	c #80070A",
":+	c #0B4F6E",
"<+	c #064C79",
"[+	c #096092",
"}+	c #065385",
"|+	c #065180",
"1+	c #065485",
"2+	c #075C88",
"3+	c #1892D1",
"4+	c #2DADE2",
"5+	c #4BD4E4",
"6+	c #60EDEC",
"7+	c #43C2EC",
"8+	c #0988CA",
"9+	c #166DA5",
"0+	c #A29D9A",
"a+	c #A19690",
"b+	c #0D4E70",
"c+	c #07507E",
"d+	c #065F8D",
"e+	c #043E64",
"f+	c #1286C9",
"g+	c #198ED8",
"h+	c #076A9E",
"i+	c #8F8F8F",
"j+	c #7A7A7A",
"k+	c #054D7F",
"l+	c #054872",
"m+	c #07619F",
"n+	c #062231",
"o+	c #0874AC",
"p+	c #115176",
"q+	c #033C5F",
"r+	c #053E63",
"s+	c #05456E",
"t+	c #064E7C",
"u+	c #065480",
"v+	c #246A97",
"w+	c #1E5879",
"x+	c #145479",
"y+	c #043A5F",
"z+	c #044669",
"A+	c #5082A1",
"B+	c #647B8D",
"C+	c #1E4A66",
"D+	c #04385A",
"E+	c #0B436A",
"F+	c #043554",
"G+	c #04405F",
"H+	c #096EA8",
"I+	c #075C92",
"J+	c #8FA0A6",
"K+	c #757575",
"L+	c #71818D",
"M+	c #385E7B",
"N+	c #0D4C78",
"O+	c #054B78",
"P+	c #05557F",
"Q+	c #184664",
"R+	c #6A8A97",
"S+	c #A7AEAE",
"T+	c #9FA6A6",
"U+	c #6B828E",
"V+	c #295C7C",
"W+	c #06507F",
"X+	c #065587",
"Y+	c #06578F",
"Z+	c #0E5B87",
"`+	c #57829A",
" @	c #A0A7AD",
".@	c #AEAEB5",
"+@	c #AEB5B4",
"@@	c #989FA5",
"#@	c #6C828D",
"$@	c #315D74",
"%@	c #054D7A",
"&@	c #075684",
"*@	c #075A8E",
"=@	c #1C5C89",
"-@	c #56798B",
";@	c #909FA5",
">@	c #A7A7AE",
",@	c #819096",
"'@	c #476B7C",
")@	c #225473",
"!@	c #134D72",
"~@	c #0D5380",
"{@	c #1B5582",
"]@	c #3A6A89",
"^@	c #72899D",
"/@	c #9F9FA6",
"(@	c #738490",
"_@	c #4E7385",
":@	c #315D7C",
"<@	c #1B557A",
"[@	c #0D4D72",
"}@	c #406B83",
"|@	c #5E7A8B",
". . . . . + + @ # # . . . . . . . . . . . . . . . . . . . . . . ",
". . + $ + + @ # % & * # . . . . . . . . . . . . . . . . . . . . ",
". . . $ = - ; > , ' ) ! ~ + . . . . . . . . . . . . . . . . . . ",
". . . . $ { ] ^ / ( ! _ : < % . . . . . . . . . . . . . . . . . ",
". . . . [ } | 1 2 3 4 : : : : 5 + . . . . . . . . . . . . . . . ",
". . . 6 7 8 9 0 a b c d e : : : f % . . . . . . . . . . . . . . ",
". . 6 | g h i j k l m n o : : : : : p @ . . . . . . . . . . . . ",
". $ q r s t u k v w v x y z : : : : : A B . . . C D . . . . . . ",
". E F G H u k v I w J J K L M N : : : : : O ; : P D . . . . . . ",
". Q R h t u k v w S T U V W X y Y : : : : : : : : D . . . . . . ",
". Z ` h t u k v J U  ...+.S w @.#.$.: : : : : : : D %.. . . . . ",
". &.*.h t u k v J =.-.;.>.,.'.#.).: : : : : : : : D !.. . . . . ",
". ~.*.s t u k v w {.].^./.(._.:.: : : : : : : : : D <.[.}.. . . ",
". |.1.s H 2.j k v I {.3.4.4.4.5.6.4.7.8.8.8.9.4.4.4.0.a.b.c.. . ",
". d.e.f.s t u j k v w g.h.i.j.k.l.m.n.o.p.q.r.r.r.r.o.0.s.t.}.. ",
". u.v.*.f.H t u u k w.x.y.z.A.B.C.D.E.F.r.r.G.G.G.r.r.o.H.I.J.. ",
". K.L.~.*.s H H t u M.y.z.N.O.P.Q.o.o.r.G.R.S.S.R.T.q.o.0.U.V.. ",
". 6 W.X.~.*.f.s H Y.z.Z.`. +O.P.Q.o.o.G.R..+++@+.+R.#+$+%+&+*+. ",
". . =+-+;+;+1.*.G >+z.,+'+ +O.P.0.)+o.G.!+~+{+]+^+/+G.r.o.&+(+. ",
". . . ;+;+;+;+_+~.:+z.<+[+}+|+1+2+o.o.r.3+4+5+6+7+.+8+r.o.P.9+. ",
". . ;+;+0+a+;+;+d.b+y.c+d+e+;+P.Q.;+r.r.r.f+.+;+^+g+G.F.o.P.h+. ",
". . ;+i+. . . ;+j+;+;+;+k+;+;+;+l+m+r.;+;+;+r.;+n+;+o+;+;+;+h+. ",
". . ;+. . . . ;+j+;+p+q+;+r+;+s+l+;+r.;+r.;+r.;+r.;+t+;+Q.u+v+. ",
". . ;+. . . . ;+j+;+w+x+;+y+;+z+s+;+r.;+r.;+r.;+o.;+0.;+;+;+A+. ",
". . ;+;+. . ;+;+j+;+B+C+;+D+;+e+z+;+r.;+r.;+r.;+0.;+n.n.O.;+q.. ",
". . . ;+;+;+;+;+j+;+;+;+E+F+;+G+e+;+r.;+;+;+r.;+H+;+I+;+;+;+J+. ",
". . . . ;+;+. . j+;+K+L+M+N+F+O+P+r.r.r.r.r.r.r.r.r.h+}+Q+R+S+. ",
". . . . . . . . j+;+. T+U+V+l+W+X+Y+`.'+'+h+h+h+h+'+`.Z+`+ @.@. ",
". . . . . . . . . ;+. +@@@#@$@l+%@W+&@&@*@`.`.`.`.X+=@-@;@. . . ",
". . . . . . . . . ;+. . . >@,@'@)@!@%@%@%@W+W+~@{@]@^@T+. . . . ",
". . . . . . . . . . . . . . . /@(@_@:@<@[@[@V+}@|@J+.@. . . . . ",
". . . . . . . . . . . . . . . . . . . . . . . . . . . . . . . . "};
