/* XPM */
static char *uvIsolateSelect[] = {
/* width height num_colors chars_per_pixel */
"    24    24        8            1",
/* colors */
"` c #143494",
". c #94969c",
"# c #c4c2c4",
"a c #1c3a94",
"b c #1c3694",
"c c #cccacc",
"d c #9c9e9c",
"e c #9c9a9c",
/* pixels */
"########c#c#############",
"########################",
"###```````````..d..d..##",
"###```````````.d.de.dd##",
"###``#######``######.e##",
"###``#######``######d.##",
"###``#######`a######.d##",
"###``#######`a######..##",
"###``#######``######.d##",
"###``#######``######.d##",
"###``#######``######..##",
"###```````````......dd##",
"###```````````...d.d..##",
"###..#######..######dd##",
"###..#######..######..##",
"###..#######.e######.d##",
"###.d####d##..######.d##",
"###..#######.d######..##",
"###.d#######.d######.d##",
"###..#######.d######..##",
"###.d.......d.......d.##",
"###.d.d.d.dd.dd.d.d.d.##",
"########################",
"########################"
};
