/* XPM */
static char *uvSnapshot[] = {
/* width height num_colors chars_per_pixel */
"    24    24        8            1",
/* colors */
"` c #c1c1c1",
". c #000000",
"# c #ffffff",
"a c #000000",
"b c #000000",
"c c #000000",
"d c #000000",
"e c #000000",
/* pixels */
"````````````````````````",
"````````````````````````",
"``....................``",
"``.##################.``",
"``.##################.``",
"``.##......##......##.``",
"``.##......##......##.``",
"``.##......##......##.``",
"``.##......##......##.``",
"``.##......##......##.``",
"``.##......##......##.``",
"``.##################.``",
"``.##################.``",
"``.##......##......##.``",
"``.##......##......##.``",
"``.##......##......##.``",
"``.##......##......##.``",
"``.##......##......##.``",
"``.##......##......##.``",
"``.##################.``",
"``.##################.``",
"``....................``",
"````````````````````````",
"````````````````````````"
};
